<svg width="254" height="257" viewBox="0 0 254 257" fill="none" xmlns="http://www.w3.org/2000/svg">
  <path d="M223.017 219.38C217.847 224.819 212.956 228.327 209.091 231.098C163.665 263.676 109.912 254.179 98.4884 251.861C81.6185 248.436 49.0103 241.816 25.4352 214.107C-10.232 172.184 -4.67849 106.136 22.9883 62.5377C28.0487 54.5624 54.7805 10.3 109.111 3.20145C141.992 -1.09478 180.321 7.5699 208.077 30.812C266.339 79.5992 262.192 178.159 223.017 219.38Z" fill="url(#paint0_linear)"/>
  <path d="M16.7959 24.706C16.5562 23.6866 17.9906 23.0091 18.8687 23.7213C27.7876 30.9497 49.2166 52.5954 43.8763 90.424C37.1757 137.885 48.6312 155.203 62.8904 165.767C62.8904 165.767 43.3082 160.799 30.9874 143.226C0.738291 100.081 21.055 42.8263 16.7959 24.706Z" fill="#91B3FA"/>
  <path d="M23.5835 39.5302C24.6995 44.8138 25.6938 50.113 26.4622 55.4369C27.2626 60.7562 27.8764 66.0938 28.2963 71.4405C28.6924 76.7882 28.9723 82.1413 28.9879 87.4963C29.0318 92.8513 28.8086 98.2017 28.5634 103.573C28.353 108.943 28.1051 114.351 28.4985 119.797C28.8854 125.233 30.0298 130.716 32.3011 135.856C32.8692 137.137 33.4665 138.414 34.1443 139.647C34.7965 140.892 35.5128 142.113 36.2537 143.323C37.7503 145.735 39.4353 148.066 41.3132 150.278C45.082 154.695 49.6274 158.614 54.6339 161.93C55.1608 162.279 55.9164 162.193 56.3207 161.738C56.7177 161.292 56.629 160.655 56.1268 160.302L56.1231 160.299C54.9321 159.462 53.753 158.616 52.6214 157.726C52.0479 157.289 51.4972 156.831 50.9374 156.382C50.3977 155.916 49.8369 155.467 49.3146 154.986C47.1887 153.094 45.2183 151.077 43.4318 148.943C39.8368 144.695 36.9599 139.962 34.7801 135.055C33.7217 132.59 32.8756 130.062 32.2581 127.487C31.6425 124.912 31.2555 122.29 31.0415 119.649C30.6125 114.363 30.8064 109.008 30.972 103.637C31.1293 98.2657 31.2455 92.8659 31.1037 87.4716C31.0415 84.7745 30.9226 82.0783 30.7478 79.3857C30.6692 78.039 30.5612 76.694 30.4551 75.3482C30.3344 74.0042 30.2054 72.6602 30.0636 71.318C29.4846 65.9494 28.7162 60.598 27.7529 55.276C26.7604 49.9576 25.6042 44.6639 24.2138 39.4168C24.1735 39.2668 24.0006 39.1727 23.8268 39.2074C23.6594 39.2422 23.5524 39.3848 23.5835 39.5302Z" fill="white"/>
  <path d="M39.8989 138.308C38.8058 139.468 36.8821 139.135 36.2244 137.683C32.5946 129.674 24.3811 106.101 37.9459 78.9428C49.4014 56.0098 53.4327 42.4866 54.8369 36.2201C55.1342 34.8953 56.9509 34.7188 57.4988 35.9614C63.5499 49.6674 79.5243 96.2877 39.8989 138.308Z" fill="#BDD0FB"/>
  <path d="M37.9125 137.464C37.8732 137.471 37.8338 137.474 37.7927 137.473C37.4487 137.468 37.1743 137.185 37.1798 136.842C37.1862 136.452 37.9445 97.5208 52.4315 64.9146C52.5715 64.601 52.9383 64.4593 53.253 64.5983C53.5667 64.7382 53.7085 65.1057 53.5695 65.4193C39.1877 97.7878 38.4312 136.473 38.4248 136.86C38.4202 137.163 38.1997 137.412 37.9125 137.464Z" fill="white"/>
  <path d="M137.722 61.4825C136.915 61.4825 136.249 60.8406 136.224 60.0288C136.207 59.4838 135.861 46.5248 139.678 32.6861C144.82 14.0466 155.131 3.0002 169.498 0.739176C176.537 -0.368938 182.812 1.29232 188.144 5.6754C205.525 19.9639 207.178 58.2998 207.24 59.9245C207.272 60.752 206.626 61.4477 205.798 61.4797C204.964 61.4989 204.274 60.8662 204.242 60.0388C204.228 59.6539 202.578 21.4194 186.235 7.98855C181.595 4.17506 176.121 2.73049 169.965 3.70055C138.031 8.72455 139.207 59.4244 139.222 59.9364C139.248 60.7638 138.597 61.455 137.769 61.4806C137.753 61.4825 137.738 61.4825 137.722 61.4825Z" fill="url(#paint1_linear)"/>
  <path d="M74.5386 225.635L100.314 47.9839L197.139 46.3564L228.346 235.508H82.9233C77.7503 235.508 73.784 230.838 74.5386 225.635Z" fill="url(#paint2_linear)"/>
  <path d="M215.943 47.9849L197.139 46.3574L228.346 235.509H247.015C250.8 235.509 253.628 231.973 252.857 228.205L215.943 47.9849Z" fill="url(#paint3_linear)"/>
  <path d="M184.934 61.0762C184.132 61.0762 183.467 60.4417 183.436 59.6344C183.421 59.2495 181.771 21.015 165.429 7.58412C160.788 3.77064 155.315 2.32607 149.158 3.29612C117.249 8.31647 118.4 59.02 118.416 59.532C118.44 60.3594 117.79 61.0506 116.961 61.0753C116.124 61.11 115.442 60.4499 115.416 59.6225C115.4 59.0776 115.053 46.1185 118.87 32.2799C124.011 13.6403 134.323 2.59395 148.691 0.332926C155.73 -0.775188 162.004 0.886068 167.336 5.26915C184.717 19.5576 186.37 57.8936 186.431 59.5183C186.463 60.3457 185.818 61.0415 184.99 61.0735C184.973 61.0762 184.953 61.0762 184.934 61.0762Z" fill="url(#paint4_linear)"/>
  <path d="M21.9414 92.1478C21.9414 85.6976 27.1729 80.4688 33.6265 80.4688H132.995C138.477 80.4688 142.998 84.7622 143.276 90.2352L150.611 234.227C150.828 238.51 147.457 242.121 143.167 242.2L29.2786 244.269C25.2482 244.342 21.9414 241.096 21.9414 237.068V92.1478Z" fill="url(#paint5_linear)"/>
  <path d="M45.9232 241.821C45.9232 241.821 45.9204 241.821 45.9195 241.821L33.1761 241.656C28.9152 241.601 25.4482 238.091 25.4482 233.832V214.602C25.4482 214.452 25.5699 214.33 25.7199 214.33C25.8699 214.33 25.9916 214.452 25.9916 214.602V233.832C25.9916 237.795 29.217 241.061 33.1825 241.112L45.9259 241.277C46.0759 241.279 46.1967 241.402 46.1949 241.552C46.193 241.702 46.0723 241.821 45.9232 241.821Z" fill="#91B3FA"/>
  <path d="M25.7209 208.916C25.5709 208.916 25.4492 208.794 25.4492 208.644V205.53C25.4492 205.38 25.5709 205.259 25.7209 205.259C25.8709 205.259 25.9926 205.38 25.9926 205.53V208.644C25.9926 208.794 25.8709 208.916 25.7209 208.916Z" fill="#91B3FA"/>
  <path d="M30.0831 82.6856C30.0712 80.622 31.887 79.0248 33.9324 79.3018C47.5018 81.1414 94.1643 86.8291 132.745 83.8696C134.504 83.7343 136.032 85.0673 136.125 86.8282L143.816 231.462C143.921 233.445 142.407 235.141 140.423 235.258C124.198 236.218 57.3738 239.928 33.5381 237.433C32.0873 237.281 30.9859 236.061 30.9777 234.602L30.0831 82.6856Z" fill="url(#paint6_linear)"/>
  <path d="M31.6807 86.3094C31.6688 84.3236 33.416 82.7867 35.3855 83.0536C48.4445 84.8237 93.3497 90.2975 130.477 87.4495C132.17 87.3197 133.639 88.6015 133.73 90.2966L141.131 229.485C141.233 231.393 139.774 233.025 137.865 233.138C122.25 234.062 57.9424 237.632 35.0049 235.231C33.609 235.085 32.5488 233.91 32.5406 232.507L31.6807 86.3094Z" fill="#BDD0FB"/>
  <path opacity="0.52" d="M43.7698 97.0422L45.1566 126.883C45.2023 127.876 46.0046 128.665 46.9989 128.692C52.5286 128.847 69.758 129.268 79.4864 128.761C80.5868 128.703 81.4577 127.813 81.4943 126.713C81.68 121.116 82.0861 104.828 80.81 98.0196C80.6042 96.9197 79.6584 96.1142 78.5396 96.0749L45.8573 94.933C44.6782 94.8909 43.7149 95.8646 43.7698 97.0422Z" fill="white"/>
  <g opacity="0.6">
  <path opacity="0.6" d="M126.286 99.6392C126.514 99.6392 126.695 99.4527 126.689 99.225L126.654 98.0511C126.648 97.8234 126.456 97.6342 126.228 97.6296L88.8894 96.9649C88.6616 96.9612 88.5372 97.1331 88.6131 97.348L89.2827 99.2488C89.3586 99.4637 89.6065 99.6392 89.8343 99.6392H126.286Z" fill="white"/>
  </g>
  <g opacity="0.6">
  <path opacity="0.6" d="M88.8894 104.326C88.6616 104.323 88.5372 104.494 88.6131 104.709L89.2827 106.61C89.3586 106.825 89.6065 107.001 89.8343 107.001H126.285C126.513 107.001 126.694 106.814 126.688 106.586L126.653 105.412C126.647 105.185 126.455 104.995 126.227 104.991L88.8894 104.326Z" fill="white"/>
  </g>
  <g opacity="0.6">
  <path opacity="0.6" d="M88.8894 112.025C88.6616 112.022 88.5372 112.194 88.6131 112.409L89.2827 114.309C89.3586 114.524 89.6065 114.7 89.8343 114.7H126.285C126.513 114.7 126.694 114.513 126.688 114.286L126.653 113.112C126.647 112.884 126.455 112.695 126.227 112.69L88.8894 112.025Z" fill="white"/>
  </g>
  <g opacity="0.6">
  <path opacity="0.6" d="M129.767 138.064C129.994 138.064 130.168 137.878 130.154 137.65L130.076 136.475C130.061 136.247 129.862 136.06 129.634 136.058L44.174 135.385C43.9462 135.383 43.8758 135.527 44.0176 135.706L45.6376 137.74C45.7794 137.918 46.0822 138.064 46.3099 138.064H129.767Z" fill="white"/>
  </g>
  <g opacity="0.6">
  <path opacity="0.6" d="M44.175 140.947C43.9472 140.945 43.8768 141.09 44.0186 141.268L45.6386 143.302C45.7804 143.481 46.0831 143.626 46.3109 143.626H129.767C129.994 143.626 130.168 143.441 130.154 143.213L130.076 142.037C130.061 141.809 129.862 141.622 129.634 141.621L44.175 140.947Z" fill="white"/>
  </g>
  <path opacity="0.6" d="M44.5454 150.242C46.5643 150.087 50.344 150.015 52.4251 149.987C53.3069 149.975 54.0799 150.571 54.2866 151.428C54.6882 153.092 55.2425 155.982 55.1721 159.043C55.1511 159.96 54.4 160.692 53.4825 160.683L45.8032 160.6C44.8592 160.59 44.0752 159.869 43.9865 158.929L43.3114 151.709C43.2428 150.961 43.7971 150.299 44.5454 150.242Z" fill="white"/>
  <g opacity="0.6">
  <path opacity="0.6" d="M57.9974 153.175C57.7696 153.166 57.6113 153.342 57.6452 153.567L58.0541 156.287C58.0879 156.512 58.302 156.697 58.5298 156.697H78.68C78.9077 156.697 79.0916 156.51 79.0889 156.283L79.066 154.469C79.0632 154.241 78.8748 154.047 78.647 154.037L57.9974 153.175Z" fill="white"/>
  </g>
  <path opacity="0.6" d="M86.3802 150.242C88.3991 150.087 92.1798 150.015 94.2599 149.987C95.1417 149.975 95.9147 150.571 96.1214 151.428C96.523 153.092 97.0774 155.982 97.0069 159.043C96.9859 159.96 96.2349 160.692 95.3174 160.683L87.638 160.6C86.694 160.59 85.91 159.869 85.8213 158.929L85.1462 151.709C85.0785 150.961 85.632 150.299 86.3802 150.242Z" fill="white"/>
  <g opacity="0.6">
  <path opacity="0.6" d="M99.8333 153.175C99.6055 153.166 99.4473 153.342 99.4811 153.567L99.89 156.287C99.9239 156.512 100.138 156.697 100.366 156.697H120.516C120.744 156.697 120.928 156.51 120.925 156.283L120.902 154.469C120.899 154.241 120.711 154.047 120.483 154.037L99.8333 153.175Z" fill="white"/>
  </g>
  <g opacity="0.6">
  <path opacity="0.6" d="M42.2429 174.943C42.5064 175.721 43.412 176.26 44.4438 176.254L128.512 175.695C129.464 175.689 130.224 175.077 130.204 174.336C130.184 173.616 129.431 173.039 128.506 173.035L44.4347 172.736C42.95 172.731 41.8642 173.825 42.2429 174.943Z" fill="white"/>
  </g>
  <g opacity="0.6">
  <path opacity="0.6" d="M42.2429 190.123C42.5064 190.9 43.412 191.44 44.4438 191.433L128.512 190.875C129.464 190.868 130.224 190.257 130.204 189.516C130.184 188.796 129.431 188.219 128.506 188.215L44.4347 187.916C42.95 187.911 41.8642 189.004 42.2429 190.123Z" fill="white"/>
  </g>
  <g opacity="0.6">
  <path opacity="0.6" d="M42.2429 205.303C42.5064 206.08 43.412 206.619 44.4438 206.613L128.512 206.054C129.464 206.048 130.224 205.436 130.204 204.696C130.184 203.975 129.431 203.398 128.506 203.395L44.4347 203.096C42.95 203.091 41.8642 204.185 42.2429 205.303Z" fill="white"/>
  </g>
  <g opacity="0.6">
  <path opacity="0.6" d="M42.2429 220.482C42.5064 221.26 43.412 221.799 44.4438 221.793L128.512 221.234C129.464 221.228 130.224 220.616 130.204 219.875C130.184 219.155 129.431 218.578 128.506 218.574L44.4347 218.275C42.95 218.27 41.8642 219.364 42.2429 220.482Z" fill="white"/>
  </g>
  <path d="M76.9616 103.164C76.7969 102.962 76.539 102.878 76.2645 102.884L51.321 103.408L50.6907 101.407C50.6029 101.128 50.3413 100.95 50.044 100.957L46.6191 101.047C46.2523 101.057 45.9541 101.312 45.9541 101.678C45.9541 102.044 46.2514 102.285 46.6191 102.276L49.5454 102.206L54.841 119.12C54.9297 119.404 55.1977 119.6 55.5005 119.604L73.008 119.839C73.4187 119.845 73.7526 119.587 73.7526 119.198C73.7526 118.81 73.4187 118.544 73.008 118.54L56.0109 118.357L54.647 113.966L73.3254 113.994C73.7078 113.995 74.0453 113.744 74.1524 113.398L77.1006 103.871C77.1775 103.623 77.1262 103.367 76.9616 103.164Z" fill="#91B3FA"/>
  <path d="M58.0632 120.649C56.6224 120.627 55.457 121.747 55.457 123.147C55.457 124.546 56.6224 125.716 58.0632 125.753C59.5121 125.792 60.6977 124.671 60.6977 123.256C60.6977 121.841 59.5121 120.672 58.0632 120.649ZM58.0632 124.392C57.3899 124.376 56.8438 123.83 56.8438 123.175C56.8438 122.519 57.3899 121.997 58.0632 122.009C58.7383 122.022 59.2889 122.568 59.2889 123.226C59.2889 123.885 58.7383 124.408 58.0632 124.392Z" fill="#91B3FA"/>
  <path d="M69.7332 120.829C68.2211 120.806 66.998 121.953 66.998 123.388C66.998 124.821 68.2211 126.02 69.7332 126.06C71.2544 126.1 72.4994 124.953 72.4994 123.503C72.4994 122.053 71.2544 120.853 69.7332 120.829ZM69.7332 124.665C69.0261 124.648 68.4534 124.089 68.4534 123.418C68.4534 122.747 69.027 122.211 69.7332 122.225C70.4421 122.237 71.0202 122.797 71.0202 123.472C71.0202 124.147 70.4421 124.681 69.7332 124.665Z" fill="#91B3FA"/>
  <path d="M89.4738 60.8367C85.8843 58.3407 82.7632 58.3901 80.5669 59.0383C78.5627 59.6289 77.2637 61.5635 77.454 63.6435L78.4017 73.9795L89.676 74.9798C89.676 74.9798 96.5128 65.7309 89.4738 60.8367ZM84.515 69.1759C82.9626 69.1759 81.7039 67.9178 81.7039 66.3663C81.7039 64.8147 82.9626 63.5567 84.515 63.5567C86.0673 63.5567 87.326 64.8147 87.326 66.3663C87.3269 67.9178 86.0682 69.1759 84.515 69.1759Z" fill="url(#paint7_linear)"/>
  <path d="M79.5282 69.6309C79.3891 69.6309 79.2702 69.5248 79.2574 69.384L79.1065 67.7383C79.0928 67.5883 79.2025 67.4567 79.3526 67.443C79.5053 67.4283 79.6343 67.539 79.648 67.6889L79.799 69.3346C79.8127 69.4846 79.7029 69.6162 79.5529 69.6299C79.5447 69.6309 79.5364 69.6309 79.5282 69.6309ZM79.2318 66.4053C79.0928 66.4053 78.9738 66.2992 78.961 66.1584L78.8467 64.9086C78.6647 62.9273 79.9124 61.0823 81.8123 60.5218C83.1579 60.125 84.5447 60.0683 85.9333 60.3527C86.0806 60.3829 86.1757 60.5264 86.1455 60.6736C86.1154 60.8208 85.9727 60.9141 85.8245 60.8857C84.5237 60.6197 83.2265 60.6727 81.9669 61.0439C80.3149 61.5312 79.2309 63.1358 79.3891 64.8592L79.5035 66.109C79.5172 66.259 79.4074 66.3906 79.2574 66.4043C79.2492 66.4053 79.24 66.4053 79.2318 66.4053Z" fill="#91B3FA"/>
  <path d="M63.0137 80.6597V75.4628C63.0137 73.669 64.5011 72.2318 66.2949 72.2939L102.143 73.5218C103.734 73.5767 105.023 74.8311 105.118 76.4192L105.417 81.413L63.0137 80.6597Z" fill="url(#paint8_linear)"/>
  <path d="M76.3804 74.2511H74.8391C74.689 74.2511 74.5674 74.1295 74.5674 73.9795C74.5674 73.8296 74.689 73.708 74.8391 73.708H76.3804C76.5304 73.708 76.6521 73.8296 76.6521 73.9795C76.653 74.1295 76.5304 74.2511 76.3804 74.2511Z" fill="#91B3FA"/>
  <path d="M64.9543 79.0273C64.8043 79.0273 64.6826 78.9057 64.6826 78.7558V76.6538C64.6826 75.0292 66.0044 73.708 67.63 73.708H73.2978C73.4478 73.708 73.5695 73.8296 73.5695 73.9796C73.5695 74.1295 73.4478 74.2511 73.2978 74.2511H67.63C66.3045 74.2511 65.2269 75.329 65.2269 76.6529V78.7549C65.226 78.9057 65.1043 79.0273 64.9543 79.0273Z" fill="#91B3FA"/>
  <path d="M48.4068 81.9713C48.4937 80.172 49.9783 78.7567 51.7804 78.7567L114.468 78.7549C116.722 78.7549 118.649 80.3759 119.033 82.5958L119.086 82.9021C119.507 85.3332 117.634 87.5576 115.166 87.5576H50.8528C49.3755 87.5576 48.1982 86.3224 48.2686 84.8477L48.4068 81.9713Z" fill="url(#paint9_linear)"/>
  <g opacity="0.3">
  <path opacity="0.3" d="M181.125 170.292C180.66 170.292 180.261 169.941 180.212 169.469C180.104 168.437 180.039 167.384 180.019 166.341C180.009 165.834 180.413 165.414 180.921 165.405C180.927 165.405 180.933 165.405 180.939 165.405C181.438 165.405 181.848 165.805 181.857 166.306C181.877 167.298 181.938 168.297 182.04 169.278C182.093 169.783 181.727 170.235 181.222 170.287C181.189 170.291 181.156 170.292 181.125 170.292ZM181.183 162.288C181.148 162.288 181.111 162.286 181.074 162.282C180.57 162.222 180.21 161.765 180.269 161.261C180.392 160.226 180.56 159.186 180.769 158.17C180.871 157.673 181.355 157.354 181.855 157.455C182.352 157.558 182.672 158.043 182.57 158.541C182.371 159.506 182.211 160.494 182.095 161.478C182.04 161.944 181.643 162.288 181.183 162.288ZM183.004 154.496C182.902 154.496 182.798 154.478 182.696 154.443C182.218 154.273 181.968 153.747 182.139 153.269C182.489 152.289 182.885 151.312 183.316 150.365C183.528 149.903 184.073 149.7 184.535 149.911C184.997 150.121 185.2 150.667 184.99 151.128C184.579 152.027 184.203 152.955 183.871 153.886C183.736 154.261 183.382 154.496 183.004 154.496ZM186.524 147.305C186.355 147.305 186.184 147.258 186.031 147.16C185.603 146.888 185.478 146.319 185.751 145.891C186.31 145.014 186.915 144.15 187.548 143.324C187.856 142.922 188.434 142.845 188.837 143.153C189.24 143.461 189.316 144.038 189.008 144.441C188.407 145.226 187.833 146.046 187.301 146.881C187.125 147.155 186.827 147.305 186.524 147.305ZM191.559 141.079C191.322 141.079 191.085 140.987 190.905 140.805C190.548 140.444 190.552 139.863 190.913 139.506C191.653 138.776 192.433 138.068 193.234 137.401C193.624 137.076 194.204 137.129 194.529 137.518C194.853 137.908 194.801 138.487 194.411 138.813C193.649 139.447 192.908 140.12 192.205 140.813C192.026 140.991 191.793 141.079 191.559 141.079ZM197.847 136.121C197.54 136.121 197.24 135.968 197.066 135.688C196.798 135.257 196.93 134.69 197.362 134.423C198.245 133.873 199.164 133.356 200.091 132.883C200.544 132.652 201.097 132.833 201.328 133.284C201.558 133.736 201.378 134.29 200.926 134.52C200.045 134.969 199.173 135.461 198.333 135.983C198.18 136.077 198.013 136.121 197.847 136.121ZM231.532 133.934C231.405 133.934 231.276 133.908 231.153 133.852C230.253 133.443 229.324 133.068 228.391 132.738C227.913 132.569 227.662 132.044 227.831 131.566C228 131.088 228.525 130.838 229.005 131.007C229.987 131.354 230.966 131.749 231.913 132.179C232.375 132.389 232.58 132.934 232.369 133.396C232.216 133.734 231.882 133.934 231.532 133.934ZM205.072 132.683C204.691 132.683 204.334 132.444 204.203 132.063C204.037 131.583 204.293 131.06 204.772 130.894C205.755 130.555 206.766 130.254 207.775 130.001C208.268 129.879 208.767 130.176 208.891 130.668C209.015 131.16 208.715 131.66 208.223 131.784C207.265 132.024 206.305 132.31 205.371 132.631C205.272 132.666 205.172 132.683 205.072 132.683ZM223.915 131.466C223.855 131.466 223.792 131.46 223.731 131.447C222.762 131.25 221.773 131.093 220.789 130.978C220.285 130.92 219.924 130.464 219.983 129.96C220.041 129.456 220.498 129.092 221.002 129.153C222.036 129.274 223.078 129.44 224.097 129.647C224.595 129.749 224.916 130.233 224.815 130.731C224.726 131.165 224.343 131.466 223.915 131.466ZM212.886 130.943C212.422 130.943 212.023 130.593 211.973 130.122C211.919 129.617 212.285 129.164 212.79 129.111C213.823 129 214.875 128.933 215.917 128.912C215.924 128.912 215.93 128.912 215.937 128.912C216.435 128.912 216.845 129.311 216.855 129.812C216.866 130.319 216.463 130.739 215.955 130.75C214.965 130.771 213.966 130.835 212.984 130.939C212.951 130.941 212.918 130.943 212.886 130.943Z" fill="#BDD0FB"/>
  <path opacity="0.3" d="M237.144 137.123C236.962 137.123 236.779 137.07 236.619 136.958C236.231 136.688 235.829 136.421 235.427 136.165C234.998 135.892 234.872 135.324 235.145 134.897C235.417 134.469 235.986 134.342 236.414 134.615C236.837 134.884 237.259 135.164 237.669 135.45C238.086 135.739 238.188 136.312 237.898 136.729C237.721 136.986 237.434 137.123 237.144 137.123Z" fill="#BDD0FB"/>
  </g>
  <g opacity="0.3">
  <path opacity="0.3" d="M252.078 160.828C251.634 160.828 251.243 160.506 251.171 160.054C251.096 159.586 251.01 159.112 250.916 158.645C250.815 158.148 251.136 157.663 251.634 157.562C252.134 157.46 252.617 157.782 252.718 158.279C252.818 158.771 252.908 159.27 252.987 159.762C253.068 160.263 252.726 160.734 252.225 160.815C252.176 160.824 252.126 160.828 252.078 160.828Z" fill="#BDD0FB"/>
  <path opacity="0.3" d="M216.765 202.301C216.343 202.301 215.917 202.293 215.492 202.279C214.984 202.261 214.587 201.836 214.604 201.33C214.62 200.823 215.048 200.424 215.553 200.442C216.537 200.475 217.519 200.469 218.484 200.421C218.992 200.397 219.423 200.787 219.447 201.293C219.472 201.801 219.081 202.231 218.574 202.256C217.978 202.286 217.369 202.301 216.765 202.301ZM210.664 201.785C210.613 201.785 210.56 201.781 210.507 201.771C209.497 201.599 208.481 201.381 207.491 201.125C206.999 200.998 206.704 200.497 206.831 200.006C206.958 199.515 207.461 199.218 207.952 199.347C208.892 199.59 209.856 199.797 210.817 199.961C211.318 200.046 211.654 200.522 211.568 201.022C211.493 201.469 211.104 201.785 210.664 201.785ZM223.379 201.685C222.945 201.685 222.559 201.378 222.477 200.937C222.383 200.437 222.711 199.957 223.211 199.863C224.165 199.684 225.125 199.461 226.064 199.2C226.553 199.065 227.06 199.351 227.195 199.84C227.331 200.33 227.044 200.836 226.555 200.971C225.567 201.246 224.555 201.481 223.551 201.67C223.492 201.681 223.436 201.685 223.379 201.685ZM203.087 199.611C202.97 199.611 202.852 199.588 202.737 199.541C201.79 199.151 200.848 198.716 199.937 198.248C199.486 198.016 199.308 197.461 199.54 197.011C199.773 196.559 200.326 196.382 200.778 196.614C201.643 197.058 202.537 197.472 203.437 197.843C203.907 198.036 204.131 198.573 203.937 199.042C203.791 199.396 203.448 199.611 203.087 199.611ZM230.91 199.381C230.554 199.381 230.216 199.174 230.066 198.827C229.864 198.362 230.078 197.821 230.545 197.62C231.436 197.235 232.323 196.806 233.182 196.346C233.63 196.106 234.187 196.275 234.427 196.722C234.667 197.169 234.499 197.726 234.051 197.965C233.147 198.45 232.214 198.901 231.275 199.306C231.155 199.357 231.032 199.381 230.91 199.381ZM237.753 195.481C237.469 195.481 237.189 195.349 237.009 195.103C236.71 194.692 236.801 194.117 237.212 193.819C237.999 193.247 238.772 192.635 239.509 192C239.893 191.669 240.473 191.712 240.805 192.096C241.136 192.48 241.094 193.06 240.709 193.392C239.934 194.06 239.121 194.704 238.292 195.306C238.129 195.424 237.941 195.481 237.753 195.481ZM243.583 190.183C243.367 190.183 243.15 190.107 242.975 189.952C242.594 189.617 242.558 189.036 242.893 188.656C243.538 187.925 244.159 187.16 244.739 186.381C245.042 185.974 245.617 185.889 246.025 186.193C246.432 186.496 246.517 187.072 246.214 187.478C245.604 188.298 244.95 189.104 244.271 189.873C244.091 190.078 243.837 190.183 243.583 190.183ZM248.117 183.74C247.967 183.74 247.815 183.703 247.676 183.626C247.231 183.382 247.068 182.824 247.313 182.378C247.783 181.525 248.221 180.643 248.615 179.754C248.821 179.291 249.365 179.082 249.828 179.287C250.292 179.493 250.501 180.036 250.295 180.5C249.88 181.435 249.418 182.365 248.924 183.263C248.756 183.568 248.441 183.74 248.117 183.74ZM251.127 176.457C251.043 176.457 250.957 176.445 250.872 176.42C250.384 176.28 250.102 175.771 250.242 175.283C250.511 174.349 250.744 173.393 250.933 172.438C251.032 171.941 251.518 171.618 252.013 171.716C252.511 171.815 252.835 172.298 252.736 172.797C252.537 173.802 252.291 174.809 252.009 175.791C251.893 176.194 251.527 176.457 251.127 176.457ZM252.462 168.695C252.442 168.695 252.424 168.694 252.405 168.693C251.898 168.662 251.512 168.227 251.543 167.721C251.587 167.006 251.609 166.281 251.609 165.566C251.609 165.307 251.606 165.048 251.601 164.791C251.59 164.284 251.992 163.863 252.5 163.852C253.014 163.831 253.427 164.244 253.439 164.751C253.445 165.022 253.449 165.293 253.449 165.566C253.449 166.317 253.426 167.081 253.379 167.832C253.349 168.32 252.944 168.695 252.462 168.695Z" fill="#BDD0FB"/>
  <path opacity="0.3" d="M196.159 195.808C195.976 195.808 195.792 195.754 195.631 195.641C195.224 195.355 194.815 195.055 194.416 194.75C194.012 194.441 193.937 193.865 194.246 193.461C194.555 193.059 195.131 192.982 195.535 193.291C195.914 193.582 196.302 193.866 196.689 194.138C197.104 194.43 197.205 195.003 196.912 195.418C196.732 195.673 196.448 195.808 196.159 195.808Z" fill="#BDD0FB"/>
  </g>
  <path d="M197.399 185.151C197.515 185.293 197.708 185.346 197.88 185.283L202.788 183.479C204.723 184.968 206.909 186.16 209.285 186.976L210.483 192.06C210.525 192.239 210.676 192.371 210.858 192.39L217.098 193.021C217.28 193.04 217.455 192.941 217.532 192.775L219.725 188.033C222.217 187.709 224.598 186.981 226.792 185.909L231.239 188.66C231.394 188.756 231.595 188.743 231.736 188.628L236.596 184.665C236.738 184.549 236.791 184.356 236.728 184.184L234.923 179.279C236.413 177.345 237.605 175.16 238.422 172.785L243.509 171.588C243.688 171.546 243.819 171.396 243.839 171.213L244.471 164.976C244.489 164.794 244.39 164.619 244.224 164.542L239.48 162.351C239.156 159.859 238.427 157.48 237.355 155.287L240.107 150.843C240.203 150.687 240.191 150.487 240.075 150.345L236.11 145.488C235.994 145.346 235.801 145.293 235.629 145.356L230.721 147.16C228.786 145.67 226.6 144.479 224.223 143.663L223.026 138.578C222.984 138.4 222.834 138.268 222.651 138.249L216.411 137.617C216.228 137.599 216.054 137.698 215.977 137.864L213.784 142.606C211.292 142.929 208.911 143.658 206.717 144.73L202.27 141.979C202.115 141.882 201.914 141.895 201.773 142.011L196.913 145.974C196.771 146.09 196.718 146.283 196.781 146.455L198.586 151.36C197.095 153.294 195.904 155.479 195.087 157.854L190 159.051C189.821 159.093 189.689 159.243 189.67 159.426L189.038 165.663C189.02 165.845 189.119 166.02 189.285 166.097L194.029 168.288C194.353 170.779 195.082 173.159 196.154 175.352L193.402 179.796C193.305 179.952 193.318 180.152 193.434 180.294L197.399 185.151Z" fill="#BDD0FB"/>
  <path d="M216.749 171.621C213.676 171.621 210.977 169.366 210.516 166.238C210.009 162.8 212.395 159.591 215.835 159.084C217.501 158.839 219.163 159.256 220.514 160.26C221.866 161.264 222.746 162.734 222.992 164.399C223.498 167.837 221.113 171.046 217.673 171.553C217.363 171.599 217.055 171.621 216.749 171.621ZM216.764 160.486C216.527 160.486 216.288 160.503 216.049 160.538C213.411 160.927 211.583 163.387 211.971 166.023C212.359 168.659 214.82 170.488 217.458 170.099C220.095 169.71 221.924 167.25 221.536 164.614C221.348 163.337 220.674 162.21 219.637 161.441C218.795 160.815 217.795 160.486 216.764 160.486Z" fill="url(#paint10_linear)"/>
  <path d="M216.878 180.723C216.351 180.723 215.82 180.696 215.288 180.643C215.12 180.626 214.953 180.606 214.785 180.584C213.962 180.473 213.149 180.299 212.359 180.06C212.348 180.056 212.337 180.054 212.327 180.05C212.296 180.041 212.265 180.032 212.235 180.022C212.176 180.003 212.116 179.984 212.058 179.965C211.902 179.915 211.803 179.771 211.803 179.616C211.803 179.578 211.809 179.54 211.822 179.502C211.884 179.309 212.091 179.204 212.284 179.267C213.279 179.588 214.314 179.805 215.363 179.911C220.569 180.439 225.427 178.182 228.452 174.353C230.135 172.224 231.25 169.608 231.544 166.713C231.595 166.206 231.621 165.699 231.621 165.197C231.621 161.81 230.464 158.553 228.293 155.895C225.799 152.84 222.264 150.939 218.339 150.541C210.234 149.721 202.979 155.642 202.158 163.738C202.108 164.237 202.082 164.738 202.082 165.236C202.082 167.396 202.556 169.532 203.475 171.49C203.499 171.54 203.51 171.593 203.51 171.646C203.51 171.784 203.432 171.917 203.299 171.979C203.115 172.065 202.896 171.987 202.809 171.802C201.843 169.748 201.347 167.505 201.347 165.237C201.347 164.714 201.373 164.189 201.426 163.665C202.288 155.164 209.911 148.95 218.412 149.81C222.533 150.227 226.243 152.223 228.861 155.43C231.14 158.221 232.354 161.64 232.354 165.196C232.354 165.724 232.328 166.255 232.274 166.788C231.857 170.906 229.86 174.616 226.652 177.232C223.858 179.511 220.437 180.723 216.878 180.723Z" fill="url(#paint11_linear)"/>
  <g opacity="0.3">
  <path opacity="0.3" d="M149.754 194.505C149.508 194.505 149.282 194.345 149.209 194.097C149.074 193.635 148.95 193.162 148.842 192.692C148.771 192.387 148.963 192.082 149.268 192.012C149.574 191.941 149.878 192.133 149.949 192.438C150.051 192.886 150.169 193.337 150.299 193.777C150.388 194.078 150.215 194.393 149.914 194.481C149.86 194.498 149.806 194.505 149.754 194.505Z" fill="#BDD0FB"/>
  <path opacity="0.3" d="M148.913 190.221C148.625 190.221 148.379 190.004 148.349 189.711C148.265 188.885 148.222 188.047 148.222 187.218C148.222 187.043 148.224 186.869 148.227 186.692C148.234 186.379 148.51 186.142 148.807 186.136C149.121 186.143 149.37 186.402 149.363 186.715C149.36 186.883 149.358 187.051 149.358 187.217C149.358 188.008 149.399 188.808 149.479 189.595C149.511 189.907 149.284 190.186 148.972 190.218C148.952 190.22 148.932 190.221 148.913 190.221ZM149.038 184.331C149.011 184.331 148.984 184.329 148.956 184.325C148.646 184.28 148.43 183.992 148.475 183.682C148.618 182.687 148.825 181.692 149.088 180.725C149.17 180.422 149.484 180.245 149.785 180.326C150.088 180.408 150.266 180.72 150.184 181.023C149.932 181.945 149.736 182.895 149.599 183.844C149.558 184.127 149.316 184.331 149.038 184.331ZM150.588 178.645C150.516 178.645 150.443 178.632 150.372 178.603C150.082 178.484 149.944 178.152 150.063 177.862C150.445 176.934 150.89 176.019 151.386 175.144C151.54 174.87 151.885 174.774 152.16 174.929C152.432 175.083 152.528 175.429 152.375 175.702C151.903 176.537 151.478 177.408 151.114 178.294C151.024 178.513 150.811 178.645 150.588 178.645ZM153.49 173.515C153.372 173.515 153.254 173.479 153.152 173.404C152.901 173.217 152.848 172.862 153.034 172.609C153.634 171.801 154.288 171.024 154.981 170.298C155.198 170.071 155.557 170.064 155.783 170.279C156.01 170.495 156.019 170.854 155.802 171.082C155.142 171.773 154.517 172.515 153.945 173.286C153.835 173.436 153.664 173.515 153.49 173.515ZM157.556 169.249C157.392 169.249 157.228 169.178 157.117 169.042C156.918 168.8 156.954 168.442 157.195 168.244C157.973 167.607 158.797 167.012 159.644 166.475C159.91 166.307 160.26 166.386 160.427 166.651C160.595 166.916 160.516 167.266 160.252 167.434C159.443 167.946 158.656 168.513 157.915 169.121C157.81 169.207 157.683 169.249 157.556 169.249ZM162.535 166.1C162.323 166.1 162.118 165.979 162.021 165.774C161.887 165.491 162.008 165.153 162.292 165.019C163.2 164.59 164.145 164.214 165.098 163.901C165.397 163.804 165.716 163.966 165.814 164.263C165.912 164.56 165.749 164.881 165.452 164.979C164.543 165.277 163.643 165.635 162.776 166.045C162.699 166.082 162.616 166.1 162.535 166.1ZM168.132 164.262C167.866 164.262 167.628 164.075 167.575 163.804C167.515 163.497 167.716 163.198 168.023 163.137C169.007 162.945 170.015 162.812 171.02 162.742C171.334 162.725 171.605 162.956 171.626 163.268C171.648 163.581 171.412 163.851 171.099 163.874C170.14 163.941 169.179 164.068 168.241 164.251C168.205 164.259 168.168 164.262 168.132 164.262ZM176.947 164.191C176.914 164.191 176.881 164.188 176.847 164.182C176.032 164.037 175.195 163.935 174.358 163.877C174.232 163.868 174.107 163.86 173.983 163.853C173.67 163.837 173.429 163.57 173.445 163.257C173.461 162.944 173.731 162.694 174.042 162.72C174.174 162.727 174.306 162.734 174.439 162.744C175.313 162.805 176.191 162.912 177.046 163.064C177.355 163.119 177.561 163.414 177.506 163.722C177.456 163.997 177.218 164.191 176.947 164.191Z" fill="#BDD0FB"/>
  </g>
  <g opacity="0.3">
  <path opacity="0.3" d="M173.079 211.703C172.769 211.703 172.516 211.454 172.512 211.143C172.507 210.83 172.759 210.572 173.072 210.568C174.016 210.556 174.967 210.485 175.899 210.36C176.209 210.322 176.497 210.536 176.538 210.847C176.58 211.157 176.361 211.443 176.051 211.485C175.073 211.616 174.076 211.69 173.087 211.702C173.084 211.703 173.081 211.703 173.079 211.703ZM170.178 211.566C170.157 211.566 170.136 211.565 170.116 211.562C169.134 211.457 168.147 211.291 167.185 211.069C166.879 210.997 166.689 210.694 166.759 210.389C166.83 210.082 167.136 209.894 167.44 209.962C168.358 210.175 169.299 210.333 170.237 210.434C170.549 210.467 170.774 210.748 170.741 211.059C170.71 211.351 170.464 211.566 170.178 211.566ZM178.824 210.927C178.572 210.927 178.342 210.759 178.275 210.504C178.195 210.201 178.377 209.891 178.679 209.811C179.593 209.57 180.499 209.272 181.373 208.925C181.666 208.81 181.994 208.951 182.111 209.243C182.227 209.534 182.084 209.864 181.792 209.98C180.876 210.344 179.925 210.656 178.967 210.908C178.92 210.922 178.871 210.927 178.824 210.927ZM164.526 210.258C164.461 210.258 164.396 210.247 164.331 210.223C163.402 209.885 162.485 209.485 161.605 209.035C161.326 208.893 161.215 208.551 161.357 208.272C161.499 207.994 161.841 207.883 162.12 208.025C162.96 208.454 163.835 208.834 164.721 209.157C165.016 209.265 165.168 209.59 165.06 209.885C164.976 210.114 164.759 210.258 164.526 210.258ZM184.211 208.787C184.01 208.787 183.815 208.68 183.712 208.491C183.561 208.216 183.663 207.872 183.938 207.721C184.765 207.27 185.573 206.763 186.339 206.215C186.595 206.032 186.95 206.091 187.132 206.346C187.314 206.602 187.255 206.956 187 207.138C186.196 207.713 185.349 208.245 184.482 208.717C184.396 208.765 184.302 208.787 184.211 208.787ZM188.926 205.417C188.773 205.417 188.619 205.354 188.507 205.233C188.295 205.002 188.311 204.642 188.542 204.431C189.238 203.793 189.902 203.107 190.514 202.394C190.718 202.155 191.078 202.129 191.315 202.333C191.553 202.537 191.58 202.895 191.376 203.133C190.734 203.882 190.039 204.6 189.309 205.269C189.201 205.367 189.064 205.417 188.926 205.417ZM192.699 201.014C192.591 201.014 192.481 200.984 192.385 200.919C192.124 200.746 192.053 200.394 192.227 200.132C192.751 199.347 193.23 198.522 193.652 197.682C193.793 197.403 194.134 197.289 194.414 197.429C194.694 197.57 194.807 197.911 194.666 198.191C194.224 199.072 193.721 199.937 193.172 200.761C193.063 200.926 192.883 201.014 192.699 201.014Z" fill="#BDD0FB"/>
  <path opacity="0.3" d="M159.337 207.608C159.228 207.608 159.117 207.576 159.02 207.51C158.617 207.238 158.221 206.953 157.842 206.663C157.593 206.472 157.545 206.116 157.736 205.867C157.928 205.619 158.284 205.572 158.532 205.762C158.894 206.039 159.272 206.312 159.656 206.571C159.915 206.747 159.983 207.1 159.808 207.359C159.699 207.52 159.519 207.608 159.337 207.608Z" fill="#BDD0FB"/>
  </g>
  <path d="M159.81 200.276C159.888 200.371 160.017 200.407 160.132 200.364L163.416 199.157C164.71 200.154 166.174 200.951 167.764 201.498L168.565 204.9C168.593 205.019 168.694 205.107 168.816 205.12L172.991 205.542C173.113 205.554 173.23 205.488 173.281 205.377L174.749 202.204C176.416 201.988 178.01 201.5 179.478 200.783L182.454 202.623C182.558 202.688 182.691 202.679 182.787 202.601L186.039 199.949C186.134 199.871 186.169 199.742 186.126 199.627L184.919 196.345C185.916 195.051 186.714 193.588 187.261 191.999L190.664 191.198C190.784 191.17 190.872 191.069 190.885 190.948L191.308 186.774C191.32 186.652 191.254 186.535 191.142 186.484L187.968 185.018C187.751 183.351 187.263 181.758 186.545 180.291L188.387 177.317C188.452 177.212 188.443 177.079 188.365 176.984L185.711 173.734C185.633 173.639 185.504 173.603 185.389 173.646L182.105 174.853C180.811 173.856 179.347 173.059 177.757 172.512L176.956 169.11C176.928 168.991 176.827 168.903 176.705 168.89L172.529 168.467C172.408 168.455 172.291 168.521 172.239 168.633L170.772 171.805C169.105 172.022 167.511 172.509 166.043 173.227L163.068 171.387C162.964 171.322 162.83 171.331 162.735 171.409L159.483 174.061C159.388 174.139 159.352 174.268 159.395 174.383L160.603 177.665C159.606 178.959 158.808 180.422 158.261 182.011L154.857 182.812C154.738 182.84 154.65 182.94 154.637 183.062L154.214 187.236C154.202 187.357 154.268 187.474 154.38 187.526L157.554 188.992C157.771 190.659 158.258 192.252 158.976 193.719L157.135 196.693C157.07 196.797 157.079 196.931 157.157 197.026L159.81 200.276Z" fill="#BDD0FB"/>
  <path d="M172.752 191.3C171.836 191.3 170.948 191.008 170.199 190.452C169.278 189.768 168.68 188.767 168.512 187.632C168.166 185.292 169.792 183.106 172.135 182.76C174.481 182.419 176.665 184.04 177.01 186.381C177.178 187.515 176.893 188.647 176.209 189.567C175.525 190.488 174.523 191.087 173.388 191.254C173.176 191.284 172.962 191.3 172.752 191.3ZM172.763 183.849C172.61 183.849 172.456 183.86 172.3 183.883C170.577 184.137 169.382 185.745 169.636 187.467C169.759 188.301 170.199 189.038 170.877 189.541C171.555 190.043 172.387 190.252 173.222 190.13C174.057 190.007 174.794 189.567 175.297 188.89C175.8 188.212 176.01 187.38 175.887 186.545C175.656 184.979 174.304 183.849 172.763 183.849Z" fill="url(#paint12_linear)"/>
  <path d="M172.833 197.635C172.474 197.635 172.112 197.616 171.748 197.58C171.023 197.507 170.305 197.36 169.613 197.143C169.581 197.133 169.55 197.123 169.519 197.113C169.28 197.035 169.127 196.813 169.126 196.573C169.126 196.515 169.135 196.456 169.154 196.398C169.251 196.1 169.571 195.938 169.87 196.033C170.514 196.242 171.185 196.382 171.862 196.45C171.899 196.453 171.936 196.457 171.974 196.46C173.577 196.607 175.157 196.348 176.598 195.728C177.38 195.39 178.121 194.946 178.803 194.4C178.809 194.395 178.814 194.391 178.82 194.386C178.836 194.373 178.853 194.359 178.87 194.345C180.848 192.731 182.08 190.444 182.337 187.905C182.371 187.577 182.387 187.248 182.387 186.923C182.387 184.73 181.638 182.622 180.233 180.9C178.618 178.923 176.33 177.693 173.789 177.435C171.25 177.179 168.76 177.925 166.781 179.538C164.803 181.152 163.571 183.439 163.314 185.978C163.281 186.301 163.265 186.625 163.265 186.948C163.265 188.346 163.571 189.729 164.167 190.996C164.204 191.074 164.221 191.156 164.221 191.237C164.221 191.45 164.1 191.654 163.894 191.751C163.61 191.884 163.272 191.763 163.139 191.479C162.473 190.062 162.13 188.514 162.129 186.949C162.129 186.588 162.147 186.226 162.184 185.865C162.472 183.023 163.85 180.465 166.063 178.66C168.277 176.855 171.06 176.016 173.904 176.306C176.746 176.594 179.306 177.97 181.112 180.184C182.684 182.109 183.522 184.468 183.522 186.921C183.522 187.285 183.504 187.653 183.466 188.019C182.909 193.521 178.251 197.635 172.833 197.635Z" fill="url(#paint13_linear)"/>
  <path d="M127.246 250.053C129.883 250.28 134.457 250.651 138.064 250.809C140.232 250.904 141.481 250.692 142.199 250.405C142.198 250.486 142.195 250.562 142.193 250.633C142.175 251.013 141.867 251.316 141.484 251.337C134.669 251.718 129.249 251.469 127.319 251.352C126.92 251.327 126.682 250.894 126.886 250.555C126.989 250.384 127.112 250.217 127.246 250.053Z" fill="url(#paint14_linear)"/>
  <path d="M138.064 250.809C134.457 250.65 129.882 250.28 127.246 250.053C129.838 246.875 138.064 244.732 138.064 244.732H140.388C141.986 247.035 142.217 249.226 142.2 250.405C141.48 250.692 140.232 250.904 138.064 250.809Z" fill="url(#paint15_linear)"/>
  <path d="M140.778 240.941L140.561 245.241C140.537 245.707 140.188 246.098 139.722 246.165C139.258 246.231 138.636 246.24 137.977 246.02C137.571 245.885 137.269 245.544 137.195 245.127L136.444 240.941H140.778Z" fill="url(#paint16_linear)"/>
  <path d="M167.744 255.014C168.888 254.808 169.404 254.041 169.621 253.221C169.623 253.228 169.624 253.235 169.626 253.243C169.794 254.108 169.404 255.004 168.625 255.43C167.683 255.946 166.653 256.034 165.853 255.991C164.995 255.945 164.208 255.486 163.775 254.753L163.769 254.742C164.628 255.292 165.838 255.356 167.744 255.014Z" fill="url(#paint17_linear)"/>
  <path d="M162.354 242.267H164.271C167.189 242.19 169.022 250.142 169.622 253.22C169.405 254.04 168.888 254.807 167.745 255.013C165.839 255.357 164.629 255.292 163.768 254.742C162.191 252.062 161.41 248.136 161.034 245.846C160.606 243.24 162.354 242.267 162.354 242.267Z" fill="url(#paint18_linear)"/>
  <path d="M164.023 238.275L165.087 242.505C165.218 243.023 164.969 243.56 164.489 243.806C163.894 244.111 163.056 244.432 162.286 244.339C161.924 244.295 161.623 244.04 161.503 243.7L159.94 239.25L164.023 238.275Z" fill="url(#paint19_linear)"/>
  <path d="M126.598 182.573C126.598 182.573 136.106 241.973 135.948 242.299C135.948 242.299 138.575 243.492 141.437 242.451C141.437 242.451 140.577 210.697 138.563 198.522C138.563 198.522 154.789 226.903 159.942 241.046C159.942 241.046 162.63 240.726 164.855 239.262C164.855 239.262 147.384 188.176 142.722 181.372L126.598 182.573Z" fill="url(#paint20_linear)"/>
  <path d="M138.183 198.213C138.235 198.213 138.286 198.2 138.331 198.17C138.463 198.088 138.503 197.915 138.42 197.784L134.867 192.111C134.826 192.046 134.76 192 134.684 191.985L132.07 191.46C131.917 191.429 131.77 191.528 131.739 191.679C131.709 191.831 131.807 191.979 131.958 192.01L134.455 192.512L137.944 198.082C137.999 198.167 138.09 198.213 138.183 198.213Z" fill="url(#paint21_linear)"/>
  <path d="M82.9668 124.406C82.9668 124.406 89.382 125.821 93.2843 127.621C94.0591 127.978 94.6775 128.604 95.0297 129.374C96.1969 131.93 99.6885 138.337 106.459 141.395C105.484 142.688 103.914 145.379 103.23 149.902C99.1634 146.877 95.6526 141.824 93.9667 133.537C93.9667 133.537 92.6833 134.235 91.0816 133.458C90.2354 133.047 89.2585 132.465 88.5258 132.007C87.7949 131.55 87.2506 130.841 87.0393 130.012C86.7603 128.917 86.9249 127.956 86.9249 126.923L83.6273 125.902C83.6273 125.902 82.6366 125.528 82.9668 124.406Z" fill="url(#paint22_linear)"/>
  <path d="M103.231 149.903C103.916 145.38 105.485 142.69 106.461 141.396C110.667 143.296 116.139 143.903 123.107 141.489C123.749 141.267 124.42 141.136 125.099 141.097C128.808 140.879 141.032 140.483 151.146 143.823C153.275 144.527 154.999 146.099 155.887 148.137C158.624 154.413 163.054 168.706 150.756 175.921C149.811 173.577 148.72 171.692 147.788 170.308C149.769 166.969 150.355 162.409 146.841 156.471C144.278 163.386 143.075 173.478 142.825 177.944C142.742 179.414 143 180.881 143.578 182.239L143.641 182.387C143.764 182.678 143.594 183.012 143.284 183.081C136.361 184.635 129.16 184.213 127.01 184.036C126.625 184.004 126.306 183.729 126.218 183.358C122.852 169.18 122.844 159.509 123.668 153.396C120.518 154.098 110.888 155.599 103.231 149.903Z" fill="url(#paint23_linear)"/>
  <path d="M123.654 153.775C123.793 153.775 123.913 153.672 123.932 153.531C124.722 147.561 126.332 144.957 126.348 144.931C126.431 144.8 126.392 144.626 126.262 144.543C126.131 144.461 125.958 144.499 125.875 144.63C125.806 144.738 124.184 147.346 123.375 153.458C123.355 153.611 123.463 153.752 123.617 153.773C123.629 153.774 123.642 153.775 123.654 153.775Z" fill="url(#paint24_linear)"/>
  <path d="M140.738 132.837C140.738 132.837 141.439 140.238 142.055 142.428C142.149 142.76 142.004 143.11 141.702 143.283C140.656 143.881 138.146 144.855 134.712 143.173C134.155 142.9 133.821 142.321 133.847 141.707L134.15 134.555L140.738 132.837Z" fill="url(#paint25_linear)"/>
  <path d="M133.999 123.369C133.999 123.369 131.759 128.512 131.609 131.212C131.459 133.912 130.876 135.663 133.999 136.207C137.122 136.751 139.753 135.195 141.178 132.507C141.178 132.507 143.411 128.363 142.911 126.666C142.41 124.969 133.999 123.369 133.999 123.369Z" fill="url(#paint26_linear)"/>
  <path d="M140.111 130.572L139.933 130.494C139.707 130.394 139.611 130.124 139.724 129.905C140.164 129.055 141.023 127.105 139.914 126.651C138.485 126.065 132.823 124.911 131.602 122.903C130.428 120.973 131.468 118.483 133.032 117.774C133.136 117.727 133.259 117.764 133.313 117.866L133.443 118.112C133.532 118.28 133.782 118.255 133.835 118.071C133.886 117.896 134.12 117.861 134.217 118.017C134.592 118.617 135.607 119.591 138.317 120.091C142.17 120.802 144.717 122.36 144.781 125.021C144.784 125.19 144.965 125.284 145.109 125.196C145.394 125.022 145.849 124.941 146.457 125.452C147.516 126.342 147.082 128.648 144.763 130.546C144.654 130.636 144.654 130.808 144.773 130.886C145.194 131.159 145.821 131.81 144.196 132.678C142.516 133.576 141.262 133.502 140.779 133.422C140.659 133.402 140.581 133.286 140.608 133.167L141.124 130.828C141.153 130.696 141.052 130.571 140.916 130.571H140.111V130.572Z" fill="url(#paint27_linear)"/>
  <path d="M140.014 131.066C140.014 131.066 140.868 127.781 142.342 128.702C143.815 129.623 141.577 132.383 140.392 132.506L140.014 131.066Z" fill="url(#paint28_linear)"/>
  <path d="M92.2567 132.774C92.3189 132.774 92.382 132.754 92.4333 132.711C92.554 132.613 92.5714 132.437 92.4735 132.316C92.2311 132.018 90.0778 129.387 89.2481 128.919C88.9462 128.749 88.766 128.572 88.7285 128.409C88.7102 128.332 88.7221 128.245 88.766 128.145L91.2953 128.652L92.7287 129.88C92.8458 129.982 93.0233 129.968 93.1248 129.85C93.2264 129.732 93.2126 129.556 93.0946 129.454L91.6054 128.177C91.5688 128.146 91.5249 128.125 91.4783 128.115L88.6782 127.554C88.5657 127.531 88.4531 127.578 88.39 127.672C88.1851 127.977 88.1165 128.259 88.1824 128.537C88.2601 128.866 88.5181 129.15 88.9727 129.406C89.5966 129.758 91.3968 131.881 92.0381 132.669C92.0939 132.738 92.1753 132.774 92.2567 132.774Z" fill="#F8A570"/>
  <path d="M140.122 179.477L130.221 179.599L133.686 176.339C134.547 175.529 135.862 175.397 136.856 176.042C137.438 176.419 138.07 176.931 138.617 177.61C138.617 177.61 144.794 175.353 147.788 170.306C148.72 171.69 149.811 173.575 150.755 175.919C148.071 177.495 144.591 178.734 140.122 179.477Z" fill="url(#paint29_linear)"/>
  <path d="M139.056 180.753C139.037 180.754 139.017 180.755 138.998 180.754L113.864 180.726C113.243 180.726 112.74 180.227 112.74 179.613C112.741 178.999 113.247 178.49 113.866 178.501L139 178.529C139.621 178.529 140.124 179.028 140.124 179.642C140.123 180.238 139.65 180.725 139.056 180.753Z" fill="url(#paint30_linear)"/>
  <path d="M91.2704 158.186H112.202C113.746 158.186 115.151 159.067 115.81 160.448L125.487 180.74H99.4739C98.4787 180.74 97.5849 180.138 97.219 179.223L89.7153 160.447C89.2817 159.361 90.0904 158.186 91.2704 158.186Z" fill="url(#paint31_linear)"/>
  <path d="M106.018 168.59C106.471 169.984 106.137 171.338 105.269 171.614C104.402 171.89 103.332 170.984 102.878 169.591C102.424 168.197 102.759 166.843 103.626 166.567C104.494 166.291 105.564 167.197 106.018 168.59Z" fill="url(#paint32_linear)"/>
  <defs>
  <linearGradient id="paint0_linear" x1="284.932" y1="329.551" x2="60.0136" y2="50.0737" gradientUnits="userSpaceOnUse">
  <stop stop-color="#DAE3FE"/>
  <stop offset="1" stop-color="#E9EFFD"/>
  </linearGradient>
  <linearGradient id="paint1_linear" x1="219.229" y1="-66.1175" x2="152.088" y2="98.2237" gradientUnits="userSpaceOnUse">
  <stop stop-color="#E1473D"/>
  <stop offset="1" stop-color="#E9605A"/>
  </linearGradient>
  <linearGradient id="paint2_linear" x1="206.654" y1="79.752" x2="67.5504" y2="283.715" gradientUnits="userSpaceOnUse">
  <stop stop-color="#FF928E"/>
  <stop offset="1" stop-color="#FE7062"/>
  </linearGradient>
  <linearGradient id="paint3_linear" x1="350.719" y1="134.508" x2="226.221" y2="140.736" gradientUnits="userSpaceOnUse">
  <stop stop-color="#FF928E"/>
  <stop offset="1" stop-color="#FE7062"/>
  </linearGradient>
  <linearGradient id="paint4_linear" x1="201.26" y1="-73.458" x2="134.118" y2="90.8836" gradientUnits="userSpaceOnUse">
  <stop stop-color="#E1473D"/>
  <stop offset="1" stop-color="#E9605A"/>
  </linearGradient>
  <linearGradient id="paint5_linear" x1="86.2393" y1="234.596" x2="77.1095" y2="-35.7888" gradientUnits="userSpaceOnUse">
  <stop stop-color="#09005D"/>
  <stop offset="1" stop-color="#1A0F91"/>
  </linearGradient>
  <linearGradient id="paint6_linear" x1="124.826" y1="66.4699" x2="23.6088" y2="309.141" gradientUnits="userSpaceOnUse">
  <stop stop-color="#4F52FF"/>
  <stop offset="1" stop-color="#4042E2"/>
  </linearGradient>
  <linearGradient id="paint7_linear" x1="100.56" y1="46.0117" x2="54.8835" y2="106.129" gradientUnits="userSpaceOnUse">
  <stop stop-color="#09005D"/>
  <stop offset="1" stop-color="#1A0F91"/>
  </linearGradient>
  <linearGradient id="paint8_linear" x1="105.574" y1="49.8212" x2="59.8972" y2="109.938" gradientUnits="userSpaceOnUse">
  <stop stop-color="#09005D"/>
  <stop offset="1" stop-color="#1A0F91"/>
  </linearGradient>
  <linearGradient id="paint9_linear" x1="99.8138" y1="53.4969" x2="68.2797" y2="111.43" gradientUnits="userSpaceOnUse">
  <stop stop-color="#4F52FF"/>
  <stop offset="1" stop-color="#4042E2"/>
  </linearGradient>
  <linearGradient id="paint10_linear" x1="210.448" y1="165.318" x2="223.059" y2="165.318" gradientUnits="userSpaceOnUse">
  <stop stop-color="#DAE3FE"/>
  <stop offset="1" stop-color="#E9EFFD"/>
  </linearGradient>
  <linearGradient id="paint11_linear" x1="201.347" y1="165.227" x2="232.355" y2="165.227" gradientUnits="userSpaceOnUse">
  <stop stop-color="#DAE3FE"/>
  <stop offset="1" stop-color="#E9EFFD"/>
  </linearGradient>
  <linearGradient id="paint12_linear" x1="168.466" y1="187.007" x2="177.057" y2="187.007" gradientUnits="userSpaceOnUse">
  <stop stop-color="#DAE3FE"/>
  <stop offset="1" stop-color="#E9EFFD"/>
  </linearGradient>
  <linearGradient id="paint13_linear" x1="162.129" y1="186.943" x2="183.522" y2="186.943" gradientUnits="userSpaceOnUse">
  <stop stop-color="#DAE3FE"/>
  <stop offset="1" stop-color="#E9EFFD"/>
  </linearGradient>
  <linearGradient id="paint14_linear" x1="142.199" y1="250.797" x2="126.812" y2="250.797" gradientUnits="userSpaceOnUse">
  <stop stop-color="#4F52FF"/>
  <stop offset="1" stop-color="#4042E2"/>
  </linearGradient>
  <linearGradient id="paint15_linear" x1="142.2" y1="247.782" x2="127.246" y2="247.782" gradientUnits="userSpaceOnUse">
  <stop stop-color="#09005D"/>
  <stop offset="1" stop-color="#1A0F91"/>
  </linearGradient>
  <linearGradient id="paint16_linear" x1="140.779" y1="243.574" x2="136.444" y2="243.574" gradientUnits="userSpaceOnUse">
  <stop stop-color="#FEBBBA"/>
  <stop offset="1" stop-color="#FF928E"/>
  </linearGradient>
  <linearGradient id="paint17_linear" x1="169.664" y1="254.61" x2="163.767" y2="254.61" gradientUnits="userSpaceOnUse">
  <stop stop-color="#4F52FF"/>
  <stop offset="1" stop-color="#4042E2"/>
  </linearGradient>
  <linearGradient id="paint18_linear" x1="169.621" y1="248.746" x2="160.966" y2="248.746" gradientUnits="userSpaceOnUse">
  <stop stop-color="#09005D"/>
  <stop offset="1" stop-color="#1A0F91"/>
  </linearGradient>
  <linearGradient id="paint19_linear" x1="165.122" y1="241.316" x2="159.942" y2="241.316" gradientUnits="userSpaceOnUse">
  <stop stop-color="#FEBBBA"/>
  <stop offset="1" stop-color="#FF928E"/>
  </linearGradient>
  <linearGradient id="paint20_linear" x1="139.742" y1="162.628" x2="148.137" y2="230.445" gradientUnits="userSpaceOnUse">
  <stop stop-color="#09005D"/>
  <stop offset="1" stop-color="#1A0F91"/>
  </linearGradient>
  <linearGradient id="paint21_linear" x1="153.65" y1="172.411" x2="140.274" y2="188.595" gradientUnits="userSpaceOnUse">
  <stop stop-color="#09005D"/>
  <stop offset="1" stop-color="#1A0F91"/>
  </linearGradient>
  <linearGradient id="paint22_linear" x1="93.8744" y1="132.262" x2="114.377" y2="158.948" gradientUnits="userSpaceOnUse">
  <stop stop-color="#FEBBBA"/>
  <stop offset="1" stop-color="#FF928E"/>
  </linearGradient>
  <linearGradient id="paint23_linear" x1="118.212" y1="138.511" x2="186.664" y2="219.681" gradientUnits="userSpaceOnUse">
  <stop stop-color="#4F52FF"/>
  <stop offset="1" stop-color="#4042E2"/>
  </linearGradient>
  <linearGradient id="paint24_linear" x1="183.264" y1="105.633" x2="130.683" y2="144.857" gradientUnits="userSpaceOnUse">
  <stop stop-color="#4F52FF"/>
  <stop offset="1" stop-color="#4042E2"/>
  </linearGradient>
  <linearGradient id="paint25_linear" x1="139.603" y1="149.503" x2="137.36" y2="137.725" gradientUnits="userSpaceOnUse">
  <stop stop-color="#FEBBBA"/>
  <stop offset="1" stop-color="#FF928E"/>
  </linearGradient>
  <linearGradient id="paint26_linear" x1="133.53" y1="127.896" x2="146.331" y2="137.696" gradientUnits="userSpaceOnUse">
  <stop stop-color="#FEBBBA"/>
  <stop offset="1" stop-color="#FF928E"/>
  </linearGradient>
  <linearGradient id="paint27_linear" x1="142.545" y1="120.142" x2="130.626" y2="135.495" gradientUnits="userSpaceOnUse">
  <stop stop-color="#09005D"/>
  <stop offset="1" stop-color="#1A0F91"/>
  </linearGradient>
  <linearGradient id="paint28_linear" x1="135.118" y1="125.821" x2="147.919" y2="135.621" gradientUnits="userSpaceOnUse">
  <stop stop-color="#FEBBBA"/>
  <stop offset="1" stop-color="#FF928E"/>
  </linearGradient>
  <linearGradient id="paint29_linear" x1="127.61" y1="157.87" x2="136.566" y2="171.312" gradientUnits="userSpaceOnUse">
  <stop stop-color="#FEBBBA"/>
  <stop offset="1" stop-color="#FF928E"/>
  </linearGradient>
  <linearGradient id="paint30_linear" x1="143.319" y1="174.091" x2="123.37" y2="180.637" gradientUnits="userSpaceOnUse">
  <stop stop-color="#09005D"/>
  <stop offset="1" stop-color="#1A0F91"/>
  </linearGradient>
  <linearGradient id="paint31_linear" x1="115.86" y1="161.177" x2="101.585" y2="176.272" gradientUnits="userSpaceOnUse">
  <stop stop-color="#09005D"/>
  <stop offset="1" stop-color="#1A0F91"/>
  </linearGradient>
  <linearGradient id="paint32_linear" x1="107.199" y1="164.948" x2="100.748" y2="174.669" gradientUnits="userSpaceOnUse">
  <stop stop-color="#4F52FF"/>
  <stop offset="1" stop-color="#4042E2"/>
  </linearGradient>
  </defs>
  </svg>
  