<svg width="956" height="715" viewBox="0 0 956 715" fill="none" xmlns="http://www.w3.org/2000/svg">
<g clip-path="url(#clip0)">
<path d="M955.574 0.717773H0.574219V714.718H955.574V0.717773Z" fill="white"/>
<path d="M811.711 377.732L813.385 385.783L821.087 398.259L813.301 525.103L855.062 515.737L855.017 394.458L857.141 388.116L867.213 366.337L870.348 357.887L864.404 340.812C850.77 343.612 823.705 349.167 814.733 350.96L811.711 377.732Z" fill="#937051"/>
<path d="M800.544 344.798L800.527 344.787C800.527 344.787 800.527 344.849 800.544 344.798Z" fill="#AF8B7F"/>
<path d="M532.563 530.314L516.255 386.604L533.883 341.222C531.411 332.227 529.468 323.091 526.631 314.197C525.631 311.066 525.372 310.172 522.457 309.244C520.631 308.66 518.805 308.064 516.98 307.473C507.396 304.376 497.812 301.278 488.234 298.174C487.88 298.062 482.296 296.049 482.195 296.224C479.729 300.586 476.718 304.91 474.667 309.43C472.55 314.113 470.696 318.925 468.746 323.682C467.69 326.302 467.016 327.769 467.381 330.389C467.763 333.132 473.353 361.029 474.33 366.78L486.004 382.792L479.757 526.379L532.563 530.314Z" fill="#ECCFB2"/>
<path d="M483.667 385.035C483.667 385.035 503.227 394.16 518.333 388.009L519.03 393.766C519.03 393.766 503.34 404.341 482.324 394.435L483.667 385.035Z" fill="#504E51"/>
<path d="M538.184 457.79L474.537 452.898L458.273 714.717H557.846L538.184 457.79Z" fill="#3A6594"/>
<path d="M462.629 647.265L552.798 648.474L551.983 638.27H463.157L462.629 647.265Z" fill="#AECCDC"/>
<path d="M464.293 618.789L550.541 620.11L549.861 611.599L464.742 611.115L464.293 618.789Z" fill="#AECCDC"/>
<path d="M466.355 593.035L549.137 595.446L548.463 586.952L466.861 584.438L466.355 593.035Z" fill="#AECCDC"/>
<path d="M467.906 566.475L547.031 568.994L546.188 558.38L468.417 557.683L467.906 566.475Z" fill="#AECCDC"/>
<path d="M469.496 539.26H544.666L543.587 525.722H470.283L469.496 539.26Z" fill="#AECCDC"/>
<path d="M471.418 506.325L542.178 507.95L541.161 495.216H472.064L471.418 506.325Z" fill="#AECCDC"/>
<path d="M473.242 475.033L539.626 475.96L538.766 465.16L473.961 462.692L473.242 475.033Z" fill="#AECCDC"/>
<path d="M348.014 404.015C347.699 402.554 346.98 401.3 345.452 400.513C344.137 399.838 341.138 398.77 339.66 398.68C336.615 398.489 335.25 401.081 332.38 402.081C329.751 402.998 329.852 401.379 327.734 400.029C323.936 397.623 320.189 398.731 317.628 402.362C317.628 402.362 309.999 396.465 304.117 404.814C304.117 404.814 298.112 400.209 293.646 408.254C291.641 411.864 293.601 420.971 294.118 424.912C295.41 434.751 297.702 444.916 300.983 454.293C301.634 456.16 305.044 460.506 304.954 462.333C304.488 471.75 304.016 481.167 303.55 490.578C303.32 495.177 302.14 500.771 302.814 505.336C303.151 507.624 302.505 507.135 305.14 508.569C309.932 511.172 316.066 512.217 321.453 512.425C326.172 512.611 330.919 512.032 335.441 510.666C337.851 509.94 340.503 508.67 341.115 506.23C341.424 505.015 341.149 503.745 340.963 502.508C339.267 491.067 335.992 480.07 333.52 468.596L346.884 448.93C346.884 448.913 346.884 448.896 346.884 448.879C347.098 441.278 347.311 433.683 347.531 426.082C347.671 421.078 347.811 416.08 347.952 411.077C348.014 408.895 348.486 406.225 348.014 404.015Z" fill="#D6B492"/>
<path d="M364.035 624.203L340.441 487.418L346.244 487.041V477.613H289.742L293.084 490.482L297.758 490.179L278.844 631.641L285.95 713.593H384.259L364.035 624.203Z" fill="#F1CC76"/>
<path d="M877.139 714.717L790.453 713.593L810.126 427.273L859.32 429.848L877.139 714.717Z" fill="#C1E8D0"/>
<path d="M790.428 713.594L789.855 620.74V557.329L793.417 519.436C793.417 519.436 805.686 490.826 806.478 490.05C807.27 489.274 853.172 483.09 853.172 483.09L866.233 487.728L882.457 534.903L887.603 581.301L889.288 620.268L891.355 657.508L887.794 713.594H790.428Z" fill="#C1E8D0"/>
<path d="M812.887 484.776H815.696L817.943 433.615H814.01L812.887 484.776Z" fill="#A3D3B4"/>
<path d="M821.312 484.776H824.121L826.93 433.615L822.998 434.74L821.312 484.776Z" fill="#A3D3B4"/>
<path d="M833.673 433.615L831.426 484.776L833.572 486.041L837.605 433.615H833.673Z" fill="#A3D3B4"/>
<path d="M837.605 485.563L839.291 484.776L845.47 435.302H843.223L837.605 485.563Z" fill="#A3D3B4"/>
<path d="M848.277 483.089H850.524L852.771 435.302H850.187L848.277 483.089Z" fill="#A3D3B4"/>
<path d="M858.392 435.302H856.145V481.403H858.392V435.302Z" fill="#A3D3B4"/>
<path d="M712.096 496.768L710.433 484.883L684.558 478.39L683.165 486.98L694.108 495.261L683.12 497.145L652.785 491.523V504.453L661.408 529.28L646.605 701.787H697.726L694.372 530.011L713.529 506.989L712.096 496.768Z" fill="#ECC192"/>
<path d="M711.264 714.718L705.286 570.051L643.93 561.983L618.258 714.718H711.264Z" fill="#DCEFFA"/>
<path d="M631.544 703.322C633.514 703.322 635.111 701.723 635.111 699.752C635.111 697.78 633.514 696.182 631.544 696.182C629.574 696.182 627.977 697.78 627.977 699.752C627.977 701.723 629.574 703.322 631.544 703.322Z" fill="white"/>
<path d="M650.802 685.106C652.772 685.106 654.369 683.507 654.369 681.536C654.369 679.564 652.772 677.966 650.802 677.966C648.831 677.966 647.234 679.564 647.234 681.536C647.234 683.507 648.831 685.106 650.802 685.106Z" fill="white"/>
<path d="M680.416 663.074C680.416 661.101 678.82 659.504 676.848 659.504C674.877 659.504 673.281 661.101 673.281 663.074C673.281 665.042 674.877 666.644 676.848 666.644C678.82 666.638 680.416 665.042 680.416 663.074Z" fill="white"/>
<path d="M647.314 653.837C647.314 651.869 645.719 650.267 643.747 650.267C641.781 650.267 640.18 651.863 640.18 653.837C640.18 655.81 641.775 657.407 643.747 657.407C645.719 657.407 647.314 655.81 647.314 653.837Z" fill="white"/>
<path d="M669.794 635.143C671.764 635.143 673.361 633.545 673.361 631.573C673.361 629.601 671.764 628.003 669.794 628.003C667.824 628.003 666.227 629.601 666.227 631.573C666.227 633.545 667.824 635.143 669.794 635.143Z" fill="white"/>
<path d="M695.614 707.842C697.584 707.842 699.181 706.244 699.181 704.272C699.181 702.301 697.584 700.702 695.614 700.702C693.644 700.702 692.047 702.301 692.047 704.272C692.047 706.244 693.644 707.842 695.614 707.842Z" fill="white"/>
<path d="M673.282 698.397C675.252 698.397 676.849 696.799 676.849 694.827C676.849 692.855 675.252 691.257 673.282 691.257C671.312 691.257 669.715 692.855 669.715 694.827C669.715 696.799 671.312 698.397 673.282 698.397Z" fill="white"/>
<path d="M699.309 680.491C701.279 680.491 702.877 678.892 702.877 676.921C702.877 674.949 701.279 673.351 699.309 673.351C697.339 673.351 695.742 674.949 695.742 676.921C695.742 678.892 697.339 680.491 699.309 680.491Z" fill="white"/>
<path d="M699.872 645.173C701.842 645.173 703.439 643.575 703.439 641.603C703.439 639.632 701.842 638.033 699.872 638.033C697.902 638.033 696.305 639.632 696.305 641.603C696.305 643.575 697.902 645.173 699.872 645.173Z" fill="white"/>
<path d="M649.166 614.988C649.166 613.015 647.57 611.418 645.598 611.418C643.627 611.418 642.031 613.015 642.031 614.988C642.031 616.956 643.627 618.558 645.598 618.558C647.57 618.558 649.166 616.961 649.166 614.988Z" fill="white"/>
<path d="M689.016 611.496C690.987 611.496 692.584 609.898 692.584 607.926C692.584 605.955 690.987 604.356 689.016 604.356C687.046 604.356 685.449 605.955 685.449 607.926C685.449 609.898 687.046 611.496 689.016 611.496Z" fill="white"/>
<path d="M665.141 595.204C667.111 595.204 668.709 593.606 668.709 591.634C668.709 589.663 667.111 588.064 665.141 588.064C663.171 588.064 661.574 589.663 661.574 591.634C661.574 593.606 663.171 595.204 665.141 595.204Z" fill="white"/>
<path d="M694.213 585.118C694.213 583.15 692.617 581.548 690.645 581.548C688.674 581.548 687.078 583.144 687.078 585.118C687.078 587.091 688.674 588.688 690.645 588.688C692.617 588.688 694.213 587.086 694.213 585.118Z" fill="white"/>
<path d="M643.367 564.187L636.098 555.001H624.16L629.042 543.054L639.35 537.623C639.35 537.623 645.322 537.623 646.406 540.339C647.49 543.054 654.883 547.327 654.883 547.327L664.86 553.916L674.084 550.655L680.056 549.025L686.567 554.455L693.65 558.048L699.049 553.365L705.56 550.649L714.245 552.819L720.756 560.966L719.671 567.482L711.531 576.713L705.391 571.428L691.999 571.282L676.258 569.652L664.411 564.17L653.467 564.215L643.367 564.187Z" fill="white"/>
<path d="M652.606 575.825C654.576 575.825 656.174 574.226 656.174 572.255C656.174 570.283 654.576 568.685 652.606 568.685C650.636 568.685 649.039 570.283 649.039 572.255C649.039 574.226 650.636 575.825 652.606 575.825Z" fill="white"/>
<path d="M712.095 467.533L710.432 455.648L684.557 449.154L683.164 457.745L694.107 466.026L713.527 477.754L712.095 467.533Z" fill="#ECC192"/>
<path d="M187.081 348.723L182.025 320.05L171.913 299.249L153.936 295.313L143.825 307.12C143.825 307.12 138.207 315.553 138.207 316.677C138.207 317.802 138.207 348.723 138.207 348.723L139.892 366.151H165.172C165.172 366.151 182.025 358.28 182.586 358.28C183.148 358.28 187.081 348.723 187.081 348.723Z" fill="#DAA98A"/>
<path d="M167.439 553.551C167.574 540.879 167.068 380.443 169.95 375.979C173.905 369.856 187.607 358.398 188.151 357.561L187.017 346.345L148.98 360.861C148.98 360.861 135.25 341.819 135.362 342.286L135.177 342.19L156.266 334.932L149.805 326.15L121.11 330.249L117.543 341.83L119.436 357.954C122.324 363.481 125.206 369.013 128.093 374.539C129.705 377.631 132.093 380.504 132.969 383.878C134.306 389.022 107.252 533.34 103.797 559.752C103.791 559.758 167.439 553.551 167.439 553.551Z" fill="#DAA98A"/>
<path d="M184.272 714.718H85.9636L82.5312 621.212L117.406 428.854L177.531 449.925L171.942 621.336L184.272 714.718Z" fill="#293A53"/>
<path d="M621.499 373.628L517.1 415.456C514.853 416.355 512.14 414.871 511.05 412.139L427.954 204.432C426.858 201.7 427.797 198.754 430.049 197.855L534.448 156.026C536.695 155.127 539.408 156.611 540.498 159.338L623.594 367.05C624.684 369.782 623.746 372.728 621.499 373.628Z" fill="#334C60"/>
<path opacity="0.87" d="M537.124 168.355L436.43 208.701L510.778 394.547L611.472 354.201L537.124 168.355Z" fill="white"/>
<path d="M573.499 379.54L552.324 388.024L553.675 391.401L574.85 382.917L573.499 379.54Z" fill="white"/>
<path opacity="0.87" d="M576.157 296.968L497.211 328.6L503.137 343.413L582.083 311.781L576.157 296.968Z" fill="white"/>
<path opacity="0.87" d="M568.559 277.795L489.613 309.427L495.539 324.24L574.485 292.608L568.559 277.795Z" fill="white"/>
<path opacity="0.87" d="M531.532 184.363L452.586 215.995L456.522 225.834L535.468 194.202L531.532 184.363Z" fill="#C7C7C7"/>
<path opacity="0.87" d="M534.51 336.181L504.918 348.038L510.844 362.851L540.436 350.994L534.51 336.181Z" fill="white"/>
<path opacity="0.87" d="M576.596 319.471L547.004 331.328L552.93 346.141L582.522 334.284L576.596 319.471Z" fill="white"/>
<path d="M474.141 366.713L458.412 351.533L456.727 316.114L485.377 295.875L491.556 309.368L474.703 331.856L485.938 350.971L474.141 366.713Z" fill="#ECCFB2"/>
<path d="M235.314 334.521L94.244 349.453C91.3229 349.762 88.6713 347.603 88.3624 344.657L79.0258 256.29C78.7169 253.344 80.8516 250.679 83.7784 250.37L224.849 235.444C227.77 235.134 230.421 237.293 230.73 240.239L240.067 328.606C240.376 331.552 238.241 334.212 235.314 334.521Z" fill="#3372BC"/>
<g opacity="0.3">
<path opacity="0.3" d="M94.7734 347.632L233.4 332.964C236.321 332.655 238.462 329.99 238.153 327.044L232.844 276.8C199.823 321.399 127.732 340.767 94.7734 347.632Z" fill="#808FA5"/>
</g>
<path d="M116.48 301.537L93.7287 303.943C92.6894 304.055 91.7456 303.291 91.6389 302.251L89.9367 286.143C89.8244 285.103 90.5884 284.159 91.6277 284.052L114.379 281.646C115.418 281.533 116.362 282.298 116.469 283.338L118.171 299.445C118.283 300.485 117.525 301.424 116.48 301.537Z" fill="#E0C173"/>
<path d="M117.995 297.764L117.136 289.635C111.327 296.527 99.8055 300.817 92.6992 302.92C93.4183 303.538 94.3733 303.87 95.3788 303.763L114.827 301.705C116.776 301.503 118.203 299.726 117.995 297.764Z" fill="#C5A45D"/>
<path d="M123.243 307.629L92.5664 310.877L93.6042 320.695L124.281 317.447L123.243 307.629Z" fill="#C4C2C2"/>
<path d="M157.462 304.006L126.785 307.254L127.823 317.072L158.5 313.824L157.462 304.006Z" fill="#C4C2C2"/>
<path d="M191.685 300.383L161.008 303.631L162.046 313.449L192.722 310.201L191.685 300.383Z" fill="#C4C2C2"/>
<path d="M225.903 296.762L195.227 300.01L196.264 309.828L226.941 306.58L225.903 296.762Z" fill="#C4C2C2"/>
<path d="M98.7316 272.96C97.8384 274.135 96.4396 274.877 94.9958 275.029C91.9904 275.349 89.2771 273.134 88.9569 270.109C88.6367 267.079 90.8275 264.352 93.833 264.032C95.2655 263.88 96.7991 264.307 97.9058 265.263L97.2654 266.011C96.1418 265.145 95.0014 264.92 93.9341 265.033C91.4792 265.291 89.6815 267.518 89.9456 270.003C90.204 272.471 92.4342 274.287 94.8891 274.028C95.9677 273.916 96.9957 273.46 97.9395 272.375L98.7316 272.96Z" fill="#F5F5F5" stroke="#F5F5F5" stroke-miterlimit="10"/>
<path d="M100.59 274.292L99.4609 263.582L102.652 263.244C104.281 263.07 105.758 264.273 105.932 265.915C106.067 267.185 105.343 268.445 104.174 268.962L107.129 273.6L106.011 273.718L103.157 269.209L101.09 269.429L101.59 274.185L100.59 274.292ZM100.978 268.433L103.174 268.203C104.253 268.091 105.05 267.107 104.938 266.022C104.826 264.937 103.837 264.133 102.758 264.245L100.562 264.476L100.978 268.433Z" fill="#F5F5F5" stroke="#F5F5F5" stroke-miterlimit="10"/>
<path d="M108.412 263.644L108.727 266.641L112.552 266.236L112.659 267.237L108.833 267.642L109.333 272.353L113.715 271.892L113.822 272.893L108.406 273.466L107.277 262.756L112.693 262.183L112.799 263.183L108.412 263.644Z" fill="#F5F5F5" stroke="#F5F5F5" stroke-miterlimit="10"/>
<path d="M115.664 272.701L114.535 261.991L116.917 261.738C120.203 261.39 122.613 263.127 122.967 266.483C123.321 269.84 121.338 272.1 118.052 272.448L115.664 272.701ZM116.552 271.594L117.939 271.448C120.675 271.155 122.265 269.401 121.967 266.585C121.67 263.773 119.754 262.441 117.018 262.733L115.631 262.88L116.552 271.594Z" fill="#F5F5F5" stroke="#F5F5F5" stroke-miterlimit="10"/>
<path d="M126.225 271.582L125.231 271.689L124.102 260.979L125.096 260.872L126.225 271.582Z" fill="#F5F5F5" stroke="#F5F5F5" stroke-miterlimit="10"/>
<path d="M132.893 261.057L130.112 261.35L131.14 271.065L130.145 271.171L129.117 261.457L126.325 261.754L126.219 260.754L132.78 260.057L132.893 261.057Z" fill="#F5F5F5" stroke="#F5F5F5" stroke-miterlimit="10"/>
<path d="M147.946 267.754C147.053 268.929 145.654 269.671 144.211 269.823C141.205 270.143 138.492 267.928 138.172 264.903C137.851 261.873 140.042 259.146 143.048 258.826C144.48 258.674 146.014 259.101 147.121 260.057L146.48 260.805C145.357 259.939 144.216 259.714 143.149 259.827C140.694 260.085 138.896 262.312 139.16 264.796C139.419 267.265 141.649 269.08 144.104 268.822C145.183 268.709 146.211 268.254 147.154 267.169L147.946 267.754Z" fill="#F5F5F5" stroke="#F5F5F5" stroke-miterlimit="10"/>
<path d="M153.071 257.909L159.289 268.085L158.2 268.203L156.245 265.015L151.155 265.555L149.919 269.08L148.812 269.198L152.784 257.949L153.071 257.909ZM151.531 264.498L155.655 264.06L153.138 259.933L151.531 264.498Z" fill="#F5F5F5" stroke="#F5F5F5" stroke-miterlimit="10"/>
<path d="M160.571 267.95L159.441 257.24L162.632 256.903C164.261 256.728 165.739 257.931 165.913 259.573C166.048 260.844 165.323 262.103 164.155 262.62L167.109 267.258L165.992 267.376L163.138 262.868L161.071 263.087L161.57 267.843L160.571 267.95ZM160.953 262.086L163.149 261.856C164.228 261.743 165.025 260.759 164.913 259.674C164.801 258.589 163.812 257.785 162.733 257.898L160.537 258.128L160.953 262.086Z" fill="#F5F5F5" stroke="#F5F5F5" stroke-miterlimit="10"/>
<path d="M168.379 267.118L167.25 256.408L169.632 256.155C172.918 255.807 175.328 257.544 175.682 260.9C176.036 264.257 174.053 266.517 170.767 266.865L168.379 267.118ZM169.267 266.016L170.654 265.87C173.39 265.578 174.98 263.824 174.682 261.007C174.384 258.196 172.469 256.864 169.733 257.156L168.345 257.302L169.267 266.016Z" fill="#F5F5F5" stroke="#F5F5F5" stroke-miterlimit="10"/>
<path d="M193.118 260.107C192.787 256.976 194.057 254.047 196.259 252.141C194.68 251.27 192.838 250.854 190.911 251.062C185.877 251.596 182.237 256.133 182.771 261.204C183.304 266.275 187.821 269.952 192.849 269.418C194.77 269.215 196.489 268.422 197.854 267.242C195.298 265.836 193.45 263.239 193.118 260.107Z" fill="#C72B2C"/>
<path d="M203.467 259.011C203.136 255.879 204.405 252.95 206.607 251.044C205.029 250.173 203.186 249.757 201.259 249.965C199.338 250.167 197.619 250.96 196.254 252.141C198.804 253.546 200.658 256.144 200.99 259.275C201.321 262.407 200.051 265.336 197.849 267.241C199.428 268.113 201.27 268.529 203.197 268.321C205.119 268.118 206.838 267.326 208.203 266.145C205.652 264.74 203.798 262.142 203.467 259.011Z" fill="#F3CC30"/>
<path d="M200.989 259.275C200.658 256.144 198.81 253.546 196.254 252.141C194.051 254.047 192.787 256.976 193.113 260.107C193.445 263.239 195.293 265.836 197.849 267.241C200.051 265.33 201.321 262.406 200.989 259.275Z" fill="#D66D2E"/>
<path d="M211.607 248.869C209.686 249.071 207.967 249.864 206.602 251.045C209.152 252.45 211.006 255.048 211.337 258.179C211.669 261.311 210.399 264.24 208.197 266.145C209.776 267.017 211.618 267.433 213.545 267.225C218.578 266.691 222.219 262.154 221.685 257.083C221.151 252.012 216.64 248.335 211.607 248.869Z" fill="#60ACBE"/>
<path d="M211.337 258.179C211.005 255.048 209.157 252.45 206.601 251.045C204.399 252.951 203.135 255.88 203.461 259.011C203.792 262.143 205.641 264.74 208.197 266.146C210.404 264.234 211.668 261.311 211.337 258.179Z" fill="#58595A"/>
<path d="M227.686 313.575L162.785 320.445L163.1 323.42L228.001 316.549L227.686 313.575Z" fill="#EBECEC"/>
<path d="M228.357 319.969L178.797 325.216L179.111 328.19L228.671 322.944L228.357 319.969Z" fill="#C5C6C7"/>
<path d="M116.685 285.367L116.612 284.653L103.697 286.02L103.36 282.804L102.652 282.877L102.989 286.093L90.0742 287.459L90.1472 288.173L103.062 286.807L103.388 289.871L90.4731 291.237L90.5461 291.951L103.461 290.585L103.467 290.613L103.843 290.545C103.972 290.523 106.989 290.006 107.511 292.339C107.511 292.344 107.657 293.019 107.208 293.671C106.725 294.368 105.764 294.807 104.343 294.975L91.018 296.387L91.091 297.101L104.068 295.729L104.399 298.849L91.4225 300.221L91.4955 300.935L104.472 299.563L104.809 302.779L105.517 302.706L105.18 299.49L118.033 298.129L117.96 297.415L105.107 298.776L104.776 295.644C106.219 295.42 107.236 294.897 107.792 294.087C108.197 293.497 108.259 292.907 108.242 292.541L117.337 291.58L117.264 290.866L108.101 291.833C107.461 289.966 105.405 289.668 104.09 289.798L103.77 286.745L116.685 285.367Z" fill="#EBECEC"/>
<path d="M227.972 316.547L227.657 313.573L180.334 318.582C177.767 319.909 175.177 321.185 172.582 322.411L227.972 316.547Z" fill="#C5C6C7"/>
<path d="M225.883 296.758L212.013 298.225C207.025 302.273 201.722 306.034 196.211 309.52L196.245 309.823L226.923 306.58L225.883 296.758Z" fill="#9B9C9D"/>
<path d="M80.8891 256.993L82.5126 272.353C82.2261 265.786 83.844 251.264 103.332 249.201L85.6416 251.073C82.7148 251.388 80.5801 254.047 80.8891 256.993Z" fill="#AEB4BB"/>
<path d="M135.358 342.28L135.173 342.184L156.262 334.926L149.801 326.145L121.106 330.243L117.539 341.824L119.432 357.948C122.32 363.475 125.202 369.007 128.089 374.533C129.701 377.626 132.089 380.498 132.965 383.872L141.577 350.971C141.577 350.971 135.246 341.813 135.358 342.28Z" fill="#DAA98A"/>
<path d="M398.421 436.033L251.424 409.469C248.379 408.918 246.34 405.955 246.891 402.885L263.508 310.802C264.064 307.732 267.007 305.669 270.052 306.22L417.049 332.784C420.094 333.335 422.133 336.298 421.583 339.367L404.966 431.451C404.415 434.521 401.466 436.584 398.421 436.033Z" fill="#363636"/>
<g opacity="0.3">
<path opacity="0.3" d="M252.496 407.782L396.943 433.885C399.987 434.436 402.937 432.373 403.487 429.303L412.936 376.945C366.416 412.291 287.831 410.576 252.496 407.782Z" fill="#363636"/>
</g>
<path d="M288.125 367.618L264.216 363.301C263.188 363.115 262.497 362.12 262.682 361.086L265.744 344.107C265.929 343.078 266.924 342.387 267.957 342.572L291.866 346.89C292.894 347.075 293.585 348.07 293.4 349.105L290.338 366.084C290.153 367.112 289.158 367.804 288.125 367.618Z" fill="#E0C173"/>
<path d="M290.668 364.234L292.196 355.762C284.292 361.013 271.383 361.946 263.574 361.98C264.119 362.817 264.984 363.436 266.035 363.627L286.303 367.287C288.337 367.652 290.297 366.281 290.668 364.234Z" fill="#C5A45D"/>
<path d="M293.055 375.749L261.09 369.973L259.244 380.202L291.209 385.979L293.055 375.749Z" fill="#C4C2C2"/>
<path d="M328.711 382.191L296.746 376.415L294.9 386.645L326.865 392.421L328.711 382.191Z" fill="#C4C2C2"/>
<path d="M364.371 388.635L332.406 382.858L330.56 393.088L362.525 398.865L364.371 388.635Z" fill="#C4C2C2"/>
<path d="M400.027 395.077L368.062 389.301L366.217 399.531L398.181 405.307L400.027 395.077Z" fill="#C4C2C2"/>
<path d="M278.512 333.476C277.259 334.403 275.63 334.735 274.125 334.465C270.996 333.897 268.9 330.861 269.473 327.707C270.041 324.553 273.063 322.439 276.192 323.007C277.686 323.277 279.108 324.165 279.945 325.453L279.079 326.021C278.198 324.818 277.113 324.25 276.001 324.053C273.445 323.592 270.968 325.312 270.501 327.898C270.035 330.473 271.754 332.964 274.31 333.425C275.434 333.627 276.608 333.47 277.883 332.655L278.512 333.476Z" fill="#F5F5F5" stroke="#F5F5F5" stroke-miterlimit="10"/>
<path d="M280 335.371L282.017 324.211L285.342 324.812C287.039 325.122 288.179 326.769 287.87 328.484C287.629 329.81 286.522 330.867 285.196 331.042L286.814 336.608L285.646 336.394L284.09 330.997L281.932 330.609L281.039 335.567L280 335.371ZM282.112 329.563L284.404 329.979C285.528 330.182 286.623 329.428 286.825 328.298C287.028 327.168 286.269 326.061 285.146 325.858L282.854 325.442L282.112 329.563Z" fill="#F5F5F5" stroke="#F5F5F5" stroke-miterlimit="10"/>
<path d="M291.045 326.921L290.484 330.047L294.472 330.766L294.287 331.806L290.298 331.087L289.411 336L293.978 336.827L293.792 337.867L288.152 336.849L290.169 325.689L295.809 326.707L295.624 327.747L291.045 326.921Z" fill="#F5F5F5" stroke="#F5F5F5" stroke-miterlimit="10"/>
<path d="M295.703 338.21L297.72 327.05L300.203 327.5C303.63 328.118 305.551 330.586 304.916 334.083C304.281 337.58 301.613 339.278 298.186 338.659L295.703 338.21ZM296.922 337.355L298.372 337.619C301.225 338.136 303.349 336.827 303.877 333.897C304.405 330.968 302.86 329.057 300.006 328.54L298.557 328.275L296.922 337.355Z" fill="#F5F5F5" stroke="#F5F5F5" stroke-miterlimit="10"/>
<path d="M306.706 340.2L305.672 340.014L307.689 328.854L308.722 329.04L306.706 340.2Z" fill="#F5F5F5" stroke="#F5F5F5" stroke-miterlimit="10"/>
<path d="M316.555 331.531L313.662 331.008L311.837 341.128L310.803 340.942L312.629 330.822L309.719 330.294L309.904 329.254L316.741 330.491L316.555 331.531Z" fill="#F5F5F5" stroke="#F5F5F5" stroke-miterlimit="10"/>
<path d="M329.797 342.74C328.545 343.668 326.915 343.999 325.41 343.73C322.281 343.162 320.185 340.126 320.758 336.972C321.326 333.818 324.348 331.704 327.477 332.272C328.971 332.542 330.393 333.43 331.23 334.718L330.365 335.285C329.483 334.082 328.398 333.514 327.286 333.318C324.73 332.857 322.253 334.577 321.786 337.163C321.32 339.738 323.039 342.229 325.595 342.69C326.719 342.892 327.893 342.735 329.168 341.919L329.797 342.74Z" fill="#F5F5F5" stroke="#F5F5F5" stroke-miterlimit="10"/>
<path d="M337.879 334.307L341.165 346.429L340.03 346.221L338.991 342.42L333.688 341.464L331.402 344.663L330.25 344.455L337.581 334.257L337.879 334.307ZM334.379 340.514L338.676 341.29L337.351 336.376L334.379 340.514Z" fill="#F5F5F5" stroke="#F5F5F5" stroke-miterlimit="10"/>
<path d="M342.496 346.665L344.513 335.505L347.838 336.106C349.535 336.416 350.675 338.063 350.366 339.778C350.125 341.104 349.018 342.161 347.692 342.336L349.31 347.901L348.142 347.688L346.586 342.291L344.429 341.903L343.535 346.861L342.496 346.665ZM344.608 340.857L346.9 341.273C348.024 341.476 349.119 340.722 349.322 339.592C349.524 338.462 348.765 337.355 347.642 337.152L345.35 336.736L344.608 340.857Z" fill="#F5F5F5" stroke="#F5F5F5" stroke-miterlimit="10"/>
<path d="M350.637 348.137L352.653 336.978L355.136 337.427C358.563 338.046 360.484 340.514 359.85 344.011C359.22 347.508 356.546 349.205 353.12 348.587L350.637 348.137ZM351.856 347.283L353.305 347.547C356.159 348.064 358.282 346.754 358.81 343.825C359.338 340.896 357.794 338.985 354.94 338.467L353.49 338.203L351.856 347.283Z" fill="#F5F5F5" stroke="#F5F5F5" stroke-miterlimit="10"/>
<path d="M377.708 348.351C378.297 345.09 380.438 342.504 383.23 341.228C381.893 339.884 380.146 338.917 378.146 338.557C372.905 337.607 367.882 341.121 366.927 346.406C365.972 351.691 369.45 356.739 374.697 357.684C376.702 358.043 378.668 357.751 380.393 356.958C378.224 354.788 377.118 351.612 377.708 348.351Z" fill="#C72B2C"/>
<path d="M388.495 350.301C389.085 347.041 391.225 344.454 394.017 343.178C392.68 341.835 390.933 340.868 388.933 340.508C386.928 340.148 384.962 340.44 383.237 341.233C385.4 343.409 386.507 346.58 385.917 349.84C385.327 353.101 383.187 355.687 380.395 356.963C381.732 358.307 383.479 359.274 385.478 359.634C387.484 359.994 389.45 359.701 391.175 358.909C389.012 356.733 387.905 353.562 388.495 350.301Z" fill="#F3CC30"/>
<path d="M385.917 349.827C386.701 345.482 385.5 341.628 383.234 341.218C380.969 340.809 378.496 343.999 377.712 348.344C376.929 352.69 378.13 356.544 380.395 356.953C382.66 357.363 385.133 354.172 385.917 349.827Z" fill="#D66D2E"/>
<path d="M399.711 342.453C397.705 342.093 395.739 342.386 394.014 343.178C396.177 345.354 397.284 348.525 396.694 351.786C396.104 355.046 393.964 357.633 391.172 358.909C392.509 360.252 394.256 361.219 396.256 361.579C401.497 362.529 406.519 359.016 407.474 353.731C408.429 348.446 404.952 343.398 399.711 342.453Z" fill="#60ACBE"/>
<path d="M396.702 351.773C397.486 347.428 396.285 343.574 394.019 343.165C391.754 342.755 389.282 345.946 388.498 350.291C387.714 354.636 388.915 358.49 391.18 358.899C393.446 359.309 395.918 356.118 396.702 351.773Z" fill="#58595A"/>
<path d="M396.865 412.595L329.242 400.375L328.683 403.473L396.306 415.694L396.865 412.595Z" fill="#EBECEC"/>
<path d="M395.66 419.264L344.02 409.932L343.461 413.03L395.101 422.362L395.66 419.264Z" fill="#C5C6C7"/>
<path d="M293 351.32L293.135 350.578L279.681 348.144L280.287 344.793L279.552 344.658L278.945 348.009L265.491 345.575L265.356 346.317L278.81 348.751L278.237 351.944L264.783 349.51L264.648 350.252L278.102 352.686L278.097 352.715L278.495 352.76C278.63 352.776 281.838 353.142 281.675 355.655C281.675 355.661 281.624 356.386 280.978 356.909C280.287 357.471 279.181 357.628 277.698 357.381L263.811 354.873L263.676 355.616L277.198 358.061L276.614 361.311L263.092 358.865L262.957 359.607L276.479 362.053L275.872 365.403L276.608 365.538L277.215 362.188L290.607 364.605L290.742 363.863L277.349 361.446L277.939 358.185C279.467 358.387 280.647 358.157 281.45 357.505C282.035 357.032 282.27 356.448 282.36 356.071L291.837 357.786L291.972 357.044L282.428 355.318C282.332 353.243 280.338 352.332 278.973 352.074L279.546 348.892L293 351.32Z" fill="#EBECEC"/>
<path d="M396.298 415.692L396.86 412.595L347.548 403.684C344.559 404.263 341.571 404.791 338.582 405.263L396.298 415.692Z" fill="#C5C6C7"/>
<path d="M400.024 395.076L385.569 392.462C379.334 395.082 372.868 397.314 366.267 399.208L366.211 399.523L398.175 405.303L400.024 395.076Z" fill="#9B9C9D"/>
<path d="M265.188 312.067L262.301 328.073C263.947 321.355 269.862 307.148 290.17 310.819L271.738 307.485C268.688 306.94 265.739 308.997 265.188 312.067Z" fill="#4E4E4E"/>
<path d="M346.621 448.795L357.856 434.178L348.306 411.127L337.633 406.067L331.453 416.187L338.756 423.496L333.138 440.924L346.621 448.795Z" fill="#D6B492"/>
<path d="M753.547 489.774L612.117 504.312C609.184 504.616 606.538 502.446 606.235 499.489L597.146 410.896C596.842 407.945 598.994 405.28 601.926 404.982L743.356 390.443C746.289 390.14 748.935 392.31 749.238 395.267L758.327 483.859C758.625 486.811 756.479 489.476 753.547 489.774Z" fill="#A53E39"/>
<g opacity="0.3">
<path opacity="0.3" d="M612.648 502.491L751.623 488.205C754.556 487.901 756.707 485.242 756.404 482.291L751.236 431.917C718.013 476.517 645.703 495.705 612.648 502.491Z" fill="#A53E39"/>
</g>
<path d="M634.548 456.357L611.73 458.701C610.69 458.808 609.747 458.043 609.64 457.003L607.983 440.851C607.876 439.811 608.64 438.866 609.679 438.76L632.498 436.415C633.537 436.308 634.481 437.073 634.588 438.113L636.245 454.265C636.357 455.305 635.593 456.25 634.548 456.357Z" fill="#E0C173"/>
<path d="M636.076 452.579L635.239 444.427C629.397 451.319 617.836 455.581 610.707 457.672C611.426 458.291 612.381 458.628 613.392 458.527L632.891 456.525C634.846 456.323 636.279 454.546 636.076 452.579Z" fill="#C5A45D"/>
<path d="M641.325 462.465L610.566 465.628L611.577 475.471L642.336 472.309L641.325 462.465Z" fill="#C4C2C2"/>
<path d="M675.634 458.939L644.875 462.102L645.885 471.945L676.644 468.782L675.634 458.939Z" fill="#C4C2C2"/>
<path d="M709.942 455.413L679.184 458.575L680.194 468.419L710.953 465.256L709.942 455.413Z" fill="#C4C2C2"/>
<path d="M744.251 451.886L713.492 455.049L714.503 464.892L745.261 461.73L744.251 451.886Z" fill="#C4C2C2"/>
<path d="M616.848 427.662C615.949 428.837 614.545 429.579 613.095 429.725C610.084 430.034 607.371 427.808 607.056 424.772C606.747 421.736 608.949 419.004 611.96 418.695C613.399 418.549 614.932 418.981 616.039 419.937L615.398 420.685C614.275 419.819 613.129 419.589 612.067 419.695C609.607 419.948 607.798 422.175 608.051 424.665C608.303 427.145 610.534 428.966 612.989 428.713C614.067 428.601 615.101 428.151 616.05 427.066L616.848 427.662Z" fill="#F5F5F5" stroke="#F5F5F5" stroke-miterlimit="10"/>
<path d="M618.707 429.006L617.605 418.268L620.802 417.941C622.437 417.773 623.908 418.982 624.077 420.629C624.206 421.905 623.476 423.164 622.307 423.676L625.257 428.337L624.133 428.455L621.285 423.929L619.212 424.143L619.701 428.91L618.707 429.006ZM619.111 423.131L621.313 422.906C622.392 422.793 623.195 421.815 623.088 420.724C622.976 419.634 621.987 418.824 620.909 418.937L618.707 419.161L619.111 423.131Z" fill="#F5F5F5" stroke="#F5F5F5" stroke-miterlimit="10"/>
<path d="M626.578 418.357L626.887 421.365L630.724 420.972L630.825 421.972L626.988 422.366L627.471 427.088L631.864 426.639L631.965 427.639L626.539 428.196L625.438 417.458L630.864 416.901L630.965 417.902L626.578 418.357Z" fill="#F5F5F5" stroke="#F5F5F5" stroke-miterlimit="10"/>
<path d="M633.812 427.453L632.711 416.715L635.098 416.468C638.396 416.131 640.8 417.879 641.149 421.241C641.491 424.609 639.497 426.863 636.205 427.206L633.812 427.453ZM634.705 426.346L636.098 426.205C638.84 425.924 640.441 424.165 640.154 421.348C639.862 418.526 637.946 417.193 635.205 417.474L633.812 417.615L634.705 426.346Z" fill="#F5F5F5" stroke="#F5F5F5" stroke-miterlimit="10"/>
<path d="M644.404 426.363L643.41 426.464L642.309 415.726L643.303 415.625L644.404 426.363Z" fill="#F5F5F5" stroke="#F5F5F5" stroke-miterlimit="10"/>
<path d="M651.121 415.833L648.334 416.119L649.334 425.857L648.34 425.958L647.34 416.221L644.542 416.507L644.441 415.507L651.02 414.832L651.121 415.833Z" fill="#F5F5F5" stroke="#F5F5F5" stroke-miterlimit="10"/>
<path d="M666.188 422.591C665.289 423.766 663.884 424.508 662.435 424.654C659.424 424.963 656.711 422.737 656.396 419.701C656.087 416.665 658.289 413.933 661.3 413.623C662.738 413.477 664.272 413.91 665.379 414.866L664.738 415.614C663.615 414.748 662.469 414.517 661.407 414.624C658.946 414.877 657.138 417.104 657.39 419.594C657.643 422.073 659.873 423.895 662.328 423.642C663.407 423.53 664.441 423.08 665.39 421.995L666.188 422.591Z" fill="#F5F5F5" stroke="#F5F5F5" stroke-miterlimit="10"/>
<path d="M671.356 412.741L677.558 422.956L676.463 423.069L674.513 419.87L669.412 420.393L668.165 423.924L667.059 424.036L671.075 412.769L671.356 412.741ZM669.789 419.342L673.923 418.914L671.418 414.771L669.789 419.342Z" fill="#F5F5F5" stroke="#F5F5F5" stroke-miterlimit="10"/>
<path d="M678.839 422.827L677.738 412.089L680.935 411.763C682.569 411.594 684.041 412.803 684.21 414.45C684.339 415.726 683.609 416.986 682.44 417.497L685.39 422.158L684.266 422.276L681.418 417.75L679.345 417.964L679.834 422.731L678.839 422.827ZM679.238 416.952L681.44 416.727C682.519 416.615 683.322 415.636 683.215 414.546C683.109 413.455 682.114 412.645 681.036 412.758L678.834 412.983L679.238 416.952Z" fill="#F5F5F5" stroke="#F5F5F5" stroke-miterlimit="10"/>
<path d="M686.667 422.023L685.566 411.285L687.954 411.037C691.252 410.7 693.656 412.448 694.004 415.81C694.353 419.172 692.353 421.432 689.061 421.775L686.667 422.023ZM687.555 420.915L688.948 420.775C691.69 420.494 693.291 418.734 693.004 415.917C692.718 413.101 690.797 411.757 688.055 412.044L686.662 412.184L687.555 420.915Z" fill="#F5F5F5" stroke="#F5F5F5" stroke-miterlimit="10"/>
<path d="M711.48 415.063C711.16 411.926 712.435 408.997 714.648 407.091C713.07 406.214 711.222 405.792 709.295 405.989C704.25 406.506 700.582 411.049 701.104 416.131C701.627 421.214 706.138 424.913 711.182 424.396C713.109 424.199 714.834 423.406 716.204 422.231C713.648 420.814 711.8 418.206 711.48 415.063Z" fill="#C72B2C"/>
<path d="M721.856 414C721.536 410.862 722.811 407.933 725.024 406.028C723.446 405.15 721.597 404.729 719.671 404.926C717.744 405.122 716.019 405.915 714.648 407.09C717.199 408.507 719.047 411.115 719.373 414.253C719.693 417.39 718.418 420.319 716.205 422.225C717.783 423.102 719.631 423.523 721.558 423.327C723.485 423.13 725.21 422.337 726.58 421.162C724.024 419.745 722.176 417.137 721.856 414Z" fill="#F3CC30"/>
<path d="M716.237 422.214C718.416 421.99 719.835 418.42 719.406 414.241C718.977 410.062 716.863 406.856 714.684 407.08C712.505 407.304 711.086 410.873 711.515 415.052C711.944 419.232 714.058 422.438 716.237 422.214Z" fill="#D66D2E"/>
<path d="M730.046 403.858C728.119 404.055 726.394 404.847 725.023 406.022C727.574 407.439 729.422 410.048 729.748 413.185C730.068 416.322 728.793 419.251 726.58 421.157C728.158 422.034 730.006 422.456 731.933 422.259C736.978 421.742 740.646 417.199 740.124 412.117C739.601 407.04 735.09 403.341 730.046 403.858Z" fill="#60ACBE"/>
<path d="M726.616 421.15C728.795 420.926 730.214 417.357 729.785 413.178C729.356 408.998 727.242 405.792 725.063 406.016C722.884 406.24 721.465 409.81 721.894 413.989C722.323 418.168 724.437 421.374 726.616 421.15Z" fill="#58595A"/>
<path d="M745.976 468.738L680.91 475.428L681.216 478.409L746.282 471.719L745.976 468.738Z" fill="#EBECEC"/>
<path d="M746.636 475.15L696.949 480.259L697.255 483.24L746.942 478.131L746.636 475.15Z" fill="#C5C6C7"/>
<path d="M634.803 440.154L634.73 439.44L621.782 440.772L621.45 437.551L620.742 437.624L621.074 440.845L608.125 442.178L608.198 442.892L621.147 441.559L621.461 444.629L608.513 445.961L608.586 446.675L621.534 445.343V445.371L621.911 445.304C622.04 445.281 625.068 444.775 625.585 447.114C625.585 447.12 625.731 447.794 625.276 448.446C624.793 449.143 623.826 449.582 622.399 449.745L609.041 451.117L609.114 451.831L622.124 450.493L622.444 453.619L609.434 454.957L609.507 455.671L622.517 454.333L622.849 457.554L623.557 457.481L623.225 454.259L636.112 452.933L636.039 452.219L623.152 453.545L622.832 450.408C624.281 450.189 625.298 449.666 625.866 448.857C626.276 448.266 626.332 447.67 626.321 447.305L635.438 446.366L635.365 445.652L626.18 446.597C625.545 444.725 623.484 444.421 622.169 444.545L621.855 441.486L634.803 440.154Z" fill="#EBECEC"/>
<path d="M746.245 471.732L745.942 468.747L698.495 473.621C695.917 474.943 693.321 476.213 690.715 477.433L746.245 471.732Z" fill="#C5C6C7"/>
<path d="M744.203 451.898L730.3 453.326C725.289 457.369 719.963 461.119 714.43 464.599L714.463 464.902L745.22 461.743L744.203 451.898Z" fill="#9B9C9D"/>
<path d="M599.012 411.605L600.59 427.004C600.326 420.42 601.989 405.87 621.522 403.863L603.787 405.685C600.86 405.988 598.714 408.653 599.012 411.605Z" fill="#BB615E"/>
<path d="M713.157 504.341L710.106 479.21L685.366 467.348L678.625 474.656L681.434 480.841L698.287 489.836L686.49 504.453L713.157 504.341Z" fill="#ECC192"/>
<path d="M908.118 339.446L772.44 363.852C769.626 364.358 766.913 362.452 766.401 359.618L751.138 274.63C750.627 271.796 752.515 269.064 755.323 268.558L891.007 244.153C893.821 243.647 896.534 245.553 897.046 248.386L912.309 333.375C912.814 336.208 910.932 338.94 908.118 339.446Z" fill="#3990A5"/>
<path d="M772.828 362.047L906.152 338.063C908.966 337.557 910.848 334.825 910.337 331.991L901.658 283.664C872.8 329.225 804.287 353.074 772.828 362.047Z" fill="#2C828F"/>
<path d="M790.569 315.851L768.795 319.769C767.767 319.955 766.772 319.263 766.587 318.234L763.823 302.852C763.638 301.824 764.329 300.829 765.357 300.643L787.131 296.724C788.159 296.539 789.153 297.23 789.338 298.259L792.102 313.641C792.293 314.67 791.602 315.665 790.569 315.851Z" fill="#E0C173"/>
<path d="M791.828 312.084L790.423 304.264C785.278 311.353 774.413 316.317 767.672 318.864C768.413 319.41 769.363 319.668 770.329 319.494L789.036 316.132C790.912 315.795 792.165 313.973 791.828 312.084Z" fill="#C5A45D"/>
<path d="M797.561 321.261L768.059 326.568L769.755 336.014L799.257 330.707L797.561 321.261Z" fill="#C4C2C2"/>
<path d="M830.471 315.344L800.969 320.65L802.665 330.096L832.167 324.789L830.471 315.344Z" fill="#C4C2C2"/>
<path d="M863.381 309.423L833.879 314.729L835.575 324.175L865.078 318.868L863.381 309.423Z" fill="#C4C2C2"/>
<path d="M896.295 303.502L866.793 308.809L868.489 318.254L897.991 312.947L896.295 303.502Z" fill="#C4C2C2"/>
<path d="M771.413 289.399C770.632 290.602 769.329 291.417 767.936 291.67C765.043 292.187 762.262 290.237 761.734 287.324C761.211 284.412 763.144 281.612 766.031 281.09C767.408 280.842 768.93 281.151 770.065 281.995L769.497 282.765C768.346 282.006 767.228 281.871 766.205 282.051C763.846 282.473 762.256 284.761 762.689 287.15C763.116 289.528 765.402 291.13 767.761 290.703C768.795 290.518 769.761 290.006 770.604 288.887L771.413 289.399Z" fill="#F5F5F5" stroke="#F5F5F5" stroke-miterlimit="10"/>
<path d="M773.313 290.562L771.465 280.257L774.532 279.706C776.099 279.425 777.616 280.488 777.897 282.062C778.116 283.282 777.498 284.558 776.408 285.137L779.599 289.427L778.521 289.618L775.436 285.452L773.448 285.812L774.268 290.388L773.313 290.562ZM773.274 284.85L775.386 284.468C776.42 284.283 777.127 283.276 776.942 282.231C776.757 281.185 775.74 280.476 774.706 280.662L772.594 281.044L773.274 284.85Z" fill="#F5F5F5" stroke="#F5F5F5" stroke-miterlimit="10"/>
<path d="M780.143 279.689L780.66 282.573L784.34 281.91L784.514 282.871L780.834 283.534L781.649 288.066L785.862 287.307L786.036 288.268L780.829 289.207L778.98 278.902L784.188 277.963L784.362 278.924L780.143 279.689Z" fill="#F5F5F5" stroke="#F5F5F5" stroke-miterlimit="10"/>
<path d="M787.805 287.954L785.957 277.649L788.249 277.238C791.412 276.67 793.867 278.183 794.445 281.415C795.024 284.643 793.26 286.976 790.097 287.543L787.805 287.954ZM788.586 286.818L789.923 286.576C792.552 286.104 793.973 284.288 793.49 281.584C793.002 278.88 791.052 277.727 788.423 278.2L787.086 278.441L788.586 286.818Z" fill="#F5F5F5" stroke="#F5F5F5" stroke-miterlimit="10"/>
<path d="M797.963 286.127L797.008 286.301L795.16 275.996L796.115 275.821L797.963 286.127Z" fill="#F5F5F5" stroke="#F5F5F5" stroke-miterlimit="10"/>
<path d="M803.688 275.456L801.014 275.939L802.693 285.277L801.738 285.452L800.059 276.114L797.373 276.597L797.199 275.636L803.514 274.5L803.688 275.456Z" fill="#F5F5F5" stroke="#F5F5F5" stroke-miterlimit="10"/>
<path d="M818.746 280.881C817.966 282.084 816.662 282.9 815.269 283.153C812.376 283.67 809.595 281.719 809.067 278.807C808.539 275.895 810.477 273.095 813.365 272.572C814.741 272.325 816.263 272.634 817.398 273.477L816.831 274.247C815.679 273.488 814.561 273.353 813.539 273.533C811.18 273.955 809.59 276.243 810.022 278.633C810.449 281.011 812.736 282.613 815.095 282.186C816.129 282 817.095 281.489 817.937 280.37L818.746 280.881Z" fill="#F5F5F5" stroke="#F5F5F5" stroke-miterlimit="10"/>
<path d="M823.021 270.98L829.768 280.403L828.717 280.594L826.599 277.643L821.706 278.525L820.757 282.028L819.695 282.219L822.751 271.031L823.021 270.98ZM821.993 277.48L825.959 276.766L823.234 272.943L821.993 277.48Z" fill="#F5F5F5" stroke="#F5F5F5" stroke-miterlimit="10"/>
<path d="M830.993 280.184L829.145 269.879L832.212 269.328C833.779 269.047 835.296 270.11 835.577 271.69C835.796 272.91 835.178 274.186 834.088 274.765L837.279 279.054L836.2 279.246L833.116 275.08L831.128 275.439L831.948 280.016L830.993 280.184ZM830.953 274.478L833.066 274.096C834.099 273.91 834.807 272.904 834.622 271.858C834.436 270.813 833.42 270.104 832.386 270.29L830.274 270.672L830.953 274.478Z" fill="#F5F5F5" stroke="#F5F5F5" stroke-miterlimit="10"/>
<path d="M838.504 278.835L836.656 268.53L838.948 268.119C842.111 267.551 844.566 269.064 845.145 272.296C845.723 275.523 843.959 277.857 840.796 278.424L838.504 278.835ZM839.285 277.699L840.622 277.457C843.251 276.985 844.673 275.169 844.189 272.465C843.701 269.761 841.751 268.608 839.122 269.081L837.785 269.322L839.285 277.699Z" fill="#F5F5F5" stroke="#F5F5F5" stroke-miterlimit="10"/>
<path d="M861.991 270.289C861.452 267.275 862.474 264.352 864.474 262.345C862.885 261.614 861.064 261.339 859.216 261.676C854.379 262.547 851.166 267.202 852.042 272.082C852.919 276.957 857.553 280.206 862.39 279.335C864.238 279.003 865.851 278.115 867.087 276.872C864.508 275.692 862.531 273.302 861.991 270.289Z" fill="#C72B2C"/>
<path d="M871.944 268.502C871.405 265.488 872.427 262.565 874.427 260.558C872.837 259.827 871.017 259.552 869.169 259.889C867.321 260.221 865.709 261.109 864.473 262.351C867.046 263.532 869.023 265.921 869.562 268.929C870.102 271.942 869.079 274.866 867.079 276.873C868.669 277.604 870.489 277.879 872.337 277.542C874.186 277.21 875.798 276.322 877.034 275.08C874.461 273.899 872.483 271.515 871.944 268.502Z" fill="#F3CC30"/>
<path d="M869.559 268.928C869.02 265.915 867.042 263.531 864.47 262.351C862.47 264.352 861.447 267.281 861.987 270.295C862.526 273.308 864.503 275.692 867.076 276.872C869.076 274.865 870.098 271.942 869.559 268.928Z" fill="#D66D2E"/>
<path d="M879.118 258.095C877.27 258.427 875.658 259.315 874.422 260.557C876.995 261.738 878.972 264.127 879.511 267.135C880.051 270.149 879.028 273.072 877.028 275.079C878.618 275.81 880.438 276.085 882.287 275.748C887.123 274.877 890.337 270.222 889.46 265.342C888.59 260.473 883.961 257.229 879.118 258.095Z" fill="#60ACBE"/>
<path d="M879.512 267.141C878.973 264.128 876.996 261.744 874.423 260.563C872.423 262.565 871.4 265.494 871.94 268.507C872.479 271.521 874.456 273.905 877.029 275.085C879.029 273.078 880.052 270.149 879.512 267.141Z" fill="#58595A"/>
<path d="M899.201 319.672L836.785 330.899L837.299 333.76L899.714 322.533L899.201 319.672Z" fill="#EBECEC"/>
<path d="M900.305 325.821L852.641 334.395L853.154 337.255L900.819 328.681L900.305 325.821Z" fill="#C5C6C7"/>
<path d="M789.688 300.159L789.564 299.473L777.143 301.705L776.587 298.613L775.907 298.737L776.464 301.829L764.043 304.061L764.167 304.747L776.587 302.515L777.115 305.461L764.695 307.693L764.818 308.379L777.239 306.147L777.244 306.175L777.604 306.085C777.728 306.057 780.615 305.343 781.284 307.564C781.284 307.569 781.475 308.21 781.087 308.874C780.671 309.582 779.767 310.077 778.402 310.335L765.582 312.64L765.706 313.326L778.188 311.083L778.727 314.085L766.245 316.328L766.369 317.014L778.851 314.771L779.407 317.863L780.087 317.739L779.531 314.647L791.89 312.427L791.766 311.741L779.407 313.961L778.868 310.954C780.255 310.633 781.199 310.054 781.682 309.233C782.036 308.632 782.048 308.053 782.008 307.699L790.755 306.124L790.631 305.438L781.823 307.024C781.076 305.264 779.053 305.118 777.795 305.332L777.267 302.397L789.688 300.159Z" fill="#EBECEC"/>
<path d="M899.737 322.541L899.226 319.68L853.712 327.865C851.319 329.333 848.897 330.749 846.465 332.121L899.737 322.541Z" fill="#C5C6C7"/>
<path d="M896.321 303.511L882.979 305.911C878.428 310.184 873.552 314.204 868.457 317.971L868.508 318.263L898.011 312.956L896.321 303.511Z" fill="#9B9C9D"/>
<path d="M752.996 275.181L755.648 289.956C754.912 283.614 755.457 269.424 774.197 266.051L757.181 269.109C754.372 269.615 752.491 272.347 752.996 275.181Z" fill="#5EACBB"/>
<path d="M870.188 357.718L860.683 330.552L840.976 324.548L837.605 335.792L849.403 340.852L847.717 361.653L840.976 371.211L870.188 357.718Z" fill="#937051"/>
<path d="M461.445 663.636H553.934L554.777 674.632H460.766L461.445 663.636Z" fill="#AECCDC"/>
<path d="M459.81 690.009L556.159 689.98L557.013 703.884H458.945L459.81 690.009Z" fill="#AECCDC"/>
<path opacity="0.87" d="M466.94 243.809L465.398 244.432L482.064 285.763L483.606 285.14L466.94 243.809Z" fill="#949494"/>
<path opacity="0.87" d="M473.832 241.028L471.723 241.88L488.388 283.211L490.498 282.359L473.832 241.028Z" fill="#949494"/>
<path opacity="0.87" d="M479.998 238.538L475.945 240.175L492.611 281.506L496.664 279.869L479.998 238.538Z" fill="#949494"/>
<path opacity="0.87" d="M486.496 235.913L484.387 236.765L501.052 278.096L503.162 277.244L486.496 235.913Z" fill="#949494"/>
<path opacity="0.87" d="M490.825 234.175L487.699 235.438L504.365 276.769L507.49 275.506L490.825 234.175Z" fill="#949494"/>
<path opacity="0.87" d="M498.725 230.97L495.406 232.311L512.072 273.642L515.39 272.302L498.725 230.97Z" fill="#949494"/>
<path opacity="0.87" d="M501.736 229.766L500.23 230.374L516.896 271.705L518.402 271.097L501.736 229.766Z" fill="#949494"/>
<path opacity="0.87" d="M505.564 228.221L504.059 228.829L520.724 270.16L522.23 269.552L505.564 228.221Z" fill="#949494"/>
<path opacity="0.87" d="M508.58 226.994L507.074 227.602L523.74 268.933L525.245 268.325L508.58 226.994Z" fill="#949494"/>
<path opacity="0.87" d="M517.205 223.515L512.98 225.221L529.646 266.552L533.871 264.846L517.205 223.515Z" fill="#949494"/>
<path opacity="0.87" d="M522.847 221.228L520.914 222.009L537.58 263.34L539.512 262.56L522.847 221.228Z" fill="#949494"/>
<path opacity="0.87" d="M528.273 219.041L524.355 220.623L541.021 261.954L544.938 260.372L528.273 219.041Z" fill="#949494"/>
<path opacity="0.87" d="M533.591 216.878L532.086 217.486L548.752 258.818L550.257 258.21L533.591 216.878Z" fill="#949494"/>
<path opacity="0.87" d="M541.037 213.89L537.75 215.218L554.416 256.549L557.703 255.222L541.037 213.89Z" fill="#949494"/>
</g>
<defs>
<clipPath id="clip0">
<rect width="955" height="714" fill="white" transform="translate(0.574219 0.717773)"/>
</clipPath>
</defs>
</svg>
