<svg width="553" height="415" viewBox="0 0 553 415" fill="none" xmlns="http://www.w3.org/2000/svg">
  <path d="M41.2709 413.318C41.2709 413.318 -21.8973 342.577 30.5871 265.989C77.1565 198.037 131.451 202.681 171.287 230.258C188.255 242.002 237.17 231.705 278.804 162.559C335.581 68.2651 532.391 125.453 496.508 270.528C479.141 340.734 549.358 343.285 513.58 413.464L41.2709 413.318Z" fill="#DDE8FD"/>
  <path d="M123.284 362.414C123.284 362.414 115.213 352.999 122.786 347.018C122.786 347.018 128.317 343.669 132.83 343.94C132.83 343.94 126.439 354.66 128.505 355.725C130.574 356.791 134.765 343.267 134.765 343.267C134.765 343.267 147.354 342.047 151.406 343.994C151.406 343.994 140.644 352.802 142.91 353.326C145.175 353.85 156.803 345.205 156.803 345.205C156.803 345.205 168.519 347.2 167.894 354.347C167.269 361.494 163.233 363.703 161.458 363.513C159.684 363.322 149.304 359.36 149.078 360.813C148.852 362.265 155.1 367.019 159.476 367.24C159.476 367.24 151.215 376.349 145.726 373.72C140.237 371.092 139.766 366.924 136.346 365.361C132.923 363.799 130.002 363.802 131.416 365.397C132.83 366.99 139.022 368.541 140.981 372.003C142.937 375.465 144.693 377.799 139.013 376.944C133.333 376.09 124.099 371.934 123.694 367.174C123.284 362.414 123.284 362.414 123.284 362.414Z" fill="#0B0754"/>
  <path d="M162.137 354.538C162.137 354.538 130.311 353.311 123.283 362.411C123.283 362.411 121.729 367.067 116.945 371.306L116.201 373.339C116.201 373.339 121.717 367.526 123.688 367.174C123.688 367.171 120.604 355.898 162.137 354.538Z" fill="#0B0754"/>
  <path d="M116.946 371.306C116.946 371.306 110.114 376.358 109.641 385.383L110.882 385.494C110.882 385.494 113.064 376.161 117.008 372.512C120.95 368.862 116.946 371.306 116.946 371.306Z" fill="#0B0754"/>
  <path d="M95.0623 350.569C95.0623 350.569 107.901 343.38 101.909 333.622C101.909 333.622 97.1164 327.63 91.9784 326.091C91.9784 326.091 94.717 340.642 91.9784 340.984C89.2397 341.326 90.094 324.549 90.094 324.549C90.094 324.549 76.5703 318.045 71.2626 318.557C71.2626 318.557 79.6513 332.765 76.9126 332.423C74.174 332.08 64.7583 317.699 64.7583 317.699C64.7583 317.699 50.8922 315.13 48.6655 323.349C46.4389 331.565 50.0349 335.676 52.0889 336.188C54.1429 336.7 67.3243 336.531 66.9819 338.242C66.6396 339.954 57.7359 342.693 52.7736 341.154C52.7736 341.154 58.2509 354.677 65.4429 353.993C72.632 353.308 74.8586 348.858 79.309 348.515C83.7593 348.173 87.013 349.373 84.7863 350.569C82.5597 351.769 75.0283 350.962 71.4323 354.019C67.8363 357.077 64.9279 358.958 71.605 360.327C78.282 361.697 90.2667 360.842 92.663 355.704C95.0623 350.569 95.0623 350.569 95.0623 350.569Z" fill="#C7D8FB"/>
  <path d="M55.0039 325.918C55.0039 325.918 90.955 337.561 95.063 350.569C95.063 350.569 94.8934 356.389 98.4864 363.066V365.635C98.4864 365.635 94.7207 356.904 92.6667 355.704C92.6667 355.707 100.713 344.407 55.0039 325.918Z" fill="#C7D8FB"/>
  <path d="M98.4861 363.069C98.4861 363.069 104.029 371.487 100.871 381.737L99.4447 381.353C99.4447 381.353 100.829 370.064 97.9295 364.388C95.0271 358.711 98.4861 363.069 98.4861 363.069Z" fill="#C7D8FB"/>
  <path d="M115.49 340.654C115.49 340.654 98.5637 331.176 106.464 318.313C106.464 318.313 112.784 310.415 119.553 308.382C119.553 308.382 115.942 327.565 119.553 328.014C123.164 328.467 122.036 306.352 122.036 306.352C122.036 306.352 139.864 297.776 146.86 298.454C146.86 298.454 135.801 317.184 139.412 316.735C143.023 316.282 155.433 297.326 155.433 297.326C155.433 297.326 173.711 293.941 176.646 304.774C179.581 315.607 174.842 321.022 172.133 321.7C169.424 322.376 152.048 322.153 152.501 324.409C152.953 326.666 164.688 330.277 171.231 328.246C171.231 328.246 164.009 346.075 154.531 345.173C145.053 344.271 142.121 338.403 136.253 337.951C130.386 337.498 126.099 339.079 129.032 340.66C131.964 342.24 141.894 341.178 146.634 345.205C151.373 349.233 155.21 351.716 146.407 353.523C137.608 355.326 121.81 354.198 118.651 347.429C115.49 340.654 115.49 340.654 115.49 340.654Z" fill="#93B3F4"/>
  <path d="M168.296 308.159C168.296 308.159 120.905 323.504 115.49 340.654C115.49 340.654 115.717 348.328 110.978 357.127V360.512C110.978 360.512 115.943 349.004 118.649 347.423C118.649 347.426 108.042 332.53 168.296 308.159Z" fill="#C7D8FB"/>
  <path d="M110.978 357.128C110.978 357.128 103.67 368.225 107.837 381.734L109.718 381.228C109.718 381.228 107.894 366.347 111.716 358.863C115.538 351.382 110.978 357.128 110.978 357.128Z" fill="#C7D8FB"/>
  <path d="M114.918 411.032C133.228 411.032 148.07 396.189 148.07 377.879H81.7646C81.7646 396.189 96.6071 411.032 114.918 411.032Z" fill="#7E9BD7"/>
  <path d="M123.078 410.779C121.729 410.948 120.354 411.032 118.958 411.032C100.647 411.032 85.8047 396.186 85.8047 377.879H94.0416C94.0416 394.793 106.711 408.749 123.078 410.779Z" fill="#EDF3FE"/>
  <path d="M148.529 412.72H81.3066C81.3066 410.46 83.1374 408.629 85.3968 408.629H144.439C146.699 408.629 148.529 410.46 148.529 412.72Z" fill="#7E9BD7"/>
  <path d="M148.827 377.879H80.6758V378.897H148.827V377.879Z" fill="#849FD9"/>
  <path d="M321.693 67.8576C321.604 68.9144 321.497 69.9622 321.372 71.0041C321.223 72.2752 321.047 73.5374 320.848 74.7787C320.761 75.3413 320.666 75.898 320.568 76.4547V76.4576C320.449 77.1542 320.321 77.8419 320.184 78.5265C320.05 79.2112 319.91 79.8899 319.764 80.5597C319.63 81.167 319.496 81.7653 319.353 82.3607C319.207 82.9799 319.056 83.5871 318.901 84.1914C318.707 84.9386 318.508 85.6769 318.302 86.3973C317.314 89.8682 316.192 93.0386 315.01 95.7772C313.203 99.9656 311.262 103.145 309.455 104.839C302.445 111.426 289.24 113.495 274.049 110.876C271.861 110.501 269.628 110.024 267.369 109.45C266.97 109.349 266.565 109.244 266.166 109.134C265.595 108.982 265.026 108.825 264.452 108.658H264.449C263.053 108.256 261.651 107.818 260.242 107.342C258.933 106.902 257.614 106.428 256.295 105.919C255.31 105.544 254.325 105.148 253.339 104.732C253.241 104.69 253.143 104.651 253.042 104.607C250.374 103.481 247.707 102.222 245.052 100.832C244.06 100.314 243.072 99.7781 242.087 99.2214C241.908 99.1202 241.73 99.019 241.551 98.9178C239.911 97.9801 238.279 96.9948 236.666 95.9558C235.767 95.3783 234.877 94.7889 233.99 94.1787C232.085 92.8719 230.501 91.4162 229.209 89.8355C229.206 89.8355 229.206 89.8355 229.206 89.8325C229.182 89.8027 229.158 89.773 229.135 89.7432C228.64 89.133 228.194 88.5049 227.786 87.8619C224.598 82.8489 223.866 76.8119 224.663 70.4445C225.354 64.9165 227.197 59.1355 229.59 53.5569C232.439 46.9156 236.065 40.5601 239.452 35.2495C239.958 34.4546 240.458 33.6836 240.953 32.9394C242.036 31.3022 243.075 29.79 244.04 28.4295C245.433 26.4589 246.662 24.8067 247.615 23.5535C248.925 21.8389 249.719 20.8773 249.719 20.8773C249.719 20.8773 250.071 20.4963 250.743 19.8741C255.884 15.1053 279.782 -3.95534 308.634 23.2767C308.905 23.5327 309.179 23.7946 309.452 24.0596C312.444 26.9649 314.814 30.3466 316.65 34.0528C317.764 36.2973 318.681 38.6579 319.422 41.1019C321.05 46.4572 321.833 52.2114 321.988 58.0073C322.086 61.2967 321.973 64.6069 321.693 67.8576Z" fill="#DDE8FD"/>
  <path d="M205.618 146.907C204.996 148.005 204.323 149.089 203.597 150.161C203.591 150.17 203.582 150.182 203.576 150.193C203.573 150.199 203.57 150.205 203.564 150.211C203.275 150.646 202.972 151.075 202.662 151.506C202.037 152.372 201.379 153.224 200.682 154.069C200.554 154.227 200.426 154.385 200.287 154.543C199.697 155.245 199.081 155.942 198.438 156.632C197.67 157.46 196.863 158.27 196.021 159.07C195.464 159.597 194.893 160.124 194.297 160.642C192.943 161.833 191.502 162.988 189.972 164.11C188.787 164.982 187.549 165.831 186.257 166.655C184.667 167.67 182.994 168.65 181.238 169.59C180.931 169.754 180.622 169.921 180.315 170.079C175.954 172.392 171.709 174.496 167.592 176.41C165.663 177.306 163.764 178.161 161.891 178.976C161.457 179.167 161.025 179.354 160.594 179.536C160.418 179.613 160.236 179.688 160.061 179.765C159.441 180.03 158.822 180.292 158.206 180.548C157.861 180.691 157.512 180.834 157.167 180.974C156.194 181.376 155.223 181.763 154.265 182.141C153.911 182.281 153.556 182.421 153.205 182.558C152.845 182.697 152.485 182.837 152.124 182.974C151.467 183.227 150.815 183.474 150.166 183.713C147.26 184.799 144.432 185.784 141.688 186.674C141.682 186.677 141.676 186.68 141.67 186.68C141.238 186.826 140.81 186.963 140.381 187.097C140.095 187.189 139.809 187.279 139.527 187.365C138.205 187.782 136.904 188.178 135.63 188.55C132.972 189.324 130.403 190.014 127.926 190.625C127.086 190.833 126.256 191.03 125.437 191.217C124.431 191.452 123.44 191.673 122.466 191.878C116.185 193.215 110.586 194.042 105.71 194.527H83.842C83.3538 194.456 83.1068 194.408 83.1068 194.408C83.1068 194.408 80.0436 194.408 75.5218 193.61C74.6824 193.462 73.7923 193.286 72.8605 193.078C71.6371 192.804 70.3421 192.47 69.0056 192.071C68.303 191.863 67.5886 191.637 66.8652 191.387C65.8233 191.03 64.7636 190.634 63.6949 190.184C63.1293 189.949 62.5637 189.699 61.9981 189.437C61.3134 189.121 60.6258 188.782 59.9411 188.425C58.4706 187.654 57.003 186.785 55.5652 185.802C55.202 185.555 54.8418 185.302 54.4846 185.04C50.9987 182.489 47.7361 179.241 45.0778 175.104C32.334 155.257 62.6381 121.509 101.703 97.7686L101.709 97.7656C103.197 96.8607 104.695 95.9706 106.207 95.0984C111.271 92.1692 116.45 89.4216 121.683 86.9062C126.562 84.5545 131.483 82.3992 136.392 80.4822C137.529 80.0356 138.651 79.607 139.783 79.1932H139.797C139.803 79.1873 139.812 79.1843 139.818 79.1843H139.83C139.887 79.1575 139.955 79.1337 140.006 79.1099H140.021C142.402 78.2347 144.778 77.425 147.138 76.6689C192.41 62.264 226.14 110.751 205.618 146.907Z" fill="#DDE8FD"/>
  <path d="M370.096 91.023L336.818 99.6558L357.54 81.8306L359.234 86.6054L367.626 87.168L370.096 91.023Z" fill="#FA7269"/>
  <path d="M336.818 99.6556L363.33 81.9732L390.758 77.4812L336.818 99.6556Z" fill="#FDA8A6"/>
  <path d="M357.54 81.8304L336.818 99.6557L351.503 73.79L357.54 81.8304Z" fill="#FDA8A6"/>
  <path d="M122.449 250.298L156.739 252.805L133.151 238.998L132.341 243.999L124.188 246.062L122.449 250.298Z" fill="#FA7269"/>
  <path d="M156.739 252.805L127.48 240.18L99.6914 240.692L156.739 252.805Z" fill="#FDA8A6"/>
  <path d="M133.151 238.998L156.74 252.805L137.643 230.002L133.151 238.998Z" fill="#FDA8A6"/>
  <path d="M437.072 295.332C437.754 278.56 439.224 263.974 440.984 253.799C443.788 237.581 446.312 228.252 446.342 228.151C446.711 226.725 452.048 220.953 463.914 221.131C475.78 221.31 474.654 228.877 474.654 228.877C474.654 229.133 474.622 229.371 474.568 229.55C474.455 229.94 463.563 269.436 464.033 320.429C464.039 321.144 464.119 322.382 464.069 323.207C464.069 323.21 436.569 323.915 436.563 323.207C435.607 318.754 436.075 306.403 437.072 295.332Z" fill="#3662C1"/>
  <path d="M433.613 320.179C433.622 320.891 433.997 321.459 434.455 321.459H434.467C434.925 321.447 435.289 320.879 435.295 320.179H458.862C458.871 320.891 459.246 321.459 459.705 321.459H459.716C460.181 321.447 460.553 320.861 460.547 320.144C460.41 305.545 461.244 291.914 462.503 279.885C465.634 249.885 471.427 229.833 471.508 229.553C471.558 229.374 471.594 229.136 471.594 228.88C471.594 228.88 472.719 221.313 460.854 221.134C448.985 220.956 443.648 226.728 443.278 228.154C443.258 228.228 441.826 233.512 439.926 243.011C439.295 246.158 438.617 249.766 437.92 253.799C436.161 263.974 434.693 278.563 434.009 295.332C433.005 306.403 432.654 315.723 433.613 320.179Z" fill="#5A7ECC"/>
  <path d="M433.613 320.179C433.622 320.891 433.997 321.46 434.455 321.46H434.467C434.925 321.448 435.289 320.879 435.295 320.179H458.862C458.871 320.891 459.246 321.46 459.705 321.46H459.716C460.181 321.448 460.553 320.861 460.547 320.144C460.41 305.545 461.244 291.915 462.503 279.885C458.606 260.845 443.546 246.283 439.926 243.011C439.295 246.158 438.617 249.766 437.92 253.799C436.161 263.974 434.693 278.563 434.009 295.332C433.005 306.403 432.654 315.723 433.613 320.179Z" fill="#4870C7"/>
  <path d="M457.377 319.915H457.32L457.282 319.873C457.252 319.843 457.246 319.822 457.243 319.769C457.243 319.751 457.243 319.73 457.243 319.706C457.21 318.754 455.254 318.56 452.105 318.56C451.402 318.56 450.646 318.569 449.846 318.578C448.929 318.59 447.982 318.599 446.979 318.599C443.981 318.599 440.037 318.509 436.099 317.819C433.568 317.375 435.274 297.898 437.072 279.674C437.379 276.575 437.62 274.128 437.727 272.69C438.906 257.089 445.666 229.666 445.729 229.449C446.023 228.309 450.081 223.995 458.925 224.135C462.241 224.186 464.599 225.004 465.932 226.573C467.302 228.184 467.052 229.973 467.043 230.047C467.046 230.22 467.022 230.41 466.974 230.565C466.938 230.714 460.839 266.314 459.842 274.851C458.172 289.161 457.523 319.263 457.514 319.703C457.514 319.724 457.514 319.745 457.514 319.766L457.511 319.897L457.377 319.915ZM452.105 318.292C454.867 318.292 456.627 318.432 457.255 319.084C457.353 314.702 458.002 288.259 459.571 274.825C460.589 266.096 466.679 230.604 466.712 230.494C466.751 230.366 466.772 230.199 466.769 230.032C466.772 229.994 467.01 228.264 465.718 226.749C464.438 225.246 462.149 224.457 458.916 224.409C458.782 224.406 458.651 224.406 458.52 224.406C450.113 224.406 446.267 228.443 445.985 229.526C445.919 229.779 439.15 257.416 437.992 272.714C437.882 274.158 437.641 276.605 437.334 279.704C436.667 286.455 435.756 295.701 435.322 303.488C434.685 314.887 435.414 317.429 436.137 317.557C440.055 318.245 443.984 318.331 446.973 318.331C447.976 318.331 448.923 318.319 449.837 318.31C450.643 318.301 451.402 318.292 452.105 318.292Z" fill="#A2B3E0"/>
  <path d="M462.282 321.459H369.891C369.891 321.459 372.043 312.752 425.551 314.05C463.414 314.967 462.282 321.459 462.282 321.459Z" fill="#5A7ECC"/>
  <path d="M469.802 412.404C459.088 358.173 461.845 324.895 461.857 324.475C461.883 323.641 460.344 322.882 459.517 322.856C458.677 322.841 454.98 322.608 454.554 323.323C453.995 324.258 451.837 365.26 467.801 412.404H469.802Z" fill="#3662C1"/>
  <path d="M383.536 412.404C394.25 358.173 391.493 324.895 391.481 324.475C391.454 323.641 392.993 322.882 393.821 322.856C394.661 322.841 398.358 322.608 398.783 323.323C399.343 324.258 401.501 365.26 385.537 412.404H383.536Z" fill="#A2B3E0"/>
  <path d="M366.44 412.404C377.154 358.173 374.398 324.895 374.386 324.475C374.359 323.641 375.898 322.882 376.725 322.856C377.565 322.841 381.262 322.608 381.688 323.323C382.247 324.258 384.406 365.26 368.441 412.404H366.44Z" fill="#6D89CF"/>
  <path d="M452.59 412.404C441.876 358.173 444.633 324.895 444.645 324.475C444.671 323.641 443.132 322.882 442.305 322.856C441.465 322.841 437.768 322.608 437.343 323.323C436.783 324.258 434.625 365.26 450.589 412.404H452.59Z" fill="#6D89CF"/>
  <path d="M370.268 324.24H461.794C463.074 324.24 464.119 323.195 464.119 321.915V321.537C464.119 320.257 463.071 319.212 461.794 319.212H370.268C368.988 319.212 367.943 320.26 367.943 321.537V321.915C367.94 323.192 368.988 324.24 370.268 324.24Z" fill="#3662C1"/>
  <path d="M373.079 240.799L342.368 234.146L340.558 238.554C340.558 238.554 374.446 258.719 377.619 257.731C380.798 256.746 373.079 240.799 373.079 240.799Z" fill="#FDBDBB"/>
  <path d="M401.002 379.698C401.77 380.579 401.868 381.564 401.487 382.615C401.487 382.618 401.484 382.627 401.481 382.63C400.776 384.577 398.451 386.747 395.751 388.917C395.406 389.197 395.099 389.45 394.831 389.685C394.76 389.748 394.691 389.807 394.626 389.87C394.572 389.917 394.518 389.968 394.468 390.012C391.949 392.334 392.896 392.867 388.371 397.58C383.21 402.95 379.658 403.045 378.646 402.557C377.792 402.14 379.527 399.291 381.453 396.091C381.545 395.936 381.638 395.782 381.733 395.624C381.989 395.198 382.245 394.766 382.498 394.338C384.754 390.486 384.174 388.679 383.641 382.945C383.207 378.287 376.393 356.916 376.393 356.916L386.282 355.213C386.282 355.213 389.258 372.229 392.542 374.851C394.295 376.248 396.26 376.265 397.948 377.301C398.067 377.373 398.183 377.447 398.299 377.522C399.255 378.159 400.231 378.814 401.002 379.698Z" fill="#FDBDBB"/>
  <path d="M401.002 379.698C401.77 380.579 401.869 381.564 401.488 382.615C401.488 382.618 401.485 382.627 401.482 382.63C400.618 384.574 398.353 386.735 395.739 388.899C395.397 389.182 395.096 389.444 394.829 389.685C394.757 389.748 394.689 389.807 394.623 389.87C394.57 389.917 394.516 389.968 394.465 390.013C391.947 392.335 392.894 392.867 388.369 397.58C383.207 402.95 379.656 403.045 378.644 402.557C377.789 402.14 379.525 399.291 381.451 396.091C382.457 395.722 387.122 393.829 390.649 389.313C393.757 385.348 395.829 380.252 397.945 377.302C398.064 377.373 398.18 377.447 398.297 377.522C399.255 378.159 400.231 378.814 401.002 379.698Z" fill="#1A1A42"/>
  <path d="M321.256 373.521C320.645 376.572 316.293 376.063 311.432 374.875C306.571 373.687 307.726 375.098 300.808 374.333C293.89 373.568 291.791 370.987 291.58 369.957C291.392 369.044 294.809 368.722 298.477 368.299C298.938 368.249 299.403 368.189 299.864 368.133C304.005 367.615 307.038 364.941 310.798 362.748C314.361 360.67 319.678 352.201 319.678 352.201L329.168 352.951C329.168 352.951 324.188 360.515 322.262 363.801C321.128 365.736 321.19 368.293 321.33 370.267C321.401 371.348 321.47 372.446 321.256 373.521Z" fill="#FDBDBB"/>
  <path d="M311.429 374.878C306.568 373.691 307.723 375.102 300.805 374.337C293.887 373.571 291.788 370.991 291.577 369.961C291.389 369.047 294.807 368.725 298.474 368.302L298.51 368.374C298.51 368.374 302.659 371.315 308.42 371.455C313.114 371.568 318.085 370.226 321.327 370.276C321.402 371.351 321.47 372.446 321.253 373.521C320.645 376.575 316.293 376.066 311.429 374.878Z" fill="#1A1A42"/>
  <path d="M342.367 234.149C342.367 234.149 340.108 228.609 337.619 228.383C335.133 228.156 327.218 226.912 326.655 228.043C326.09 229.175 326.655 233.244 328.352 234.711C330.049 236.182 340.56 238.555 340.56 238.555L342.367 234.149Z" fill="#FDBDBB"/>
  <path d="M357.62 312.844L378.071 367.883C378.071 367.883 381.211 368.186 384.224 367.32C386.995 366.522 390.172 364.424 390.172 364.424C390.172 364.424 385.099 311.579 375.797 300.586C366.494 289.592 357.62 312.844 357.62 312.844Z" fill="#060632"/>
  <path d="M438.51 290.578C438.51 290.578 379.744 270.707 366.64 274.934C353.533 279.161 314.186 357.452 314.186 357.452C314.186 357.452 315.073 358.634 317.499 359.542C319.752 360.387 325.212 360.333 325.212 360.333C325.212 360.333 360.725 329.895 364.952 321.016C369.179 312.139 370.87 303.681 375.097 304.527C379.324 305.372 429.636 325.243 441.049 313.404C452.465 301.565 449.479 286.187 449.479 286.187L438.51 290.578Z" fill="#1A1A42"/>
  <path d="M402.598 198.141C401.66 196.203 400.609 192.762 400.097 186.627C400.177 187.237 401.234 194.974 404.208 199.353C416.428 207.375 439.856 234.17 439.391 239.245C439.391 239.245 447.643 225.251 447.783 225.168C447.783 225.168 463.003 205.812 444.964 194.727C435.795 189.092 435.843 181.861 436.224 175.58C436.611 169.296 433.723 142.254 415.356 149.333C415.356 149.333 412.409 148.023 411.09 148.22C411.09 148.22 412.168 148.425 412.716 148.991C410.587 148.866 407.542 149.024 405.003 150.467C398.275 154.293 392.25 188.615 402.598 198.141Z" fill="#ED6966"/>
  <path d="M404.931 199.752C404.869 199.778 410.831 202.874 415.317 201.648C419.535 200.499 422.292 195.027 422.232 195.016C420.446 194.661 419.931 192.205 419.97 181.656L419.163 181.813L405.583 184.501C405.583 184.501 405.893 188.776 405.902 192.801C405.911 196.185 405.705 199.391 404.931 199.752Z" fill="#FDBDBB"/>
  <path d="M405.583 184.507C405.583 184.507 405.893 188.782 405.902 192.807C413.501 192.592 417.517 185.662 419.163 181.819L405.583 184.507Z" fill="#FCA09E"/>
  <path d="M403.047 188.318C403.047 188.318 421.024 188.615 421.039 177.417C421.051 166.218 423.379 158.713 411.903 158.052C400.424 157.389 398.189 161.66 397.278 165.396C396.367 169.132 398.37 187.952 403.047 188.318Z" fill="#FDBDBB"/>
  <path d="M403.711 157.775C403.711 157.775 408.635 170.915 416.187 172.856C423.742 174.8 427.016 172.776 427.016 172.776C427.016 172.776 421.221 168.173 420.021 160.136C420.021 160.139 407.423 151.524 403.711 157.775Z" fill="#ED6966"/>
  <path d="M404.932 158.844C404.932 158.844 401.255 161.776 400.359 164.628C399.463 167.48 399.058 173.35 397.35 173.151C397.35 173.151 393.641 164.22 397.808 159.169C402.229 153.813 404.932 158.844 404.932 158.844Z" fill="#ED6966"/>
  <path d="M444.966 248.119C446.741 240.683 440.707 226.254 434.411 214.311C428.698 203.485 422.768 194.703 422.235 195.018C407.167 203.961 405.806 196.528 405.806 196.528C405.8 196.528 392.119 198.344 388.243 205.015C383.435 213.293 378.241 236.423 373.082 240.799C373.874 243.222 373.534 244.514 372.695 247.518C372.513 248.161 372.317 248.774 372.097 249.354C371.32 251.468 370.346 253.183 369.507 254.674C372.129 256.267 377.193 259.297 380.923 257.118C386.612 253.79 391.047 243.657 393.545 239.62C393.554 239.605 393.563 239.59 393.571 239.576C399.001 270.305 391.619 277.304 395.355 280.543C399.302 283.966 404.937 278.914 417.338 284.288C425.474 287.815 436.762 292.917 444.359 293.804C448.345 294.272 451.319 293.578 452.286 290.887C455.111 283.067 441.582 262.295 444.966 248.119Z" fill="#FCA1A0"/>
  <path d="M407.042 181.531C407.042 181.531 406.708 182.954 403.169 182.733C403.169 182.733 400.198 182.549 400.287 180.986C400.287 180.986 403.169 179.873 407.042 181.531Z" fill="white"/>
  <path d="M452.292 290.89C451.322 293.581 448.348 294.275 444.365 293.807C439.105 291.515 416.386 282.713 416.639 276.75C417.017 267.921 421.009 267.638 418.19 256.737C415.927 247.985 436.92 231.714 440.269 228.174C446.565 240.12 446.74 240.683 444.966 248.119C441.582 262.295 455.111 283.067 452.292 290.89Z" fill="#FB948D"/>
  <path d="M454.861 259.038C450.831 253.379 446.633 250.388 443.874 248.884C444.508 247.247 426.927 225.689 426.927 222.349C426.927 218.967 422.235 195.016 422.235 195.016C422.235 195.016 436.887 195.921 441.96 202.994C448.303 211.844 461.479 245.893 454.861 259.038Z" fill="#FCA1A0"/>
  <path d="M393.548 239.62C391.05 243.657 386.612 253.79 380.926 257.118C377.196 259.297 372.132 256.267 369.51 254.674C370.349 253.183 371.323 251.468 372.1 249.354C374.192 249.834 376.746 250.444 378.393 250.941C381.593 251.911 393.548 239.62 393.548 239.62Z" fill="#FB948D"/>
  <path d="M443.874 248.884L414.594 256.523C414.594 256.523 410.096 254.213 408.816 252.897C408.655 252.73 408.381 252.766 408.256 252.963C407.973 253.409 407.708 254.195 408.506 255.04C406.303 254.591 404.133 254.275 403.207 254.531C401.016 255.139 393.515 260.107 394.569 261.458C395.622 262.807 402.234 260.652 405.276 261.059C408.319 261.467 410.67 262.968 412.861 262.643C415.052 262.319 417.341 261.458 417.341 261.458C417.341 261.458 452.971 261.211 454.861 259.041C456.749 256.871 443.874 248.884 443.874 248.884Z" fill="#FDBDBB"/>
  <path d="M372.105 272.208H415.002C415.002 270.32 413.471 268.787 411.581 268.787H372.105V272.208Z" fill="#A83F3F"/>
  <path d="M372.228 225.49H305.907L321.815 272.208H388.565L372.228 225.49Z" fill="#ED6A68"/>
  <path d="M304.931 225.486L320.839 272.205H387.588L371.251 225.486H304.931Z" fill="#A83F3F"/>
  <path d="M340.685 248.417C341.096 250.203 342.879 251.65 344.662 251.65C346.448 251.65 347.561 250.203 347.148 248.417C346.737 246.631 344.954 245.184 343.171 245.184C341.387 245.184 340.274 246.631 340.685 248.417Z" fill="#DDE8FD"/>
  <path d="M304.931 225.486L320.839 272.205H351.89L314.698 225.486H304.931Z" fill="#9E332E"/>
  <path d="M248.41 150.348L245.648 179.723L242.463 213.597C241.802 220.631 235.503 225.846 228.469 225.185C221.431 224.525 216.219 218.226 216.88 211.191L218.716 191.666L222.83 147.943C223.491 140.908 230.094 132.466 237.128 133.127C237.128 133.124 248.773 135.577 248.41 150.348Z" fill="#5076C9"/>
  <path d="M225.751 156.936C225.751 156.936 230.216 150.732 244.746 149.244C244.746 149.244 239.153 157.74 225.751 156.936Z" fill="#A3B5E1"/>
  <path d="M223.054 168.483C223.054 168.483 228.308 161.183 245.401 159.433C245.401 159.433 238.819 169.426 223.054 168.483Z" fill="#A3B5E1"/>
  <path d="M222.015 179.536C222.015 179.536 227.269 172.237 244.362 170.486C244.362 170.486 237.777 180.482 222.015 179.536Z" fill="#A3B5E1"/>
  <path d="M228.802 146.252C228.802 146.252 231.933 141.903 242.12 140.858C242.12 140.861 238.197 146.818 228.802 146.252Z" fill="#A3B5E1"/>
  <path d="M245.648 179.723L242.463 213.597C241.802 220.631 235.503 225.846 228.469 225.185C221.431 224.525 216.219 218.226 216.88 211.191L218.716 191.666C220.562 190.023 222.691 189.014 225.12 189.109C233.794 189.446 242.192 182.79 245.648 179.723Z" fill="#3662C1"/>
  <path d="M256.648 172.255C256.642 172.386 256.636 172.457 256.636 172.457C256.636 172.457 256.615 172.388 256.574 172.26C256.228 171.198 254.547 165.956 253.016 160.121C250.897 152.045 249.069 142.835 251.477 141.983C256.035 140.37 256.874 153.271 256.886 162.791C256.889 167.48 256.696 171.347 256.648 172.255Z" fill="#F1B2B2"/>
  <path d="M261.107 161.77C259.461 165.423 258.032 168.498 257.21 170.337C256.853 171.141 256.612 171.707 256.52 171.986C256.6 171.531 256.814 170.31 257.121 168.575C257.121 168.575 257.121 168.575 257.121 168.572C257.582 165.97 258.249 162.214 258.984 158.132C260.764 148.214 262.932 136.399 263.438 134.708C264.331 131.728 268.445 125.384 271.213 130.903C273.011 134.49 266.069 150.759 261.107 161.77Z" fill="#F1B2B2"/>
  <path d="M261.437 166.983C259.735 168.781 258.306 170.236 257.505 171.04C257.067 171.481 256.82 171.728 256.82 171.728C256.82 171.728 257.255 170.799 257.999 169.313C258.702 167.911 259.675 166.015 260.815 163.94C264.548 157.138 270.043 148.422 273.452 148.925C277.34 149.5 267.608 160.469 261.437 166.983Z" fill="#F1B2B2"/>
  <path d="M256.647 172.254C256.624 172.254 256.6 172.257 256.573 172.26C256.228 171.198 254.546 165.955 253.016 160.121C253.73 161.19 255.022 162.624 256.885 162.788C256.888 167.48 256.695 171.346 256.647 172.254Z" fill="#EA8888"/>
  <path d="M261.107 161.77C259.461 165.423 258.032 168.498 257.21 170.337C257.148 169.822 257.121 169.227 257.121 168.575C257.121 168.575 257.121 168.575 257.121 168.572C257.583 165.97 258.249 162.214 258.985 158.132C259.27 159.558 259.866 161.136 261.107 161.77Z" fill="#EA8888"/>
  <path d="M261.438 166.983C259.735 168.781 258.307 170.236 257.506 171.04C257.583 170.579 257.762 169.977 258 169.313C258.703 167.911 259.676 166.015 260.816 163.94C260.843 164.809 260.965 166.107 261.438 166.983Z" fill="#EA8888"/>
  <path d="M256.517 171.99C256.493 172.118 256.484 172.184 256.484 172.184C256.466 172.175 256.478 172.109 256.517 171.99Z" fill="#F1B2B2"/>
  <path d="M258.803 185.102C255.948 193.19 252.391 202.011 252.391 202.011L244.359 199.603C244.359 199.603 245.3 193.613 246.681 186.945C248.292 179.173 250.498 170.48 252.513 169.29C253.433 168.745 254.403 168.468 255.365 168.396C255.85 168.361 256.332 168.376 256.802 168.438C256.916 168.453 257.026 168.471 257.136 168.489C257.416 168.539 257.69 168.605 257.955 168.682C258.059 168.712 258.163 168.745 258.264 168.78C258.621 168.9 258.964 169.045 259.291 169.212C260.681 169.921 261.774 170.995 262.241 172.132C262.72 173.296 260.961 178.991 258.803 185.102Z" fill="#FB948D"/>
  <path d="M258.38 192.878C257.21 199.439 257.582 206.402 259.478 213.618C259.794 214.82 260.63 215.785 261.708 216.297C262.19 216.526 262.723 216.663 263.279 216.693C264.491 216.511 266.569 213.966 267.536 210.953C267.801 210.126 267.983 209.262 268.039 208.402C268.48 201.695 269.9 193.491 272.478 189.032C275.115 184.471 278.759 178.952 284.248 174.728C284.248 174.728 284.248 174.728 284.251 174.728C284.781 174.315 296.918 162.511 296.918 162.511C298.061 160.892 296.236 159.526 296.236 159.526C296.236 159.526 295.111 160.838 291.509 163.66C287.907 166.482 280.634 164.818 280.631 164.818C278.574 164.22 276.294 164.64 274.562 166.063C271.888 168.26 268.391 171.62 265.268 176.187C261.758 181.322 259.439 186.936 258.38 192.878Z" fill="#B3605C"/>
  <path d="M268.04 208.402C268.48 201.695 269.9 193.491 272.478 189.032C275.116 184.471 278.759 178.952 284.249 174.728C284.249 174.728 284.249 174.728 284.252 174.728C284.344 174.639 287.958 171.082 283.094 169.025C278.334 167.012 263.262 189.237 267.537 210.953C267.802 210.123 267.983 209.259 268.04 208.402Z" fill="#9E332E"/>
  <path d="M225.447 187.582C224.882 188.469 224.188 189.33 223.369 190.136C220.268 193.191 215.398 195.459 209.131 195.399C209.131 195.399 206.5 192.89 205.226 189.699C204.342 187.484 203.696 184.224 205.226 181.804C206.211 180.244 207.479 179.509 208.765 179.119C210.947 178.455 213.18 178.798 214.156 177.824C215.118 176.866 216.487 176.038 217.99 175.562C218.237 175.484 218.484 175.413 218.737 175.356C218.842 175.333 218.946 175.309 219.05 175.288C219.053 175.288 219.056 175.288 219.056 175.288C221.372 174.835 223.849 175.279 225.569 177.345C225.968 177.824 226.331 178.402 226.638 179.098C227.745 181.575 227.269 184.718 225.447 187.582Z" fill="#F1B2B2"/>
  <path d="M207.221 181.444C207.221 181.444 205.152 183.069 205.786 184.864C206.42 186.659 208.054 185.832 208.566 184.587C209.075 183.343 208.578 180.84 207.221 181.444Z" fill="#E75755"/>
  <path d="M225.572 177.342C225.971 177.821 226.334 178.402 226.644 179.095C227.748 181.575 229.26 188.148 227.439 191.011L224.995 193.247C221.893 196.301 215.403 195.453 209.137 195.393C209.137 195.393 206.506 192.884 205.231 189.693C205.231 189.693 212.983 192.759 220.285 186.356C223.598 183.45 225.012 180.116 225.572 177.342Z" fill="#EE9D9D"/>
  <path d="M213.748 174.075C212.468 173.313 211.174 174.384 209.67 174.971C208.167 175.56 205.273 175.548 205.273 175.548C205.273 175.548 206.464 173.837 208.414 172.134C210.364 170.431 213.748 174.075 213.748 174.075Z" fill="#F1B2B2"/>
  <path d="M213.748 174.073C212.546 173.085 210.322 172.519 209.236 172.963C208.149 173.406 205.273 175.544 205.273 175.544C205.273 175.544 206.464 173.832 208.414 172.129C210.364 170.43 213.748 174.073 213.748 174.073Z" fill="#EA8888"/>
  <path d="M214.156 177.824C215.117 176.866 216.487 176.038 217.99 175.562C215.433 176.52 214.025 179.759 213.054 179.384C212.012 178.979 208.884 179.113 208.765 179.119C210.947 178.452 213.179 178.795 214.156 177.824Z" fill="#EE9D9D"/>
  <path d="M219.05 175.288C218.969 175.312 218.865 175.333 218.737 175.356C218.841 175.333 218.946 175.309 219.05 175.288Z" fill="#EE9D9D"/>
  <path d="M213.233 179.319C212.414 177.509 212.855 175.261 213.373 173.695C213.784 172.448 214.572 170.766 214.959 169.968C215.04 169.799 215.287 169.817 215.346 169.995L215.501 170.468C215.656 170.942 215.599 171.46 215.343 171.885C214.552 173.195 212.959 176.255 213.676 178.777C213.754 179.057 213.379 179.643 213.233 179.319Z" fill="#EA8888"/>
  <path d="M258.803 185.102C255.948 193.19 252.391 202.011 252.391 202.011L244.359 199.602C244.359 199.602 245.3 193.613 246.681 186.945L246.684 186.939C246.684 186.939 248.316 190.6 252.18 190.526C254.382 190.484 256.978 187.588 258.803 185.102Z" fill="#FB867E"/>
  <path d="M284.409 254.245L275.401 190.089C249.931 197.531 228.102 190.089 228.102 190.089L220.371 269.511H267.899L267.917 269.308H271.311C279.348 269.308 285.525 262.202 284.409 254.245Z" fill="#FCA1A0"/>
  <path d="M228.102 190.086L237.11 254.242C238.226 262.199 232.049 269.305 224.012 269.305H210.443C203.591 269.305 198.256 263.354 199.004 256.543L205.454 190.086C205.454 190.086 208.473 192.268 216.204 192.268C223.86 192.271 228.102 190.086 228.102 190.086Z" fill="#FB948D"/>
  <path d="M254.572 216.865C253.483 216.865 252.346 216.77 251.161 216.579C241.558 215.029 238.596 198.087 238.474 197.367L240.379 197.046C240.388 197.102 241.105 201.264 242.888 205.526C244.475 209.322 247.249 213.99 251.467 214.668C256.263 215.442 260.157 214.481 262.72 211.891C265.759 208.822 266.84 203.663 265.759 197.367L267.664 197.04C268.852 203.97 267.584 209.727 264.092 213.251C261.732 215.642 258.481 216.865 254.572 216.865Z" fill="#DDE8FD"/>
  <path d="M237.884 197.239C237.884 196.304 238.64 195.548 239.575 195.548C240.509 195.548 241.265 196.304 241.265 197.239C241.265 198.174 240.509 198.93 239.575 198.93C238.64 198.93 237.884 198.174 237.884 197.239Z" fill="#DDE8FD"/>
  <path d="M265.116 197.239C265.116 196.304 265.872 195.548 266.807 195.548C267.742 195.548 268.498 196.304 268.498 197.239C268.498 198.174 267.742 198.93 266.807 198.93C265.872 198.93 265.116 198.174 265.116 197.239Z" fill="#DDE8FD"/>
  <path d="M497.471 412.406C496.631 412.406 495.914 411.816 495.771 411.013L487.442 363.8L475.46 295.899L472.111 276.91L480.646 276.666L482.125 287.689L492.52 365.149L498.685 411.063C498.778 411.775 498.209 412.406 497.471 412.406Z" fill="#97ABDD"/>
  <path d="M482.12 287.684C476.593 290.125 475.455 295.894 475.455 295.894L472.106 276.905L480.641 276.661L482.12 287.684Z" fill="#7E9BD7"/>
  <path d="M195.923 412.405C196.762 412.405 197.48 411.815 197.623 411.011L205.952 363.799L217.933 295.898L221.282 276.908L212.748 276.664L211.268 287.687L200.873 365.144L194.711 411.059C194.613 411.773 195.182 412.405 195.923 412.405Z" fill="#97ABDD"/>
  <path d="M211.269 287.684C216.797 290.125 217.934 295.894 217.934 295.894L221.283 276.905L212.748 276.661L211.269 287.684Z" fill="#7E9BD7"/>
  <path d="M505.474 284.359H177.856C173.757 284.359 170.402 281.004 170.402 276.905C170.402 272.806 173.757 269.451 177.856 269.451H505.477C509.576 269.451 512.931 272.806 512.931 276.905C512.931 281.007 509.576 284.359 505.474 284.359Z" fill="#97ABDD"/>
  <path d="M274.342 0.48291C269.016 0.48291 264.113 2.35236 260.267 5.47505C255.222 9.58306 252.013 15.8284 252.013 22.8121C252.013 35.1421 274.342 62.5467 274.342 62.5467C274.342 62.5467 284.484 50.0947 291.081 38.2082C294.29 32.46 296.671 26.8308 296.671 22.8121C296.668 10.485 286.669 0.48291 274.342 0.48291ZM274.342 33.0047C268.576 33.0047 263.902 28.349 263.902 22.5829C263.902 21.1718 264.185 19.8323 264.697 18.5969C266.266 14.8044 269.987 12.1431 274.345 12.1431C280.111 12.1431 284.785 16.8167 284.785 22.5829C284.785 27.575 281.293 31.7187 276.619 32.7398C275.893 32.9184 275.116 33.0047 274.342 33.0047Z" fill="#FCA1A0"/>
  <path d="M291.077 38.2083C284.48 50.0947 274.338 62.5468 274.338 62.5468C274.338 62.5468 252.009 35.1392 252.009 22.8121C252.009 15.8285 255.218 9.58312 260.264 5.4751C261.109 9.51465 262.484 14.1347 264.69 18.5969C264.178 19.8323 263.895 21.1719 263.895 22.5829C263.895 28.349 268.569 33.0048 274.335 33.0048C275.112 33.0048 275.886 32.9155 276.609 32.7398C280.512 35.4041 285.275 37.3629 291.077 38.2083Z" fill="#FA7D75"/>
  <path d="M167.074 168.385L166.22 167.688L177.681 152.709L181.818 152.536L167.074 168.385Z" fill="#5864D4"/>
  <path d="M152.097 168.385L151.389 167.688L160.873 152.709L164.296 152.536L152.097 168.385Z" fill="#5864D4"/>
  <path d="M159.649 147.804H184.053V127.681H159.649V147.804Z" fill="#FA7D75"/>
  <path d="M196.257 127.679H171.853V147.803H196.257V127.679Z" fill="#FDA8A6"/>
  <path d="M159.662 142.7H163.529L163.19 141.611L163.529 140.834H159.662V142.7Z" fill="#FDA8A6"/>
  <path d="M196.257 141.022V147.803H171.853V127.679H176.175L196.257 141.022Z" fill="#FC9290"/>
  <path opacity="0.4" d="M196.257 132.195H192.39L192.729 131.106L192.39 130.329H196.257V132.195Z" fill="#FA7D75"/>
  <path d="M196.257 144.567H192.39L192.729 143.478L192.39 142.701H196.257V144.567Z" fill="#FDA8A6"/>
  <path d="M82.1035 129.341C82.1035 126.498 84.354 124.194 87.1314 124.194C89.9088 124.194 92.1592 126.498 92.1592 129.341C92.1592 132.184 89.9088 134.488 87.1314 134.488C84.354 134.491 82.1035 132.184 82.1035 129.341Z" fill="#5864D4"/>
  <path d="M158.18 180.066C156.766 180.387 155.432 180.905 154.2 181.59C153.47 181.992 152.78 182.456 152.131 182.968C152.488 182.831 152.851 182.691 153.211 182.552C153.563 182.415 153.917 182.275 154.271 182.135C155.23 181.757 156.2 181.37 157.174 180.968C157.519 180.828 157.867 180.685 158.213 180.542C158.829 180.286 159.445 180.027 160.067 179.759C159.424 179.822 158.796 179.923 158.18 180.066Z" fill="#A83F3F"/>
  <path d="M117.236 191.872C115.9 191.872 114.578 191.872 114.578 191.872H106.52C106.52 191.872 98.5537 177.241 98.5537 159.475C98.5537 154.138 99.2741 148.514 101.144 142.921C101.295 142.463 101.367 142.001 101.364 141.549V141.525C101.361 141.376 101.352 141.221 101.331 141.075L101.325 141.034V141.031L100.373 127.349C100.596 124.533 97.4493 123.027 96.6664 123.027H92.9513C92.1654 123.027 91.5254 123.67 91.5254 124.453L90.671 138.533C88.7212 139.456 86.9768 140.87 85.6372 142.73L71.3514 172.871C71.3217 172.877 71.2919 172.886 71.2621 172.892C70.9823 172.951 70.7025 173.023 70.4227 173.097C70.1429 173.171 69.869 173.249 69.5951 173.335C69.2111 173.454 68.833 173.582 68.458 173.719C68.4282 173.731 68.4014 173.74 68.3746 173.752C68.2436 173.803 68.1127 173.85 67.9847 173.901C67.8537 173.954 67.7197 174.008 67.5887 174.062C67.3268 174.169 67.0708 174.282 66.8148 174.401C66.5588 174.517 66.3057 174.642 66.0527 174.77C65.6746 174.961 65.3055 175.16 64.9394 175.374C64.8173 175.446 64.6982 175.517 64.5762 175.589C64.3351 175.735 64.0999 175.88 63.8677 176.038C63.7516 176.116 63.6355 176.193 63.5194 176.27C63.4033 176.351 63.2902 176.431 63.1741 176.511C63.061 176.595 62.9479 176.672 62.8347 176.759C62.6264 176.91 62.418 177.068 62.2156 177.232C61.9834 177.419 61.7542 177.607 61.5249 177.803C61.4208 177.893 61.3136 177.985 61.2094 178.08C60.9832 178.283 60.7569 178.491 60.5366 178.708C60.4563 178.783 60.3759 178.86 60.2955 178.941C60.099 179.137 59.9056 179.339 59.715 179.542C59.5483 179.718 59.3846 179.899 59.2268 180.084C58.2891 181.152 57.4526 182.313 56.7323 183.543C56.6221 183.73 56.512 183.924 56.4078 184.117C56.3721 184.177 56.3363 184.239 56.3066 184.302C56.0416 184.79 55.7975 185.29 55.5713 185.799C57.0091 186.782 58.4767 187.654 59.9472 188.422C62.543 181.962 68.8718 177.393 76.2483 177.393C76.6413 177.393 77.0312 177.405 77.4182 177.434C77.5343 177.44 77.6474 177.449 77.7635 177.458C78.088 177.485 78.4095 177.521 78.728 177.568C78.8739 177.589 79.0197 177.61 79.1626 177.637C79.3412 177.666 79.5198 177.696 79.6925 177.735C79.8533 177.768 80.011 177.8 80.1658 177.836C80.3236 177.869 80.4814 177.908 80.6362 177.949C80.7939 177.988 80.9487 178.033 81.1035 178.074C81.2583 178.119 81.4101 178.164 81.5649 178.214C81.7138 178.262 81.8686 178.312 82.0174 178.363C82.321 178.467 82.6187 178.58 82.9105 178.702C83.2022 178.824 83.4909 178.952 83.7767 179.086C83.8005 179.095 83.8214 179.107 83.8452 179.119C89.3017 181.748 93.1984 187.118 93.7461 193.429V194.524H93.8056H98.637H98.8573H99.9409H105.534C105.656 194.524 105.775 194.518 105.897 194.506C110.729 194.018 116.269 193.197 122.472 191.875H117.236V191.872Z" fill="#5864D4"/>
  <path d="M196.45 153.233H158.981C157.614 153.233 156.498 152.116 156.498 150.75V150.289C156.498 148.922 157.614 147.806 158.981 147.806H196.453C197.819 147.806 198.936 148.922 198.936 150.289V150.75C198.933 152.113 197.816 153.233 196.45 153.233Z" fill="#5864D4"/>
  <path d="M91.5171 194.521H83.8518C83.3636 194.45 83.1165 194.402 83.1165 194.402C83.1165 194.402 80.0533 194.402 75.5315 193.604C74.6921 193.455 73.802 193.28 72.8702 193.071C71.6468 192.798 70.3519 192.464 69.0153 192.065C68.3127 191.857 67.5983 191.631 66.8749 191.381C65.833 191.023 64.7733 190.627 63.7046 190.178C63.139 189.943 62.5734 189.693 62.0078 189.431C64.2226 183.724 69.7654 179.679 76.2519 179.679C84.5394 179.679 91.2908 186.287 91.5171 194.521Z" fill="#A83F3F"/>
  <path d="M84.0238 194.521H83.8511C83.3629 194.45 83.1159 194.402 83.1159 194.402C83.1159 194.402 80.0527 194.402 75.5309 193.604C74.6915 193.456 73.8014 193.28 72.8696 193.072C71.6462 192.798 70.3512 192.464 69.0146 192.065C69.7916 190.122 71.3276 188.568 73.2566 187.764C73.2864 187.749 73.3162 187.74 73.3459 187.728C74.242 187.365 75.2243 187.166 76.2483 187.166C80.404 187.169 83.7976 190.422 84.0238 194.521Z" fill="white"/>
  <path d="M169.935 165.313C169.408 165.167 168.881 165.033 168.342 164.914C166.931 164.583 165.464 164.321 163.946 164.125H163.943C161.582 163.815 159.093 163.66 156.492 163.66L155.697 163.708L154.584 163.777L153.833 163.824L151.863 163.946L151.452 160.818L151.383 160.312L151.05 160.38L132.195 164.193C132.195 164.193 137.967 177.059 125.44 191.217C126.259 191.029 127.087 190.833 127.929 190.625C130.406 190.014 132.975 189.324 135.633 188.55C136.91 188.178 138.211 187.782 139.53 187.365C139.813 187.279 140.098 187.189 140.384 187.097C140.813 186.963 141.241 186.826 141.673 186.68C141.679 186.68 141.685 186.677 141.691 186.674C144.436 185.784 147.264 184.796 150.169 183.712C150.818 183.471 151.47 183.224 152.128 182.974C152.485 182.837 152.848 182.697 153.208 182.557C153.56 182.42 153.914 182.28 154.268 182.141C155.227 181.763 156.197 181.376 157.17 180.974C157.516 180.834 157.864 180.691 158.209 180.548C158.826 180.292 159.442 180.033 160.064 179.765C160.24 179.691 160.421 179.616 160.597 179.536C161.028 179.354 161.46 179.167 161.895 178.976C163.767 178.164 165.666 177.306 167.595 176.41C171.712 174.496 175.957 172.391 180.318 170.078C177.338 167.965 173.858 166.378 169.935 165.313Z" fill="#5864D4"/>
  <path d="M92.1564 129.049C92.1564 129.546 92.1118 130.031 92.0225 130.502C91.3408 134.172 88.1199 136.952 84.25 136.952V121.146C88.617 121.146 92.1564 124.685 92.1564 129.049Z" fill="#FCA1A0"/>
  <path d="M104.633 130.118C104.603 130.118 104.275 130.055 104.243 130.046L95.5474 127.635C95.2021 127.567 94.964 127.141 95.0146 126.679C95.0652 126.218 95.3837 125.9 95.732 125.968L104.448 127.671C104.793 127.739 105.067 128.263 105.151 128.716C105.285 129.472 104.942 130.118 104.633 130.118Z" fill="#A83F3F"/>
  <path d="M83.6189 177.705C83.6993 178.193 83.7737 178.664 83.8481 179.116C83.8273 179.107 83.8035 179.095 83.7796 179.083C83.4939 178.946 83.2051 178.818 82.9134 178.699C82.6187 178.577 82.321 178.467 82.0203 178.36C81.8715 178.309 81.7167 178.259 81.5679 178.211C81.416 178.164 81.2612 178.116 81.1064 178.071C80.9517 178.027 80.7969 177.985 80.6391 177.946C80.4843 177.905 80.3265 177.866 80.1687 177.833C80.011 177.797 79.8532 177.762 79.6954 177.732C79.5198 177.696 79.3442 177.663 79.1656 177.634C79.0227 177.61 78.8768 177.589 78.7309 177.565C78.4124 177.521 78.0909 177.482 77.7664 177.455C77.6533 177.446 77.5402 177.434 77.4211 177.431C77.0341 177.401 76.6442 177.39 76.2512 177.39C68.8747 177.39 62.5459 181.959 59.9502 188.419C58.4796 187.648 57.012 186.778 55.5742 185.796C55.8005 185.287 56.0446 184.787 56.3095 184.299C56.3422 184.236 56.375 184.174 56.4107 184.114C56.5149 183.921 56.625 183.73 56.7352 183.54C57.4556 182.31 58.2921 181.149 59.2298 180.081C59.3905 179.896 59.5513 179.714 59.718 179.539C59.9085 179.336 60.102 179.134 60.2984 178.937C60.3788 178.857 60.4592 178.78 60.5396 178.705C60.7598 178.491 60.9861 178.283 61.2123 178.077C61.3165 177.982 61.4237 177.89 61.5279 177.8C61.7571 177.604 61.9863 177.416 62.2185 177.229C62.4209 177.068 62.6293 176.91 62.8377 176.755C62.9478 176.669 63.0639 176.592 63.177 176.508C63.2901 176.428 63.4062 176.348 63.5223 176.267C63.6384 176.19 63.7545 176.112 63.8706 176.035C64.1028 175.88 64.341 175.731 64.5791 175.586C64.7012 175.514 64.8202 175.44 64.9423 175.371C65.3055 175.16 65.6776 174.96 66.0556 174.767C66.5557 174.514 67.0707 174.279 67.5917 174.058C67.7226 174.005 67.8566 173.951 67.9876 173.898C68.1156 173.847 68.2466 173.799 68.3775 173.749C68.4073 173.74 68.4341 173.731 68.4609 173.716C68.833 173.579 69.214 173.451 69.598 173.332C69.8719 173.249 70.1458 173.168 70.4256 173.094C70.7024 173.023 70.9823 172.951 71.2651 172.889C71.2948 172.883 71.3246 172.874 71.3544 172.868L85.6402 142.724C86.9797 140.864 88.7241 139.45 90.674 138.527C88.2389 142.623 81.5202 155.727 83.0831 173.386C83.1902 174.597 83.3361 175.833 83.5266 177.089C83.5564 177.297 83.5861 177.503 83.6189 177.705Z" fill="#FCA1A0"/>
  <path d="M165.014 157.924V162.684C165.014 163.509 164.338 164.187 163.511 164.187H132.198C131.373 164.187 130.694 163.512 130.694 162.684V157.924C130.694 157.097 131.37 156.421 132.198 156.421H163.511C164.338 156.424 165.014 157.097 165.014 157.924Z" fill="#FCA1A0"/>
  <path d="M166.982 176.136C166.8 176.056 166.616 175.982 166.431 175.907C166.264 175.839 166.098 175.77 165.931 175.708C165.764 175.642 165.597 175.58 165.431 175.517C165.368 175.493 165.306 175.473 165.243 175.449C165.145 175.41 165.044 175.377 164.948 175.342C164.85 175.306 164.755 175.27 164.657 175.24C164.648 175.234 164.636 175.232 164.624 175.232C164.496 175.187 164.368 175.142 164.24 175.101C163.874 174.978 163.511 174.868 163.148 174.764C162.969 174.711 162.787 174.66 162.606 174.615C162.427 174.568 162.246 174.517 162.064 174.475C161.731 174.392 161.403 174.318 161.076 174.249C160.918 174.216 160.76 174.184 160.605 174.154C160.418 174.118 160.227 174.082 160.04 174.053C159.947 174.035 159.858 174.02 159.769 174.008C159.516 173.966 159.269 173.931 159.019 173.901C158.932 173.889 158.846 173.88 158.76 173.868C158.626 173.85 158.495 173.835 158.364 173.823C156.548 173.648 154.806 173.692 153.196 173.978C151.708 174.24 150.326 174.705 149.103 175.389C144.685 177.845 142.604 182.304 141.682 186.674C141.688 186.674 141.694 186.671 141.7 186.668C144.444 185.778 147.272 184.79 150.177 183.707C150.826 183.465 151.478 183.218 152.136 182.968C152.493 182.831 152.857 182.691 153.217 182.552C153.568 182.415 153.922 182.275 154.277 182.135C155.235 181.757 156.206 181.37 157.179 180.968C157.524 180.828 157.873 180.685 158.218 180.542C158.834 180.286 159.45 180.027 160.072 179.759C160.248 179.685 160.43 179.61 160.605 179.53C161.037 179.348 161.469 179.161 161.903 178.97C163.776 178.158 165.675 177.3 167.604 176.404C167.392 176.312 167.19 176.223 166.982 176.136Z" fill="#3A49CD"/>
  <path d="M92.0225 130.501C91.3408 134.172 88.1199 136.952 84.25 136.952V132.541C86.5749 132.636 89.9209 132.383 92.0225 130.501Z" fill="#FB948D"/>
  <path d="M155.101 164.187H132.198C131.373 164.187 130.694 163.512 130.694 162.684V157.924C130.694 157.097 131.37 156.421 132.198 156.421H147.888C149.252 158.347 151.815 161.612 155.101 164.187Z" fill="#FB948D"/>
  <path d="M167.595 176.404C165.666 177.3 163.767 178.155 161.894 178.97C161.46 179.161 161.028 179.348 160.596 179.53C160.421 179.607 160.239 179.682 160.063 179.759C159.444 180.024 158.825 180.286 158.209 180.542C158.194 180.381 158.185 180.224 158.176 180.069C158.021 177.416 158.197 175.169 158.358 173.829C158.489 173.841 158.623 173.856 158.754 173.874C158.84 173.883 158.926 173.895 159.013 173.907C159.263 173.937 159.513 173.972 159.763 174.014C159.852 174.026 159.941 174.041 160.034 174.059C160.221 174.091 160.412 174.124 160.599 174.16C160.754 174.19 160.912 174.219 161.07 174.255C161.397 174.323 161.727 174.398 162.058 174.481C162.237 174.526 162.418 174.574 162.6 174.621C162.781 174.666 162.963 174.719 163.141 174.77C163.505 174.874 163.868 174.984 164.234 175.106C164.362 175.148 164.49 175.19 164.618 175.237C164.627 175.237 164.639 175.243 164.651 175.246C164.749 175.279 164.844 175.312 164.942 175.348C165.041 175.38 165.139 175.416 165.237 175.455C165.3 175.476 165.359 175.499 165.425 175.523C165.591 175.586 165.758 175.648 165.925 175.714C166.092 175.776 166.258 175.845 166.425 175.913C166.609 175.988 166.794 176.062 166.976 176.142C167.19 176.223 167.392 176.312 167.595 176.404Z" fill="#4654D0"/>
  <path d="M75.5309 193.604C74.6915 193.455 73.8014 193.28 72.8696 193.071C71.6462 192.797 70.3512 192.464 69.0146 192.065C69.7916 190.121 71.3276 188.567 73.2566 187.764C73.5751 189.344 74.2241 191.556 75.5309 193.604Z" fill="white"/>
  <path d="M83.6186 177.705C83.699 178.193 83.7734 178.664 83.8449 179.119C83.824 179.11 83.8002 179.098 83.7764 179.086C80.9544 176.479 74.9948 174.169 71.2559 172.895C71.2856 172.886 71.3154 172.88 71.3481 172.874L85.6339 142.731C86.9735 140.87 88.7179 139.456 90.6677 138.533C88.2327 142.629 81.514 155.733 83.0768 173.395C83.184 174.606 83.3299 175.842 83.5204 177.098C83.5561 177.297 83.5859 177.503 83.6186 177.705Z" fill="#FB948D"/>
  <path d="M121.413 186.258C121.413 186.258 121.071 191.783 120.002 191.863C119.859 191.875 114.581 191.875 114.581 191.875L107.842 191.836C107.842 191.836 107.886 190.211 109.857 189.868C111.828 189.526 115.123 188.142 116.317 185.537C117.57 182.796 121.413 186.258 121.413 186.258Z" fill="#171740"/>
  <path d="M134.919 109.443C139.137 111.158 146.85 107.494 146.85 107.494C146.85 107.494 144.29 105.228 143.802 100.936C143.778 100.718 143.757 100.498 143.745 100.272C143.302 100.114 142.462 99.8163 141.563 99.4978L137.827 102.043C137.827 102.043 137.738 103.296 137.869 105.484C137.893 105.865 137.923 106.276 137.961 106.717C136.023 107.586 134.919 109.443 134.919 109.443Z" fill="#FDBDBB"/>
  <path d="M137.83 102.043C137.83 102.043 137.74 103.296 137.871 105.484C141.271 104.865 143.143 102.12 143.804 100.936C143.78 100.718 143.759 100.498 143.747 100.272C143.304 100.114 142.464 99.8163 141.565 99.4978L137.83 102.043Z" fill="#FCA09E"/>
  <path d="M137.14 103.865C137.14 103.865 144.406 103.63 144.189 99.105C143.972 94.5832 144.763 91.5051 140.114 91.4664C135.464 91.4277 134.648 93.196 134.353 94.7231C134.059 96.2502 135.243 103.811 137.14 103.865Z" fill="#FDBDBB"/>
  <path d="M139.994 141.852C117.412 144.236 110.339 148.44 108.821 149.901C107.306 151.363 107.472 157.04 107.472 157.055L114.623 187.064C114.623 187.064 115.536 187.487 117.001 187.671C117.549 187.743 118.177 187.779 118.862 187.746C121.517 187.618 122.818 186.615 122.818 186.615C122.818 186.615 123.184 165.509 120.621 157.233C132.058 157.284 146.993 157.049 148.228 155.504C150.249 152.976 150.752 144.1 150.752 144.1L139.994 141.852Z" fill="#C7D8FB"/>
  <path d="M143.805 100.936C143.805 100.936 144.087 99.4323 143.269 98.438C143.269 98.438 143.796 96.9615 143.23 96.6311C142.661 96.3007 142.367 97.5599 142.117 97.3247C141.87 97.0866 140.768 95.9732 140.429 94.4997C140.09 93.0262 135.053 94.0829 134.457 94.2616C133.862 94.4402 137.8 87.0904 142.051 88.8318C146.302 90.5733 146.624 92.7553 146.132 94.5235C145.644 96.2947 145.689 100.572 143.805 100.936Z" fill="#A83F3F"/>
  <path d="M151.271 125.527C150.64 133.151 151.47 144.749 150.753 146.758C150.134 148.49 143.09 147.46 140.28 146.883C139.238 146.669 137.979 146.362 136.675 146.002C133.044 144.993 129.088 143.552 128.662 142.48C128.644 142.439 128.632 142.397 128.623 142.358C128.581 142.203 128.59 142.057 128.629 141.909C128.733 141.504 129.061 141.078 129.248 140.334C129.314 140.072 129.361 139.774 129.379 139.42C129.445 138.039 129.442 136.434 129.489 134.708C129.495 134.55 129.498 134.389 129.504 134.228C129.507 134.014 129.51 133.779 129.537 133.565L129.54 133.484C129.54 133.443 129.543 133.404 129.543 133.362C129.603 131.231 129.728 128.995 129.87 126.771C129.915 126.078 129.966 125.39 130.019 124.709C130.037 124.467 130.055 124.229 130.076 123.991C130.112 123.548 130.15 123.104 130.189 122.669C130.504 119.255 130.933 116.216 131.499 114.296C132.422 111.164 134.458 109.125 136.309 107.628L137.649 106.595C139.143 106.886 140.911 106.693 142.513 106.014C144.243 105.276 144.841 104.746 145.142 104.945C149.142 107.72 152.018 116.204 151.271 125.527Z" fill="#FCA1A0"/>
  <path d="M139.994 119.731C139.994 119.731 134.978 138.092 129.251 140.331C129.316 140.069 129.364 139.771 129.382 139.417C129.447 138.036 129.444 136.431 129.492 134.705C129.498 134.547 129.501 134.386 129.507 134.225C129.51 134.011 129.513 133.776 129.54 133.562L129.543 133.481C129.543 133.44 129.546 133.401 129.546 133.359C129.605 131.228 129.73 128.992 129.873 126.769C129.918 126.075 129.968 125.387 130.022 124.706C132.543 121.663 135.964 119.475 139.994 119.731Z" fill="#FB948D"/>
  <path d="M109.91 126.804C109.91 126.804 107.725 126.974 107.166 126.804C106.603 126.635 103.966 125.063 103.01 125.402C102.055 125.739 99.6434 128.209 100.26 129.332C100.26 129.332 101.382 129.359 102.421 128.293C103.46 127.227 104.582 127.956 104.469 128.096C104.356 128.236 102.727 128.882 103.01 129.162C103.29 129.442 105.424 129.385 105.93 129.049C106.436 128.713 110.196 129.132 110.196 129.132L109.91 126.804Z" fill="#FDBDBB"/>
  <path d="M139.994 110.048C139.994 110.048 126.414 121.625 122.839 122.741C119.263 123.857 106.633 126.313 106.633 126.313C106.633 126.313 106.284 129.305 107.469 130.427C107.469 130.427 123.699 129.486 125.72 129.058C127.741 128.629 142.798 120.827 144.028 120.237C145.254 119.648 145.064 109.092 139.994 110.048Z" fill="#FCA1A0"/>
  <path d="M122.821 186.618C122.821 186.618 121.517 187.621 118.864 187.749C118.18 187.782 117.555 187.746 117.004 187.675C121.082 182.516 120.624 157.237 120.624 157.237C123.187 165.512 122.821 186.618 122.821 186.618Z" fill="#BED2FA"/>
  <path d="M147.207 94.8242V94.8926C147.207 95.0831 147.121 95.2469 146.996 95.3153C146.954 95.3392 146.91 95.3511 146.862 95.3511H129.644C129.454 95.3511 129.299 95.1427 129.299 94.8926V94.8242C129.299 94.5711 129.454 94.3657 129.644 94.3657L133.49 93.8716C133.85 91.0168 135.747 88.6859 138.253 87.8822H138.256C138.866 87.6857 139.515 87.5815 140.182 87.5815C143.716 87.5815 146.609 90.4988 146.913 94.2199C146.916 94.2645 146.919 94.3062 146.922 94.3508C146.966 94.3836 146.99 94.4044 146.993 94.4044C147.121 94.4699 147.207 94.6336 147.207 94.8242Z" fill="#FCA1A0"/>
  <path d="M141.39 94.2169C142.673 87.4268 138.402 87.8614 138.259 87.8793C138.869 87.6828 139.518 87.5786 140.185 87.5786C143.718 87.5786 146.612 90.4959 146.915 94.2169H141.39Z" fill="#FB948D"/>
  <path d="M231.028 114.547H280.458V73.7887H231.028V114.547Z" fill="#FA7D75"/>
  <path d="M305.169 73.7903H255.742V114.549H305.169V73.7903Z" fill="#FDBDBB"/>
  <path d="M231.059 104.21H238.891L238.2 102.008L238.891 100.433H231.059V104.21Z" fill="#FDA8A6"/>
  <path d="M305.172 100.814V114.549H255.742V73.7903H264.5L305.172 100.814Z" fill="#FB948D"/>
  <path opacity="0.4" d="M305.172 82.9321H297.34L298.03 80.7293L297.34 79.1545H305.172V82.9321Z" fill="#FA7D75"/>
  <path d="M305.172 107.991H297.34L298.03 105.785L297.34 104.21H305.172V107.991Z" fill="#FDA8A6"/>
  <path d="M551.722 414.104H0.827557C0.372103 414.104 0 413.732 0 413.276V413.235C0 412.779 0.372103 412.407 0.827557 412.407H551.722C552.177 412.407 552.549 412.779 552.549 413.235V413.276C552.552 413.729 552.177 414.104 551.722 414.104Z" fill="#010117"/>
  </svg>
  