<svg width="68" height="68" viewBox="0 0 68 68" fill="none" xmlns="http://www.w3.org/2000/svg">
<path d="M55.1967 61.5342H54.8408C13.6986 59.1682 7.85701 24.4539 7.04045 13.8595C6.97465 13.0358 7.07204 12.2072 7.32703 11.4211C7.58202 10.6351 7.9896 9.90713 8.52642 9.27889C9.06324 8.65066 9.71875 8.13453 10.4554 7.76006C11.192 7.3856 11.9953 7.16017 12.8192 7.09668H24.3558C25.1944 7.09587 26.014 7.34691 26.7084 7.81727C27.4027 8.28764 27.9398 8.95566 28.2501 9.73481L31.4326 17.5654C31.7391 18.3266 31.8151 19.161 31.6513 19.9651C31.4875 20.7691 31.0911 21.5073 30.5114 22.0879L26.0517 26.5895C26.7483 30.5482 28.6441 34.1975 31.4827 37.0435C34.3212 39.8895 37.9654 41.7949 41.9223 42.502L46.4658 38.0004C47.0551 37.4271 47.8003 37.0399 48.6083 36.8873C49.4162 36.7346 50.2513 36.8232 51.0092 37.142L58.9026 40.3036C59.67 40.6237 60.3248 41.165 60.7834 41.8585C61.242 42.5521 61.4838 43.3665 61.478 44.1979V55.2529C61.478 56.9188 60.8162 58.5165 59.6382 59.6944C58.4603 60.8724 56.8626 61.5342 55.1967 61.5342ZM13.3217 11.2842C12.7664 11.2842 12.2339 11.5048 11.8412 11.8974C11.4485 12.2901 11.228 12.8226 11.228 13.3779V13.5454C12.1911 25.9404 18.3676 55.2529 55.0711 57.3467C55.3461 57.3637 55.6219 57.3262 55.8824 57.2364C56.143 57.1466 56.3832 57.0063 56.5894 56.8234C56.7956 56.6406 56.9637 56.4188 57.084 56.1709C57.2043 55.9229 57.2744 55.6537 57.2905 55.3786V44.1979L49.397 41.0364L43.388 47.0036L42.3829 46.8779C24.1673 44.5957 21.6967 26.3801 21.6967 26.1917L21.5711 25.1867L27.5173 19.1776L24.3767 11.2842H13.3217Z" fill="#353299"/>
</svg>
