<svg width="18" height="17" viewBox="0 0 18 17" fill="none" xmlns="http://www.w3.org/2000/svg">
<g clip-path="url(#clip0)">
<path d="M6.60612 14.1657C6.60612 14.952 5.9757 15.5824 5.18945 15.5824C4.4032 15.5824 3.77279 14.952 3.77279 14.1657C3.77279 13.3795 4.41029 12.7491 5.18945 12.7491C5.96862 12.7491 6.60612 13.3866 6.60612 14.1657ZM12.2728 12.7491C11.4936 12.7491 10.8561 13.3866 10.8561 14.1657C10.8561 14.9449 11.4936 15.5824 12.2728 15.5824C13.052 15.5824 13.6895 14.952 13.6895 14.1657C13.6895 13.3795 13.059 12.7491 12.2728 12.7491ZM5.30987 10.447L5.33112 10.362L5.96862 9.20741H11.2457C11.777 9.20741 12.2445 8.91699 12.4853 8.47783L15.2195 3.51241L13.987 2.83241H13.9799L13.2007 4.24908L11.2457 7.79074H6.2732L6.18112 7.59949L4.59445 4.24908L3.92154 2.83241L3.2557 1.41574H0.939453V2.83241H2.35612L4.90612 8.20866L3.94987 9.94408C3.83654 10.1424 3.77279 10.3762 3.77279 10.6241C3.77279 10.9998 3.92204 11.3601 4.18772 11.6258C4.45339 11.8915 4.81373 12.0407 5.18945 12.0407H13.6895V10.6241H5.48695C5.39487 10.6241 5.30987 10.5462 5.30987 10.447ZM12.9811 1.95408L11.9824 0.948242L8.55404 4.37658L6.71945 2.54199L5.7207 3.54074L8.55404 6.37408L12.9811 1.95408Z" fill="url(#paint0_linear)"/>
</g>
<defs>
<linearGradient id="paint0_linear" x1="21.5409" y1="8.26533" x2="-11.1564" y2="8.46262" gradientUnits="userSpaceOnUse">
<stop stop-color="#03006C"/>
<stop offset="1" stop-color="#ABA9F7"/>
</linearGradient>
<clipPath id="clip0">
<rect width="17" height="17" fill="white" transform="translate(0.230469 -0.000976562)"/>
</clipPath>
</defs>
</svg>
