<svg width="24" height="23" viewBox="0 0 24 23" fill="none" xmlns="http://www.w3.org/2000/svg">
<path d="M15.3242 2.87402C14.0355 2.87402 12.8675 3.11552 11.9547 3.57049C11.0426 4.02546 10.293 4.76649 10.293 5.74902V8.62402C10.293 8.71674 10.3239 8.80659 10.3382 8.89355C9.6188 8.71074 8.87902 8.62017 8.13672 8.62402C6.848 8.62402 5.68003 8.86552 4.76722 9.32049C3.85512 9.77546 3.10547 10.5165 3.10547 11.499V17.249C3.10547 18.2316 3.85513 18.9726 4.76794 19.4276C5.68003 19.8825 6.848 20.124 8.13672 20.124C9.42544 20.124 10.5934 19.8825 11.5062 19.4276C12.4176 18.9726 13.168 18.2316 13.168 17.249V16.9572C13.8711 17.1473 14.5959 17.2454 15.3242 17.249C16.6129 17.249 17.7809 17.0075 18.6937 16.5526C19.6051 16.0976 20.3555 15.3566 20.3555 14.374V5.74902C20.3555 4.76649 19.6058 4.02546 18.693 3.57049C17.7816 3.11552 16.6137 2.87402 15.3242 2.87402ZM15.3242 4.31152C16.4189 4.31152 17.3935 4.54727 18.0418 4.87287C18.6908 5.19846 18.918 5.5413 18.918 5.74902C18.918 5.95746 18.6908 6.29959 18.0418 6.62518C17.3942 6.95077 16.4189 7.18652 15.3242 7.18652C14.2296 7.18652 13.2549 6.95077 12.6066 6.62518C11.9576 6.29959 11.7305 5.95674 11.7305 5.74902C11.7305 5.54059 11.9576 5.19846 12.6066 4.87287C13.2542 4.54727 14.2296 4.31152 15.3242 4.31152ZM11.7305 7.79315C11.8059 7.83484 11.8764 7.88874 11.9554 7.92755C12.8675 8.38252 14.0355 8.62402 15.3242 8.62402C16.6129 8.62402 17.7809 8.38252 18.6937 7.92755C18.7721 7.88874 18.8425 7.83484 18.918 7.79315V8.62402C18.918 8.83246 18.6908 9.17459 18.0418 9.50018C17.3935 9.82577 16.4189 10.0615 15.3242 10.0615C14.2296 10.0615 13.2549 9.82577 12.6066 9.50018C11.9576 9.17459 11.7305 8.83174 11.7305 8.62402V7.79315ZM8.13672 10.0615C9.23138 10.0615 10.206 10.2973 10.8543 10.6229C11.5033 10.9485 11.7305 11.2913 11.7305 11.499C11.7305 11.7075 11.5033 12.0496 10.8543 12.3752C10.206 12.7008 9.23138 12.9365 8.13672 12.9365C7.04206 12.9365 6.06744 12.7008 5.41912 12.3752C4.77009 12.0496 4.54297 11.7067 4.54297 11.499C4.54297 11.2906 4.77009 10.9485 5.41912 10.6229C6.06672 10.2973 7.04206 10.0615 8.13672 10.0615ZM18.918 10.6681V11.499C18.918 11.7075 18.6908 12.0496 18.0418 12.3752C17.3935 12.7008 16.4189 12.9365 15.3242 12.9365C14.592 12.9405 13.864 12.8267 13.168 12.5994V11.499C13.168 11.4063 13.1371 11.3165 13.1227 11.2295C13.7911 11.4034 14.5322 11.499 15.3242 11.499C16.6129 11.499 17.7809 11.2575 18.6937 10.8026C18.7721 10.7637 18.8425 10.7098 18.918 10.6681ZM4.54297 13.5431C4.61844 13.5848 4.68888 13.6387 4.76794 13.6776C5.68003 14.1325 6.848 14.374 8.13672 14.374C9.42544 14.374 10.5934 14.1325 11.5062 13.6776C11.5846 13.6387 11.655 13.5848 11.7305 13.5431V14.374C11.7305 14.5825 11.5033 14.9246 10.8543 15.2502C10.206 15.5758 9.23138 15.8115 8.13672 15.8115C7.04206 15.8115 6.06744 15.5758 5.41912 15.2502C4.77009 14.9246 4.54297 14.5817 4.54297 14.374V13.5431ZM18.918 13.5431V14.374C18.918 14.5825 18.6908 14.9246 18.0418 15.2502C17.3935 15.5758 16.4189 15.8115 15.3242 15.8115C14.507 15.8115 13.7688 15.6965 13.168 15.4967V14.1045C13.8278 14.2784 14.5465 14.374 15.3242 14.374C16.6129 14.374 17.7809 14.1325 18.6937 13.6776C18.7721 13.6387 18.8425 13.5848 18.918 13.5431ZM4.54297 16.4181C4.61844 16.4598 4.68888 16.5137 4.76794 16.5526C5.68003 17.0075 6.848 17.249 8.13672 17.249C9.42544 17.249 10.5934 17.0075 11.5062 16.5526C11.5846 16.5137 11.655 16.4598 11.7305 16.4181V17.249C11.7305 17.4575 11.5033 17.7996 10.8543 18.1252C10.206 18.4508 9.23138 18.6865 8.13672 18.6865C7.04206 18.6865 6.06744 18.4508 5.41912 18.1252C4.77009 17.7996 4.54297 17.4567 4.54297 17.249V16.4181Z" fill="url(#paint0_linear)"/>
<defs>
<linearGradient id="paint0_linear" x1="27.9916" y1="11.499" x2="-11.5061" y2="11.7433" gradientUnits="userSpaceOnUse">
<stop stop-color="#03006C"/>
<stop offset="1" stop-color="#ABA9F7"/>
</linearGradient>
</defs>
</svg>
