<svg width="19" height="18" viewBox="0 0 19 18" fill="none" xmlns="http://www.w3.org/2000/svg">
<path d="M16.9302 8.41402L13.4802 5.63902V3.74902C13.4986 3.37023 13.366 2.99961 13.1115 2.71842C12.8571 2.43724 12.5015 2.26843 12.1227 2.24902H3.57274C3.19667 2.27224 2.84488 2.4427 2.5936 2.72346C2.34232 3.00422 2.21177 3.37269 2.23024 3.74902V11.249C2.22328 11.5469 2.30516 11.84 2.46545 12.0911C2.62573 12.3422 2.85716 12.5399 3.13024 12.659C2.99212 12.9969 2.93828 13.3634 2.97339 13.7267C3.00849 14.0901 3.13148 14.4395 3.33174 14.7447C3.532 15.0499 3.80352 15.3018 4.12286 15.4787C4.44221 15.6555 4.79979 15.752 5.16476 15.7598C5.52972 15.7677 5.89111 15.6866 6.21774 15.5235C6.54437 15.3605 6.82643 15.1205 7.03958 14.8241C7.25273 14.5278 7.39057 14.184 7.44121 13.8225C7.49185 13.461 7.45376 13.0925 7.33024 12.749H12.1002C11.9769 13.0889 11.9373 13.4534 11.9847 13.8119C12.0321 14.1703 12.1652 14.512 12.3727 14.808C12.5802 15.1041 12.856 15.3458 13.1768 15.5127C13.4975 15.6795 13.8537 15.7667 14.2152 15.7667C14.5768 15.7667 14.933 15.6795 15.2537 15.5127C15.5745 15.3458 15.8502 15.1041 16.0578 14.808C16.2653 14.512 16.3984 14.1703 16.4458 13.8119C16.4932 13.4534 16.4536 13.0889 16.3302 12.749H16.4802C16.6792 12.749 16.8699 12.67 17.0106 12.5294C17.1512 12.3887 17.2302 12.1979 17.2302 11.999V8.99902C17.2279 8.88513 17.1997 8.77326 17.1478 8.6719C17.0958 8.57054 17.0214 8.48235 16.9302 8.41402ZM15.7302 9.35902V11.249H13.4802V7.55902L15.7302 9.35902ZM5.98024 13.499C5.98024 13.6474 5.93625 13.7924 5.85384 13.9157C5.77143 14.039 5.6543 14.1352 5.51725 14.1919C5.38021 14.2487 5.22941 14.2636 5.08392 14.2346C4.93844 14.2057 4.8048 14.1342 4.69991 14.0294C4.59502 13.9245 4.52359 13.7908 4.49465 13.6453C4.46571 13.4999 4.48056 13.3491 4.53733 13.212C4.5941 13.075 4.69023 12.9578 4.81356 12.8754C4.9369 12.793 5.0819 12.749 5.23024 12.749C5.42915 12.749 5.61992 12.828 5.76057 12.9687C5.90122 13.1093 5.98024 13.3001 5.98024 13.499ZM9.73024 11.249H3.73024V3.74902H11.9802V11.249H9.73024ZM14.9802 13.499C14.9802 13.6474 14.9363 13.7924 14.8538 13.9157C14.7714 14.039 14.6543 14.1352 14.5173 14.1919C14.3802 14.2487 14.2294 14.2636 14.0839 14.2346C13.9384 14.2057 13.8048 14.1342 13.6999 14.0294C13.595 13.9245 13.5236 13.7908 13.4946 13.6453C13.4657 13.4999 13.4806 13.3491 13.5373 13.212C13.5941 13.075 13.6902 12.9578 13.8136 12.8754C13.9369 12.793 14.0819 12.749 14.2302 12.749C14.4292 12.749 14.6199 12.828 14.7606 12.9687C14.9012 13.1093 14.9802 13.3001 14.9802 13.499Z" fill="url(#paint0_linear)"/>
<defs>
<linearGradient id="paint0_linear" x1="23.8711" y1="9.00785" x2="-10.4783" y2="9.24357" gradientUnits="userSpaceOnUse">
<stop stop-color="#03006C"/>
<stop offset="1" stop-color="#ABA9F7"/>
</linearGradient>
</defs>
</svg>
