<svg width="68" height="68" viewBox="0 0 68 68" fill="none" xmlns="http://www.w3.org/2000/svg">
<path d="M33.9112 6.08203C18.5012 6.08203 6.02246 18.5887 6.02246 33.9987C6.02246 49.4087 18.5012 61.9154 33.9112 61.9154C49.3491 61.9154 61.8558 49.4087 61.8558 33.9987C61.8558 18.5887 49.3491 6.08203 33.9112 6.08203ZM33.9391 56.332C21.6 56.332 11.6058 46.3379 11.6058 33.9987C11.6058 21.6595 21.6 11.6654 33.9391 11.6654C46.2783 11.6654 56.2725 21.6595 56.2725 33.9987C56.2725 46.3379 46.2783 56.332 33.9391 56.332Z" fill="#353299"/>
<path d="M35.335 20.041H31.1475V36.791L45.8037 45.5848L47.8975 42.151L35.335 34.6973V20.041Z" fill="#353299"/>
</svg>
