<svg width="20" height="17" viewBox="0 0 20 17" fill="none" xmlns="http://www.w3.org/2000/svg">
<path d="M19.3683 15.7534L15.5511 6.84683C15.4806 6.68235 15.361 6.54173 15.2074 6.44278C15.0539 6.34384 14.8733 6.29102 14.6886 6.29102C14.5039 6.29102 14.3233 6.34384 14.1697 6.44278C14.0162 6.54173 13.8966 6.68235 13.8261 6.84683L10.0089 15.7534C9.96143 15.8626 9.93684 15.9798 9.93653 16.0982C9.93622 16.2166 9.9602 16.3339 10.0071 16.4433C10.054 16.5528 10.1229 16.6522 10.2098 16.736C10.2967 16.8197 10.3999 16.8861 10.5136 16.9312C10.6272 16.9764 10.7489 16.9995 10.8719 16.9992C10.9948 16.999 11.1164 16.9753 11.2298 16.9296C11.3432 16.8839 11.4461 16.817 11.5326 16.7329C11.6191 16.6488 11.6875 16.549 11.7339 16.4393L12.5113 14.6257H16.8659L17.6433 16.4393C17.7138 16.6039 17.8334 16.7446 17.987 16.8436C18.1406 16.9425 18.3212 16.9954 18.506 16.9954C18.6593 16.9953 18.8103 16.9588 18.9455 16.8891C19.0807 16.8195 19.196 16.7188 19.2812 16.596C19.3664 16.4732 19.4189 16.3321 19.434 16.1851C19.4491 16.0382 19.4264 15.8899 19.3679 15.7534H19.3683ZM13.2819 12.8281L14.6888 9.54534L16.0957 12.8281H13.2819Z" fill="#03006C"/>
<path d="M10.4423 12.0482C10.5872 11.8553 10.6468 11.6149 10.6079 11.3797C10.569 11.1445 10.4349 10.9339 10.2348 10.7939C10.2264 10.7878 9.59865 10.3392 8.68718 9.37498C10.3689 7.18185 11.3215 4.6868 11.71 3.51261H13.0787C13.3261 3.51261 13.5635 3.41791 13.7385 3.24935C13.9135 3.08078 14.0118 2.85217 14.0118 2.61378C14.0118 2.3754 13.9135 2.14678 13.7385 1.97822C13.5635 1.80966 13.3261 1.71496 13.0787 1.71496H8.15871V0.897847C8.15871 0.659464 8.0604 0.430845 7.88541 0.262283C7.71042 0.0937206 7.47308 -0.000976562 7.22561 -0.000976562C6.97814 -0.000976562 6.7408 0.0937206 6.56581 0.262283C6.39082 0.430845 6.29251 0.659464 6.29251 0.897847V1.71496H1.37255C1.12508 1.71496 0.88774 1.80966 0.712751 1.97822C0.537761 2.14678 0.439453 2.3754 0.439453 2.61378C0.439453 2.85217 0.537761 3.08078 0.712751 3.24935C0.88774 3.41791 1.12508 3.51261 1.37255 3.51261H9.73861C9.33484 4.61367 8.59133 6.35207 7.45719 7.93972C6.12498 6.23686 5.63002 5.13498 5.6262 5.12599C5.52867 4.90888 5.34622 4.73756 5.11841 4.64919C4.8906 4.56082 4.63581 4.56252 4.4093 4.65392C4.18278 4.74533 4.00281 4.91907 3.90842 5.13747C3.81402 5.35586 3.81282 5.60129 3.90506 5.82054C3.92966 5.87692 4.52218 7.21903 6.14704 9.24955C6.18606 9.29817 6.22465 9.34556 6.26325 9.39295C4.59894 11.2049 2.96602 12.3288 2.28274 12.6916C2.06547 12.8058 1.90418 12.9984 1.83434 13.2271C1.76451 13.4558 1.79185 13.7019 1.91035 13.9112C2.02886 14.1205 2.22882 14.2758 2.46625 14.3431C2.70368 14.4104 2.95913 14.384 3.1764 14.2699C3.26801 14.2217 5.23769 13.1713 7.48688 10.7731C8.44203 11.7569 9.09859 12.221 9.13804 12.2479C9.23728 12.3174 9.34977 12.3673 9.46906 12.3948C9.58835 12.4223 9.7121 12.4269 9.83323 12.4083C9.95437 12.3897 10.0705 12.3483 10.175 12.2865C10.2795 12.2246 10.3703 12.1435 10.4423 12.0478V12.0482Z" fill="#03006C"/>
</svg>
