<svg width="36" height="41" viewBox="0 0 36 41" fill="none" xmlns="http://www.w3.org/2000/svg">
<path d="M5.1866 5.18633C8.50735 1.86558 13.0113 0 17.7075 0C22.4038 0 26.9077 1.86558 30.2284 5.18633C33.5492 8.50708 35.4148 13.011 35.4148 17.7072C35.4148 22.4035 33.5492 26.9074 30.2284 30.2282L27.8145 32.6156C26.0351 34.3604 23.727 36.6055 20.8881 39.3509C20.0348 40.1759 18.8944 40.6371 17.7075 40.6371C16.5206 40.6371 15.3802 40.1759 14.5269 39.3509L7.42763 32.4448C6.53488 31.5683 5.78854 30.8301 5.1866 30.2282C3.54225 28.5839 2.23788 26.6319 1.34796 24.4836C0.458037 22.3352 0 20.0326 0 17.7072C0 15.3819 0.458037 13.0793 1.34796 10.9309C2.23788 8.78258 3.54225 6.83056 5.1866 5.18633ZM28.0708 7.34195C25.3217 4.59345 21.5934 3.04957 17.7061 3.04995C13.8187 3.05033 10.0907 4.59494 7.34222 7.34399C4.59371 10.093 3.04983 13.8213 3.05021 17.7087C3.05059 21.596 4.59521 25.324 7.34425 28.0725L10.3662 31.0579C12.4536 33.0975 14.5469 35.1311 16.646 37.1587C16.9304 37.4339 17.3107 37.5877 17.7065 37.5877C18.1023 37.5877 18.4826 37.4339 18.767 37.1587L25.6691 30.4478C26.6249 29.5103 27.4241 28.7192 28.0687 28.0725C30.8172 25.324 32.3612 21.5962 32.3612 17.7093C32.3612 13.8223 30.8172 10.0946 28.0687 7.34602L28.0708 7.34195ZM17.7075 12.1636C18.5092 12.1636 19.3031 12.3215 20.0437 12.6283C20.7844 12.9351 21.4574 13.3848 22.0243 13.9517C22.5912 14.5186 23.0409 15.1916 23.3477 15.9323C23.6545 16.673 23.8124 17.4668 23.8124 18.2685C23.8124 19.0702 23.6545 19.8641 23.3477 20.6048C23.0409 21.3454 22.5912 22.0184 22.0243 22.5853C21.4574 23.1522 20.7844 23.6019 20.0437 23.9087C19.3031 24.2155 18.5092 24.3734 17.7075 24.3734C16.108 24.3442 14.5838 23.6883 13.4629 22.5468C12.342 21.4053 11.714 19.8694 11.714 18.2695C11.714 16.6697 12.342 15.1338 13.4629 13.9923C14.5838 12.8508 16.108 12.1949 17.7075 12.1657V12.1636ZM17.7075 15.214C17.3064 15.214 16.9092 15.2931 16.5386 15.4466C16.168 15.6001 15.8313 15.825 15.5477 16.1087C15.264 16.3923 15.039 16.729 14.8855 17.0996C14.732 17.4702 14.653 17.8674 14.653 18.2685C14.653 18.6696 14.732 19.0668 14.8855 19.4374C15.039 19.808 15.264 20.1447 15.5477 20.4284C15.8313 20.712 16.168 20.937 16.5386 21.0905C16.9092 21.244 17.3064 21.323 17.7075 21.323C18.5173 21.323 19.294 21.0013 19.8666 20.4287C20.4393 19.856 20.761 19.0794 20.761 18.2695C20.761 17.4597 20.4393 16.6831 19.8666 16.1104C19.294 15.5378 18.5173 15.2161 17.7075 15.2161V15.214Z" fill="#353299"/>
</svg>
