<svg width="37" height="57" viewBox="0 0 37 57" fill="none" xmlns="http://www.w3.org/2000/svg">
<path fill-rule="evenodd" clip-rule="evenodd" d="M31.1832 5.59502C27.8224 2.23316 23.2825 0.315175 18.5292 0.249023H18.3492C13.5956 0.314214 9.05503 2.23157 5.6934 5.59319C2.33177 8.95482 0.41442 13.4954 0.349229 18.249C0.290729 21.624 1.24023 24.9405 3.07623 27.7755L17.2422 56.499H19.6407L33.8022 27.7755C35.6427 24.9405 36.5922 21.624 36.5292 18.249C36.4631 13.4958 34.5451 8.9559 31.1832 5.59502ZM18.1017 4.74902L18.4707 4.79402L18.8037 4.74902C22.3388 4.90299 25.6805 6.40532 28.1421 8.9472C30.6036 11.4891 31.9979 14.8774 32.0382 18.4155C32.0727 20.9267 31.3395 23.3884 29.9367 25.4715L29.8467 25.6245L29.7702 25.782L18.4392 48.7545L7.11273 25.8045L7.03623 25.629L6.94623 25.476C5.5435 23.3929 4.8103 20.9312 4.84473 18.42C4.8831 14.8778 6.27899 11.4852 8.74467 8.94167C11.2103 6.39813 14.5579 4.89748 18.0972 4.74902H18.1017ZM20.8557 14.5095C20.3644 14.181 19.8131 13.9524 19.2334 13.8369C18.6537 13.7214 18.0569 13.7212 17.4771 13.8363C16.8973 13.9514 16.3459 14.1796 15.8543 14.5078C15.3627 14.8361 14.9405 15.2579 14.612 15.7493C14.2834 16.2406 14.0548 16.7919 13.9393 17.3716C13.8238 17.9513 13.8236 18.5481 13.9387 19.1279C14.0539 19.7077 14.282 20.2591 14.6103 20.7507C14.9385 21.2423 15.3604 21.6645 15.8517 21.993C16.8441 22.6566 18.0594 22.8988 19.2304 22.6663C20.4013 22.4338 21.4319 21.7456 22.0955 20.7533C22.7591 19.7609 23.0012 18.5456 22.7687 17.3746C22.5362 16.2037 21.8481 15.1731 20.8557 14.5095ZM13.3542 10.7655C14.3361 10.0753 15.4461 9.58848 16.6189 9.33364C17.7917 9.0788 19.0037 9.0611 20.1834 9.2816C21.3632 9.5021 22.4869 9.95633 23.4885 10.6176C24.4901 11.2788 25.3493 12.1337 26.0156 13.132C26.6819 14.1302 27.1418 15.2516 27.3683 16.4302C27.5947 17.6089 27.5832 18.8209 27.3343 19.995C27.0853 21.1691 26.6041 22.2815 25.9189 23.2668C25.2337 24.2522 24.3583 25.0905 23.3442 25.7325C21.3593 26.9892 18.9616 27.42 16.6634 26.9327C14.3651 26.4455 12.3485 25.0789 11.0443 23.1249C9.74 21.1708 9.25151 18.7843 9.68313 16.4749C10.1147 14.1656 11.4323 12.1166 13.3542 10.7655Z" fill="#353299"/>
</svg>
