<svg width="12" height="15" viewBox="0 0 12 15" fill="none" xmlns="http://www.w3.org/2000/svg">
  <path d="M0.0644531 7.08236C0.0644531 7.27022 0.139081 7.45039 0.271919 7.58322C0.404758 7.71606 0.584925 7.79069 0.772786 7.79069H6.14904L4.51987 9.41277C4.45348 9.47862 4.40078 9.55696 4.36482 9.64328C4.32886 9.7296 4.31035 9.82218 4.31035 9.91569C4.31035 10.0092 4.32886 10.1018 4.36482 10.1881C4.40078 10.2744 4.45348 10.3528 4.51987 10.4186C4.58572 10.485 4.66406 10.5377 4.75038 10.5737C4.83669 10.6096 4.92928 10.6281 5.02279 10.6281C5.11629 10.6281 5.20888 10.6096 5.29519 10.5737C5.38151 10.5377 5.45985 10.485 5.5257 10.4186L8.35904 7.58527C8.42352 7.51791 8.47407 7.43847 8.50779 7.35152C8.57863 7.17907 8.57863 6.98564 8.50779 6.81319C8.47407 6.72624 8.42352 6.64681 8.35904 6.57944L5.5257 3.74611C5.45966 3.68006 5.38125 3.62767 5.29496 3.59193C5.20867 3.55619 5.11619 3.53779 5.02279 3.53779C4.92939 3.53779 4.8369 3.55619 4.75061 3.59193C4.66432 3.62767 4.58591 3.68006 4.51987 3.74611C4.45383 3.81215 4.40144 3.89056 4.36569 3.97685C4.32995 4.06314 4.31155 4.15562 4.31155 4.24902C4.31155 4.34242 4.32995 4.43491 4.36569 4.5212C4.40144 4.60749 4.45383 4.6859 4.51987 4.75194L6.14904 6.37402H0.772786C0.584925 6.37402 0.404758 6.44865 0.271919 6.58149C0.139081 6.71433 0.0644531 6.8945 0.0644531 7.08236ZM9.27279 -0.000976562H2.18945C1.62587 -0.000976562 1.08537 0.222907 0.686851 0.621422C0.288336 1.01994 0.0644531 1.56044 0.0644531 2.12402V4.24902C0.0644531 4.43689 0.139081 4.61705 0.271919 4.74989C0.404758 4.88273 0.584925 4.95736 0.772786 4.95736C0.960648 4.95736 1.14082 4.88273 1.27365 4.74989C1.40649 4.61705 1.48112 4.43689 1.48112 4.24902V2.12402C1.48112 1.93616 1.55575 1.75599 1.68859 1.62316C1.82142 1.49032 2.00159 1.41569 2.18945 1.41569H9.27279C9.46065 1.41569 9.64081 1.49032 9.77365 1.62316C9.90649 1.75599 9.98112 1.93616 9.98112 2.12402V12.0407C9.98112 12.2286 9.90649 12.4087 9.77365 12.5416C9.64081 12.6744 9.46065 12.749 9.27279 12.749H2.18945C2.00159 12.749 1.82142 12.6744 1.68859 12.5416C1.55575 12.4087 1.48112 12.2286 1.48112 12.0407V9.91569C1.48112 9.72783 1.40649 9.54766 1.27365 9.41482C1.14082 9.28199 0.960648 9.20736 0.772786 9.20736C0.584925 9.20736 0.404758 9.28199 0.271919 9.41482C0.139081 9.54766 0.0644531 9.72783 0.0644531 9.91569V12.0407C0.0644531 12.6043 0.288336 13.1448 0.686851 13.5433C1.08537 13.9418 1.62587 14.1657 2.18945 14.1657H9.27279C9.83637 14.1657 10.3769 13.9418 10.7754 13.5433C11.1739 13.1448 11.3978 12.6043 11.3978 12.0407V2.12402C11.3978 1.56044 11.1739 1.01994 10.7754 0.621422C10.3769 0.222907 9.83637 -0.000976562 9.27279 -0.000976562Z" fill="url(#paint0_linear)"/>
  <defs>
  <linearGradient id="paint0_linear" x1="16.4148" y1="7.08236" x2="-9.53576" y2="7.21074" gradientUnits="userSpaceOnUse">
  <stop stop-color="#03006C"/>
  <stop offset="1" stop-color="#ABA9F7"/>
  </linearGradient>
  </defs>
  </svg>
  