<svg width="58" height="47" viewBox="0 0 58 47" fill="none" xmlns="http://www.w3.org/2000/svg">
<path d="M0.814453 14.3021V37.5615C0.814453 40.0479 1.80217 42.4325 3.56033 44.1906C5.31848 45.9488 7.70305 46.9365 10.1895 46.9365H47.6895C50.1759 46.9365 52.5604 45.9488 54.3186 44.1906C56.0767 42.4325 57.0645 40.0479 57.0645 37.5615V9.43652C57.0645 6.95012 56.0767 4.56555 54.3186 2.8074C52.5604 1.04924 50.1759 0.0615234 47.6895 0.0615234H10.1895C7.70305 0.0615234 5.31848 1.04924 3.56033 2.8074C1.80217 4.56555 0.814453 6.95012 0.814453 9.43652V14.3021ZM10.1895 4.74902H47.6895C48.9327 4.74902 50.1249 5.24288 51.004 6.12196C51.8831 7.00104 52.377 8.19332 52.377 9.43652V12.9053L28.9395 25.524L5.50195 12.9053V9.43652C5.50195 8.19332 5.99581 7.00104 6.87489 6.12196C7.75397 5.24288 8.94625 4.74902 10.1895 4.74902ZM5.50195 18.2303L27.8285 30.249C28.17 30.4328 28.5517 30.529 28.9395 30.529C29.3272 30.529 29.7089 30.4328 30.0504 30.249L52.377 18.2303V37.5615C52.377 38.8047 51.8831 39.997 51.004 40.8761C50.1249 41.7552 48.9327 42.249 47.6895 42.249H10.1895C8.94625 42.249 7.75397 41.7552 6.87489 40.8761C5.99581 39.997 5.50195 38.8047 5.50195 37.5615V18.2303Z" fill="#353299"/>
</svg>
