<svg width="11" height="17" viewBox="0 0 11 17" fill="none" xmlns="http://www.w3.org/2000/svg">
<path fill-rule="evenodd" clip-rule="evenodd" d="M9.27079 2.35902C8.33721 1.42517 7.07613 0.892399 5.75579 0.874023H5.70579C4.38534 0.892132 3.12406 1.42473 2.19028 2.35852C1.25649 3.2923 0.723895 4.55358 0.705786 5.87402C0.689536 6.81152 0.953286 7.73277 1.46329 8.52027L5.39829 16.499H6.06454L9.99828 8.52027C10.5095 7.73277 10.7733 6.81152 10.7558 5.87402C10.7374 4.55368 10.2046 3.2926 9.27079 2.35902ZM5.63704 2.12402L5.73954 2.13652L5.83204 2.12402C6.81399 2.16679 7.74226 2.58411 8.42602 3.29018C9.10978 3.99626 9.49707 4.93745 9.50829 5.92027C9.51785 6.61781 9.31418 7.30163 8.92454 7.88027L8.89954 7.92277L8.87829 7.96652L5.73079 14.3478L2.58454 7.97277L2.56329 7.92402L2.53829 7.88152C2.14864 7.30288 1.94497 6.61906 1.95454 5.92152C1.9652 4.93756 2.35294 3.99518 3.03785 3.28865C3.72276 2.58211 4.65263 2.16526 5.63579 2.12402H5.63704ZM6.40204 4.83527C6.26554 4.744 6.11241 4.68051 5.95138 4.64843C5.79035 4.61634 5.62458 4.61628 5.46353 4.64826C5.30247 4.68024 5.1493 4.74362 5.01274 4.8348C4.87619 4.92598 4.75893 5.04316 4.66766 5.17965C4.57639 5.31614 4.5129 5.46927 4.48081 5.6303C4.44873 5.79133 4.44867 5.95711 4.48065 6.11816C4.51263 6.27921 4.57601 6.43239 4.66719 6.56894C4.75836 6.7055 4.87554 6.82275 5.01204 6.91402C5.2877 7.09835 5.62529 7.16562 5.95055 7.10104C6.2758 7.03645 6.56209 6.84531 6.74641 6.56965C6.93074 6.29399 6.99801 5.9564 6.93342 5.63114C6.86884 5.30588 6.67769 5.0196 6.40204 4.83527ZM4.31829 3.79527C4.59103 3.60355 4.89936 3.46832 5.22514 3.39753C5.55092 3.32674 5.88757 3.32182 6.21528 3.38307C6.54299 3.44432 6.85514 3.5705 7.13336 3.75418C7.41158 3.93785 7.65026 4.17533 7.83534 4.45261C8.02042 4.7299 8.14817 5.04141 8.21108 5.36881C8.27398 5.6962 8.27077 6.03287 8.20162 6.35901C8.13248 6.68514 7.99881 6.99416 7.80847 7.26786C7.61812 7.54157 7.37496 7.77444 7.09329 7.95277C6.54191 8.30186 5.87589 8.42151 5.23749 8.28616C4.59909 8.15082 4.03892 7.77121 3.67663 7.22842C3.31433 6.68564 3.17864 6.0227 3.29854 5.38122C3.41843 4.73974 3.7844 4.17056 4.31829 3.79527Z" fill="url(#paint0_linear)"/>
<defs>
<linearGradient id="paint0_linear" x1="15.2062" y1="8.68653" x2="-7.80954" y2="8.77808" gradientUnits="userSpaceOnUse">
<stop stop-color="#03006C"/>
<stop offset="1" stop-color="#ABA9F7"/>
</linearGradient>
</defs>
</svg>
