<svg width="19" height="17" viewBox="0 0 19 17" fill="none" xmlns="http://www.w3.org/2000/svg">
<path d="M6.357 3.51775C6.73675 3.31475 7.14537 3.25 7.5435 3.25C8.00375 3.25 8.53925 3.40138 8.9715 3.75488C9.42387 4.12588 9.731 4.69463 9.731 5.43663C9.731 6.28975 9.12812 6.75262 8.78862 7.01338L8.71425 7.07113C8.34325 7.3625 8.19975 7.51825 8.19975 7.84288C8.19975 8.01692 8.13061 8.18384 8.00754 8.30691C7.88447 8.42998 7.71755 8.49913 7.5435 8.49913C7.36945 8.49913 7.20253 8.42998 7.07946 8.30691C6.95639 8.18384 6.88725 8.01692 6.88725 7.84288C6.88725 6.85063 7.50937 6.34837 7.904 6.03862C8.35287 5.686 8.4185 5.60725 8.4185 5.43663C8.4185 5.08925 8.28812 4.89237 8.1385 4.77075C7.96879 4.63709 7.75951 4.56354 7.5435 4.56163C7.28537 4.56163 7.10775 4.6045 6.97475 4.67538C6.84962 4.74188 6.7175 4.85912 6.58975 5.09537C6.54867 5.17121 6.49305 5.23822 6.42608 5.29256C6.35911 5.34691 6.28208 5.38753 6.19941 5.41211C6.11674 5.43669 6.03003 5.44474 5.94425 5.43581C5.85846 5.42688 5.77527 5.40114 5.69943 5.36006C5.6236 5.31898 5.55659 5.26337 5.50225 5.1964C5.4479 5.12942 5.40728 5.0524 5.3827 4.96972C5.35812 4.88705 5.35007 4.80035 5.359 4.71456C5.36793 4.62878 5.39367 4.54559 5.43475 4.46975C5.66575 4.0445 5.97025 3.72338 6.357 3.51688V3.51775Z" fill="url(#paint0_linear)"/>
<path d="M7.54297 11.124C7.77503 11.124 7.99759 11.0318 8.16169 10.8677C8.32578 10.7036 8.41797 10.4811 8.41797 10.249C8.41797 10.017 8.32578 9.7944 8.16169 9.63031C7.99759 9.46621 7.77503 9.37402 7.54297 9.37402C7.3109 9.37402 7.08834 9.46621 6.92425 9.63031C6.76016 9.7944 6.66797 10.017 6.66797 10.249C6.66797 10.4811 6.76016 10.7036 6.92425 10.8677C7.08834 11.0318 7.3109 11.124 7.54297 11.124Z" fill="url(#paint1_linear)"/>
<path d="M7.54338 0.624024C6.43957 0.623838 5.35354 0.902078 4.3858 1.433C3.41806 1.96392 2.59987 2.73036 2.00694 3.6614C1.41402 4.59244 1.06551 5.658 0.993683 6.75947C0.921853 7.86094 1.12902 8.96274 1.596 9.9629L0.961626 12.4496C0.915064 12.6323 0.916501 12.8239 0.9658 13.0059C1.0151 13.1878 1.11058 13.3539 1.243 13.4881C1.37541 13.6223 1.54024 13.7199 1.72152 13.7716C1.9028 13.8233 2.09436 13.8273 2.27763 13.7831C2.93388 13.6256 3.94275 13.3833 4.84138 13.1689C5.7336 13.5712 6.70451 13.7689 7.68302 13.7474C8.66152 13.726 9.62283 13.4859 10.4965 13.0448C11.3703 12.6037 12.1343 11.9728 12.7326 11.1983C13.3309 10.4237 13.7484 9.52511 13.9545 8.56831C14.1605 7.61151 14.15 6.62073 13.9236 5.66854C13.6972 4.71634 13.2607 3.82684 12.646 3.06519C12.0314 2.30353 11.2541 1.689 10.3712 1.26661C9.48832 0.844221 8.52212 0.624665 7.54338 0.624024ZM2.29338 7.18652C2.29372 6.04491 2.66617 4.93452 3.3543 4.0236C4.04242 3.11269 5.00871 2.45089 6.10675 2.1385C7.20479 1.8261 8.37473 1.88014 9.43931 2.29241C10.5039 2.70468 11.4051 3.45272 12.0063 4.42318C12.6075 5.39364 12.8761 6.53363 12.7712 7.67042C12.6663 8.80721 12.1937 9.87883 11.4251 10.7229C10.6565 11.567 9.63362 12.1375 8.51159 12.3481C7.38956 12.5586 6.22948 12.3977 5.20713 11.8896L4.9945 11.7838L4.76263 11.8389L2.32313 12.4225C2.49813 11.74 2.72738 10.837 2.92688 10.053L2.98813 9.81152L2.87438 9.59015C2.49116 8.84698 2.29191 8.02268 2.29338 7.18652Z" fill="url(#paint2_linear)"/>
<path d="M11.9176 16.3738C10.1938 16.3738 8.6267 15.7096 7.45508 14.6238H7.54258C8.17083 14.6238 8.7807 14.5459 9.36345 14.3989C10.1195 14.8206 10.991 15.0613 11.9185 15.0613C12.7585 15.0613 13.5512 14.8644 14.2538 14.5144L14.4665 14.4085L14.6983 14.4636C15.5042 14.6561 16.4177 14.853 17.0958 14.9974C16.9418 14.3403 16.7327 13.4609 16.5341 12.6778L16.4728 12.4363L16.5866 12.2149C16.9698 11.4717 17.169 10.6474 17.1676 9.81127C17.168 8.93353 16.9482 8.0697 16.5283 7.29892C16.1084 6.52815 15.5017 5.87507 14.764 5.39952C14.6097 4.77453 14.3743 4.17239 14.064 3.6084C14.9326 3.90918 15.7284 4.38903 16.3998 5.01688C17.0712 5.64473 17.6033 6.40658 17.9616 7.25311C18.32 8.09965 18.4965 9.01199 18.4798 9.93109C18.4632 10.8502 18.2537 11.7555 17.865 12.5885C18.0863 13.4705 18.3112 14.426 18.453 15.0411C18.4946 15.2194 18.4905 15.4054 18.4412 15.5817C18.3919 15.758 18.2989 15.919 18.1709 16.0499C18.0428 16.1807 17.8838 16.2772 17.7086 16.3303C17.5334 16.3834 17.3476 16.3914 17.1685 16.3536C16.5323 16.2206 15.5322 16.0071 14.6196 15.7936C13.7705 16.1772 12.8493 16.375 11.9176 16.3738Z" fill="url(#paint3_linear)"/>
<defs>
<linearGradient id="paint0_linear" x1="11.6679" y1="5.87457" x2="1.64908" y2="5.92621" gradientUnits="userSpaceOnUse">
<stop stop-color="#03006C"/>
<stop offset="1" stop-color="#ABA9F7"/>
</linearGradient>
<linearGradient id="paint1_linear" x1="9.19265" y1="10.249" x2="5.18564" y2="10.2738" gradientUnits="userSpaceOnUse">
<stop stop-color="#03006C"/>
<stop offset="1" stop-color="#ABA9F7"/>
</linearGradient>
<linearGradient id="paint2_linear" x1="19.9333" y1="7.2188" x2="-10.2311" y2="7.4051" gradientUnits="userSpaceOnUse">
<stop stop-color="#03006C"/>
<stop offset="1" stop-color="#ABA9F7"/>
</linearGradient>
<linearGradient id="paint3_linear" x1="23.3625" y1="9.99273" x2="-1.88501" y2="10.1275" gradientUnits="userSpaceOnUse">
<stop stop-color="#03006C"/>
<stop offset="1" stop-color="#ABA9F7"/>
</linearGradient>
</defs>
</svg>
