<svg width="19" height="18" viewBox="0 0 19 18" fill="none" xmlns="http://www.w3.org/2000/svg">
<path d="M9.73047 10.499V11.999C8.53699 11.999 7.3924 12.4731 6.54849 13.317C5.70457 14.161 5.23047 15.3055 5.23047 16.499H3.73047C3.73047 14.9077 4.36261 13.3816 5.48783 12.2564C6.61305 11.1312 8.13917 10.499 9.73047 10.499ZM9.73047 9.74902C7.24422 9.74902 5.23047 7.73527 5.23047 5.24902C5.23047 2.76277 7.24422 0.749023 9.73047 0.749023C12.2167 0.749023 14.2305 2.76277 14.2305 5.24902C14.2305 7.73527 12.2167 9.74902 9.73047 9.74902ZM9.73047 8.24902C11.388 8.24902 12.7305 6.90652 12.7305 5.24902C12.7305 3.59152 11.388 2.24902 9.73047 2.24902C8.07297 2.24902 6.73047 3.59152 6.73047 5.24902C6.73047 6.90652 8.07297 8.24902 9.73047 8.24902ZM11.6767 14.108C11.5816 13.7078 11.5816 13.291 11.6767 12.8908L10.9327 12.461L11.6827 11.162L12.4267 11.5918C12.7253 11.3089 13.0863 11.1003 13.4805 10.9828V10.124H14.9805V10.9828C15.3795 11.1013 15.7395 11.3128 16.0342 11.5918L16.7782 11.162L17.5282 12.461L16.7842 12.8908C16.8792 13.2907 16.8792 13.7073 16.7842 14.1073L17.5282 14.537L16.7782 15.836L16.0342 15.4063C15.7356 15.6891 15.3746 15.8977 14.9805 16.0153V16.874H13.4805V16.0153C13.0863 15.8977 12.7253 15.6891 12.4267 15.4063L11.6827 15.836L10.9327 14.537L11.6767 14.108ZM14.2305 14.624C14.5288 14.624 14.815 14.5055 15.026 14.2945C15.2369 14.0835 15.3555 13.7974 15.3555 13.499C15.3555 13.2007 15.2369 12.9145 15.026 12.7035C14.815 12.4926 14.5288 12.374 14.2305 12.374C13.9321 12.374 13.646 12.4926 13.435 12.7035C13.224 12.9145 13.1055 13.2007 13.1055 13.499C13.1055 13.7974 13.224 14.0835 13.435 14.2945C13.646 14.5055 13.9321 14.624 14.2305 14.624Z" fill="url(#paint0_linear)"/>
<defs>
<linearGradient id="paint0_linear" x1="23.6361" y1="8.81153" x2="-7.95719" y2="8.97869" gradientUnits="userSpaceOnUse">
<stop stop-color="#03006C"/>
<stop offset="1" stop-color="#ABA9F7"/>
</linearGradient>
</defs>
</svg>
