<svg width="211" height="205" viewBox="0 0 211 205" fill="none" xmlns="http://www.w3.org/2000/svg">
  <g clip-path="url(#clip0)">
  <path d="M107.13 205C163.739 205 209.63 159.109 209.63 102.5C209.63 45.8901 163.739 -0.000976562 107.13 -0.000976562C50.5207 -0.000976562 4.62988 45.8901 4.62988 102.5C4.62988 159.109 50.5207 205 107.13 205Z" fill="#EDEBFF"/>
  <path d="M107.721 106.021L48.8878 66.198C45.6502 59.5026 59.3058 40.5581 68.1874 44.5328L118.873 87.1919L107.721 106.021Z" fill="#FDBDBB"/>
  <path d="M114.258 169.362L180.259 154.287V71.9961L114.258 84.9365V169.362Z" fill="#FB948D"/>
  <path d="M180.259 71.9963L152.885 62.3779L132.578 56.335L69.7354 67.9413L114.258 84.9367L180.259 71.9963Z" fill="#FCA1A0"/>
  <path d="M114.256 84.9327V169.361L80.2665 154.015L70.6898 149.689L70.0374 94.0856L69.7314 67.9424L114.256 84.9327Z" fill="#FCA1A0"/>
  <path d="M87.9416 75.36C87.9492 75.36 87.9567 75.36 87.9643 75.3575L152.909 62.5087C152.975 62.4949 153.021 62.4259 153.008 62.3531C152.996 62.2803 152.931 62.2326 152.865 62.2452L87.919 75.0952C87.8522 75.109 87.8069 75.1781 87.8195 75.2509C87.8308 75.3149 87.8824 75.36 87.9416 75.36Z" fill="#9E6331"/>
  <path d="M113.913 85.2556C113.963 85.2556 114.011 85.2217 114.029 85.1665C114.051 85.0962 114.017 85.0209 113.953 84.9958L69.9906 68.2451C69.9264 68.22 69.8559 68.2577 69.8332 68.3267C69.8105 68.397 69.8445 68.4723 69.9088 68.4974L113.872 85.248C113.886 85.2531 113.9 85.2556 113.913 85.2556Z" fill="#9E6331"/>
  <path d="M156.219 63.6037L91.9434 76.6809V95.1559L85.307 91.7761L84.8398 74.0592L148.491 61.1514L156.219 63.6037Z" fill="white"/>
  <path d="M101.744 141.33C100.223 143.422 82.8615 139.096 82.8615 139.096C82.8615 139.096 95.7803 148.336 93.4368 149.818C91.1009 151.301 79.3015 146.643 79.3015 146.643C79.3015 146.643 87.0926 153.345 85.4216 153.988C84.9115 154.183 82.8678 154.15 80.2661 154.015L70.6893 149.689L70.0635 96.3086C88.0371 97.6414 92.5024 101.632 92.5138 104.165C92.5352 109.108 83.311 108.619 82.1689 112.166C81.028 115.712 100.78 123.931 106.009 132.332L87.0926 130.336C87.0926 130.336 103.265 139.237 101.744 141.33Z" fill="#FDBDBB"/>
  <path d="M58.161 99.9227C65.4925 98.1256 75.8575 98.1243 88.7928 99.5613C93.5969 100.095 93.8589 107.037 89.1013 107.886C89.0396 107.897 88.9767 107.907 88.9124 107.917C82.6324 108.902 79.4377 104.943 73.3226 111.384C65.1991 119.939 54.8315 115.956 52.8746 111.357C51.5611 108.274 52.969 100.944 58.161 99.9227Z" fill="#FDBDBB"/>
  <path d="M62.2162 99.1738C57.154 99.5767 50.1008 102.069 47.6905 107.938C44.8106 114.952 43.5135 121.892 52.9543 133.281C59.16 140.767 83.8178 156.939 85.8024 153.515C87.6825 150.27 68.9005 137.76 68.4307 137.455C67.9636 137.152 92.7221 153.073 94.5166 149.225C96.7241 144.492 73.1379 128.781 72.5045 128.259C71.8774 127.742 99.4277 145.654 101.747 141.33C103.714 137.663 77.9609 120.988 77.9609 120.988C77.9609 120.988 104.77 136.209 106.789 131C108.798 125.819 62.2162 99.1738 62.2162 99.1738Z" fill="#FDBDBB"/>
  <path d="M61.7514 129.817C61.7514 129.817 3.45841 102.003 2.5807 101.127C-4.73567 94.0183 8.26506 68.4361 18.0043 74.2468L73.2788 107.546L61.7514 129.817Z" fill="#FDBDBB"/>
  <path d="M176.126 79.4824V93.5662L156.22 97.9575V83.1169L176.126 79.4824Z" fill="#FFBF8A"/>
  <path d="M115.72 124.52L122.675 167.44L155.714 159.893L125.686 123.67H116.055L115.72 124.52Z" fill="#33201B"/>
  <path d="M116.055 123.67L115.72 124.52L140.171 189.601L191.962 185.844L192.341 184.996L116.055 123.67Z" fill="#D62D06"/>
  <path d="M116.055 123.67L140.614 188.698L192.341 184.996L165.145 121.812L116.055 123.67Z" fill="#EB4838"/>
  <path d="M161.917 125.554L184.416 178.348L142.918 181.007L123.23 128.142L161.917 125.554Z" fill="white"/>
  <path d="M128.048 122.259L131.283 130.078L161.065 128.664L157.321 121.028L128.048 122.259Z" fill="black"/>
  <path d="M163.031 133.699L129.397 135.132L129.426 135.808L163.06 134.375L163.031 133.699Z" fill="#848484"/>
  <path d="M164.927 137.921L131.293 139.354L131.322 140.029L164.956 138.597L164.927 137.921Z" fill="#848484"/>
  <path d="M166.823 142.142L133.189 143.574L133.218 144.25L166.852 142.817L166.823 142.142Z" fill="#848484"/>
  <path d="M168.72 146.364L135.086 147.797L135.115 148.473L168.749 147.04L168.72 146.364Z" fill="#848484"/>
  <path d="M170.616 150.584L136.982 152.017L137.011 152.692L170.645 151.26L170.616 150.584Z" fill="#848484"/>
  <path d="M172.513 154.807L138.879 156.239L138.908 156.915L172.542 155.482L172.513 154.807Z" fill="#848484"/>
  <path d="M156.105 172.152C156.043 172.152 155.988 172.142 155.94 172.126C155.334 171.934 155.181 170.813 154.891 168.298C154.622 165.961 154.253 162.76 153.233 162.154C153.037 162.037 152.823 162.032 152.563 162.136C149.431 163.385 149.301 172.034 149.3 172.121L148.621 172.113C148.625 171.739 148.761 162.922 152.311 161.507C152.773 161.323 153.2 161.345 153.581 161.573C154.89 162.351 155.249 165.469 155.566 168.222C155.704 169.421 155.89 171.033 156.125 171.429C156.13 171.423 156.136 171.418 156.143 171.411C156.687 170.804 157.379 169.482 158.051 168.203C159.349 165.724 160.186 164.207 161.039 164.29C161.584 164.341 161.775 164.979 161.838 165.188C162.115 166.108 162.239 166.93 162.338 167.592C162.454 168.363 162.546 168.972 162.797 169.123C162.942 169.211 163.219 169.183 163.62 169.042C164.155 168.855 164.608 168.572 165.046 168.296C166.199 167.571 167.393 166.822 169.788 168.165L169.456 168.755C167.412 167.609 166.528 168.165 165.408 168.868C164.939 169.163 164.453 169.468 163.846 169.68C163.227 169.896 162.783 169.902 162.447 169.701C161.923 169.386 161.816 168.675 161.667 167.691C161.57 167.052 161.451 166.255 161.187 165.381C161.075 165.011 160.973 164.962 160.972 164.962C160.972 164.962 160.724 164.956 160.082 165.95C159.635 166.64 159.136 167.594 158.652 168.515C157.931 169.892 157.25 171.191 156.649 171.861C156.446 172.087 156.257 172.152 156.105 172.152Z" fill="#282828"/>
  <path d="M178.475 162.477L173.817 160.781L190.081 116.398C190.551 115.115 191.975 114.456 193.261 114.924C194.547 115.392 195.209 116.812 194.739 118.093L178.475 162.477Z" fill="#025BB3"/>
  <path d="M188.986 117.893L183.872 131.85L189.63 133.945L194.744 119.989L188.986 117.893Z" fill="#0076EB"/>
  <path d="M187.98 142.264L187.301 142.262C187.308 138.181 188.544 136.384 190.105 134.107C191.094 132.668 192.214 131.036 193.333 128.462C195.361 123.797 195.384 121.916 195.045 121.158C194.863 120.748 194.559 120.646 194.315 120.564C194.28 120.553 194.248 120.542 194.219 120.532L194.452 119.896C194.476 119.904 194.504 119.913 194.532 119.923C194.821 120.02 195.361 120.202 195.666 120.883C196.247 122.183 195.688 124.751 193.956 128.732C192.811 131.365 191.672 133.025 190.666 134.49C189.11 136.755 187.987 138.392 187.98 142.264Z" fill="#025BB3"/>
  <path d="M173.452 166.851L174.825 167.351C175.282 166.742 177.957 163.168 178.472 162.479L173.814 160.783C173.761 161.669 173.497 166.065 173.452 166.851Z" fill="black"/>
  <path d="M173.572 168.645C173.344 168.562 173.226 168.309 173.309 168.081C173.582 167.759 173.943 165.206 174.703 165.556C174.931 165.639 175.049 165.893 174.966 166.12C174.694 166.442 174.333 168.995 173.572 168.645Z" fill="black"/>
  </g>
  <defs>
  <clipPath id="clip0">
  <rect width="210" height="205" fill="white" transform="translate(0.439453 -0.000976562)"/>
  </clipPath>
  </defs>
  </svg>
  