<svg width="26" height="18" viewBox="0 0 26 18" fill="none" xmlns="http://www.w3.org/2000/svg">
<path d="M25.3496 13.0449C25.3496 15.418 24.032 17.3418 21.4434 17.3418H4.25586C1.66719 17.3418 0.349609 15.418 0.349609 13.0449V4.45117C0.349609 2.07813 1.66719 0.154297 4.25586 0.154297H21.4434C24.032 0.154297 25.3496 2.07813 25.3496 4.45117V13.0449Z" fill="#EC1C24"/>
<path fill-rule="evenodd" clip-rule="evenodd" d="M15.8869 11.2168C14.9877 12.6195 13.1154 13.5043 11.1565 12.932C9.30763 12.3906 8.03771 10.5992 8.14279 8.66717C8.24513 6.72655 9.70294 5.07616 11.5975 4.74139C13.6049 4.38475 15.2174 5.46092 15.9061 6.58749C15.0901 5.78514 14.1412 5.42381 13.0303 5.55077C12.16 5.65077 11.4326 6.04413 10.8631 6.70819C9.74826 8.00584 9.78927 9.95194 10.9533 11.1765C11.6209 11.8789 12.442 12.2465 13.4111 12.2555C14.3795 12.2625 15.201 11.8961 15.8893 11.2187" fill="white"/>
<path d="M17.6262 7.33984L18.4191 8.07578L19.477 7.84141L19.0211 8.82578L19.5715 9.75586L18.4973 9.62656L17.7789 10.4391L17.5715 9.37578L16.5762 8.94453L17.5223 8.41953L17.6262 7.33984Z" fill="white"/>
</svg>
