<svg width="29" height="16" viewBox="0 0 29 16" fill="none" xmlns="http://www.w3.org/2000/svg">
<path d="M9.2832 4.99902C9.2832 5.79467 8.96713 6.55773 8.40452 7.12034C7.84191 7.68295 7.07885 7.99902 6.2832 7.99902C5.48755 7.99902 4.72449 7.68295 4.16188 7.12034C3.59927 6.55773 3.2832 5.79467 3.2832 4.99902C3.2832 4.20337 3.59927 3.44031 4.16188 2.8777C4.72449 2.31509 5.48755 1.99902 6.2832 1.99902C7.07885 1.99902 7.84191 2.31509 8.40452 2.8777C8.96713 3.44031 9.2832 4.20337 9.2832 4.99902Z" fill="#2F2F30"/>
<path fill-rule="evenodd" clip-rule="evenodd" d="M2.5392 12.239C2.3292 12.45 2.2832 12.608 2.2832 12.726V15.999H0.283203V12.726C0.283203 11.938 0.653203 11.301 1.1202 10.83C1.5792 10.369 2.1702 10.023 2.7572 9.76602C3.9252 9.25602 5.3112 8.99902 6.2832 8.99902C7.2542 8.99902 8.6412 9.25602 9.8092 9.76602C10.3962 10.023 10.9872 10.369 11.4462 10.83C11.9142 11.301 12.2832 11.938 12.2832 12.726V15.999H10.2832V12.726C10.2832 12.608 10.2362 12.45 10.0272 12.24C9.8092 12.02 9.4632 11.798 9.0082 11.599C8.0942 11.199 6.9802 10.999 6.2832 10.999C5.5862 10.999 4.4732 11.199 3.5582 11.599C3.1032 11.797 2.7582 12.019 2.5392 12.239Z" fill="#2F2F30"/>
<path fill-rule="evenodd" clip-rule="evenodd" d="M18.5392 12.239C18.3292 12.45 18.2832 12.608 18.2832 12.726V15.999H16.2832V12.726C16.2832 11.938 16.6532 11.301 17.1202 10.83C17.5792 10.369 18.1702 10.023 18.7572 9.76602C19.9252 9.25602 21.3122 8.99902 22.2832 8.99902C23.2542 8.99902 24.6412 9.25602 25.8092 9.76602C26.3962 10.023 26.9872 10.369 27.4462 10.83C27.9142 11.301 28.2832 11.938 28.2832 12.726V15.999H26.2832V12.726C26.2832 12.608 26.2362 12.45 26.0272 12.24C25.8092 12.02 25.4632 11.798 25.0082 11.599C24.0942 11.199 22.9802 10.999 22.2832 10.999C21.5862 10.999 20.4732 11.199 19.5582 11.599C19.1032 11.797 18.7582 12.019 18.5392 12.239Z" fill="#2F2F30"/>
<path d="M25.2832 4.99902C25.2832 5.79467 24.9671 6.55773 24.4045 7.12034C23.8419 7.68295 23.0789 7.99902 22.2832 7.99902C21.4876 7.99902 20.7245 7.68295 20.1619 7.12034C19.5993 6.55773 19.2832 5.79467 19.2832 4.99902C19.2832 4.20337 19.5993 3.44031 20.1619 2.8777C20.7245 2.31509 21.4876 1.99902 22.2832 1.99902C23.0789 1.99902 23.8419 2.31509 24.4045 2.8777C24.9671 3.44031 25.2832 4.20337 25.2832 4.99902Z" fill="#2F2F30"/>
<path d="M17.2832 2.99902C17.2832 3.79467 16.9671 4.55773 16.4045 5.12034C15.8419 5.68295 15.0789 5.99902 14.2832 5.99902C13.4876 5.99902 12.7245 5.68295 12.1619 5.12034C11.5993 4.55773 11.2832 3.79467 11.2832 2.99902C11.2832 2.20337 11.5993 1.44031 12.1619 0.877703C12.7245 0.315094 13.4876 -0.000976562 14.2832 -0.000976562C15.0789 -0.000976562 15.8419 0.315094 16.4045 0.877703C16.9671 1.44031 17.2832 2.20337 17.2832 2.99902Z" fill="#2F2F30"/>
<path fill-rule="evenodd" clip-rule="evenodd" d="M12.9801 9.9942C12.6971 10.0222 12.6001 10.0862 12.5291 10.1652L11.0371 8.83319C11.5621 8.24519 12.2171 8.05919 12.7851 8.00319C13.1291 7.97019 13.5551 7.9822 13.9051 7.9912C14.0471 7.9952 14.1771 7.9992 14.2831 7.9992C14.3891 7.9992 14.5191 7.9952 14.6621 7.9912C15.0111 7.9812 15.4371 7.97119 15.7801 8.00419C16.3501 8.05919 17.0041 8.24519 17.5291 8.83319L16.0371 10.1652C15.9671 10.0862 15.8691 10.0222 15.5861 9.9952C15.4018 9.98048 15.2169 9.97647 15.0321 9.98319L14.8301 9.9882C14.6601 9.9932 14.4671 9.9992 14.2831 9.9992C14.0991 9.9992 13.9061 9.99319 13.7361 9.98919L13.5341 9.98319C13.3494 9.97614 13.1644 9.97981 12.9801 9.9942Z" fill="#2F2F30"/>
</svg>
