<svg width="206" height="228" viewBox="0 0 206 228" fill="none" xmlns="http://www.w3.org/2000/svg">
<path d="M102.939 204.999C159.549 204.999 205.439 159.108 205.439 102.499C205.439 45.8898 159.549 -0.000976562 102.939 -0.000976562C46.3303 -0.000976562 0.439453 45.8898 0.439453 102.499C0.439453 159.108 46.3303 204.999 102.939 204.999Z" fill="#EDEBFF"/>
<path d="M126.392 83.1982L149.705 113.858C152.597 125.802 146.05 136.544 133.722 139.372L79.5166 114.518L126.392 83.1982Z" fill="#FDBDBB"/>
<path d="M148.001 110.779L185.617 122.139C188.834 131.825 184.199 151.685 174.674 158.371L133.722 139.373L148.001 110.779Z" fill="#FDBDBB"/>
<path d="M124.013 88.7304C124.013 88.7304 56.51 37.7667 50.5453 47.6845C43.7142 59.0426 115.006 102.897 115.006 102.897L124.013 88.7304Z" fill="#FDBDBB"/>
<path d="M120.712 142.214L72.0911 141.92C69.0568 141.901 66.6035 139.314 66.6084 136.143L66.7913 30.9946C66.7963 27.9359 69.2126 25.4522 72.1875 25.4435L119.864 25.2989C122.863 25.2902 125.316 27.7703 125.341 30.8425L126.205 136.476C126.229 139.662 123.77 142.233 120.712 142.214Z" fill="#8FC9ED"/>
<path d="M121.383 141.449C121.181 141.475 120.974 141.486 120.769 141.485L72.1624 141.14C69.5558 141.122 67.4238 138.853 67.4287 136.085L67.5968 31.0519C67.6005 28.3827 69.6979 26.203 72.2551 26.1931L119.928 25.999C120.002 25.999 120.078 26.0003 120.152 26.004C121.352 26.0559 122.473 26.5677 123.311 27.4443C124.167 28.3394 124.643 29.5262 124.654 30.7885L125.507 136.53C125.527 139.036 123.761 141.151 121.383 141.449Z" fill="#33201B"/>
<path d="M122.983 31.3203L123.803 136.693L69.0459 136.387L69.1856 31.3203H122.983Z" fill="white"/>
<path d="M108.651 37.1592H100.128L100.787 47.0349L110.197 47.025L108.651 37.1592Z" fill="#FFDED9"/>
<path d="M99.5596 31.2744L100.128 37.1593H108.651L107.209 31.2744H99.5596Z" fill="#FFDED9"/>
<path d="M100.128 37.1592H91.6085L91.3799 47.0436L100.787 47.0349L100.128 37.1592Z" fill="#EB4838"/>
<path d="M91.9137 31.2744L91.6084 37.1593H100.128L99.5593 31.2744H91.9137Z" fill="#EB4838"/>
<path d="M107.208 31.2744L108.65 37.1593H117.178L114.859 31.2744H107.208Z" fill="#EB4838"/>
<path d="M117.178 37.1592H108.65L110.197 47.025L119.61 47.0151L117.178 37.1592Z" fill="#EB4838"/>
<path d="M114.859 31.2744L117.179 37.1593H126.128L122.996 31.2744H114.859Z" fill="#FFDED9"/>
<path d="M126.127 37.1592H117.179L119.61 47.0151L129.321 47.0065L126.127 37.1592Z" fill="#FFDED9"/>
<path d="M68.9449 31.2744L65.9131 37.1593H74.5808L76.6288 31.2744H68.9449Z" fill="#FFDED9"/>
<path d="M65.9128 37.1592L62.8477 47.072L72.5758 47.0621L74.5805 37.1592H65.9128Z" fill="#FFDED9"/>
<path d="M83.0926 37.1592L81.9766 47.0535L91.3797 47.0436L91.6083 37.1592H83.0926Z" fill="#FFDED9"/>
<path d="M84.2694 31.2744L83.0928 37.1593H91.6085L91.9137 31.2744H84.2694Z" fill="#FFDED9"/>
<path d="M74.5809 37.1592L72.5762 47.0621L81.9768 47.0535L83.0929 37.1592H74.5809Z" fill="#EB4838"/>
<path d="M76.628 31.2744L74.5801 37.1593H83.0921L84.2687 31.2744H76.628Z" fill="#EB4838"/>
<path d="M72.5793 47.0905L62.8523 47.1004C62.8499 47.0906 62.8499 47.0819 62.8486 47.0732V48.5408C62.8486 51.1754 65.0486 53.3117 67.7628 53.3117C70.2359 53.3117 72.5805 51.5017 72.5805 48.6533V47.0905H72.5793Z" fill="#FFC9C0"/>
<path d="M81.9761 47.0339L72.5779 47.0438C72.5755 47.0339 72.5755 47.0253 72.5742 47.0166V48.4841C72.5742 51.1187 74.7001 53.2551 77.3215 53.2551C79.7106 53.2551 81.9749 51.4451 81.9749 48.5966V47.0339H81.9761Z" fill="#EB4838"/>
<path d="M91.3784 47.0339L81.9803 47.0438C81.9778 47.0339 81.9778 47.0253 81.9766 47.0166V48.4841C81.9766 51.1187 84.1024 53.2551 86.7238 53.2551C89.1129 53.2551 91.3772 51.4451 91.3772 48.5966V47.0339H91.3784Z" fill="#FFC9C0"/>
<path d="M100.784 47.0339L91.3855 47.0438C91.3843 47.0339 91.3831 47.0253 91.3818 47.0166V48.4841C91.3818 51.1187 93.5077 53.2551 96.1291 53.2551C98.5182 53.2551 100.782 51.4451 100.782 48.5966V47.0339H100.784Z" fill="#EB4838"/>
<path d="M110.189 47.0339L100.791 47.0438C100.788 47.0339 100.788 47.0253 100.787 47.0166V48.4841C100.787 51.1187 102.913 53.2551 105.534 53.2551C107.923 53.2551 110.188 51.4451 110.188 48.5966V47.0339H110.189Z" fill="#FFC9C0"/>
<path d="M119.591 47.0339L110.193 47.0438C110.191 47.0339 110.191 47.0253 110.189 47.0166V48.4841C110.189 51.1187 112.315 53.2551 114.937 53.2551C117.326 53.2551 119.59 51.4451 119.59 48.5966V47.0339H119.591Z" fill="#EB4838"/>
<path d="M129.322 46.987L119.605 46.9969C119.603 46.987 119.603 46.9784 119.602 46.9697V48.4372C119.602 51.0718 121.799 53.2082 124.511 53.2082C126.981 53.2082 129.324 51.3982 129.324 48.5497V46.987H129.322Z" fill="#FFC9C0"/>
<path d="M72.4831 47.0908V47.0723H62.8477C62.8489 47.0822 62.8489 47.0908 62.8514 47.0995L72.4831 47.0908Z" fill="#FBD2CB"/>
<path d="M72.4834 47.0908H72.5773C72.5773 47.0846 72.5773 47.0784 72.5761 47.0723H72.4834V47.0908Z" fill="#F13005"/>
<path d="M72.5771 47.0723C72.5771 47.0784 72.5784 47.0846 72.5796 47.0908V47.0723H72.5771Z" fill="#F13005"/>
<path d="M113.159 59.543H78.209V94.4839H113.159V59.543Z" fill="#04F2F5"/>
<path d="M102.205 81.9607H89.2136C88.9553 81.9607 88.7266 81.7938 88.6475 81.5477L86.1583 73.7923C86.1002 73.6118 86.1324 73.414 86.2436 73.2594C86.3561 73.1061 86.534 73.0146 86.7244 73.0146H104.694C104.884 73.0146 105.062 73.1049 105.175 73.2594C105.287 73.4127 105.318 73.6106 105.26 73.7923L102.771 81.5477C102.693 81.7938 102.464 81.9607 102.205 81.9607ZM89.6474 80.7713H101.772L103.879 74.2052H87.5401L89.6474 80.7713Z" fill="#0D0D0D"/>
<path d="M101.138 85.2441H90.0574C89.7286 85.2441 89.4629 84.9783 89.4629 84.6494C89.4629 84.3205 89.7286 84.0547 90.0574 84.0547H100.703C101.427 84.0362 101.754 83.5342 101.806 83.0212C101.853 82.5625 101.679 82.0952 101.37 81.9604L105.111 70.2413C105.19 69.9953 105.419 69.8271 105.677 69.8271H109.546C109.875 69.8271 110.14 70.093 110.14 70.4218C110.14 70.7507 109.875 71.0165 109.546 71.0165H106.111L102.683 81.8949C103.596 83.3945 102.355 85.2441 101.138 85.2441Z" fill="#0D0D0D"/>
<path d="M93.291 88.206C93.8253 87.6716 93.8253 86.805 93.291 86.2705C92.7567 85.7361 91.8904 85.7361 91.3561 86.2705C90.8218 86.805 90.8218 87.6716 91.3561 88.206C91.8904 88.7405 92.7567 88.7405 93.291 88.206Z" fill="#0D0D0D"/>
<path d="M100.542 87.5617C100.716 86.8261 100.26 86.089 99.5248 85.9153C98.7895 85.7416 98.0525 86.1971 97.8789 86.9327C97.7052 87.6683 98.1606 88.4055 98.896 88.5791C99.6314 88.7528 100.368 88.2973 100.542 87.5617Z" fill="#0D0D0D"/>
<path d="M96.032 81.9604C95.7032 81.9604 95.4375 81.6946 95.4375 81.3657V73.6103C95.4375 73.2814 95.7032 73.0156 96.032 73.0156C96.3608 73.0156 96.6265 73.2814 96.6265 73.6103V81.3657C96.6265 81.6946 96.3595 81.9604 96.032 81.9604Z" fill="#0D0D0D"/>
<path d="M92.7149 81.9608C92.443 81.9608 92.1983 81.7728 92.1353 81.4971L90.3753 73.7417C90.3024 73.4215 90.5038 73.1025 90.8239 73.0296C91.144 72.9566 91.4629 73.1582 91.5358 73.4784L93.2958 81.2338C93.3688 81.554 93.1673 81.873 92.8472 81.9459C92.8039 81.9558 92.7594 81.9608 92.7149 81.9608Z" fill="#0D0D0D"/>
<path d="M99.211 81.9607C99.1825 81.9607 99.1541 81.9582 99.1245 81.9545C98.7994 81.9075 98.5745 81.6046 98.6214 81.2795L99.7499 73.524C99.7968 73.1989 100.098 72.9739 100.425 73.0208C100.75 73.0678 100.975 73.3707 100.928 73.6959L99.7993 81.4513C99.756 81.748 99.5014 81.9607 99.211 81.9607Z" fill="#0D0D0D"/>
<path d="M103.45 78.1308H87.9841C87.6554 78.1308 87.3896 77.8649 87.3896 77.5361C87.3896 77.2072 87.6554 76.9414 87.9841 76.9414H103.45C103.778 76.9414 104.044 77.2072 104.044 77.5361C104.044 77.8649 103.778 78.1308 103.45 78.1308Z" fill="#0D0D0D"/>
<path d="M87.4911 76.6323C89.8911 76.6323 91.8367 74.6861 91.8367 72.2854C91.8367 69.8847 89.8911 67.9385 87.4911 67.9385C85.0911 67.9385 83.1455 69.8847 83.1455 72.2854C83.1455 74.6861 85.0911 76.6323 87.4911 76.6323Z" fill="#EB4838"/>
<path d="M86.1132 73.9986C85.2987 73.9986 85.0342 73.2852 85.0342 73.2852L85.4742 73.0343C85.4742 73.0343 85.6324 73.5053 86.1132 73.5053C86.4704 73.5053 86.6768 73.2543 86.6768 72.9329C86.6768 72.6028 86.479 72.3605 86.0205 72.3605C85.5928 72.3605 85.1924 72.6955 85.1924 72.6955V70.8633H87.1303V71.3652H85.7214V71.9686C85.7214 71.9686 85.8932 71.8758 86.1577 71.8758C86.7039 71.8758 87.2107 72.2109 87.2107 72.9329C87.2094 73.6549 86.6459 73.9986 86.1132 73.9986Z" fill="white"/>
<path d="M89.8914 72.4025C89.8914 73.2395 89.5218 73.9973 88.7382 73.9973C87.9546 73.9973 87.5752 73.2395 87.5752 72.4025C87.5752 71.5655 87.9534 70.8076 88.7382 70.8076C89.5206 70.8076 89.8914 71.5655 89.8914 72.4025ZM89.3624 72.4025C89.3624 71.7992 89.1646 71.3009 88.737 71.3009C88.3093 71.3009 88.1029 71.7992 88.1029 72.4025C88.1029 73.0058 88.3093 73.504 88.737 73.504C89.1646 73.504 89.3624 73.0058 89.3624 72.4025Z" fill="white"/>
<path d="M109.945 101.056H80.791V114.045H109.945V101.056Z" fill="#EB4838"/>
<path d="M91.7771 109.46C91.7771 110.62 90.8563 111.291 89.0926 111.291H85.6221V104.579H88.8998C90.577 104.579 91.4397 105.279 91.4397 106.324C91.4397 106.995 91.0949 107.513 90.5486 107.801C91.2976 108.041 91.7771 108.617 91.7771 109.46ZM87.1658 105.75V107.332H88.7095C89.4671 107.332 89.8787 107.064 89.8787 106.536C89.8787 106.008 89.4671 105.75 88.7095 105.75H87.1658ZM90.2136 109.298C90.2136 108.732 89.7823 108.464 88.9764 108.464H87.1658V110.123H88.9777C89.7823 110.123 90.2136 109.873 90.2136 109.298Z" fill="white"/>
<path d="M92.8984 108.339V104.58H94.4508V108.282C94.4508 109.556 95.007 110.084 95.9463 110.084C96.8955 110.084 97.4418 109.556 97.4418 108.282V104.58H98.9756V108.339C98.9756 110.314 97.8447 111.407 95.9364 111.407C94.0293 111.407 92.8984 110.314 92.8984 108.339Z" fill="white"/>
<path d="M103.634 108.913V111.292H102.081V108.895L99.4834 104.58H101.132L102.924 107.562L104.716 104.58H106.24L103.634 108.913Z" fill="white"/>
<path d="M147.544 110.206C137.122 92.5719 115.973 59.1108 115.973 59.1108C115.973 59.1108 111.312 58.1712 111.009 66.6845C110.706 75.1978 120.308 90.3613 120.308 90.3613C120.308 90.3613 116.424 131.557 137.651 131.586C152.397 131.609 153.398 117.324 147.544 110.206Z" fill="#FDBDBB"/>
<path d="M66.6081 68.6855C66.6081 68.6855 52.2043 74.4382 61.3207 86.02C70.437 97.6019 75.1386 86.02 69.8079 76.6475C67.8391 73.1858 66.6081 68.6855 66.6081 68.6855Z" fill="#FDBDBB"/>
<path d="M66.6081 81.7402C66.6081 81.7402 52.2043 87.4928 61.3207 99.0747C70.437 110.657 75.1386 99.0747 69.8079 89.7021C67.8391 86.2404 66.6081 81.7402 66.6081 81.7402Z" fill="#FDBDBB"/>
<path d="M66.2929 104.705C66.2929 104.705 55.0556 109.193 62.1673 118.229C69.2802 127.265 72.9473 118.229 68.7895 110.916C67.2533 108.216 66.2929 104.705 66.2929 104.705Z" fill="#FDBDBB"/>
<path d="M66.7868 173.336C66.7868 173.336 97.1701 117.804 92.3338 112.18C87.4976 106.555 52.4473 168.216 52.4473 168.216L66.7868 173.336Z" fill="#FDBDBB"/>
<path d="M78.8589 180.727C76.2968 185.443 48.2679 207.576 48.2679 207.576C23.5687 196.92 63.3181 171.892 63.3181 171.892C63.3181 171.892 53.3996 155.212 62.1711 152.927C68.5733 151.257 72.7768 155.712 74.5763 158.239C74.8235 158.584 75.025 158.893 75.1819 159.147C75.4477 159.577 75.5799 159.843 75.5799 159.843C75.5799 159.843 81.4222 176.009 78.8589 180.727Z" fill="#FDBDBB"/>
<path d="M70.05 175.455L66.8155 173.283L48.0377 207.917L18.2217 192.054C18.2217 192.054 24.3545 152.769 28.5505 147.581C32.7466 142.393 38.5654 139.639 38.5654 139.639C43.8442 137.048 45.9391 139.57 48.3406 139.044C53.8257 137.846 56.6585 142.626 58.222 142.157C60.0055 141.622 62.3723 141.924 64.4129 142.753C65.2941 143.109 66.1123 143.567 66.7982 144.098L66.8032 144.105C67.5077 144.646 68.07 145.269 68.4112 145.94L77.2853 148.423L75.0791 156.673L75.3683 156.73L74.7368 157.953L70.05 175.455Z" fill="#FDBDBB"/>
<path d="M71.3294 172.977C69.2839 180.489 63.6714 179.368 65.424 174.918L74.6689 158.37C74.9161 158.715 75.0249 158.893 75.1818 159.147C72.4529 164.07 71.3294 172.977 71.3294 172.977Z" fill="#FDBDBB"/>
<path d="M34.4834 227.999C19.2367 226.853 2.23866 209.85 3.58708 201.483L20.7482 184.904L52.4986 201.308L34.4834 227.999Z" fill="#FDBDBB"/>
</svg>
