<svg width="282" height="282" viewBox="0 0 282 282" fill="none" xmlns="http://www.w3.org/2000/svg">
<path d="M136.766 273.1C212.058 273.1 273.093 212.185 273.093 137.041C273.093 61.8974 212.058 0.981445 136.766 0.981445C61.4751 0.981445 0.439453 61.8974 0.439453 137.041C0.439453 212.185 61.4751 273.1 136.766 273.1Z" fill="#EDEBFF"/>
<path d="M211.853 139.034L234.504 188.23C234.821 205.502 222.535 218.238 204.724 218.348L137.837 167.668L211.853 139.034Z" fill="#FFA04F"/>
<path d="M233.103 183.486L281.322 210.577C282.779 224.851 270.327 250.682 255.189 256.941L204.723 218.349L233.103 183.486Z" fill="#FFA04F"/>
<path d="M206.888 145.899C206.888 145.899 129.721 55.3283 118.487 67.1112C105.621 80.6051 190.172 162.581 190.172 162.581L206.888 145.899Z" fill="#FFA04F"/>
<path d="M185.973 218.269L119.239 202.994C115.075 202.041 112.495 197.74 113.474 193.39L145.922 49.1824C146.866 44.9877 150.945 42.3189 155.037 43.2168L220.606 57.6002C224.73 58.5048 227.341 62.6579 226.435 66.881L195.277 212.076C194.338 216.454 190.172 219.228 185.973 218.269Z" fill="#8FC9ED"/>
<path d="M187.129 217.424C186.844 217.398 186.555 217.351 186.273 217.286L119.576 201.946C116 201.123 113.764 197.358 114.618 193.562L147.013 49.5076C147.837 45.8459 151.385 43.4987 154.903 44.2667L220.483 58.5818C220.584 58.6034 220.688 58.6284 220.79 58.6567C222.423 59.0949 223.806 60.1411 224.69 61.5987C225.592 63.0897 225.884 64.8639 225.512 66.5981L194.306 211.937C193.565 215.38 190.489 217.742 187.129 217.424Z" fill="#33201B"/>
<path d="M223.052 66.8145L191.912 211.638L116.75 194.468L149.114 50.3604L223.052 66.8145Z" fill="white"/>
<path d="M201.566 70.4411L189.852 67.834L187.735 81.5861L200.67 84.4514L201.566 70.4411Z" fill="#FFDED9"/>
<path d="M190.873 59.5879L189.852 67.8341L201.566 70.4413L201.385 61.9268L190.873 59.5879Z" fill="#FFDED9"/>
<path d="M189.852 67.834L178.142 65.2285L174.802 78.7207L187.735 81.586L189.852 67.834Z" fill="#EB4838"/>
<path d="M180.364 57.249L178.142 65.2287L189.852 67.8342L190.873 59.5879L180.364 57.249Z" fill="#EB4838"/>
<path d="M201.384 61.9268L201.566 70.4412L213.287 73.05L211.901 64.2674L201.384 61.9268Z" fill="#EB4838"/>
<path d="M213.287 73.0502L201.566 70.4414L200.67 84.4517L213.609 87.317L213.287 73.0502Z" fill="#EB4838"/>
<path d="M211.901 64.2676L213.287 73.0502L225.584 75.7873L223.082 66.7564L211.901 64.2676Z" fill="#FFDED9"/>
<path d="M225.584 75.7869L213.288 73.0498L213.61 87.3166L226.959 90.2752L225.584 75.7869Z" fill="#FFDED9"/>
<path d="M148.797 50.2236L142.83 57.3687L154.742 60.0208L159.358 52.5742L148.797 50.2236Z" fill="#FFDED9"/>
<path d="M142.83 57.3691L135.582 70.0334L148.953 72.9954L154.742 60.0213L142.83 57.3691Z" fill="#FFDED9"/>
<path d="M166.439 62.623L161.877 75.8587L174.802 78.7207L178.142 65.2285L166.439 62.623Z" fill="#FFDED9"/>
<path d="M169.858 54.9111L166.439 62.6226L178.142 65.2281L180.364 57.2484L169.858 54.9111Z" fill="#FFDED9"/>
<path d="M154.741 60.0205L148.952 72.9946L161.876 75.8583L166.439 62.6226L154.741 60.0205Z" fill="#EB4838"/>
<path d="M159.358 52.5742L154.742 60.0208L166.439 62.623L169.858 54.9115L159.358 52.5742Z" fill="#EB4838"/>
<path d="M148.949 73.0352L135.578 70.0732C135.578 70.0599 135.58 70.0482 135.582 70.0332L135.133 72.0473C134.325 75.6623 136.696 79.2657 140.426 80.0953C143.824 80.8516 147.601 79.0858 148.474 75.1775L148.949 73.0352Z" fill="#FFC9C0"/>
<path d="M161.883 75.832L148.964 72.97C148.964 72.9566 148.966 72.945 148.968 72.9316L148.519 74.9457C147.712 78.5607 149.979 82.1408 153.582 82.9437C156.865 83.6751 160.532 81.8842 161.405 77.976L161.883 75.832Z" fill="#EB4838"/>
<path d="M174.804 78.707L161.885 75.845C161.885 75.8316 161.887 75.82 161.888 75.8066L161.439 77.8207C160.632 81.4357 162.899 85.0157 166.503 85.8187C169.786 86.55 173.453 84.7592 174.325 80.851L174.804 78.707Z" fill="#FFC9C0"/>
<path d="M187.73 81.5846L174.811 78.7226C174.811 78.7093 174.812 78.6976 174.814 78.6826L174.365 80.6967C173.558 84.3117 175.825 87.8918 179.428 88.6947C182.712 89.4261 186.378 87.6352 187.251 83.727L187.73 81.5846Z" fill="#EB4838"/>
<path d="M200.657 84.4619L187.738 81.5998C187.738 81.5865 187.739 81.5749 187.741 81.5615L187.292 83.5756C186.485 87.1906 188.752 90.7706 192.356 91.5736C195.639 92.3049 199.305 90.5141 200.178 86.6059L200.657 84.4619Z" fill="#FFC9C0"/>
<path d="M213.578 87.3369L200.659 84.4748C200.659 84.4615 200.66 84.4499 200.662 84.4365L200.213 86.4506C199.406 90.0657 201.673 93.6457 205.276 94.4487C208.56 95.18 212.226 93.3892 213.099 89.4809L213.578 87.3369Z" fill="#EB4838"/>
<path d="M226.967 90.2467L213.609 87.288C213.609 87.2747 213.611 87.263 213.613 87.248L213.164 89.2621C212.357 92.8771 214.724 96.4788 218.449 97.3084C221.844 98.0648 225.617 96.2972 226.488 92.389L226.967 90.2467Z" fill="#FFC9C0"/>
<path d="M148.817 73.0052L148.822 72.9802L135.58 70.0332C135.578 70.0465 135.576 70.0582 135.576 70.0732L148.817 73.0052Z" fill="#FBD2CB"/>
<path d="M148.817 73.0053L148.945 73.0335C148.947 73.0252 148.948 73.0169 148.95 73.0086L148.824 72.9805L148.817 73.0053Z" fill="#F13005"/>
<path d="M148.951 73.0098C148.949 73.0182 148.949 73.0266 148.948 73.035L148.953 73.0098H148.951Z" fill="#F13005"/>
<path d="M189.587 153.602C189.377 153.602 189.163 153.58 188.95 153.534L142.805 143.632C141.174 143.282 140.131 141.671 140.483 140.042C140.653 139.252 141.121 138.576 141.799 138.137C142.478 137.699 143.288 137.551 144.078 137.721L190.224 147.623C191.856 147.973 192.898 149.584 192.548 151.213C192.241 152.631 190.983 153.602 189.587 153.602ZM143.436 138.077C142.941 138.077 142.455 138.219 142.028 138.494C141.444 138.87 141.042 139.452 140.895 140.132C140.593 141.533 141.489 142.917 142.892 143.218L189.038 153.121C190.441 153.422 191.827 152.526 192.129 151.126C192.431 149.725 191.535 148.341 190.131 148.04L143.985 138.137C143.803 138.097 143.62 138.077 143.436 138.077Z" fill="#04F2F5"/>
<path d="M187.895 161.494C187.681 161.494 187.466 161.47 187.253 161.425L141.107 151.523C140.316 151.353 139.639 150.887 139.2 150.209C138.761 149.531 138.613 148.723 138.783 147.933C139.133 146.304 140.747 145.263 142.378 145.613L188.524 155.515C190.155 155.865 191.198 157.476 190.846 159.105C190.676 159.894 190.209 160.571 189.53 161.009C189.036 161.329 188.47 161.494 187.895 161.494ZM141.741 145.969C140.541 145.969 139.459 146.804 139.197 148.022C139.05 148.7 139.178 149.396 139.555 149.979C139.932 150.562 140.515 150.963 141.195 151.11L187.341 161.012C188.02 161.159 188.717 161.031 189.3 160.654C189.883 160.278 190.286 159.696 190.432 159.016C190.734 157.615 189.838 156.231 188.435 155.93L142.29 146.027C142.106 145.987 141.923 145.969 141.741 145.969Z" fill="#04F2F5"/>
<path d="M186.197 169.385C185.983 169.385 185.768 169.362 185.555 169.317L139.409 159.415C138.618 159.245 137.941 158.778 137.502 158.1C137.063 157.422 136.915 156.614 137.085 155.825C137.435 154.196 139.048 153.154 140.68 153.504L186.826 163.406C188.457 163.756 189.5 165.367 189.15 166.996C188.98 167.786 188.512 168.462 187.833 168.901C187.338 169.22 186.772 169.385 186.197 169.385ZM140.044 153.861C138.845 153.861 137.762 154.695 137.5 155.913C137.354 156.591 137.482 157.287 137.859 157.871C138.236 158.454 138.818 158.855 139.499 159.002L185.645 168.904C186.324 169.049 187.021 168.922 187.603 168.546C188.187 168.169 188.589 167.588 188.736 166.908C189.038 165.507 188.142 164.123 186.737 163.821L140.592 153.919C140.408 153.879 140.225 153.861 140.044 153.861Z" fill="#04F2F5"/>
<path d="M158.248 171.645C158.035 171.645 157.82 171.621 157.606 171.576L137.709 167.306C136.918 167.137 136.242 166.67 135.802 165.992C135.363 165.314 135.215 164.506 135.385 163.716C135.735 162.087 137.347 161.046 138.98 161.396L158.877 165.666C160.509 166.015 161.552 167.626 161.201 169.256C161.031 170.045 160.564 170.722 159.885 171.16C159.39 171.48 158.826 171.645 158.248 171.645ZM138.346 161.752C137.147 161.752 136.064 162.587 135.802 163.805C135.655 164.483 135.784 165.179 136.161 165.762C136.538 166.345 137.12 166.747 137.799 166.892L157.696 171.161C158.375 171.308 159.073 171.18 159.656 170.803C160.24 170.427 160.642 169.845 160.789 169.166C161.091 167.765 160.195 166.38 158.791 166.079L138.893 161.809C138.71 161.771 138.526 161.752 138.346 161.752Z" fill="#04F2F5"/>
<path d="M184.073 177.186C183.859 177.186 183.644 177.162 183.431 177.117L165.333 173.234C163.702 172.884 162.659 171.273 163.009 169.644C163.36 168.015 164.973 166.974 166.605 167.325L184.702 171.208C186.333 171.558 187.376 173.169 187.026 174.798C186.856 175.588 186.388 176.264 185.709 176.702C185.214 177.021 184.648 177.186 184.073 177.186ZM165.969 167.68C164.769 167.68 163.687 168.515 163.425 169.732C163.123 171.133 164.02 172.518 165.423 172.819L183.521 176.702C184.2 176.849 184.897 176.721 185.481 176.344C186.065 175.968 186.467 175.386 186.614 174.707C186.916 173.306 186.02 171.921 184.615 171.62L166.516 167.738C166.333 167.7 166.149 167.68 165.969 167.68Z" fill="#04F2F5"/>
<path d="M144.533 140.912C144.42 141.436 143.903 141.771 143.376 141.658C142.85 141.545 142.515 141.028 142.628 140.502C142.742 139.977 143.259 139.642 143.786 139.755C144.312 139.869 144.647 140.387 144.533 140.912Z" fill="#04F2F5"/>
<path d="M148.502 141.764C148.389 142.289 147.872 142.624 147.344 142.51C146.819 142.397 146.484 141.881 146.597 141.354C146.71 140.83 147.228 140.495 147.755 140.608C148.28 140.721 148.616 141.238 148.502 141.764Z" fill="#04F2F5"/>
<path d="M152.471 142.616C152.357 143.14 151.84 143.475 151.313 143.362C150.788 143.249 150.452 142.732 150.566 142.206C150.679 141.681 151.196 141.346 151.724 141.46C152.249 141.573 152.584 142.089 152.471 142.616Z" fill="#04F2F5"/>
<path d="M156.44 143.467C156.326 143.992 155.809 144.327 155.282 144.214C154.756 144.1 154.421 143.584 154.535 143.057C154.648 142.533 155.165 142.198 155.692 142.311C156.218 142.424 156.553 142.943 156.44 143.467Z" fill="#04F2F5"/>
<path d="M160.408 144.319C160.295 144.843 159.778 145.178 159.251 145.065C158.725 144.952 158.39 144.435 158.503 143.909C158.617 143.384 159.134 143.049 159.661 143.163C160.186 143.276 160.522 143.794 160.408 144.319Z" fill="#04F2F5"/>
<path d="M164.731 145.247C164.618 145.771 164.101 146.106 163.574 145.993C163.048 145.88 162.713 145.363 162.826 144.837C162.94 144.312 163.457 143.977 163.984 144.09C164.509 144.204 164.845 144.722 164.731 145.247Z" fill="#04F2F5"/>
<path d="M168.7 146.098C168.587 146.623 168.069 146.958 167.542 146.844C167.017 146.731 166.681 146.215 166.795 145.688C166.908 145.164 167.425 144.829 167.953 144.942C168.478 145.055 168.813 145.573 168.7 146.098Z" fill="#04F2F5"/>
<path d="M172.669 146.949C172.555 147.474 172.038 147.808 171.511 147.695C170.985 147.582 170.65 147.065 170.764 146.539C170.877 146.014 171.394 145.679 171.921 145.793C172.447 145.907 172.782 146.424 172.669 146.949Z" fill="#04F2F5"/>
<path d="M176.638 147.802C176.524 148.327 176.007 148.662 175.48 148.548C174.954 148.435 174.619 147.919 174.732 147.392C174.846 146.868 175.363 146.533 175.89 146.646C176.416 146.759 176.751 147.276 176.638 147.802Z" fill="#04F2F5"/>
<path d="M180.606 148.653C180.493 149.178 179.976 149.513 179.449 149.399C178.923 149.286 178.588 148.77 178.701 148.243C178.815 147.718 179.332 147.383 179.859 147.497C180.384 147.61 180.72 148.128 180.606 148.653Z" fill="#04F2F5"/>
<path d="M142.835 148.803C142.722 149.328 142.205 149.663 141.678 149.55C141.152 149.436 140.817 148.92 140.93 148.393C141.044 147.869 141.561 147.534 142.088 147.647C142.614 147.76 142.949 148.278 142.835 148.803Z" fill="#04F2F5"/>
<path d="M146.804 149.655C146.691 150.179 146.173 150.514 145.646 150.401C145.121 150.288 144.785 149.771 144.899 149.245C145.012 148.72 145.53 148.385 146.057 148.499C146.582 148.614 146.918 149.13 146.804 149.655Z" fill="#04F2F5"/>
<path d="M150.773 150.507C150.659 151.032 150.142 151.367 149.615 151.254C149.089 151.14 148.754 150.624 148.868 150.098C148.981 149.573 149.498 149.238 150.025 149.351C150.551 149.464 150.886 149.981 150.773 150.507Z" fill="#04F2F5"/>
<path d="M154.742 151.359C154.628 151.884 154.111 152.218 153.584 152.105C153.058 151.992 152.723 151.475 152.836 150.949C152.95 150.424 153.467 150.089 153.994 150.203C154.52 150.316 154.855 150.834 154.742 151.359Z" fill="#04F2F5"/>
<path d="M158.71 152.21C158.597 152.735 158.08 153.07 157.552 152.957C157.027 152.844 156.692 152.327 156.805 151.801C156.918 151.276 157.436 150.941 157.963 151.054C158.488 151.168 158.824 151.686 158.71 152.21Z" fill="#04F2F5"/>
<path d="M163.033 153.138C162.92 153.663 162.403 153.998 161.875 153.884C161.35 153.771 161.015 153.255 161.128 152.728C161.241 152.204 161.759 151.869 162.286 151.982C162.811 152.095 163.147 152.613 163.033 153.138Z" fill="#04F2F5"/>
<path d="M167.002 153.99C166.888 154.515 166.371 154.849 165.844 154.736C165.319 154.623 164.983 154.106 165.097 153.58C165.21 153.055 165.727 152.72 166.255 152.834C166.78 152.947 167.115 153.465 167.002 153.99Z" fill="#04F2F5"/>
<path d="M170.971 154.84C170.857 155.365 170.34 155.7 169.813 155.587C169.287 155.473 168.952 154.957 169.065 154.43C169.179 153.906 169.696 153.571 170.223 153.684C170.749 153.797 171.084 154.315 170.971 154.84Z" fill="#04F2F5"/>
<path d="M174.939 155.694C174.826 156.218 174.309 156.553 173.782 156.44C173.256 156.327 172.921 155.81 173.034 155.284C173.148 154.759 173.665 154.424 174.192 154.538C174.717 154.651 175.053 155.167 174.939 155.694Z" fill="#04F2F5"/>
<path d="M198.275 113.144L193.646 134.655C193.192 136.762 191.115 138.103 189.003 137.65L148.651 128.99C146.541 128.537 145.198 126.463 145.651 124.354L150.281 102.844C150.735 100.737 152.812 99.3956 154.924 99.8488L195.276 108.508C197.386 108.961 198.729 111.037 198.275 113.144Z" fill="#039EE3"/>
<path d="M149.631 105.871L148.617 110.58L196.613 120.879L197.626 116.171L149.631 105.871Z" fill="white"/>
<path d="M161.196 125.355L148.737 122.682L148.307 124.683L160.765 127.357L161.196 125.355Z" fill="white"/>
<path d="M176.138 128.562L163.68 125.889L163.249 127.89L175.707 130.564L176.138 128.562Z" fill="white"/>
<path d="M190.716 131.689L178.258 129.016L177.827 131.017L190.285 133.691L190.716 131.689Z" fill="white"/>
<path d="M151.045 113.588L149.889 118.96L156.002 120.272L157.158 114.9L151.045 113.588Z" fill="#F7E105"/>
<path d="M153.777 180.725C153.782 180.707 153.784 180.698 153.784 180.696C153.784 180.7 153.777 180.725 153.777 180.725Z" fill="#D9FFFF"/>
<path d="M153.777 180.725C153.782 180.707 153.784 180.698 153.784 180.696C153.784 180.7 153.777 180.725 153.777 180.725Z" fill="#D9FFFF"/>
<path d="M164.808 183.664C164.808 183.664 164.813 183.638 164.814 183.635C164.814 183.636 164.813 183.645 164.808 183.664Z" fill="#D9FFFF"/>
<path d="M164.808 183.664C164.808 183.664 164.813 183.638 164.814 183.635C164.814 183.636 164.813 183.645 164.808 183.664Z" fill="#D9FFFF"/>
<path d="M159.982 179.267C158.378 180.294 156.088 180.824 153.777 180.724C153.744 180.869 153.554 181.674 152.681 185.382C151.517 190.328 155.754 194.005 156.391 194.523C157.184 194.385 162.547 193.267 163.712 188.321C164.584 184.613 164.773 183.808 164.808 183.663C162.727 182.592 160.941 180.977 159.982 179.267Z" fill="#03D67C"/>
<path d="M156.55 193.855C156.078 193.439 155.164 192.551 154.39 191.3C153.209 189.396 152.84 187.46 153.29 185.544L154.275 181.358C156.306 181.369 158.26 180.928 159.783 180.113C160.766 181.596 162.294 182.965 164.092 183.973L163.108 188.16C162.658 190.075 161.473 191.598 159.59 192.684C158.35 193.399 157.151 193.725 156.55 193.855Z" fill="#1BF79A"/>
<path d="M162.587 185.421C161.074 185.261 158.78 186.059 157.16 187.317C157.157 186.522 156.523 185.633 156.144 185.376L154.605 186.294C155.307 186.847 155.934 188.06 155.814 189.101L157.022 189.621C157.788 188.728 159.719 186.617 162.736 185.999C162.729 185.786 162.602 185.456 162.587 185.421Z" fill="white"/>
<path d="M232.651 182.56C223.728 155.177 204.907 102.801 204.907 102.801C204.907 102.801 198.789 100.085 195.766 111.674C192.743 123.262 201.296 147.002 201.296 147.002C201.296 147.002 183.343 202.334 212.507 208.869C232.768 213.409 238.519 194.116 232.651 182.56Z" fill="#FFA04F"/>
<path d="M134.13 100.837C134.13 100.837 112.573 104.324 121.555 123.003C130.537 141.683 140.547 127.23 136.091 112.74C134.446 107.387 134.13 100.837 134.13 100.837Z" fill="#FFA04F"/>
<path d="M130.133 118.751C130.133 118.751 108.576 122.238 117.558 140.918C126.54 159.597 136.549 145.144 132.093 130.654C130.447 125.301 130.133 118.751 130.133 118.751Z" fill="#FFA04F"/>
<path d="M122.668 150.161C122.668 150.161 105.85 152.882 112.857 167.455C119.865 182.028 127.673 170.752 124.196 159.447C122.913 155.272 122.668 150.161 122.668 150.161Z" fill="#FFA04F"/>
<path d="M27.3855 229.528L15.6192 267.053C14.8919 279.912 51.8605 287.374 57.8896 277.297C61.8684 252.243 70.4716 216.289 68.6582 203.642C61.086 194.011 36.9179 198.394 27.3855 229.528Z" fill="#FFA04F"/>
<path d="M65.555 225.002C68.9999 217.767 64.1954 210.588 65.6217 200.287C68.4861 193.585 75.0807 183.871 71.6191 176.897C48.0583 126.752 22.4388 132.101 0.751441 181.355C-0.209476 190.276 15.3204 217.369 24.4374 232.377C30.4915 244.035 60.8422 240.45 65.555 225.002Z" fill="#FFA04F"/>
<path d="M65.9071 198.121C65.8387 198.202 65.7787 198.274 65.7186 198.346C65.6769 199.012 65.6419 199.653 65.6202 200.286C54.1909 192.073 54.4579 172.925 58.3783 161.249C59.0306 172.914 64.8561 183.894 72.078 185.951C71.7344 187.802 71.0787 189.859 69.9343 192.105C68.9734 193.983 67.6621 196.002 65.9071 198.121Z" fill="#CF7D36"/>
<path d="M37.6151 156.14C27.5705 152.963 13.2552 161.541 13.2552 161.541C13.2552 161.541 31.7746 171.305 33.9283 178.054C36.082 184.804 32.6988 192.599 35.5682 204.097C38.4376 215.595 50.9595 191.831 51.6035 178.677C52.2341 165.753 47.6581 159.319 37.6151 156.14Z" fill="#CF7D36"/>
<path d="M100.555 97.0922L66.1641 179.746C65.4301 181.512 63.4015 182.348 61.6331 181.615L13.2536 161.543C11.4852 160.81 10.6478 158.784 11.3818 157.018L45.773 74.3642C46.507 72.5984 48.5356 71.7621 50.304 72.4951L98.6835 92.5676C100.452 93.3006 101.291 95.3263 100.555 97.0922Z" fill="#025BB3"/>
<path d="M57.4555 75.4549L20.4039 164.506L29.8573 168.428L66.9088 79.3771L57.4555 75.4549Z" fill="#039EE3"/>
<path d="M62.8108 158.184L57.3639 171.276C57.0169 172.109 57.4306 173.071 58.2864 173.427C59.1423 173.782 60.1165 173.395 60.4635 172.564L65.9104 159.472C66.2574 158.639 65.8437 157.678 64.9878 157.321C64.132 156.965 63.1578 157.351 62.8108 158.184Z" fill="#D1F5FF"/>
<path d="M71.189 138.05L65.7422 151.143C65.3952 151.976 65.8089 152.937 66.6647 153.293C67.5206 153.648 68.4948 153.262 68.8418 152.43L74.2887 139.338C74.6357 138.505 74.2219 137.544 73.3661 137.187C72.5103 136.831 71.5344 137.217 71.189 138.05Z" fill="#D1F5FF"/>
<path d="M79.5668 117.916L74.1199 131.009C73.7729 131.842 74.1867 132.803 75.0425 133.159C75.8983 133.514 76.8726 133.128 77.2196 132.296L82.6665 119.204C83.0135 118.371 82.5998 117.41 81.7439 117.053C80.8864 116.697 79.9122 117.085 79.5668 117.916Z" fill="#D1F5FF"/>
<path d="M87.9432 97.7815L82.4964 110.874C82.1494 111.707 82.5631 112.668 83.4189 113.025C84.2747 113.379 85.249 112.993 85.596 112.162L91.0428 99.0693C91.3898 98.2363 90.9761 97.2751 90.1203 96.9186C89.2645 96.5621 88.2902 96.9503 87.9432 97.7815Z" fill="#D1F5FF"/>
<path d="M16.3197 153.003L14.9358 156.329L18.9584 157.998L20.3423 154.672L16.3197 153.003Z" fill="#D1F5FF"/>
<path d="M21.6282 140.241L17.1174 151.083L21.14 152.752L25.6508 141.91L21.6282 140.241Z" fill="#D1F5FF"/>
<path d="M64.1355 100.364L67.8307 91.4834C68.4363 90.029 70.1062 89.341 71.5626 89.9441L79.5719 93.2675C81.0283 93.8723 81.7173 95.5398 81.1134 96.9942L77.4182 105.875C76.8126 107.329 75.1427 108.017 73.6863 107.414L65.677 104.091C64.2206 103.486 63.5299 101.819 64.1355 100.364Z" fill="#DBC704"/>
<path d="M64.3069 188.811C61.5927 183.14 60.0229 176.553 59.9278 169.733C59.9261 169.599 59.9244 169.464 59.9211 169.329C59.6341 155.043 54.7261 143.575 48.9606 143.67C41.6937 143.789 38.7525 155.461 39.0395 169.748C39.0645 170.979 39.1229 172.19 39.2147 173.373C39.7051 179.731 38.7142 186.065 36.7139 191.738C34.8371 197.057 33.8012 203.509 33.9413 210.444C34.3033 228.424 42.4127 242.843 52.0552 242.649C61.6978 242.456 69.2216 227.724 68.8596 209.744C68.6978 201.733 66.9978 194.43 64.3069 188.811Z" fill="#FFA04F"/>
</svg>
