<svg width="211" height="210" viewBox="0 0 211 210" fill="none" xmlns="http://www.w3.org/2000/svg">
  <g clip-path="url(#clip0)">
  <path d="M102.939 204.999C159.549 204.999 205.439 159.108 205.439 102.499C205.439 45.8898 159.549 -0.000976562 102.939 -0.000976562C46.3303 -0.000976562 0.439453 45.8898 0.439453 102.499C0.439453 159.108 46.3303 204.999 102.939 204.999Z" fill="#EDEBFF"/>
  <path d="M158.435 103.171L175.364 139.936C175.6 152.844 166.418 162.362 153.108 162.445L103.121 124.57L158.435 103.171Z" fill="#FDBDBB"/>
  <path d="M174.316 136.391L210.352 156.637C211.44 167.304 202.135 186.608 190.822 191.286L153.106 162.444L174.316 136.391Z" fill="#FDBDBB"/>
  <path d="M154.725 108.3C154.725 108.3 97.0553 40.6144 88.6597 49.4202C79.0449 59.5046 142.232 120.768 142.232 120.768L154.725 108.3Z" fill="#FDBDBB"/>
  <path d="M139.094 162.385L89.2216 150.97C86.1097 150.258 84.181 147.043 84.9129 143.793L109.162 36.0218C109.868 32.8869 112.916 30.8925 115.974 31.5635L164.976 42.3127C168.058 42.9887 170.009 46.0925 169.332 49.2485L146.047 157.757C145.345 161.029 142.232 163.102 139.094 162.385Z" fill="#8FC9ED"/>
  <path d="M139.957 161.754C139.744 161.734 139.529 161.699 139.318 161.651L89.4732 150.187C86.8002 149.572 85.1295 146.758 85.7679 143.921L109.977 36.2648C110.593 33.5283 113.245 31.7741 115.874 32.348L164.884 43.0462C164.96 43.0624 165.037 43.081 165.113 43.1022C166.334 43.4296 167.367 44.2115 168.028 45.3008C168.702 46.4151 168.921 47.741 168.642 49.037L145.321 157.653C144.767 160.226 142.468 161.992 139.957 161.754Z" fill="#33201B"/>
  <path d="M166.804 49.199L143.532 157.43L87.3613 144.598L111.548 36.9023L166.804 49.199Z" fill="white"/>
  <path d="M150.747 51.9093L141.992 49.9609L140.41 60.2383L150.077 62.3797L150.747 51.9093Z" fill="#FFDED9"/>
  <path d="M142.755 43.7979L141.992 49.9605L150.747 51.9089L150.611 45.5458L142.755 43.7979Z" fill="#FFDED9"/>
  <path d="M141.993 49.9608L133.242 48.0137L130.746 58.0968L140.411 60.2381L141.993 49.9608Z" fill="#EB4838"/>
  <path d="M134.902 42.0498L133.241 48.0133L141.992 49.9604L142.755 43.7978L134.902 42.0498Z" fill="#EB4838"/>
  <path d="M150.611 45.5459L150.747 51.909L159.507 53.8587L158.471 47.2951L150.611 45.5459Z" fill="#EB4838"/>
  <path d="M159.507 53.8588L150.748 51.9092L150.078 62.3795L159.748 64.5209L159.507 53.8588Z" fill="#EB4838"/>
  <path d="M158.471 47.2949L159.507 53.8585L168.696 55.904L166.826 49.1549L158.471 47.2949Z" fill="#FFDED9"/>
  <path d="M168.697 55.9039L159.507 53.8584L159.747 64.5204L169.724 66.7315L168.697 55.9039Z" fill="#FFDED9"/>
  <path d="M111.311 36.7998L106.852 42.1395L115.753 44.1216L119.203 38.5565L111.311 36.7998Z" fill="#FFDED9"/>
  <path d="M106.852 42.1396L101.435 51.604L111.427 53.8176L115.753 44.1217L106.852 42.1396Z" fill="#FFDED9"/>
  <path d="M124.496 46.0664L121.086 55.9578L130.746 58.0967L133.242 48.0136L124.496 46.0664Z" fill="#FFDED9"/>
  <path d="M127.051 40.3027L124.496 46.0658L133.242 48.0129L134.903 42.0494L127.051 40.3027Z" fill="#FFDED9"/>
  <path d="M115.753 44.1221L111.427 53.818L121.085 55.9581L124.495 46.0667L115.753 44.1221Z" fill="#EB4838"/>
  <path d="M119.204 38.5566L115.754 44.1217L124.496 46.0664L127.051 40.3034L119.204 38.5566Z" fill="#EB4838"/>
  <path d="M111.425 53.847L101.432 51.6334C101.432 51.6234 101.434 51.6147 101.435 51.6035L101.099 53.1087C100.496 55.8103 102.268 58.5032 105.055 59.1232C107.595 59.6885 110.417 58.3688 111.07 55.448L111.425 53.847Z" fill="#FFC9C0"/>
  <path d="M121.091 55.938L111.436 53.7991C111.436 53.7892 111.438 53.7805 111.439 53.7705L111.103 55.2757C110.5 57.9773 112.194 60.6528 114.887 61.2529C117.341 61.7994 120.081 60.4611 120.733 57.5403L121.091 55.938Z" fill="#EB4838"/>
  <path d="M130.746 58.0865L121.092 55.9476C121.092 55.9376 121.093 55.9289 121.094 55.9189L120.759 57.4241C120.155 60.1257 121.85 62.8012 124.543 63.4013C126.996 63.9478 129.736 62.6095 130.388 59.6887L130.746 58.0865Z" fill="#FFC9C0"/>
  <path d="M140.407 60.2371L130.752 58.0982C130.752 58.0883 130.753 58.0796 130.754 58.0684L130.419 59.5735C129.815 62.2752 131.51 64.9506 134.203 65.5507C136.656 66.0973 139.397 64.7589 140.049 61.8382L140.407 60.2371Z" fill="#EB4838"/>
  <path d="M150.068 62.3863L140.413 60.2474C140.413 60.2374 140.414 60.2287 140.415 60.2188L140.08 61.7239C139.477 64.4255 141.171 67.101 143.864 67.7011C146.317 68.2476 149.058 66.9093 149.71 63.9885L150.068 62.3863Z" fill="#FFC9C0"/>
  <path d="M159.724 64.5357L150.069 62.3968C150.069 62.3868 150.07 62.3781 150.072 62.3682L149.736 63.8734C149.133 66.575 150.827 69.2505 153.52 69.8506C155.974 70.3971 158.714 69.0587 159.366 66.138L159.724 64.5357Z" fill="#EB4838"/>
  <path d="M169.73 66.7107L159.748 64.4996C159.748 64.4896 159.749 64.4809 159.75 64.4697L159.415 65.9749C158.812 68.6765 160.581 71.3682 163.365 71.9882C165.902 72.5534 168.722 71.2325 169.373 68.3117L169.73 66.7107Z" fill="#FFC9C0"/>
  <path d="M111.326 53.8246L111.33 53.8059L101.433 51.6035C101.432 51.6135 101.431 51.6222 101.431 51.6334L111.326 53.8246Z" fill="#FBD2CB"/>
  <path d="M111.326 53.8253L111.422 53.8465C111.423 53.8403 111.425 53.834 111.426 53.8278L111.331 53.8066L111.326 53.8253Z" fill="#F13005"/>
  <path d="M111.426 53.8291C111.425 53.8353 111.425 53.8416 111.424 53.8478L111.428 53.8291H111.426Z" fill="#F13005"/>
  <path d="M141.795 114.059C141.638 114.059 141.478 114.043 141.318 114.008L106.833 106.608C105.614 106.347 104.835 105.143 105.098 103.925C105.225 103.335 105.574 102.83 106.082 102.502C106.589 102.175 107.194 102.064 107.785 102.191L142.271 109.591C143.49 109.853 144.269 111.056 144.008 112.274C143.778 113.333 142.838 114.059 141.795 114.059ZM107.305 102.457C106.934 102.457 106.572 102.563 106.252 102.769C105.816 103.05 105.516 103.484 105.406 103.992C105.18 105.039 105.85 106.074 106.898 106.299L141.384 113.7C142.433 113.925 143.469 113.255 143.695 112.209C143.92 111.162 143.251 110.128 142.201 109.902L107.715 102.502C107.579 102.472 107.442 102.457 107.305 102.457Z" fill="#04F2F5"/>
  <path d="M140.53 119.956C140.37 119.956 140.209 119.939 140.05 119.905L105.563 112.505C104.972 112.378 104.466 112.029 104.138 111.523C103.811 111.016 103.7 110.412 103.827 109.822C104.089 108.604 105.294 107.826 106.513 108.088L141 115.488C142.219 115.749 142.998 116.953 142.735 118.171C142.608 118.761 142.259 119.266 141.751 119.594C141.382 119.833 140.96 119.956 140.53 119.956ZM106.037 108.354C105.141 108.354 104.332 108.978 104.136 109.888C104.026 110.395 104.122 110.915 104.404 111.351C104.686 111.787 105.121 112.087 105.63 112.196L140.116 119.596C140.623 119.706 141.144 119.61 141.579 119.329C142.016 119.047 142.316 118.613 142.426 118.105C142.652 117.058 141.982 116.023 140.934 115.798L106.447 108.398C106.31 108.368 106.173 108.354 106.037 108.354Z" fill="#04F2F5"/>
  <path d="M139.261 125.854C139.101 125.854 138.941 125.836 138.781 125.803L104.295 118.402C103.704 118.275 103.198 117.927 102.87 117.42C102.542 116.913 102.431 116.31 102.558 115.719C102.82 114.502 104.026 113.724 105.245 113.985L139.731 121.385C140.95 121.647 141.73 122.851 141.468 124.068C141.341 124.658 140.992 125.164 140.484 125.491C140.114 125.73 139.691 125.854 139.261 125.854ZM104.77 114.252C103.873 114.252 103.064 114.875 102.869 115.785C102.759 116.292 102.855 116.813 103.137 117.248C103.418 117.684 103.854 117.984 104.362 118.094L138.848 125.494C139.356 125.602 139.877 125.507 140.312 125.226C140.748 124.945 141.049 124.51 141.159 124.002C141.384 122.955 140.715 121.921 139.665 121.695L105.179 114.295C105.042 114.265 104.905 114.252 104.77 114.252Z" fill="#04F2F5"/>
  <path d="M118.374 127.542C118.215 127.542 118.054 127.524 117.894 127.491L103.024 124.3C102.433 124.173 101.928 123.824 101.599 123.318C101.271 122.811 101.161 122.207 101.288 121.617C101.549 120.399 102.754 119.621 103.974 119.883L118.844 123.074C120.064 123.335 120.843 124.539 120.581 125.756C120.454 126.347 120.105 126.852 119.597 127.18C119.227 127.419 118.806 127.542 118.374 127.542ZM103.501 120.149C102.604 120.149 101.795 120.773 101.599 121.683C101.49 122.19 101.586 122.71 101.867 123.146C102.149 123.581 102.584 123.882 103.092 123.99L117.962 127.181C118.469 127.29 118.99 127.194 119.427 126.913C119.863 126.632 120.163 126.197 120.273 125.689C120.499 124.642 119.829 123.608 118.779 123.382L103.91 120.191C103.772 120.163 103.635 120.149 103.501 120.149Z" fill="#04F2F5"/>
  <path d="M137.674 131.683C137.514 131.683 137.353 131.665 137.194 131.632L123.669 128.73C122.45 128.468 121.671 127.264 121.932 126.047C122.194 124.829 123.4 124.051 124.619 124.314L138.144 127.216C139.363 127.477 140.142 128.681 139.881 129.899C139.753 130.489 139.404 130.994 138.897 131.322C138.527 131.559 138.104 131.683 137.674 131.683ZM124.144 124.579C123.248 124.579 122.439 125.203 122.243 126.113C122.017 127.16 122.688 128.194 123.737 128.42L137.261 131.322C137.769 131.431 138.29 131.335 138.726 131.054C139.162 130.773 139.463 130.338 139.573 129.83C139.798 128.783 139.129 127.749 138.079 127.523L124.553 124.622C124.416 124.594 124.279 124.579 124.144 124.579Z" fill="#04F2F5"/>
  <path d="M108.125 104.575C108.04 104.967 107.654 105.217 107.26 105.133C106.867 105.048 106.616 104.662 106.701 104.269C106.786 103.876 107.172 103.626 107.566 103.711C107.959 103.795 108.21 104.183 108.125 104.575Z" fill="#04F2F5"/>
  <path d="M111.091 105.213C111.006 105.605 110.619 105.855 110.225 105.77C109.833 105.686 109.582 105.3 109.667 104.906C109.752 104.514 110.138 104.264 110.532 104.348C110.925 104.433 111.175 104.819 111.091 105.213Z" fill="#04F2F5"/>
  <path d="M114.056 105.848C113.972 106.24 113.585 106.491 113.191 106.406C112.799 106.321 112.548 105.935 112.633 105.542C112.717 105.15 113.104 104.9 113.498 104.984C113.891 105.069 114.141 105.455 114.056 105.848Z" fill="#04F2F5"/>
  <path d="M117.022 106.485C116.938 106.877 116.551 107.127 116.157 107.043C115.764 106.958 115.514 106.572 115.599 106.179C115.683 105.787 116.07 105.536 116.464 105.621C116.856 105.706 117.107 106.093 117.022 106.485Z" fill="#04F2F5"/>
  <path d="M119.989 107.121C119.904 107.513 119.518 107.763 119.124 107.678C118.731 107.594 118.481 107.208 118.565 106.814C118.65 106.422 119.037 106.172 119.431 106.257C119.823 106.341 120.074 106.729 119.989 107.121Z" fill="#04F2F5"/>
  <path d="M123.22 107.814C123.135 108.206 122.748 108.457 122.354 108.372C121.962 108.287 121.711 107.901 121.796 107.508C121.881 107.116 122.267 106.865 122.661 106.95C123.054 107.035 123.304 107.422 123.22 107.814Z" fill="#04F2F5"/>
  <path d="M126.185 108.451C126.101 108.843 125.714 109.093 125.32 109.009C124.927 108.924 124.677 108.538 124.762 108.145C124.846 107.752 125.233 107.502 125.627 107.587C126.02 107.671 126.27 108.059 126.185 108.451Z" fill="#04F2F5"/>
  <path d="M129.151 109.087C129.066 109.479 128.68 109.729 128.286 109.644C127.893 109.56 127.643 109.174 127.727 108.78C127.812 108.388 128.199 108.138 128.593 108.223C128.985 108.308 129.236 108.694 129.151 109.087Z" fill="#04F2F5"/>
  <path d="M132.117 109.724C132.032 110.116 131.646 110.367 131.252 110.282C130.859 110.197 130.608 109.811 130.693 109.418C130.778 109.026 131.164 108.776 131.558 108.86C131.951 108.945 132.202 109.331 132.117 109.724Z" fill="#04F2F5"/>
  <path d="M135.084 110.36C134.999 110.752 134.613 111.003 134.219 110.918C133.826 110.833 133.575 110.447 133.66 110.054C133.745 109.662 134.131 109.411 134.525 109.496C134.918 109.581 135.169 109.968 135.084 110.36Z" fill="#04F2F5"/>
  <path d="M106.855 110.472C106.771 110.865 106.384 111.115 105.99 111.03C105.597 110.945 105.347 110.559 105.432 110.166C105.516 109.774 105.903 109.524 106.297 109.608C106.69 109.693 106.94 110.08 106.855 110.472Z" fill="#04F2F5"/>
  <path d="M109.821 111.109C109.736 111.501 109.35 111.751 108.956 111.667C108.563 111.582 108.313 111.196 108.397 110.803C108.482 110.411 108.869 110.16 109.263 110.245C109.655 110.331 109.906 110.717 109.821 111.109Z" fill="#04F2F5"/>
  <path d="M112.787 111.746C112.702 112.138 112.316 112.388 111.922 112.304C111.529 112.219 111.278 111.833 111.363 111.439C111.448 111.047 111.834 110.797 112.228 110.882C112.621 110.966 112.872 111.352 112.787 111.746Z" fill="#04F2F5"/>
  <path d="M115.753 112.382C115.668 112.775 115.281 113.025 114.888 112.94C114.495 112.855 114.244 112.47 114.329 112.076C114.414 111.684 114.8 111.434 115.194 111.518C115.587 111.603 115.838 111.99 115.753 112.382Z" fill="#04F2F5"/>
  <path d="M118.72 113.018C118.635 113.41 118.248 113.661 117.854 113.576C117.462 113.491 117.211 113.105 117.296 112.712C117.381 112.32 117.767 112.069 118.161 112.154C118.554 112.239 118.804 112.626 118.72 113.018Z" fill="#04F2F5"/>
  <path d="M121.95 113.711C121.865 114.104 121.479 114.354 121.085 114.269C120.692 114.185 120.441 113.799 120.526 113.405C120.611 113.013 120.998 112.763 121.391 112.848C121.784 112.932 122.035 113.319 121.95 113.711Z" fill="#04F2F5"/>
  <path d="M124.916 114.347C124.831 114.739 124.445 114.99 124.051 114.905C123.658 114.82 123.407 114.434 123.492 114.041C123.577 113.649 123.963 113.399 124.357 113.483C124.75 113.568 125.001 113.955 124.916 114.347Z" fill="#04F2F5"/>
  <path d="M127.882 114.984C127.797 115.376 127.41 115.626 127.016 115.542C126.624 115.457 126.373 115.071 126.458 114.678C126.543 114.286 126.929 114.035 127.323 114.12C127.716 114.205 127.966 114.592 127.882 114.984Z" fill="#04F2F5"/>
  <path d="M130.848 115.622C130.764 116.014 130.377 116.264 129.983 116.179C129.591 116.095 129.34 115.709 129.425 115.315C129.509 114.923 129.896 114.673 130.29 114.758C130.683 114.842 130.933 115.228 130.848 115.622Z" fill="#04F2F5"/>
  <path d="M148.288 83.8233L144.828 99.8985C144.489 101.473 142.937 102.476 141.358 102.137L111.202 95.6656C109.625 95.3269 108.621 93.7769 108.96 92.2008L112.42 76.1256C112.759 74.5507 114.311 73.5484 115.89 73.8871L146.046 80.3585C147.623 80.6971 148.627 82.2484 148.288 83.8233Z" fill="#039EE3"/>
  <path d="M111.934 78.3882L111.177 81.9072L147.045 89.6042L147.803 86.0852L111.934 78.3882Z" fill="white"/>
  <path d="M120.577 92.949L111.267 90.9512L110.945 92.4471L120.255 94.445L120.577 92.949Z" fill="white"/>
  <path d="M131.743 95.3455L122.433 93.3477L122.111 94.8436L131.421 96.8415L131.743 95.3455Z" fill="white"/>
  <path d="M142.638 97.6824L133.328 95.6846L133.006 97.1805L142.316 99.1784L142.638 97.6824Z" fill="white"/>
  <path d="M112.991 84.1555L112.127 88.1699L116.696 89.1503L117.559 85.1359L112.991 84.1555Z" fill="#F7E105"/>
  <path d="M115.033 134.327C115.037 134.313 115.038 134.307 115.038 134.306C115.038 134.308 115.033 134.327 115.033 134.327Z" fill="#D9FFFF"/>
  <path d="M115.033 134.327C115.037 134.313 115.038 134.307 115.038 134.306C115.038 134.308 115.033 134.327 115.033 134.327Z" fill="#D9FFFF"/>
  <path d="M123.276 136.523C123.276 136.523 123.28 136.504 123.281 136.502C123.281 136.503 123.28 136.509 123.276 136.523Z" fill="#D9FFFF"/>
  <path d="M123.276 136.523C123.276 136.523 123.28 136.504 123.281 136.502C123.281 136.503 123.28 136.509 123.276 136.523Z" fill="#D9FFFF"/>
  <path d="M119.67 133.237C118.472 134.005 116.76 134.401 115.033 134.327C115.008 134.435 114.866 135.036 114.214 137.808C113.344 141.504 116.511 144.252 116.987 144.639C117.579 144.536 121.587 143.7 122.458 140.004C123.11 137.232 123.25 136.631 123.277 136.523C121.722 135.722 120.387 134.516 119.67 133.237Z" fill="#03D67C"/>
  <path d="M117.105 144.14C116.753 143.829 116.069 143.165 115.491 142.23C114.608 140.807 114.333 139.36 114.669 137.929L115.405 134.8C116.923 134.809 118.383 134.479 119.522 133.87C120.256 134.978 121.398 136.002 122.742 136.755L122.006 139.883C121.67 141.315 120.785 142.453 119.377 143.265C118.451 143.799 117.554 144.043 117.105 144.14Z" fill="#1BF79A"/>
  <path d="M121.617 137.836C120.486 137.717 118.772 138.313 117.561 139.253C117.559 138.659 117.085 137.994 116.802 137.803L115.651 138.489C116.176 138.902 116.645 139.808 116.555 140.587L117.458 140.975C118.03 140.308 119.474 138.73 121.728 138.268C121.723 138.109 121.628 137.862 121.617 137.836Z" fill="white"/>
  <path d="M173.979 135.698C167.31 115.235 153.244 76.0924 153.244 76.0924C153.244 76.0924 148.672 74.0631 146.413 82.7232C144.154 91.3833 150.546 109.126 150.546 109.126C150.546 109.126 137.129 150.476 158.924 155.361C174.066 158.753 178.363 144.335 173.979 135.698Z" fill="#FDBDBB"/>
  <path d="M100.351 74.625C100.351 74.625 84.2401 77.2307 90.9526 91.1907C97.665 105.151 105.146 94.3492 101.815 83.5204C100.586 79.5203 100.351 74.625 100.351 74.625Z" fill="#FDBDBB"/>
  <path d="M97.3632 88.0127C97.3632 88.0127 81.2528 90.6184 87.9653 104.578C94.6777 118.538 102.158 107.737 98.8281 96.9081C97.5976 92.908 97.3632 88.0127 97.3632 88.0127Z" fill="#FDBDBB"/>
  <path d="M91.7842 111.486C91.7842 111.486 79.2158 113.519 84.4521 124.411C89.6896 135.302 95.5244 126.874 92.9262 118.426C91.9674 115.306 91.7842 111.486 91.7842 111.486Z" fill="#FDBDBB"/>
  <path d="M20.5766 170.799L11.7833 198.843C11.2397 208.453 38.8675 214.029 43.3733 206.498C46.3467 187.775 52.7762 160.905 51.421 151.454C45.762 144.256 27.7005 147.532 20.5766 170.799Z" fill="#FDBDBB"/>
  <path d="M49.1021 167.417C51.6767 162.01 48.086 156.645 49.152 148.946C51.2927 143.938 56.221 136.678 53.6341 131.467C36.0263 93.9913 16.8801 97.9889 0.672446 134.798C-0.045678 141.465 11.5602 161.712 18.3737 172.928C22.8981 181.641 45.5801 178.961 49.1021 167.417Z" fill="#FDBDBB"/>
  <path d="M49.3651 147.328C49.314 147.389 49.2691 147.442 49.2242 147.496C49.1931 147.994 49.1669 148.473 49.1507 148.946C40.6093 142.808 40.8087 128.499 43.7386 119.772C44.2261 128.49 48.5797 136.696 53.9768 138.233C53.72 139.616 53.23 141.154 52.3748 142.832C51.6566 144.235 50.6767 145.744 49.3651 147.328Z" fill="#D59A98"/>
  <path d="M28.2215 115.954C20.7149 113.58 10.0166 119.99 10.0166 119.99C10.0166 119.99 23.8567 127.287 25.4662 132.331C27.0758 137.375 24.5474 143.201 26.6918 151.794C28.8362 160.386 38.1942 142.627 38.6755 132.796C39.1467 123.138 35.7269 118.33 28.2215 115.954Z" fill="#D59A98"/>
  <path d="M75.2588 71.8258L49.5572 133.596C49.0087 134.915 47.4926 135.54 46.1711 134.992L10.0156 119.992C8.69402 119.444 8.06816 117.93 8.61672 116.61L34.3183 54.8405C34.8669 53.5208 36.3829 52.8958 37.7045 53.4436L73.86 68.4444C75.1815 68.9922 75.8087 70.5061 75.2588 71.8258Z" fill="#025BB3"/>
  <path d="M43.0491 55.6555L15.3594 122.206L22.4242 125.137L50.1139 58.5867L43.0491 55.6555Z" fill="#039EE3"/>
  <path d="M47.051 117.481L42.9804 127.266C42.7211 127.888 43.0303 128.606 43.6699 128.873C44.3095 129.138 45.0376 128.849 45.2969 128.228L49.3675 118.444C49.6268 117.821 49.3176 117.103 48.678 116.836C48.0385 116.57 47.3104 116.859 47.051 117.481Z" fill="#D1F5FF"/>
  <path d="M53.3127 102.435L49.2422 112.219C48.9828 112.841 49.292 113.56 49.9316 113.826C50.5712 114.091 51.2993 113.802 51.5586 113.181L55.6292 103.397C55.8885 102.774 55.5793 102.056 54.9397 101.79C54.3002 101.523 53.5708 101.812 53.3127 102.435Z" fill="#D1F5FF"/>
  <path d="M59.5735 87.3884L55.5029 97.1727C55.2436 97.7952 55.5528 98.5136 56.1924 98.78C56.8319 99.0452 57.56 98.7563 57.8194 98.1351L61.89 88.3508C62.1493 87.7283 61.8401 87.01 61.2006 86.7435C60.5597 86.4771 59.8316 86.7672 59.5735 87.3884Z" fill="#D1F5FF"/>
  <path d="M65.8332 72.3416L61.7627 82.1258C61.5033 82.7483 61.8125 83.4667 62.4521 83.7331C63.0917 83.9983 63.8198 83.7095 64.0791 83.0882L68.1497 73.3039C68.409 72.6814 68.0998 71.9631 67.4602 71.6967C66.8207 71.4302 66.0926 71.7203 65.8332 72.3416Z" fill="#D1F5FF"/>
  <path d="M12.3067 113.609L11.2725 116.095L14.2787 117.342L15.3129 114.856L12.3067 113.609Z" fill="#D1F5FF"/>
  <path d="M16.2744 104.073L12.9033 112.175L15.9095 113.422L19.2806 105.32L16.2744 104.073Z" fill="#D1F5FF"/>
  <path d="M48.041 74.2709L50.8025 67.6339C51.2551 66.5471 52.5031 66.0329 53.5915 66.4836L59.5771 68.9673C60.6655 69.4192 61.1804 70.6655 60.7291 71.7524L57.9675 78.3894C57.515 79.4762 56.267 79.9904 55.1786 79.5397L49.193 77.056C48.1046 76.604 47.5884 75.3578 48.041 74.2709Z" fill="#DBC704"/>
  <path d="M48.1694 140.37C46.141 136.132 44.9678 131.209 44.8967 126.112C44.8955 126.012 44.8942 125.912 44.8917 125.811C44.6773 115.134 41.0094 106.563 36.7006 106.634C31.2698 106.724 29.0718 115.446 29.2863 126.123C29.305 127.043 29.3486 127.948 29.4172 128.832C29.7837 133.584 29.0431 138.318 27.5483 142.557C26.1457 146.532 25.3715 151.354 25.4762 156.537C25.7468 169.974 31.8072 180.749 39.0133 180.605C46.2195 180.46 51.8423 169.451 51.5718 156.014C51.4508 150.027 50.1804 144.569 48.1694 140.37Z" fill="#FDBDBB"/>
  </g>
  <defs>
  <clipPath id="clip0">
  <rect width="210" height="210" fill="white" transform="translate(0.439453 -0.000976562)"/>
  </clipPath>
  </defs>
  </svg>
  