<svg width="288" height="282" viewBox="0 0 288 282" fill="none" xmlns="http://www.w3.org/2000/svg">
<path d="M146.37 281.517C224.041 281.517 287.007 218.613 287.007 141.017C287.007 63.42 224.041 0.515625 146.37 0.515625C68.6979 0.515625 5.73254 63.42 5.73254 141.017C5.73254 218.613 68.6979 281.517 146.37 281.517Z" fill="#EDEBFF"/>
<path d="M146.624 145.844L66.2189 91.2574C61.7942 82.0796 80.4568 56.1119 92.5951 61.5601L161.866 120.034L146.624 145.844Z" fill="#FFB373"/>
<path d="M155.558 232.668L245.76 212.004V99.2051L155.558 116.943V232.668Z" fill="#D97826"/>
<path d="M245.759 99.2048L208.348 86.0205L180.595 77.7373L94.7098 93.6465L155.558 116.943L245.759 99.2048Z" fill="#FFA04F"/>
<path d="M155.555 116.938V232.666L109.103 211.631L96.0147 205.701L95.1232 129.484L94.705 93.6484L155.555 116.938Z" fill="#EE8932"/>
<path d="M119.593 103.816C119.603 103.816 119.613 103.816 119.624 103.812L208.381 86.1999C208.472 86.181 208.534 86.0864 208.517 85.9866C208.5 85.8868 208.412 85.8215 208.321 85.8387L119.562 103.453C119.471 103.472 119.409 103.566 119.426 103.666C119.441 103.754 119.512 103.816 119.593 103.816Z" fill="#9E6331"/>
<path d="M155.086 117.379C155.155 117.379 155.221 117.333 155.245 117.257C155.276 117.161 155.229 117.058 155.141 117.023L95.0594 94.0625C94.9716 94.028 94.8752 94.0797 94.8443 94.1743C94.8133 94.2706 94.8597 94.3738 94.9475 94.4082L155.031 117.369C155.05 117.376 155.069 117.379 155.086 117.379Z" fill="#9E6331"/>
<path d="M212.905 87.7013L125.062 105.627V130.951L115.992 126.318L115.354 102.033L202.344 84.3398L212.905 87.7013Z" fill="white"/>
<path d="M138.456 194.243C136.377 197.111 112.65 191.181 112.65 191.181C112.65 191.181 130.306 203.847 127.103 205.879C123.91 207.911 107.785 201.527 107.785 201.527C107.785 201.527 118.432 210.713 116.149 211.594C115.452 211.862 112.658 211.816 109.103 211.632L96.0146 205.702L95.1592 132.531C119.723 134.358 125.826 139.829 125.841 143.3C125.871 150.076 113.264 149.405 111.703 154.267C110.144 159.129 137.138 170.395 144.285 181.91L118.432 179.173C118.432 179.173 140.535 191.375 138.456 194.243Z" fill="#33201B"/>
<path d="M78.8924 137.486C88.9121 135.022 103.078 135.021 120.756 136.99C127.322 137.721 127.679 147.238 121.178 148.401C121.093 148.416 121.007 148.43 120.919 148.444C112.337 149.794 107.971 144.367 99.6133 153.195C88.5111 164.923 74.342 159.462 71.6676 153.159C69.8726 148.932 71.7967 138.886 78.8924 137.486Z" fill="#FFAE69"/>
<path d="M84.4341 136.459C77.5156 137.011 67.8763 140.428 64.5823 148.472C60.6463 158.086 58.8737 167.6 71.7761 183.211C80.2572 193.473 113.956 215.64 116.669 210.946C119.238 206.499 93.5692 189.351 92.9272 188.933C92.2887 188.516 126.125 210.34 128.578 205.066C131.595 198.578 99.3604 177.042 98.4947 176.327C97.6376 175.618 135.29 200.171 138.46 194.243C141.148 189.217 105.952 166.361 105.952 166.361C105.952 166.361 142.59 187.225 145.351 180.084C148.096 172.982 84.4341 136.459 84.4341 136.459Z" fill="#FFAE69"/>
<path d="M83.7991 178.462C83.7991 178.462 4.13208 140.336 2.93254 139.135C-7.0665 129.391 10.7012 94.3251 24.0114 102.29L99.5532 147.934L83.7991 178.462Z" fill="#FFAE69"/>
<path d="M240.111 109.467V128.772L212.906 134.791V114.449L240.111 109.467Z" fill="#FFBF8A"/>
<path d="M157.556 171.201L167.061 230.033L212.215 219.689L171.176 170.036H158.014L157.556 171.201Z" fill="#33201B"/>
<path d="M158.014 170.036L157.556 171.201L190.973 260.41L261.754 255.261L262.272 254.098L158.014 170.036Z" fill="#D62D06"/>
<path d="M158.013 170.036L191.578 259.173L262.272 254.098L225.103 167.49L158.013 170.036Z" fill="#FF3305"/>
<path d="M220.691 172.618L251.44 244.986L194.726 248.629L167.82 176.165L220.691 172.618Z" fill="white"/>
<path d="M174.404 168.103L178.825 178.82L219.527 176.881L214.411 166.415L174.404 168.103Z" fill="black"/>
<path d="M222.214 183.783L176.248 185.747L176.288 186.673L222.254 184.71L222.214 183.783Z" fill="#848484"/>
<path d="M224.806 189.57L178.84 191.534L178.879 192.461L224.845 190.497L224.806 189.57Z" fill="#848484"/>
<path d="M227.398 195.356L181.431 197.319L181.471 198.246L227.437 196.282L227.398 195.356Z" fill="#848484"/>
<path d="M229.989 201.144L184.023 203.107L184.062 204.034L230.029 202.07L229.989 201.144Z" fill="#848484"/>
<path d="M232.581 206.929L186.615 208.893L186.654 209.819L232.621 207.855L232.581 206.929Z" fill="#848484"/>
<path d="M235.172 212.716L189.206 214.68L189.246 215.606L235.212 213.642L235.172 212.716Z" fill="#848484"/>
<path d="M212.749 236.493C212.664 236.493 212.588 236.479 212.523 236.457C211.695 236.194 211.485 234.658 211.089 231.21C210.721 228.007 210.217 223.619 208.823 222.788C208.556 222.628 208.264 222.621 207.907 222.764C203.627 224.475 203.45 236.331 203.448 236.45L202.521 236.44C202.526 235.927 202.712 223.84 207.563 221.902C208.195 221.649 208.778 221.68 209.3 221.991C211.088 223.058 211.578 227.333 212.012 231.105C212.201 232.75 212.454 234.959 212.776 235.502C212.783 235.494 212.792 235.487 212.8 235.476C213.544 234.646 214.49 232.832 215.407 231.079C217.182 227.682 218.326 225.602 219.491 225.716C220.237 225.786 220.498 226.66 220.584 226.947C220.963 228.208 221.132 229.335 221.267 230.242C221.426 231.3 221.551 232.134 221.894 232.34C222.092 232.461 222.47 232.423 223.019 232.23C223.751 231.974 224.369 231.585 224.968 231.207C226.544 230.214 228.176 229.187 231.449 231.028L230.995 231.836C228.201 230.266 226.993 231.028 225.463 231.991C224.821 232.395 224.157 232.813 223.328 233.104C222.483 233.4 221.875 233.409 221.415 233.133C220.7 232.702 220.553 231.726 220.35 230.378C220.218 229.502 220.054 228.41 219.694 227.212C219.541 226.705 219.402 226.638 219.4 226.638C219.4 226.638 219.061 226.629 218.183 227.991C217.572 228.938 216.891 230.245 216.23 231.508C215.244 233.395 214.313 235.175 213.492 236.094C213.215 236.404 212.957 236.493 212.749 236.493Z" fill="#282828"/>
<path d="M243.322 223.229L236.956 220.905L259.183 160.067C259.825 158.309 261.772 157.406 263.529 158.047C265.288 158.689 266.191 160.635 265.549 162.391L243.322 223.229Z" fill="#025BB3"/>
<path d="M257.686 162.117L250.697 181.247L258.566 184.119L265.555 164.989L257.686 162.117Z" fill="#0076EB"/>
<path d="M256.311 195.522L255.383 195.52C255.393 189.926 257.082 187.462 259.216 184.342C260.567 182.369 262.098 180.132 263.627 176.604C266.399 170.21 266.43 167.631 265.967 166.592C265.718 166.029 265.303 165.89 264.969 165.778C264.921 165.763 264.878 165.747 264.838 165.734L265.157 164.861C265.189 164.873 265.227 164.885 265.265 164.899C265.661 165.032 266.399 165.281 266.816 166.215C267.609 167.997 266.845 171.517 264.479 176.974C262.914 180.583 261.357 182.859 259.982 184.867C257.856 187.972 256.321 190.215 256.311 195.522Z" fill="#025BB3"/>
<path d="M236.457 229.226L238.333 229.91C238.958 229.076 242.613 224.177 243.317 223.232L236.951 220.908C236.879 222.123 236.519 228.149 236.457 229.226Z" fill="black"/>
<path d="M236.621 231.684C236.309 231.571 236.147 231.223 236.261 230.912C236.634 230.47 237.128 226.97 238.166 227.45C238.478 227.564 238.639 227.911 238.526 228.223C238.154 228.665 237.66 232.164 236.621 231.684Z" fill="black"/>
</svg>
