<svg width="284" height="320" viewBox="0 0 284 320" fill="none" xmlns="http://www.w3.org/2000/svg">
<path d="M141.94 283.011C220.088 283.011 283.439 219.675 283.439 141.547C283.439 63.4186 220.088 0.0830078 141.94 0.0830078C63.7921 0.0830078 0.440674 63.4186 0.440674 141.547C0.440674 219.675 63.7921 283.011 141.94 283.011Z" fill="#EDEBFF"/>
<path d="M176.9 116.646L209.561 159.599C213.613 176.333 204.441 191.383 187.168 195.344L111.227 160.524L176.9 116.646Z" fill="#FFA04F"/>
<path d="M207.173 155.286L259.873 171.2C264.38 184.771 257.887 212.595 244.542 221.962L187.168 195.346L207.173 155.286Z" fill="#FFA04F"/>
<path d="M173.567 124.396C173.567 124.396 78.996 52.9965 70.6395 66.8912C61.0692 82.8038 160.949 144.244 160.949 144.244L173.567 124.396Z" fill="#FFA04F"/>
<path d="M168.942 199.326L100.824 198.914C96.573 198.888 93.1359 195.262 93.1428 190.819L93.3991 43.508C93.406 39.2229 96.7912 35.7431 100.959 35.731L167.754 35.5284C171.955 35.5162 175.392 38.9908 175.426 43.295L176.637 191.287C176.671 195.751 173.226 199.352 168.942 199.326Z" fill="#8FC9ED"/>
<path d="M169.882 198.254C169.6 198.29 169.309 198.306 169.021 198.304L100.924 197.821C97.2724 197.795 94.2854 194.616 94.2924 190.738L94.5279 43.5878C94.5331 39.8482 97.4715 36.7946 101.054 36.7807L167.844 36.5088C167.948 36.5088 168.053 36.5105 168.157 36.5157C169.838 36.5885 171.409 37.3055 172.583 38.5336C173.783 39.7876 174.45 41.4504 174.465 43.2189L175.66 191.362C175.688 194.873 173.213 197.836 169.882 198.254Z" fill="#33201B"/>
<path d="M172.122 43.9639L173.272 191.591L96.5573 191.161L96.753 43.9639H172.122Z" fill="white"/>
<path d="M152.044 52.1445H140.103L141.026 65.9804L154.21 65.9665L152.044 52.1445Z" fill="#FFDED9"/>
<path d="M139.307 43.8994L140.103 52.1441H152.044L150.023 43.8994H139.307Z" fill="#FFDED9"/>
<path d="M140.103 52.1445H128.167L127.847 65.9925L141.026 65.9804L140.103 52.1445Z" fill="#EB4838"/>
<path d="M128.595 43.8994L128.167 52.1441H140.103L139.306 43.8994H128.595Z" fill="#EB4838"/>
<path d="M150.023 43.8994L152.044 52.1441H163.991L160.741 43.8994H150.023Z" fill="#EB4838"/>
<path d="M163.992 52.1445H152.044L154.21 65.9665L167.398 65.9527L163.992 52.1445Z" fill="#EB4838"/>
<path d="M160.741 43.8994L163.992 52.1441H176.528L172.14 43.8994H160.741Z" fill="#FFDED9"/>
<path d="M176.528 52.1445H163.992L167.397 65.9527L181.002 65.9405L176.528 52.1445Z" fill="#FFDED9"/>
<path d="M96.4157 43.8994L92.1682 52.1441H104.312L107.181 43.8994H96.4157Z" fill="#FFDED9"/>
<path d="M92.1681 52.1445L87.8738 66.0323L101.503 66.0185L104.312 52.1445H92.1681Z" fill="#FFDED9"/>
<path d="M116.237 52.1445L114.673 66.0064L127.847 65.9925L128.167 52.1445H116.237Z" fill="#FFDED9"/>
<path d="M117.885 43.8994L116.237 52.1441H128.167L128.595 43.8994H117.885Z" fill="#FFDED9"/>
<path d="M104.312 52.1445L101.503 66.0185L114.673 66.0063L116.237 52.1445H104.312Z" fill="#EB4838"/>
<path d="M107.181 43.8994L104.311 52.1441H116.237L117.885 43.8994H107.181Z" fill="#EB4838"/>
<path d="M101.508 66.0574L87.8805 66.0713C87.877 66.0575 87.877 66.0453 87.8753 66.0332V68.0892C87.8753 71.7802 90.9575 74.7733 94.76 74.7733C98.2248 74.7733 101.51 72.2375 101.51 68.2468V66.0574H101.508Z" fill="#FFC9C0"/>
<path d="M114.673 65.9784L101.506 65.9922C101.503 65.9784 101.503 65.9662 101.501 65.9541V68.0101C101.501 71.7011 104.479 74.6942 108.152 74.6942C111.499 74.6942 114.671 72.1584 114.671 68.1677V65.9784H114.673Z" fill="#EB4838"/>
<path d="M127.845 65.9784L114.678 65.9922C114.675 65.9784 114.675 65.9662 114.673 65.9541V68.0101C114.673 71.7011 117.651 74.6942 121.324 74.6942C124.671 74.6942 127.843 72.1584 127.843 68.1677V65.9784H127.845Z" fill="#FFC9C0"/>
<path d="M141.022 65.9784L127.855 65.9922C127.854 65.9784 127.852 65.9662 127.85 65.9541V68.0101C127.85 71.7011 130.829 74.6942 134.501 74.6942C137.848 74.6942 141.02 72.1584 141.02 68.1677V65.9784H141.022Z" fill="#EB4838"/>
<path d="M154.199 65.9784L141.032 65.9922C141.029 65.9784 141.029 65.9662 141.027 65.9541V68.0101C141.027 71.7011 144.006 74.6942 147.678 74.6942C151.025 74.6942 154.198 72.1584 154.198 68.1677V65.9784H154.199Z" fill="#FFC9C0"/>
<path d="M167.371 65.9784L154.205 65.9922C154.201 65.9784 154.201 65.9662 154.199 65.9541V68.0101C154.199 71.7011 157.178 74.6942 160.85 74.6942C164.197 74.6942 167.37 72.1584 167.37 68.1677V65.9784H167.371Z" fill="#EB4838"/>
<path d="M181.004 65.9119L167.391 65.9258C167.387 65.9119 167.387 65.8998 167.385 65.8877V67.9437C167.385 71.6347 170.464 74.6278 174.263 74.6278C177.724 74.6278 181.006 72.092 181.006 68.1013V65.9119H181.004Z" fill="#FFC9C0"/>
<path d="M101.373 66.0582V66.0322H87.8738C87.8756 66.0461 87.8756 66.0582 87.879 66.0703L101.373 66.0582Z" fill="#FBD2CB"/>
<path d="M101.373 66.0582H101.505C101.505 66.0495 101.505 66.0409 101.503 66.0322H101.373V66.0582Z" fill="#F13005"/>
<path d="M101.504 66.0322C101.504 66.041 101.506 66.0497 101.508 66.0584V66.0322H101.504Z" fill="#F13005"/>
<path d="M158.36 83.5039H109.395V132.456H158.36V83.5039Z" fill="#04F2F5"/>
<path d="M143.014 114.909H124.813C124.451 114.909 124.131 114.675 124.02 114.331L120.533 103.465C120.451 103.213 120.496 102.935 120.652 102.719C120.81 102.504 121.059 102.376 121.326 102.376H146.501C146.768 102.376 147.017 102.502 147.174 102.719C147.332 102.934 147.375 103.211 147.294 103.465L143.807 114.331C143.698 114.675 143.377 114.909 143.014 114.909ZM125.421 113.243H142.408L145.36 104.044H122.469L125.421 113.243Z" fill="#0D0D0D"/>
<path d="M141.519 119.51H125.996C125.535 119.51 125.163 119.138 125.163 118.677C125.163 118.216 125.535 117.844 125.996 117.844H140.91C141.924 117.818 142.383 117.115 142.456 116.396C142.522 115.753 142.277 115.099 141.845 114.91L147.086 98.4914C147.197 98.1467 147.517 97.9111 147.879 97.9111H153.299C153.759 97.9111 154.132 98.2835 154.132 98.7443C154.132 99.205 153.759 99.5774 153.299 99.5774H148.487L143.684 114.818C144.963 116.919 143.225 119.51 141.519 119.51Z" fill="#0D0D0D"/>
<path d="M130.526 123.66C131.274 122.911 131.274 121.697 130.526 120.948C129.777 120.199 128.564 120.199 127.815 120.948C127.067 121.697 127.067 122.911 127.815 123.66C128.564 124.408 129.777 124.408 130.526 123.66Z" fill="#0D0D0D"/>
<path d="M140.685 122.756C140.928 121.726 140.29 120.693 139.26 120.45C138.23 120.206 137.197 120.845 136.954 121.875C136.711 122.906 137.349 123.938 138.379 124.182C139.409 124.425 140.442 123.787 140.685 122.756Z" fill="#0D0D0D"/>
<path d="M134.366 114.91C133.906 114.91 133.533 114.537 133.533 114.076V103.211C133.533 102.75 133.906 102.378 134.366 102.378C134.827 102.378 135.199 102.75 135.199 103.211V114.076C135.199 114.537 134.825 114.91 134.366 114.91Z" fill="#0D0D0D"/>
<path d="M129.719 114.909C129.338 114.909 128.995 114.646 128.906 114.26L126.441 103.395C126.339 102.946 126.621 102.499 127.069 102.397C127.518 102.295 127.964 102.577 128.067 103.026L130.532 113.891C130.635 114.34 130.352 114.786 129.904 114.889C129.843 114.902 129.781 114.909 129.719 114.909Z" fill="#0D0D0D"/>
<path d="M138.82 114.909C138.78 114.909 138.74 114.906 138.698 114.901C138.243 114.835 137.928 114.41 137.994 113.955L139.575 103.09C139.64 102.634 140.063 102.319 140.52 102.385C140.975 102.45 141.291 102.875 141.225 103.33L139.644 114.196C139.583 114.611 139.227 114.909 138.82 114.909Z" fill="#0D0D0D"/>
<path d="M144.757 109.544H123.09C122.63 109.544 122.258 109.172 122.258 108.711C122.258 108.25 122.63 107.878 123.09 107.878H144.757C145.218 107.878 145.59 108.25 145.59 108.711C145.59 109.172 145.218 109.544 144.757 109.544Z" fill="#0D0D0D"/>
<path d="M122.399 107.447C125.762 107.447 128.488 104.72 128.488 101.357C128.488 97.9932 125.762 95.2666 122.399 95.2666C119.037 95.2666 116.311 97.9932 116.311 101.357C116.311 104.72 119.037 107.447 122.399 107.447Z" fill="#EB4838"/>
<path d="M120.468 103.758C119.327 103.758 118.957 102.758 118.957 102.758L119.573 102.407C119.573 102.407 119.795 103.067 120.468 103.067C120.969 103.067 121.258 102.715 121.258 102.265C121.258 101.802 120.981 101.463 120.339 101.463C119.74 101.463 119.178 101.932 119.178 101.932V99.3652H121.894V100.068H119.92V100.914C119.92 100.914 120.16 100.784 120.531 100.784C121.296 100.784 122.006 101.253 122.006 102.265C122.004 103.276 121.215 103.758 120.468 103.758Z" fill="white"/>
<path d="M125.762 101.521C125.762 102.694 125.244 103.756 124.146 103.756C123.049 103.756 122.517 102.694 122.517 101.521C122.517 100.349 123.047 99.2871 124.146 99.2871C125.242 99.2871 125.762 100.349 125.762 101.521ZM125.021 101.521C125.021 100.676 124.744 99.9782 124.145 99.9782C123.546 99.9782 123.256 100.676 123.256 101.521C123.256 102.367 123.546 103.065 124.145 103.065C124.744 103.065 125.021 102.367 125.021 101.521Z" fill="white"/>
<path d="M153.856 141.663H113.012V159.86H153.856V141.663Z" fill="#EB4838"/>
<path d="M128.404 153.438C128.404 155.063 127.114 156.003 124.643 156.003H119.781V146.6H124.373C126.723 146.6 127.932 147.58 127.932 149.044C127.932 149.984 127.449 150.71 126.683 151.113C127.733 151.449 128.404 152.257 128.404 153.438ZM121.944 148.24V150.457H124.107C125.168 150.457 125.745 150.081 125.745 149.341C125.745 148.602 125.168 148.24 124.107 148.24H121.944ZM126.214 153.211C126.214 152.418 125.61 152.042 124.481 152.042H121.944V154.366H124.482C125.61 154.366 126.214 154.016 126.214 153.211Z" fill="white"/>
<path d="M129.975 151.867V146.602H132.15V151.787C132.15 153.573 132.929 154.313 134.245 154.313C135.575 154.313 136.34 153.573 136.34 151.787V146.602H138.489V151.867C138.489 154.635 136.904 156.166 134.231 156.166C131.559 156.166 129.975 154.635 129.975 151.867Z" fill="white"/>
<path d="M145.015 152.673V156.005H142.84V152.647L139.201 146.602H141.511L144.021 150.779L146.532 146.602H148.667L145.015 152.673Z" fill="white"/>
<path d="M206.532 154.483C191.932 129.778 162.301 82.8995 162.301 82.8995C162.301 82.8995 155.772 81.5831 155.347 93.5102C154.923 105.437 168.376 126.681 168.376 126.681C168.376 126.681 162.933 184.396 192.673 184.437C213.332 184.469 214.735 164.456 206.532 154.483Z" fill="#FFA04F"/>
<path d="M93.1428 96.3125C93.1428 96.3125 72.9632 104.372 85.7352 120.598C98.5072 136.824 105.094 120.598 97.6258 107.467C94.8674 102.617 93.1428 96.3125 93.1428 96.3125Z" fill="#FFA04F"/>
<path d="M93.1428 114.604C93.1428 114.604 72.9632 122.663 85.7352 138.889C98.5072 155.115 105.094 138.889 97.6258 125.758C94.8674 120.908 93.1428 114.604 93.1428 114.604Z" fill="#FFA04F"/>
<path d="M92.7013 146.776C92.7013 146.776 76.958 153.064 86.9214 165.724C96.8865 178.383 102.024 165.724 96.1991 155.478C94.0467 151.695 92.7013 146.776 92.7013 146.776Z" fill="#FFA04F"/>
<path d="M93.3941 242.927C93.3941 242.927 135.961 165.128 129.185 157.248C122.41 149.367 73.3046 235.755 73.3046 235.755L93.3941 242.927Z" fill="#FFA04F"/>
<path d="M110.306 253.282C106.717 259.889 67.4486 290.897 67.4486 290.897C32.8452 275.968 88.5338 240.904 88.5338 240.904C88.5338 240.904 74.6381 217.535 86.9269 214.334C95.8964 211.994 101.785 218.236 104.307 221.777C104.653 222.26 104.935 222.693 105.155 223.048C105.527 223.651 105.713 224.023 105.713 224.023C105.713 224.023 113.898 246.672 110.306 253.282Z" fill="#FFA04F"/>
<path d="M97.9654 245.896L93.434 242.852L67.1264 291.375L25.3543 269.151C25.3543 269.151 33.9463 214.112 39.8249 206.844C45.7036 199.576 53.8557 195.717 53.8557 195.717C61.2512 192.087 64.1862 195.62 67.5506 194.884C75.2353 193.206 79.204 199.902 81.3944 199.246C83.8931 198.496 87.209 198.918 90.0678 200.08C91.3024 200.579 92.4487 201.22 93.4097 201.965L93.4166 201.974C94.4036 202.732 95.1915 203.605 95.6694 204.546L108.102 208.024L105.011 219.582L105.416 219.662L104.532 221.375L97.9654 245.896Z" fill="#FFA04F"/>
<path d="M99.7577 242.426C96.892 252.95 89.029 251.379 91.4844 245.145L104.436 221.961C104.783 222.444 104.935 222.694 105.155 223.049C101.332 229.946 99.7577 242.426 99.7577 242.426Z" fill="#DB6704"/>
<path d="M48.1363 319.51C26.7758 317.904 2.96169 294.083 4.85082 282.362L28.8935 259.135L73.3754 282.116L48.1363 319.51Z" fill="#FFA04F"/>
</svg>
