<svg width="71" height="71" viewBox="0 0 71 71" fill="none" xmlns="http://www.w3.org/2000/svg">
<g clip-path="url(#clip0)">
<path d="M59.8568 66.5841L55.6546 51.8731C55.5358 51.4585 55.5421 51.018 55.6729 50.607C55.8037 50.196 56.053 49.8328 56.3896 49.5631L66.2312 41.6903L63.2693 29.8362L57.28 37.3262C57.0744 37.5823 56.814 37.7889 56.5179 37.9309C56.2218 38.0728 55.8977 38.1465 55.5693 38.1466H44.6318V33.7716H54.5193L62.6131 23.6544C62.868 23.3367 63.2066 23.0965 63.5906 22.9608C63.9747 22.8252 64.389 22.7994 64.7869 22.8865C65.1848 22.9736 65.5505 23.17 65.8427 23.4537C66.135 23.7374 66.3423 24.0971 66.4412 24.4922L70.8162 41.9922C70.9182 42.3981 70.9016 42.8248 70.7682 43.2215C70.6348 43.6182 70.3903 43.9682 70.0637 44.23L60.2637 52.07L64.0656 65.3831L59.8568 66.5841Z" fill="url(#paint0_linear)"/>
<path d="M51.1943 12.9902C51.1943 11.476 51.6434 9.99572 52.4846 8.73665C53.3259 7.47759 54.5217 6.49627 55.9207 5.91679C57.3197 5.3373 58.8591 5.18568 60.3442 5.4811C61.8294 5.77652 63.1936 6.50571 64.2644 7.57645C65.3351 8.6472 66.0643 10.0114 66.3597 11.4966C66.6551 12.9817 66.5035 14.5212 65.924 15.9202C65.3446 17.3192 64.3632 18.5149 63.1042 19.3562C61.8451 20.1975 60.3649 20.6465 58.8506 20.6465C56.8207 20.6442 54.8747 19.8368 53.4394 18.4015C52.004 16.9661 51.1967 15.0201 51.1943 12.9902ZM55.5693 12.9902C55.5693 13.6392 55.7618 14.2736 56.1223 14.8132C56.4829 15.3528 56.9953 15.7734 57.5949 16.0217C58.1945 16.2701 58.8542 16.335 59.4907 16.2084C60.1272 16.0818 60.7119 15.7693 61.1708 15.3104C61.6297 14.8515 61.9422 14.2669 62.0688 13.6304C62.1954 12.9939 62.1304 12.3341 61.8821 11.7346C61.6337 11.135 61.2132 10.6225 60.6736 10.262C60.134 9.90143 59.4996 9.70899 58.8506 9.70899C57.9807 9.71015 57.1468 10.0562 56.5317 10.6713C55.9166 11.2864 55.5705 12.1204 55.5693 12.9902Z" fill="url(#paint1_linear)"/>
<path d="M44.6406 42.5215C43.4779 42.5215 42.3629 42.0596 41.5408 41.2375C40.7187 40.4154 40.2568 39.3004 40.2568 38.1377V33.7802C40.2568 32.6176 40.7187 31.5026 41.5408 30.6805C42.3629 29.8583 43.4779 29.3965 44.6406 29.3965H49.0068V22.834H22.7568V29.3965H27.1231C28.2857 29.3965 29.4008 29.8583 30.2229 30.6805C31.045 31.5026 31.5068 32.6176 31.5068 33.7802V38.1377C31.5068 39.3004 31.045 40.4154 30.2229 41.2375C29.4008 42.0596 28.2857 42.5215 27.1231 42.5215H22.7568V49.084H49.0068V42.5215H44.6406Z" fill="url(#paint2_linear)"/>
<path d="M11.9069 66.5841L16.1091 51.8731C16.2277 51.4585 16.2212 51.0181 16.0904 50.6071C15.9597 50.1962 15.7105 49.833 15.3741 49.5631L5.53254 41.6903L8.4966 29.8384L14.486 37.3262C14.6913 37.582 14.9514 37.7884 15.2471 37.9304C15.5427 38.0723 15.8664 38.1462 16.1944 38.1466H27.1319V33.7716H17.2444L9.15285 23.6544C8.89793 23.3367 8.55937 23.0965 8.17532 22.9608C7.79126 22.8252 7.37695 22.7994 6.97905 22.8865C6.58116 22.9736 6.21548 23.17 5.92319 23.4537C5.63091 23.7374 5.42364 24.0971 5.32472 24.4922L0.949723 41.9922C0.84769 42.3981 0.864364 42.8248 0.997762 43.2215C1.13116 43.6182 1.37567 43.9682 1.70222 44.23L11.5022 52.07L7.69816 65.3831L11.9069 66.5841Z" fill="url(#paint3_linear)"/>
<path d="M12.9131 20.6465C11.3988 20.6465 9.91857 20.1975 8.6595 19.3562C7.40044 18.5149 6.41912 17.3192 5.83964 15.9202C5.26015 14.5212 5.10853 12.9817 5.40395 11.4966C5.69937 10.0114 6.42856 8.6472 7.4993 7.57645C8.57005 6.50571 9.93426 5.77652 11.4194 5.4811C12.9046 5.18568 14.444 5.3373 15.843 5.91679C17.242 6.49627 18.4377 7.47759 19.279 8.73665C20.1203 9.99572 20.5693 11.476 20.5693 12.9902C20.567 15.0201 19.7596 16.9661 18.3243 18.4015C16.889 19.8368 14.9429 20.6442 12.9131 20.6465ZM12.9131 9.70899C12.2641 9.70899 11.6297 9.90143 11.0901 10.262C10.5505 10.6225 10.13 11.135 9.88161 11.7346C9.63326 12.3341 9.56828 12.9939 9.69489 13.6304C9.8215 14.2669 10.134 14.8515 10.5929 15.3104C11.0518 15.7693 11.6364 16.0818 12.2729 16.2084C12.9094 16.335 13.5692 16.2701 14.1688 16.0217C14.7683 15.7734 15.2808 15.3528 15.6413 14.8132C16.0019 14.2736 16.1943 13.6392 16.1943 12.9902C16.1932 12.1204 15.8471 11.2864 15.232 10.6713C14.6169 10.0562 13.783 9.71015 12.9131 9.70899Z" fill="url(#paint4_linear)"/>
</g>
<defs>
<linearGradient id="paint0_linear" x1="75.1855" y1="-2.86609" x2="35.4751" y2="0.000811348" gradientUnits="userSpaceOnUse">
<stop stop-color="#EB323B"/>
<stop offset="1" stop-color="#F59288"/>
</linearGradient>
<linearGradient id="paint1_linear" x1="69.0171" y1="-3.66211" x2="46.0645" y2="-0.900484" gradientUnits="userSpaceOnUse">
<stop stop-color="#EB323B"/>
<stop offset="1" stop-color="#F59288"/>
</linearGradient>
<linearGradient id="paint2_linear" x1="53.3101" y1="7.41211" x2="13.9629" y2="12.1463" gradientUnits="userSpaceOnUse">
<stop stop-color="#EB323B"/>
<stop offset="1" stop-color="#F59288"/>
</linearGradient>
<linearGradient id="paint3_linear" x1="31.4349" y1="-2.86609" x2="-8.2722" y2="0.000336813" gradientUnits="userSpaceOnUse">
<stop stop-color="#EB323B"/>
<stop offset="1" stop-color="#F59288"/>
</linearGradient>
<linearGradient id="paint4_linear" x1="23.0796" y1="-3.66211" x2="0.127022" y2="-0.900486" gradientUnits="userSpaceOnUse">
<stop stop-color="#EB323B"/>
<stop offset="1" stop-color="#F59288"/>
</linearGradient>
<clipPath id="clip0">
<rect width="70" height="70" fill="white" transform="translate(0.881836 0.958984)"/>
</clipPath>
</defs>
</svg>
