<svg width="71" height="70" viewBox="0 0 71 70" fill="none" xmlns="http://www.w3.org/2000/svg">
<g clip-path="url(#clip0)">
<path d="M59.4223 65.6251L55.2201 50.9141C55.1012 50.4995 55.1076 50.059 55.2383 49.648C55.3691 49.237 55.6185 48.8738 55.9551 48.6041L65.7966 40.7313L62.8348 28.8773L56.8454 36.3673C56.6398 36.6233 56.3794 36.8299 56.0833 36.9719C55.7873 37.1138 55.4631 37.1876 55.1348 37.1876H44.1973V32.8126H54.0848L62.1785 22.6954C62.4334 22.3777 62.772 22.1375 63.156 22.0019C63.5401 21.8662 63.9544 21.8404 64.3523 21.9275C64.7502 22.0146 65.1159 22.2111 65.4082 22.4947C65.7004 22.7784 65.9077 23.1381 66.0066 23.5332L70.3816 41.0332C70.4837 41.4391 70.467 41.8658 70.3336 42.2625C70.2002 42.6592 69.9557 43.0092 69.6291 43.271L59.8291 51.111L63.631 64.4241L59.4223 65.6251Z" fill="white"/>
<path d="M50.7598 12.0313C50.7598 10.517 51.2088 9.03673 52.0501 7.77767C52.8914 6.5186 54.0871 5.53728 55.4861 4.9578C56.8851 4.37832 58.4245 4.2267 59.9097 4.52212C61.3948 4.81753 62.7591 5.54672 63.8298 6.61747C64.9006 7.68821 65.6297 9.05243 65.9252 10.5376C66.2206 12.0228 66.069 13.5622 65.4895 14.9612C64.91 16.3602 63.9287 17.5559 62.6696 18.3972C61.4105 19.2385 59.9303 19.6875 58.416 19.6875C56.3862 19.6852 54.4401 18.8778 53.0048 17.4425C51.5695 16.0072 50.7621 14.0611 50.7598 12.0313ZM55.1348 12.0313C55.1348 12.6802 55.3272 13.3146 55.6878 13.8542C56.0483 14.3938 56.5608 14.8144 57.1603 15.0627C57.7599 15.3111 58.4197 15.3761 59.0562 15.2495C59.6927 15.1228 60.2773 14.8103 60.7362 14.3514C61.1951 13.8926 61.5076 13.3079 61.6342 12.6714C61.7608 12.0349 61.6958 11.3751 61.4475 10.7756C61.1991 10.176 60.7786 9.66354 60.239 9.30299C59.6994 8.94245 59.065 8.75 58.416 8.75C57.5461 8.75116 56.7122 9.09723 56.0971 9.71234C55.482 10.3274 55.1359 11.1614 55.1348 12.0313Z" fill="white"/>
<path d="M44.206 41.5625C43.0434 41.5625 41.9283 41.1006 41.1062 40.2785C40.2841 39.4564 39.8223 38.3414 39.8223 37.1788V32.8212C39.8223 31.6586 40.2841 30.5436 41.1062 29.7215C41.9283 28.8994 43.0434 28.4375 44.206 28.4375H48.5723V21.875H22.3223V28.4375H26.6885C27.8512 28.4375 28.9662 28.8994 29.7883 29.7215C30.6104 30.5436 31.0723 31.6586 31.0723 32.8212V37.1788C31.0723 38.3414 30.6104 39.4564 29.7883 40.2785C28.9662 41.1006 27.8512 41.5625 26.6885 41.5625H22.3223V48.125H48.5723V41.5625H44.206Z" fill="white"/>
<path d="M11.4723 65.6251L15.6745 50.9141C15.7931 50.4995 15.7866 50.0591 15.6558 49.6481C15.5251 49.2372 15.2759 48.874 14.9395 48.6041L5.09797 40.7313L8.06203 28.8795L14.0514 36.3673C14.2568 36.623 14.5168 36.8294 14.8125 36.9714C15.1081 37.1134 15.4319 37.1872 15.7598 37.1876H26.6973V32.8126H16.8098L8.71828 22.6954C8.46336 22.3777 8.1248 22.1375 7.74075 22.0019C7.35669 21.8662 6.94238 21.8404 6.54448 21.9275C6.14659 22.0146 5.78091 22.2111 5.48862 22.4947C5.19634 22.7784 4.98907 23.1381 4.89015 23.5332L0.515153 41.0332C0.41312 41.4391 0.429794 41.8658 0.563191 42.2625C0.696589 42.6592 0.941099 43.0092 1.26765 43.271L11.0677 51.111L7.26359 64.4241L11.4723 65.6251Z" fill="white"/>
<path d="M12.4785 19.6875C10.9643 19.6875 9.484 19.2385 8.22493 18.3972C6.96587 17.5559 5.98455 16.3602 5.40507 14.9612C4.82558 13.5622 4.67396 12.0228 4.96938 10.5376C5.2648 9.05243 5.99399 7.68821 7.06473 6.61747C8.13548 5.54672 9.49969 4.81753 10.9849 4.52212C12.47 4.2267 14.0094 4.37832 15.4084 4.9578C16.8074 5.53728 18.0032 6.5186 18.8445 7.77767C19.6857 9.03673 20.1348 10.517 20.1348 12.0313C20.1325 14.0611 19.3251 16.0072 17.8897 17.4425C16.4544 18.8778 14.5084 19.6852 12.4785 19.6875ZM12.4785 8.75C11.8295 8.75 11.1952 8.94245 10.6556 9.30299C10.116 9.66354 9.69539 10.176 9.44704 10.7756C9.19869 11.3751 9.13371 12.0349 9.26032 12.6714C9.38693 13.3079 9.69943 13.8926 10.1583 14.3514C10.6172 14.8103 11.2019 15.1228 11.8384 15.2495C12.4749 15.3761 13.1346 15.3111 13.7342 15.0627C14.3338 14.8144 14.8462 14.3938 15.2068 13.8542C15.5673 13.3146 15.7598 12.6802 15.7598 12.0313C15.7586 11.1614 15.4125 10.3274 14.7974 9.71234C14.1823 9.09723 13.3484 8.75116 12.4785 8.75Z" fill="white"/>
</g>
<defs>
<clipPath id="clip0">
<rect width="70" height="70" fill="white" transform="translate(0.447266)"/>
</clipPath>
</defs>
</svg>
