<svg width="68" height="68" viewBox="0 0 68 68" fill="none" xmlns="http://www.w3.org/2000/svg">
<path d="M34.2666 63.7715C26.4924 63.7715 19.0367 60.6832 13.5395 55.1861C8.04237 49.6889 4.9541 42.2331 4.9541 34.459C4.9541 26.6848 8.04237 19.2291 13.5395 13.7319C19.0367 8.23476 26.4924 5.14648 34.2666 5.14648C42.0408 5.14648 49.4965 8.23476 54.9937 13.7319C60.4908 19.2291 63.5791 26.6848 63.5791 34.459C63.5791 42.2331 60.4908 49.6889 54.9937 55.1861C49.4965 60.6832 42.0408 63.7715 34.2666 63.7715ZM34.2666 67.959C43.1514 67.959 51.6722 64.4295 57.9547 58.1471C64.2371 51.8646 67.7666 43.3437 67.7666 34.459C67.7666 25.5742 64.2371 17.0534 57.9547 10.7709C51.6722 4.48844 43.1514 0.958984 34.2666 0.958984C25.3818 0.958984 16.861 4.48844 10.5785 10.7709C4.29606 17.0534 0.766602 25.5742 0.766602 34.459C0.766602 43.3437 4.29606 51.8646 10.5785 58.1471C16.861 64.4295 25.3818 67.959 34.2666 67.959Z" fill="url(#paint0_linear)"/>
<path d="M18.7101 41.0208C19.191 40.7432 19.7625 40.6679 20.2989 40.8116C20.8352 40.9553 21.2926 41.3062 21.5702 41.7871C22.8562 44.0163 24.7069 45.8673 26.9358 47.1537C29.1647 48.4402 31.6932 49.1168 34.2667 49.1152C36.8402 49.1168 39.3687 48.4402 41.5976 47.1537C43.8266 45.8673 45.6772 44.0163 46.9632 41.7871C47.0997 41.5471 47.2823 41.3364 47.5005 41.1672C47.7187 40.998 47.9683 40.8737 48.2348 40.8013C48.5012 40.729 48.7794 40.7101 49.0532 40.7457C49.327 40.7813 49.5911 40.8707 49.8302 41.0087C50.0694 41.1468 50.2788 41.3308 50.4466 41.5501C50.6143 41.7695 50.737 42.0198 50.8075 42.2868C50.8781 42.5537 50.8952 42.832 50.8578 43.1056C50.8204 43.3792 50.7292 43.6426 50.5896 43.8809C48.936 46.7466 46.5568 49.1262 43.6913 50.7802C40.8259 52.4342 37.5753 53.3042 34.2667 53.3027C30.9581 53.3042 27.7075 52.4342 24.8421 50.7802C21.9766 49.1262 19.5974 46.7466 17.9438 43.8809C17.6662 43.4 17.591 42.8285 17.7347 42.2921C17.8784 41.7558 18.2293 41.2985 18.7101 41.0208ZM30.0792 28.1777C30.0792 31.645 28.2032 34.459 25.8917 34.459C23.5802 34.459 21.7042 31.645 21.7042 28.1777C21.7042 24.7105 23.5802 21.8965 25.8917 21.8965C28.2032 21.8965 30.0792 24.7105 30.0792 28.1777ZM46.8292 28.1777C46.8292 31.645 44.9532 34.459 42.6417 34.459C40.3302 34.459 38.4542 31.645 38.4542 28.1777C38.4542 24.7105 40.3302 21.8965 42.6417 21.8965C44.9532 21.8965 46.8292 24.7105 46.8292 28.1777Z" fill="url(#paint1_linear)"/>
<defs>
<linearGradient id="paint0_linear" x1="78.7502" y1="-38.4035" x2="-21.6789" y2="-26.32" gradientUnits="userSpaceOnUse">
<stop stop-color="#EB323B"/>
<stop offset="1" stop-color="#F59288"/>
</linearGradient>
<linearGradient id="paint1_linear" x1="56.322" y1="3.44531" x2="6.62043" y2="9.76951" gradientUnits="userSpaceOnUse">
<stop stop-color="#EB323B"/>
<stop offset="1" stop-color="#F59288"/>
</linearGradient>
</defs>
</svg>
