<svg width="68" height="67" viewBox="0 0 68 67" fill="none" xmlns="http://www.w3.org/2000/svg">
<path d="M33.9473 62.8125C26.1731 62.8125 18.7174 59.7242 13.2202 54.2271C7.72304 48.7299 4.63477 41.2742 4.63477 33.5C4.63477 25.7258 7.72304 18.2701 13.2202 12.7729C18.7174 7.27577 26.1731 4.1875 33.9473 4.1875C41.7214 4.1875 49.1772 7.27577 54.6743 12.7729C60.1715 18.2701 63.2598 25.7258 63.2598 33.5C63.2598 41.2742 60.1715 48.7299 54.6743 54.2271C49.1772 59.7242 41.7214 62.8125 33.9473 62.8125ZM33.9473 67C42.832 67 51.3529 63.4705 57.6353 57.1881C63.9178 50.9056 67.4473 42.3848 67.4473 33.5C67.4473 24.6152 63.9178 16.0944 57.6353 9.81192C51.3529 3.52945 42.832 0 33.9473 0C25.0625 0 16.5417 3.52945 10.2592 9.81192C3.97672 16.0944 0.447266 24.6152 0.447266 33.5C0.447266 42.3848 3.97672 50.9056 10.2592 57.1881C16.5417 63.4705 25.0625 67 33.9473 67Z" fill="white"/>
<path d="M18.3906 40.0618C18.8715 39.7842 19.4429 39.7089 19.9793 39.8526C20.5157 39.9964 20.973 40.3472 21.2506 40.8281C22.5367 43.0573 24.3873 44.9083 26.6162 46.1948C28.8451 47.4812 31.3736 48.1578 33.9471 48.1562C36.5207 48.1578 39.0492 47.4812 41.2781 46.1948C43.507 44.9083 45.3576 43.0573 46.6436 40.8281C46.7801 40.5881 46.9627 40.3774 47.1809 40.2082C47.3992 40.0391 47.6487 39.9147 47.9152 39.8424C48.1817 39.77 48.4598 39.7511 48.7336 39.7867C49.0075 39.8223 49.2715 39.9117 49.5107 40.0497C49.7498 40.1878 49.9592 40.3718 50.127 40.5912C50.2947 40.8105 50.4174 41.0609 50.488 41.3278C50.5585 41.5948 50.5756 41.873 50.5382 42.1466C50.5008 42.4202 50.4097 42.6837 50.27 42.9219C48.6165 45.7876 46.2372 48.1672 43.3718 49.8212C40.5063 51.4752 37.2557 52.3452 33.9471 52.3437C30.6386 52.3452 27.388 51.4752 24.5225 49.8212C21.657 48.1672 19.2778 45.7876 17.6243 42.9219C17.3466 42.441 17.2714 41.8695 17.4151 41.3331C17.5588 40.7968 17.9097 40.3395 18.3906 40.0618ZM29.7596 27.2187C29.7596 30.686 27.8836 33.5 25.5721 33.5C23.2606 33.5 21.3846 30.686 21.3846 27.2187C21.3846 23.7515 23.2606 20.9375 25.5721 20.9375C27.8836 20.9375 29.7596 23.7515 29.7596 27.2187ZM46.5096 27.2187C46.5096 30.686 44.6336 33.5 42.3221 33.5C40.0106 33.5 38.1346 30.686 38.1346 27.2187C38.1346 23.7515 40.0106 20.9375 42.3221 20.9375C44.6336 20.9375 46.5096 23.7515 46.5096 27.2187Z" fill="white"/>
</svg>
