<svg width="70" height="71" viewBox="0 0 70 71" fill="none" xmlns="http://www.w3.org/2000/svg">
<path d="M27.8639 67.375H42.0306M59.7389 67.375V10.7083C59.7389 8.82972 58.9927 7.02804 57.6643 5.69966C56.3359 4.37128 54.5342 3.625 52.6556 3.625H17.2389C15.3603 3.625 13.5586 4.37128 12.2303 5.69966C10.9019 7.02804 10.1556 8.82972 10.1556 10.7083V67.375H59.7389ZM59.7389 67.375H66.8223H59.7389ZM59.7389 67.375H42.0306H59.7389ZM10.1556 67.375H3.07227H10.1556ZM10.1556 67.375H27.8639H10.1556ZM24.3223 17.7917H27.8639H24.3223ZM24.3223 31.9583H27.8639H24.3223ZM42.0306 17.7917H45.5723H42.0306ZM42.0306 31.9583H45.5723H42.0306ZM27.8639 67.375V49.6667C27.8639 48.7274 28.2371 47.8265 28.9013 47.1623C29.5655 46.4981 30.4663 46.125 31.4056 46.125H38.4889C39.4282 46.125 40.3291 46.4981 40.9933 47.1623C41.6575 47.8265 42.0306 48.7274 42.0306 49.6667V67.375H27.8639Z" stroke="white" stroke-width="6" stroke-linecap="round" stroke-linejoin="round"/>
</svg>
