<svg width="71" height="71" viewBox="0 0 71 71" fill="none" xmlns="http://www.w3.org/2000/svg">
<path d="M28.7409 67.334H42.9076M60.6159 67.334V10.6673C60.6159 8.7887 59.8696 6.98703 58.5412 5.65864C57.2128 4.33026 55.4112 3.58398 53.5326 3.58398H18.1159C16.2373 3.58398 14.4356 4.33026 13.1072 5.65864C11.7788 6.98703 11.0326 8.7887 11.0326 10.6673V67.334H60.6159ZM60.6159 67.334H67.6992H60.6159ZM60.6159 67.334H42.9076H60.6159ZM11.0326 67.334H3.94922H11.0326ZM11.0326 67.334H28.7409H11.0326ZM25.1992 17.7507H28.7409H25.1992ZM25.1992 31.9173H28.7409H25.1992ZM42.9076 17.7507H46.4492H42.9076ZM42.9076 31.9173H46.4492H42.9076ZM28.7409 67.334V49.6257C28.7409 48.6863 29.114 47.7855 29.7782 47.1213C30.4424 46.4571 31.3432 46.084 32.2826 46.084H39.3659C40.3052 46.084 41.206 46.4571 41.8702 47.1213C42.5344 47.7855 42.9076 48.6863 42.9076 49.6257V67.334H28.7409Z" stroke="url(#paint0_linear)" stroke-width="6" stroke-linecap="round" stroke-linejoin="round"/>
<defs>
<linearGradient id="paint0_linear" x1="78.15" y1="-33.8691" x2="-17.4076" y2="-22.3718" gradientUnits="userSpaceOnUse">
<stop stop-color="#EB323B"/>
<stop offset="1" stop-color="#F59288"/>
</linearGradient>
</defs>
</svg>
