<svg width="73" height="70" viewBox="0 0 73 70" fill="none" xmlns="http://www.w3.org/2000/svg">
<path d="M30.9198 1.02591C34.4727 -0.340668 38.4062 -0.340668 41.9591 1.02591L67.3893 10.8044C70.3567 11.9473 72.3145 14.8019 72.3145 17.9794V51.9377C72.3146 53.4912 71.8441 55.0084 70.9649 56.2892C70.0857 57.57 68.8391 58.5544 67.3893 59.1127L41.9591 68.8963C38.4062 70.2629 34.4727 70.2629 30.9198 68.8963L5.4947 59.1127C4.04396 58.5552 2.79623 57.5712 1.91607 56.2903C1.03592 55.0094 0.564659 53.4918 0.564453 51.9377V17.9794C0.564659 16.4253 1.03592 14.9077 1.91607 13.6268C2.79623 12.3459 4.04396 11.3618 5.4947 10.8044L30.9198 1.02591ZM40.1192 5.80754C37.7506 4.89648 35.1283 4.89648 32.7597 5.80754L25.6667 8.53916L54.3155 19.3837L64.299 15.1094L40.1192 5.80754ZM67.1895 19.44L39.002 31.5248V64.4683C39.3812 64.3709 39.7502 64.253 40.1192 64.1095L65.5495 54.331C66.0327 54.1446 66.448 53.8161 66.7408 53.3888C67.0336 52.9615 67.19 52.4556 67.1895 51.9377V19.4452V19.44ZM33.877 64.4683V31.5248L5.68945 19.4452V51.9377C5.68891 52.4556 5.84533 52.9615 6.1381 53.3888C6.43087 53.8161 6.84624 54.1446 7.32945 54.331L32.7597 64.1095C33.1287 64.253 33.4977 64.3709 33.877 64.4683ZM8.57995 15.1094L36.4395 27.0507L47.5299 22.2947L18.4866 11.2964L8.57995 15.1094Z" fill="url(#paint0_linear)"/>
<defs>
<linearGradient id="paint0_linear" x1="84.0768" y1="-41.0772" x2="-23.3911" y2="-27.8084" gradientUnits="userSpaceOnUse">
<stop stop-color="#EB323B"/>
<stop offset="1" stop-color="#F59288"/>
</linearGradient>
</defs>
</svg>
