<svg width="73" height="70" viewBox="0 0 73 70" fill="none" xmlns="http://www.w3.org/2000/svg">
<path d="M30.9276 1.06693C34.4805 -0.299653 38.414 -0.299653 41.9669 1.06693L67.3971 10.8454C70.3645 11.9883 72.3223 14.8429 72.3223 18.0204V51.9787C72.3225 53.5322 71.852 55.0494 70.9728 56.3302C70.0936 57.611 68.8469 58.5954 67.3971 59.1537L41.9669 68.9373C38.414 70.3039 34.4805 70.3039 30.9276 68.9373L5.50252 59.1537C4.05177 58.5963 2.80405 57.6122 1.92389 56.3313C1.04373 55.0504 0.572471 53.5328 0.572266 51.9787V18.0204C0.572471 16.4663 1.04373 14.9487 1.92389 13.6678C2.80405 12.3869 4.05177 11.4028 5.50252 10.8454L30.9276 1.06693ZM40.127 5.84855C37.7584 4.9375 35.1361 4.9375 32.7675 5.84855L25.6745 8.58018L54.3233 19.4247L64.3068 15.1504L40.127 5.84855ZM67.1973 19.4811L39.0098 31.5658V64.5093C39.389 64.4119 39.758 64.294 40.127 64.1505L65.5573 54.372C66.0405 54.1856 66.4558 53.8571 66.7486 53.4298C67.0414 53.0026 67.1978 52.4966 67.1973 51.9787V19.4862V19.4811ZM33.8848 64.5093V31.5658L5.69727 19.4862V51.9787C5.69672 52.4966 5.85315 53.0026 6.14591 53.4298C6.43868 53.8571 6.85405 54.1856 7.33727 54.372L32.7675 64.1505C33.1365 64.294 33.5055 64.4119 33.8848 64.5093ZM8.58776 15.1504L36.4473 27.0917L47.5378 22.3357L18.4944 11.3374L8.58776 15.1504Z" fill="white"/>
</svg>
