<svg width="11" height="13" viewBox="0 0 11 13" fill="none" xmlns="http://www.w3.org/2000/svg">
<path fill-rule="evenodd" clip-rule="evenodd" d="M5.80378 12.0804C5.61316 12.0804 5.43034 12.0047 5.29555 11.8699C5.16075 11.7351 5.08503 11.5523 5.08503 11.3616L5.08503 3.0342L2.00016 6.12051C1.93333 6.18734 1.854 6.24035 1.76668 6.27651C1.67937 6.31268 1.58579 6.33129 1.49128 6.33129C1.39677 6.33129 1.30319 6.31268 1.21588 6.27651C1.12857 6.24035 1.04923 6.18734 0.982405 6.12051C0.91558 6.05368 0.86257 5.97435 0.826403 5.88704C0.790237 5.79972 0.771623 5.70614 0.771623 5.61164C0.771623 5.51713 0.790237 5.42355 0.826403 5.33623C0.86257 5.24892 0.91558 5.16959 0.982405 5.10276L5.29491 0.790261C5.36167 0.723326 5.44099 0.670221 5.52831 0.633987C5.61563 0.597752 5.70924 0.579101 5.80378 0.579101C5.89832 0.579101 5.99193 0.597752 6.07925 0.633987C6.16657 0.670221 6.24589 0.723326 6.31265 0.790261L10.6252 5.10276C10.7601 5.23772 10.8359 5.42077 10.8359 5.61164C10.8359 5.8025 10.7601 5.98555 10.6252 6.12051C10.4902 6.25547 10.3071 6.33129 10.1163 6.33129C9.92541 6.33129 9.74237 6.25547 9.6074 6.12051L6.52253 3.0342L6.52253 11.3616C6.52253 11.5523 6.4468 11.7351 6.31201 11.8699C6.17722 12.0047 5.9944 12.0804 5.80378 12.0804Z" fill="url(#paint0_linear)"/>
<defs>
<linearGradient id="paint0_linear" x1="16.7487" y1="13.9658" x2="14.3886" y2="-3.19898" gradientUnits="userSpaceOnUse">
<stop stop-color="#EB323B"/>
<stop offset="1" stop-color="#F59288"/>
</linearGradient>
</defs>
</svg>
