<svg width="11" height="13" viewBox="0 0 11 13" fill="none" xmlns="http://www.w3.org/2000/svg">
<path fill-rule="evenodd" clip-rule="evenodd" d="M5.8056 0.74481C5.99622 0.74481 6.17904 0.820534 6.31383 0.955327C6.44862 1.09012 6.52435 1.27294 6.52435 1.46356L6.52435 9.791L9.60922 6.70468C9.67605 6.63786 9.75538 6.58485 9.8427 6.54868C9.93001 6.51252 10.0236 6.4939 10.1181 6.4939C10.2126 6.4939 10.3062 6.51252 10.3935 6.54868C10.4808 6.58485 10.5601 6.63786 10.627 6.70468C10.6938 6.77151 10.7468 6.85084 10.783 6.93816C10.8191 7.02547 10.8378 7.11905 10.8378 7.21356C10.8378 7.30807 10.8191 7.40165 10.783 7.48896C10.7468 7.57627 10.6938 7.65561 10.627 7.72243L6.31447 12.0349C6.24771 12.1019 6.16839 12.155 6.08107 12.1912C5.99375 12.2274 5.90014 12.2461 5.8056 12.2461C5.71106 12.2461 5.61744 12.2274 5.53012 12.1912C5.4428 12.155 5.36349 12.1019 5.29672 12.0349L0.98422 7.72243C0.849258 7.58747 0.773437 7.40442 0.773437 7.21356C0.773437 7.02269 0.849258 6.83965 0.98422 6.70468C1.11918 6.56972 1.30223 6.4939 1.4931 6.4939C1.68396 6.4939 1.86701 6.56972 2.00197 6.70468L5.08685 9.791L5.08685 1.46356C5.08685 1.27294 5.16257 1.09012 5.29736 0.955327C5.43216 0.820535 5.61497 0.74481 5.8056 0.74481Z" fill="url(#paint0_linear)"/>
<defs>
<linearGradient id="paint0_linear" x1="5.8056" y1="-4.34652" x2="5.99169" y2="21.9879" gradientUnits="userSpaceOnUse">
<stop stop-color="#03006C"/>
<stop offset="1" stop-color="#ABA9F7"/>
</linearGradient>
</defs>
</svg>
