<svg width="25" height="25" viewBox="0 0 25 25" fill="none" xmlns="http://www.w3.org/2000/svg">
<path d="M5.44727 20.749C5.44727 21.852 6.34427 22.749 7.44727 22.749H17.4473C18.5503 22.749 19.4473 21.852 19.4473 20.749V8.74902H21.4473V6.74902H17.4473V4.74902C17.4473 3.64602 16.5503 2.74902 15.4473 2.74902H9.44727C8.34427 2.74902 7.44727 3.64602 7.44727 4.74902V6.74902H3.44727V8.74902H5.44727V20.749ZM9.44727 4.74902H15.4473V6.74902H9.44727V4.74902ZM8.44727 8.74902H17.4473L17.4483 20.749H7.44727V8.74902H8.44727Z" fill="#EB4838"/>
<path d="M9.44727 10.749H11.4473V18.749H9.44727V10.749ZM13.4473 10.749H15.4473V18.749H13.4473V10.749Z" fill="#EB4838"/>
</svg>
