<svg width="20" height="25" viewBox="0 0 20 25" fill="none" xmlns="http://www.w3.org/2000/svg">
  <path d="M2.08859 3.17917L2.08496 5.74447V18.4368C2.08496 19.4783 2.49871 20.4772 3.23518 21.2137C3.97165 21.9501 4.97052 22.3639 6.01204 22.3639H16.423C16.2354 22.894 15.8881 23.3529 15.429 23.6775C14.9698 24.0021 14.4213 24.1764 13.859 24.1764H6.01204C4.48981 24.1764 3.02993 23.5717 1.95355 22.4953C0.877166 21.4189 0.272461 19.959 0.272461 18.4368V5.74447C0.272461 4.5603 1.03009 3.55134 2.08859 3.17917ZM11.3021 0.00488281C12.0235 0.00488281 12.7159 0.291258 13.2258 0.802383L18.8059 6.38488C19.3158 6.8948 19.6022 7.58717 19.6022 8.30734V18.4368C19.6022 19.1579 19.3157 19.8494 18.8059 20.3592C18.296 20.8691 17.6045 21.1556 16.8834 21.1556H6.01446C5.2934 21.1556 4.60188 20.8691 4.09201 20.3592C3.58215 19.8494 3.29571 19.1579 3.29571 18.4368V2.72363C3.29571 2.00258 3.58215 1.31105 4.09201 0.801186C4.60188 0.291322 5.2934 0.00488281 6.01446 0.00488281H11.3021ZM11.1475 1.81738H6.01446C5.77411 1.81738 5.5436 1.91286 5.37365 2.08282C5.20369 2.25277 5.10821 2.48328 5.10821 2.72363V18.4368C5.10821 18.937 5.51421 19.3431 6.01446 19.3431H16.8834C17.1238 19.3431 17.3543 19.2476 17.5242 19.0776C17.6942 18.9077 17.7897 18.6772 17.7897 18.4368V8.46684H13.8662C13.1775 8.46695 12.5144 8.20567 12.0109 7.7358C11.5074 7.26592 11.2009 6.62246 11.1535 5.93538L11.1475 5.7493V1.81738ZM12.96 3.09942L12.9612 5.7493C12.9612 6.20847 13.3019 6.58668 13.7442 6.64709L13.8674 6.65555L16.5137 6.65434L12.9612 3.09942H12.96Z" fill="#353299" />
</svg>
  