<svg width="17" height="20" viewBox="0 0 17 20" fill="none" xmlns="http://www.w3.org/2000/svg">
<path d="M15.129 5.15039C15.507 4.77239 15.715 4.27039 15.715 3.73639C15.715 3.20239 15.507 2.70039 15.129 2.32239L13.543 0.736391C13.165 0.358391 12.663 0.150391 12.129 0.150391C11.595 0.150391 11.093 0.358391 10.716 0.735391L0.0839844 11.3344V15.7494H4.49698L15.129 5.15039ZM12.129 2.15039L13.716 3.73539L12.126 5.31939L10.54 3.73439L12.129 2.15039ZM2.08398 13.7494V12.1644L9.12398 5.14639L10.71 6.73239L3.67098 13.7494H2.08398ZM0.0839844 17.7494H16.084V19.7494H0.0839844V17.7494Z" fill="#353299"/>
</svg>
