<svg width="19" height="27" viewBox="0 0 19 27" fill="none" xmlns="http://www.w3.org/2000/svg">
<path d="M18.9808 9.6237C18.9808 8.43633 18.7469 7.26059 18.2925 6.1636C17.8382 5.06662 17.1721 4.06987 16.3326 3.23027C15.493 2.39068 14.4962 1.72467 13.3992 1.27029C12.3022 0.815901 11.1265 0.582031 9.93913 0.582031C8.75176 0.582031 7.57602 0.815901 6.47903 1.27029C5.38205 1.72467 4.3853 2.39068 3.5457 3.23027C2.70611 4.06987 2.0401 5.06662 1.58572 6.1636C1.13133 7.26059 0.897461 8.43633 0.897461 9.6237C0.897461 11.4152 1.42704 13.0815 2.32475 14.4868H2.31442C5.36275 19.2595 9.93913 26.4154 9.93913 26.4154L17.5638 14.4868H17.5548C18.4853 13.0355 18.9802 11.3477 18.9808 9.6237ZM9.93913 13.4987C8.91142 13.4987 7.92579 13.0904 7.19909 12.3637C6.47239 11.637 6.06413 10.6514 6.06413 9.6237C6.06413 8.59598 6.47239 7.61036 7.19909 6.88366C7.92579 6.15696 8.91142 5.7487 9.93913 5.7487C10.9668 5.7487 11.9525 6.15696 12.6792 6.88366C13.4059 7.61036 13.8141 8.59598 13.8141 9.6237C13.8141 10.6514 13.4059 11.637 12.6792 12.3637C11.9525 13.0904 10.9668 13.4987 9.93913 13.4987Z" fill="black" fill-opacity="0.8"/>
</svg>
