<svg width="14" height="15" viewBox="0 0 14 15" fill="none" xmlns="http://www.w3.org/2000/svg">
<path d="M1.68164 1.96576H12.3066C12.3608 1.96576 12.4127 1.98727 12.451 2.02555C12.4893 2.06384 12.5108 2.11577 12.5108 2.16992V12.7949C12.5108 12.8491 12.4893 12.901 12.451 12.9393C12.4127 12.9776 12.3608 12.9991 12.3066 12.9991H1.68164C1.62749 12.9991 1.57556 12.9776 1.53727 12.9393C1.49898 12.901 1.47747 12.8491 1.47747 12.7949V2.16992C1.47747 2.11577 1.49898 2.06384 1.53727 2.02555C1.57556 1.98727 1.62749 1.96576 1.68164 1.96576ZM1.68164 0.957422C1.36007 0.957422 1.05166 1.08517 0.824274 1.31255C0.596886 1.53994 0.469141 1.84835 0.469141 2.16992V12.7949C0.469141 13.1165 0.596886 13.4249 0.824274 13.6523C1.05166 13.8797 1.36007 14.0074 1.68164 14.0074H12.3066C12.6282 14.0074 12.9366 13.8797 13.164 13.6523C13.3914 13.4249 13.5191 13.1165 13.5191 12.7949V2.16992C13.5191 1.84835 13.3914 1.53994 13.164 1.31255C12.9366 1.08517 12.6282 0.957422 12.3066 0.957422H1.68164Z" fill="url(#paint0_linear)" stroke="url(#paint1_linear)" stroke-width="0.3"/>
<path d="M5.22266 6.06567C5.22266 6.34747 5.11071 6.61772 4.91146 6.81698C4.7122 7.01623 4.44195 7.12817 4.16016 7.12817C3.87836 7.12817 3.60811 7.01623 3.40886 6.81698C3.2096 6.61772 3.09766 6.34747 3.09766 6.06567C3.09766 5.78388 3.2096 5.51363 3.40886 5.31437C3.60811 5.11512 3.87836 5.00317 4.16016 5.00317C4.44195 5.00317 4.7122 5.11512 4.91146 5.31437C5.11071 5.51363 5.22266 5.78388 5.22266 6.06567Z" fill="url(#paint2_linear)"/>
<path d="M5.22266 6.06567C5.22266 6.34747 5.11071 6.61772 4.91146 6.81698C4.7122 7.01623 4.44195 7.12817 4.16016 7.12817C3.87836 7.12817 3.60811 7.01623 3.40886 6.81698C3.2096 6.61772 3.09766 6.34747 3.09766 6.06567C3.09766 5.78388 3.2096 5.51363 3.40886 5.31437C3.60811 5.11512 3.87836 5.00317 4.16016 5.00317C4.44195 5.00317 4.7122 5.11512 4.91146 5.31437C5.11071 5.51363 5.22266 5.78388 5.22266 6.06567Z" stroke="url(#paint3_linear)"/>
<path d="M2.83416 8.62992C2.75978 8.70465 2.74349 8.76061 2.74349 8.8024V9.96159H2.03516V8.8024C2.03516 8.52332 2.1662 8.29771 2.33159 8.1309C2.49416 7.96763 2.70347 7.84509 2.91136 7.75407C3.32503 7.57344 3.81591 7.48242 4.16016 7.48242C4.50405 7.48242 4.99528 7.57344 5.40895 7.75407C5.61684 7.84509 5.82616 7.96763 5.98872 8.1309C6.15447 8.29771 6.28516 8.52332 6.28516 8.8024V9.96159H5.57682V8.8024C5.57682 8.76061 5.56018 8.70465 5.48616 8.63028C5.40895 8.55236 5.28641 8.47373 5.12526 8.40326C4.80155 8.26159 4.40701 8.19076 4.16016 8.19076C3.9133 8.19076 3.51911 8.26159 3.19505 8.40326C3.03391 8.47338 2.91172 8.552 2.83416 8.62992Z" fill="url(#paint4_linear)"/>
<path d="M2.83416 8.62992C2.75978 8.70465 2.74349 8.76061 2.74349 8.8024V9.96159H2.03516V8.8024C2.03516 8.52332 2.1662 8.29771 2.33159 8.1309C2.49416 7.96763 2.70347 7.84509 2.91136 7.75407C3.32503 7.57344 3.81591 7.48242 4.16016 7.48242C4.50405 7.48242 4.99528 7.57344 5.40895 7.75407C5.61684 7.84509 5.82616 7.96763 5.98872 8.1309C6.15447 8.29771 6.28516 8.52332 6.28516 8.8024V9.96159H5.57682V8.8024C5.57682 8.76061 5.56018 8.70465 5.48616 8.63028C5.40895 8.55236 5.28641 8.47373 5.12526 8.40326C4.80155 8.26159 4.40701 8.19076 4.16016 8.19076C3.9133 8.19076 3.51911 8.26159 3.19505 8.40326C3.03391 8.47338 2.91172 8.552 2.83416 8.62992Z" stroke="url(#paint5_linear)"/>
<path d="M8.50213 8.62992C8.42775 8.70465 8.41146 8.76061 8.41146 8.8024V9.96159H7.70312V8.8024C7.70312 8.52332 7.83417 8.29771 7.99956 8.1309C8.16212 7.96763 8.37144 7.84509 8.57933 7.75407C8.993 7.57344 9.48423 7.48242 9.82812 7.48242C10.172 7.48242 10.6633 7.57344 11.0769 7.75407C11.2848 7.84509 11.4941 7.96763 11.6567 8.1309C11.8224 8.29771 11.9531 8.52332 11.9531 8.8024V9.96159H11.2448V8.8024C11.2448 8.76061 11.2281 8.70465 11.1541 8.63028C11.0769 8.55236 10.9544 8.47373 10.7932 8.40326C10.4695 8.26159 10.075 8.19076 9.82812 8.19076C9.58127 8.19076 9.18708 8.26159 8.86302 8.40326C8.70187 8.47338 8.57969 8.552 8.50213 8.62992Z" fill="url(#paint6_linear)"/>
<path d="M8.50213 8.62992C8.42775 8.70465 8.41146 8.76061 8.41146 8.8024V9.96159H7.70312V8.8024C7.70312 8.52332 7.83417 8.29771 7.99956 8.1309C8.16212 7.96763 8.37144 7.84509 8.57933 7.75407C8.993 7.57344 9.48423 7.48242 9.82812 7.48242C10.172 7.48242 10.6633 7.57344 11.0769 7.75407C11.2848 7.84509 11.4941 7.96763 11.6567 8.1309C11.8224 8.29771 11.9531 8.52332 11.9531 8.8024V9.96159H11.2448V8.8024C11.2448 8.76061 11.2281 8.70465 11.1541 8.63028C11.0769 8.55236 10.9544 8.47373 10.7932 8.40326C10.4695 8.26159 10.075 8.19076 9.82812 8.19076C9.58127 8.19076 9.18708 8.26159 8.86302 8.40326C8.70187 8.47338 8.57969 8.552 8.50213 8.62992Z" stroke="url(#paint7_linear)"/>
<path d="M10.8906 6.06567C10.8906 6.34747 10.7787 6.61772 10.5794 6.81698C10.3802 7.01623 10.1099 7.12817 9.82812 7.12817C9.54633 7.12817 9.27608 7.01623 9.07682 6.81698C8.87757 6.61772 8.76562 6.34747 8.76562 6.06567C8.76562 5.78388 8.87757 5.51363 9.07682 5.31437C9.27608 5.11512 9.54633 5.00317 9.82812 5.00317C10.1099 5.00317 10.3802 5.11512 10.5794 5.31437C10.7787 5.51363 10.8906 5.78388 10.8906 6.06567Z" fill="url(#paint8_linear)"/>
<path d="M10.8906 6.06567C10.8906 6.34747 10.7787 6.61772 10.5794 6.81698C10.3802 7.01623 10.1099 7.12817 9.82812 7.12817C9.54633 7.12817 9.27608 7.01623 9.07682 6.81698C8.87757 6.61772 8.76562 6.34747 8.76562 6.06567C8.76562 5.78388 8.87757 5.51363 9.07682 5.31437C9.27608 5.11512 9.54633 5.00317 9.82812 5.00317C10.1099 5.00317 10.3802 5.11512 10.5794 5.31437C10.7787 5.51363 10.8906 5.78388 10.8906 6.06567Z" stroke="url(#paint9_linear)"/>
<path d="M8.05664 5.35742C8.05664 5.63921 7.9447 5.90947 7.74544 6.10872C7.54618 6.30798 7.27593 6.41992 6.99414 6.41992C6.71235 6.41992 6.4421 6.30798 6.24284 6.10872C6.04358 5.90947 5.93164 5.63921 5.93164 5.35742C5.93164 5.07563 6.04358 4.80538 6.24284 4.60612C6.4421 4.40686 6.71235 4.29492 6.99414 4.29492C7.27593 4.29492 7.54618 4.40686 7.74544 4.60612C7.9447 4.80538 8.05664 5.07563 8.05664 5.35742Z" fill="url(#paint10_linear)"/>
<path d="M8.05664 5.35742C8.05664 5.63921 7.9447 5.90947 7.74544 6.10872C7.54618 6.30798 7.27593 6.41992 6.99414 6.41992C6.71235 6.41992 6.4421 6.30798 6.24284 6.10872C6.04358 5.90947 5.93164 5.63921 5.93164 5.35742C5.93164 5.07563 6.04358 4.80538 6.24284 4.60612C6.4421 4.40686 6.71235 4.29492 6.99414 4.29492C7.27593 4.29492 7.54618 4.40686 7.74544 4.60612C7.9447 4.80538 8.05664 5.07563 8.05664 5.35742Z" stroke="url(#paint11_linear)"/>
<path d="M6.5319 7.83468C6.43167 7.84459 6.39731 7.86726 6.37217 7.89524L5.84375 7.42349C6.02969 7.21524 6.26167 7.14936 6.46283 7.12953C6.58178 7.11812 6.72841 7.1219 6.85064 7.12505C6.85361 7.12513 6.85656 7.1252 6.8595 7.12528C6.86418 7.12541 6.86882 7.12554 6.87341 7.12567C6.91828 7.12695 6.95932 7.12811 6.99338 7.12811C7.02719 7.12811 7.0679 7.12696 7.11265 7.1257C7.11759 7.12556 7.12257 7.12542 7.1276 7.12528C7.25121 7.12174 7.40208 7.1182 7.52356 7.12988C7.72544 7.14936 7.95706 7.21524 8.143 7.42349L7.61458 7.89524C7.58979 7.86726 7.55508 7.84459 7.45485 7.83503C7.38959 7.82982 7.32408 7.8284 7.25865 7.83078L7.18711 7.83255C7.18391 7.83265 7.1807 7.83274 7.17746 7.83284C7.11966 7.83454 7.05509 7.83645 6.99338 7.83645C6.94108 7.83645 6.88673 7.83508 6.83619 7.83381C6.82375 7.83349 6.81154 7.83319 6.79965 7.83291L6.7281 7.83078C6.66268 7.82828 6.59717 7.82958 6.5319 7.83468Z" fill="url(#paint12_linear)"/>
<path d="M6.5319 7.83468C6.43167 7.84459 6.39731 7.86726 6.37217 7.89524L5.84375 7.42349C6.02969 7.21524 6.26167 7.14936 6.46283 7.12953C6.58178 7.11812 6.72841 7.1219 6.85064 7.12505C6.85361 7.12513 6.85656 7.1252 6.8595 7.12528C6.86418 7.12541 6.86882 7.12554 6.87341 7.12567C6.91828 7.12695 6.95932 7.12811 6.99338 7.12811C7.02719 7.12811 7.0679 7.12696 7.11265 7.1257C7.11759 7.12556 7.12257 7.12542 7.1276 7.12528C7.25121 7.12174 7.40208 7.1182 7.52356 7.12988C7.72544 7.14936 7.95706 7.21524 8.143 7.42349L7.61458 7.89524C7.58979 7.86726 7.55508 7.84459 7.45485 7.83503C7.38959 7.82982 7.32408 7.8284 7.25865 7.83078L7.18711 7.83255C7.18391 7.83265 7.1807 7.83274 7.17746 7.83284C7.11966 7.83454 7.05509 7.83645 6.99338 7.83645C6.94108 7.83645 6.88673 7.83508 6.83619 7.83381C6.82375 7.83349 6.81154 7.83319 6.79965 7.83291L6.7281 7.83078C6.66268 7.82828 6.59717 7.82958 6.5319 7.83468Z" stroke="url(#paint13_linear)"/>
<defs>
<linearGradient id="paint0_linear" x1="19.0132" y1="7.48243" x2="-10.1807" y2="7.66295" gradientUnits="userSpaceOnUse">
<stop stop-color="#03006C"/>
<stop offset="1" stop-color="#ABA9F7"/>
</linearGradient>
<linearGradient id="paint1_linear" x1="19.0132" y1="7.48243" x2="-10.1807" y2="7.66295" gradientUnits="userSpaceOnUse">
<stop stop-color="#03006C"/>
<stop offset="1" stop-color="#ABA9F7"/>
</linearGradient>
<linearGradient id="paint2_linear" x1="6.16334" y1="6.06568" x2="1.29768" y2="6.09576" gradientUnits="userSpaceOnUse">
<stop stop-color="#03006C"/>
<stop offset="1" stop-color="#ABA9F7"/>
</linearGradient>
<linearGradient id="paint3_linear" x1="6.16334" y1="6.06568" x2="1.29768" y2="6.09576" gradientUnits="userSpaceOnUse">
<stop stop-color="#03006C"/>
<stop offset="1" stop-color="#ABA9F7"/>
</linearGradient>
<linearGradient id="paint4_linear" x1="8.16653" y1="8.72201" x2="-1.56407" y2="8.82515" gradientUnits="userSpaceOnUse">
<stop stop-color="#03006C"/>
<stop offset="1" stop-color="#ABA9F7"/>
</linearGradient>
<linearGradient id="paint5_linear" x1="8.16653" y1="8.72201" x2="-1.56407" y2="8.82515" gradientUnits="userSpaceOnUse">
<stop stop-color="#03006C"/>
<stop offset="1" stop-color="#ABA9F7"/>
</linearGradient>
<linearGradient id="paint6_linear" x1="13.8345" y1="8.72201" x2="4.1039" y2="8.82515" gradientUnits="userSpaceOnUse">
<stop stop-color="#03006C"/>
<stop offset="1" stop-color="#ABA9F7"/>
</linearGradient>
<linearGradient id="paint7_linear" x1="13.8345" y1="8.72201" x2="4.1039" y2="8.82515" gradientUnits="userSpaceOnUse">
<stop stop-color="#03006C"/>
<stop offset="1" stop-color="#ABA9F7"/>
</linearGradient>
<linearGradient id="paint8_linear" x1="11.8313" y1="6.06568" x2="6.96565" y2="6.09576" gradientUnits="userSpaceOnUse">
<stop stop-color="#03006C"/>
<stop offset="1" stop-color="#ABA9F7"/>
</linearGradient>
<linearGradient id="paint9_linear" x1="11.8313" y1="6.06568" x2="6.96565" y2="6.09576" gradientUnits="userSpaceOnUse">
<stop stop-color="#03006C"/>
<stop offset="1" stop-color="#ABA9F7"/>
</linearGradient>
<linearGradient id="paint10_linear" x1="8.99733" y1="5.35742" x2="4.13167" y2="5.38751" gradientUnits="userSpaceOnUse">
<stop stop-color="#03006C"/>
<stop offset="1" stop-color="#ABA9F7"/>
</linearGradient>
<linearGradient id="paint11_linear" x1="8.99733" y1="5.35742" x2="4.13167" y2="5.38751" gradientUnits="userSpaceOnUse">
<stop stop-color="#03006C"/>
<stop offset="1" stop-color="#ABA9F7"/>
</linearGradient>
<linearGradient id="paint12_linear" x1="9.16082" y1="7.50853" x2="3.89776" y2="7.60528" gradientUnits="userSpaceOnUse">
<stop stop-color="#03006C"/>
<stop offset="1" stop-color="#ABA9F7"/>
</linearGradient>
<linearGradient id="paint13_linear" x1="9.16082" y1="7.50853" x2="3.89776" y2="7.60528" gradientUnits="userSpaceOnUse">
<stop stop-color="#03006C"/>
<stop offset="1" stop-color="#ABA9F7"/>
</linearGradient>
</defs>
</svg>
