<svg width="22" height="23" viewBox="0 0 22 23" fill="none" xmlns="http://www.w3.org/2000/svg">
<path d="M19.1249 22.0449H18.9868C3.02118 21.1268 0.754301 7.65555 0.437426 3.5443C0.411894 3.22464 0.449686 2.90309 0.548637 2.59807C0.647589 2.29304 0.805754 2.01054 1.01407 1.76675C1.22239 1.52296 1.47676 1.32267 1.76262 1.17735C2.04848 1.03204 2.3602 0.944558 2.67993 0.919923H7.1568C7.48225 0.919608 7.8003 1.01702 8.06975 1.19955C8.3392 1.38208 8.54763 1.64132 8.66805 1.94367L9.90305 4.98242C10.022 5.2778 10.0515 5.60161 9.98791 5.91362C9.92436 6.22563 9.77053 6.51209 9.54555 6.73742L7.81493 8.4843C8.08526 10.0205 8.82095 11.4367 9.92247 12.5411C11.024 13.6455 12.4382 14.3849 13.9737 14.6593L15.7368 12.9124C15.9655 12.6899 16.2547 12.5397 16.5682 12.4804C16.8818 12.4212 17.2058 12.4556 17.4999 12.5793L20.5631 13.8062C20.8608 13.9304 21.1149 14.1405 21.2929 14.4096C21.4709 14.6787 21.5647 14.9948 21.5624 15.3174V19.6074C21.5624 20.2539 21.3056 20.8739 20.8485 21.331C20.3914 21.7881 19.7714 22.0449 19.1249 22.0449ZM2.87493 2.54492C2.65944 2.54492 2.45278 2.63053 2.3004 2.7829C2.14803 2.93527 2.06243 3.14193 2.06243 3.35742V3.42242C2.43618 8.23242 4.83305 19.6074 19.0762 20.4199C19.1829 20.4265 19.2899 20.412 19.391 20.3771C19.4921 20.3423 19.5854 20.2878 19.6654 20.2169C19.7454 20.1459 19.8106 20.0599 19.8573 19.9636C19.904 19.8674 19.9312 19.7629 19.9374 19.6562V15.3174L16.8743 14.0905L14.5424 16.4062L14.1524 16.3574C7.08368 15.4718 6.12493 8.40305 6.12493 8.32992L6.07618 7.93992L8.38368 5.60805L7.16493 2.54492H2.87493Z" fill="#2F2F30"/>
</svg>
